<svg width="50" height="50" viewBox="0 0 50 50" fill="none" xmlns="http://www.w3.org/2000/svg">
<mask id="path-1-inside-1_20_126" fill="white">
<path fill-rule="evenodd" clip-rule="evenodd" d="M32.3919 34.796C33.5089 33.5047 33.9849 31.8838 33.7696 30.108L33.7696 30.108C33.507 27.9455 32.3831 26.2506 30.429 25.0725C29.8397 24.7165 29.1859 24.412 28.446 24.1518L41.7056 10.8922C44.9293 14.7036 46.875 19.6288 46.875 25C46.875 37.0622 37.062 46.8752 24.9998 46.8752C19.6286 46.8752 14.7034 44.9295 10.892 41.7057L17.9116 34.6862C19.246 36.2083 21.1838 37.2332 23.4382 37.5653V39.3169C23.4382 40.1797 24.1377 40.8792 25.0005 40.8792C25.8633 40.8792 26.5628 40.1797 26.5628 39.3169V37.5877C28.9817 37.2877 31.105 36.2839 32.3919 34.796ZM8.7382 39.6169C5.24992 35.74 3.12458 30.6136 3.12458 25C3.12458 12.9378 12.9376 3.12477 24.9998 3.12477C30.6134 3.12477 35.7398 5.25011 39.6167 8.73839L32.3115 16.0436C30.8952 13.9131 28.7461 12.7938 26.5624 12.4464V10.6841C26.5624 9.82128 25.8629 9.1218 25.0001 9.1218C24.1373 9.1218 23.4378 9.82128 23.4378 10.6841V12.4599C23.2701 12.488 23.1034 12.5192 22.9397 12.5565C19.1808 13.409 16.7682 16.3015 16.9359 19.7546C17.04 21.9023 18.1361 24.5652 22.437 25.9181L18.5846 29.7705C18.2354 29.5471 17.7984 29.4623 17.3644 29.5703C16.5268 29.7786 16.0174 30.6269 16.2262 31.464C16.2699 31.6392 16.3192 31.8116 16.3741 31.981L8.7382 39.6169ZM20.1189 32.4788C21.3594 34.0417 23.4968 34.5978 25.2579 34.5553C27.249 34.5077 29.1212 33.8002 30.0279 32.7521C30.567 32.1281 30.7765 31.3872 30.6674 30.4852C30.4333 28.558 28.9544 27.3615 25.916 26.6817L20.1189 32.4788ZM25.0208 23.3343L30.0303 18.3248C28.9767 16.2675 26.9823 15.4323 25.0598 15.4416C25.0504 15.4418 25.041 15.4425 25.0317 15.4433C25.0211 15.4441 25.0105 15.4449 24.9997 15.4449C24.994 15.4449 24.9884 15.4446 24.9828 15.4442C24.9773 15.4438 24.9718 15.4435 24.9664 15.4435C24.5115 15.4523 24.0618 15.5068 23.6304 15.605C21.829 16.0137 19.9445 17.2786 20.0572 19.6037C20.1172 20.8426 20.7032 22.5645 25.0208 23.3343ZM25 50C38.7853 50 50 38.7853 50 25C50 11.2147 38.7853 0 25 0C11.2147 0 0 11.2147 0 25C0 38.7853 11.2147 50 25 50Z"/>
</mask>
<path fill-rule="evenodd" clip-rule="evenodd" d="M32.3919 34.796C33.5089 33.5047 33.9849 31.8838 33.7696 30.108L33.7696 30.108C33.507 27.9455 32.3831 26.2506 30.429 25.0725C29.8397 24.7165 29.1859 24.412 28.446 24.1518L41.7056 10.8922C44.9293 14.7036 46.875 19.6288 46.875 25C46.875 37.0622 37.062 46.8752 24.9998 46.8752C19.6286 46.8752 14.7034 44.9295 10.892 41.7057L17.9116 34.6862C19.246 36.2083 21.1838 37.2332 23.4382 37.5653V39.3169C23.4382 40.1797 24.1377 40.8792 25.0005 40.8792C25.8633 40.8792 26.5628 40.1797 26.5628 39.3169V37.5877C28.9817 37.2877 31.105 36.2839 32.3919 34.796ZM8.7382 39.6169C5.24992 35.74 3.12458 30.6136 3.12458 25C3.12458 12.9378 12.9376 3.12477 24.9998 3.12477C30.6134 3.12477 35.7398 5.25011 39.6167 8.73839L32.3115 16.0436C30.8952 13.9131 28.7461 12.7938 26.5624 12.4464V10.6841C26.5624 9.82128 25.8629 9.1218 25.0001 9.1218C24.1373 9.1218 23.4378 9.82128 23.4378 10.6841V12.4599C23.2701 12.488 23.1034 12.5192 22.9397 12.5565C19.1808 13.409 16.7682 16.3015 16.9359 19.7546C17.04 21.9023 18.1361 24.5652 22.437 25.9181L18.5846 29.7705C18.2354 29.5471 17.7984 29.4623 17.3644 29.5703C16.5268 29.7786 16.0174 30.6269 16.2262 31.464C16.2699 31.6392 16.3192 31.8116 16.3741 31.981L8.7382 39.6169ZM20.1189 32.4788C21.3594 34.0417 23.4968 34.5978 25.2579 34.5553C27.249 34.5077 29.1212 33.8002 30.0279 32.7521C30.567 32.1281 30.7765 31.3872 30.6674 30.4852C30.4333 28.558 28.9544 27.3615 25.916 26.6817L20.1189 32.4788ZM25.0208 23.3343L30.0303 18.3248C28.9767 16.2675 26.9823 15.4323 25.0598 15.4416C25.0504 15.4418 25.041 15.4425 25.0317 15.4433C25.0211 15.4441 25.0105 15.4449 24.9997 15.4449C24.994 15.4449 24.9884 15.4446 24.9828 15.4442C24.9773 15.4438 24.9718 15.4435 24.9664 15.4435C24.5115 15.4523 24.0618 15.5068 23.6304 15.605C21.829 16.0137 19.9445 17.2786 20.0572 19.6037C20.1172 20.8426 20.7032 22.5645 25.0208 23.3343ZM25 50C38.7853 50 50 38.7853 50 25C50 11.2147 38.7853 0 25 0C11.2147 0 0 11.2147 0 25C0 38.7853 11.2147 50 25 50Z" fill="url(#paint0_linear_20_126)"/>
<path d="M33.7696 30.108L33.6771 29.4141L32.9914 29.5056L33.0747 30.1923L33.7696 30.108ZM32.3919 34.796L31.8625 34.3381L31.8625 34.3381L32.3919 34.796ZM33.7696 30.108L33.8622 30.8019L34.5479 30.7104L34.4645 30.0236L33.7696 30.108ZM30.429 25.0725L30.067 25.6716L30.0676 25.6719L30.429 25.0725ZM28.446 24.1518L27.951 23.6568L27.1646 24.4432L28.2137 24.8121L28.446 24.1518ZM41.7056 10.8922L42.24 10.4401L41.7486 9.85916L41.2106 10.3972L41.7056 10.8922ZM10.892 41.7057L10.397 41.2108L9.85898 41.7488L10.4399 42.2402L10.892 41.7057ZM17.9116 34.6862L18.4379 34.2247L17.9452 33.6626L17.4166 34.1912L17.9116 34.6862ZM23.4382 37.5653H24.1382V36.9608L23.5402 36.8727L23.4382 37.5653ZM26.5628 37.5877L26.4766 36.893L25.8628 36.9691V37.5877H26.5628ZM8.7382 39.6169L8.21783 40.0851L8.7114 40.6337L9.23318 40.1119L8.7382 39.6169ZM39.6167 8.73839L40.1117 9.23337L40.6335 8.71159L40.0849 8.21802L39.6167 8.73839ZM32.3115 16.0436L31.7285 16.4311L32.2018 17.1432L32.8064 16.5386L32.3115 16.0436ZM26.5624 12.4464H25.8624V13.0438L26.4524 13.1377L26.5624 12.4464ZM23.4378 12.4599L23.5538 13.1502L24.1378 13.052V12.4599H23.4378ZM22.9397 12.5565L23.0945 13.2392L23.0955 13.239L22.9397 12.5565ZM16.9359 19.7546L17.6351 19.7207L17.6351 19.7206L16.9359 19.7546ZM22.437 25.9181L22.932 26.413L23.7483 25.5967L22.6471 25.2503L22.437 25.9181ZM18.5846 29.7705L18.2074 30.3602L18.6816 30.6635L19.0796 30.2655L18.5846 29.7705ZM17.3644 29.5703L17.5334 30.2496L17.5335 30.2496L17.3644 29.5703ZM16.2262 31.464L15.547 31.6334V31.6334L16.2262 31.464ZM16.3741 31.981L16.869 32.476L17.172 32.1731L17.0401 31.7655L16.3741 31.981ZM20.1189 32.4788L19.6239 31.9838L19.1826 32.4252L19.5706 32.914L20.1189 32.4788ZM25.2579 34.5553L25.2412 33.8555H25.241L25.2579 34.5553ZM30.0279 32.7521L30.5573 33.2101L30.5577 33.2097L30.0279 32.7521ZM30.6674 30.4852L31.3623 30.4011L31.3622 30.4008L30.6674 30.4852ZM25.916 26.6817L26.0688 25.9986L25.6932 25.9146L25.421 26.1868L25.916 26.6817ZM25.0208 23.3343L24.898 24.0234L25.2575 24.0875L25.5158 23.8292L25.0208 23.3343ZM30.0303 18.3248L30.5252 18.8198L30.8856 18.4594L30.6533 18.0058L30.0303 18.3248ZM25.0598 15.4416L25.0564 14.7416L25.0471 14.7418L25.0598 15.4416ZM25.0317 15.4433L25.0863 16.1411L25.0317 15.4433ZM24.9828 15.4442L24.9366 16.1427L24.9366 16.1427L24.9828 15.4442ZM24.9664 15.4435V14.7433L24.9529 14.7436L24.9664 15.4435ZM23.6304 15.605L23.7853 16.2876L23.7857 16.2875L23.6304 15.605ZM20.0572 19.6037L20.7564 19.5698L20.7564 19.5698L20.0572 19.6037ZM33.0747 30.1923C33.2676 31.7827 32.8434 33.204 31.8625 34.3381L32.9213 35.2539C34.1743 33.8053 34.7023 31.9848 34.4645 30.0237L33.0747 30.1923ZM33.6771 29.4141L33.6771 29.4141L33.8621 30.8019L33.8622 30.8019L33.6771 29.4141ZM30.0676 25.6719C31.8472 26.7448 32.8395 28.2551 33.0748 30.1924L34.4645 30.0236C34.1746 27.6359 32.919 25.7563 30.7904 24.473L30.0676 25.6719ZM28.2137 24.8121C28.9137 25.0583 29.5233 25.3432 30.067 25.6716L30.7909 24.4733C30.1561 24.0898 29.458 23.7657 28.6782 23.4914L28.2137 24.8121ZM41.2106 10.3972L27.951 23.6568L28.9409 24.6468L42.2005 11.3872L41.2106 10.3972ZM47.575 25C47.575 19.4567 45.5663 14.3728 42.24 10.4401L41.1711 11.3442C44.2923 15.0344 46.175 19.8009 46.175 25H47.575ZM24.9998 47.5752C37.4486 47.5752 47.575 37.4488 47.575 25H46.175C46.175 36.6756 36.6754 46.1752 24.9998 46.1752V47.5752ZM10.4399 42.2402C14.3726 45.5664 19.4565 47.5752 24.9998 47.5752V46.1752C19.8008 46.1752 15.0342 44.2925 11.344 41.1713L10.4399 42.2402ZM17.4166 34.1912L10.397 41.2108L11.387 42.2007L18.4065 35.1811L17.4166 34.1912ZM23.5402 36.8727C21.4333 36.5624 19.6521 35.6096 18.4379 34.2247L17.3852 35.1476C18.8399 36.8069 20.9342 37.904 23.3362 38.2578L23.5402 36.8727ZM24.1382 39.3169V37.5653H22.7382V39.3169H24.1382ZM25.0005 40.1792C24.5243 40.1792 24.1382 39.7931 24.1382 39.3169H22.7382C22.7382 40.5663 23.7511 41.5792 25.0005 41.5792V40.1792ZM25.8628 39.3169C25.8628 39.7931 25.4767 40.1792 25.0005 40.1792V41.5792C26.2499 41.5792 27.2628 40.5663 27.2628 39.3169H25.8628ZM25.8628 37.5877V39.3169H27.2628V37.5877H25.8628ZM31.8625 34.3381C30.7167 35.6628 28.7711 36.6085 26.4766 36.893L26.6489 38.2823C29.1923 37.967 31.4932 36.9051 32.9213 35.2539L31.8625 34.3381ZM2.42458 25C2.42458 30.7936 4.61879 36.0851 8.21783 40.0851L9.25857 39.1487C5.88105 35.3949 3.82458 30.4335 3.82458 25H2.42458ZM24.9998 2.42477C12.551 2.42477 2.42458 12.5512 2.42458 25H3.82458C3.82458 13.3244 13.3242 3.82477 24.9998 3.82477V2.42477ZM40.0849 8.21802C36.0849 4.61898 30.7934 2.42477 24.9998 2.42477V3.82477C30.4333 3.82477 35.3947 5.88124 39.1485 9.25876L40.0849 8.21802ZM32.8064 16.5386L40.1117 9.23337L39.1217 8.24342L31.8165 15.5487L32.8064 16.5386ZM26.4524 13.1377C28.477 13.4597 30.4383 14.4901 31.7285 16.4311L32.8944 15.6561C31.3522 13.336 29.0152 12.1278 26.6723 11.755L26.4524 13.1377ZM25.8624 10.6841V12.4464H27.2624V10.6841H25.8624ZM25.0001 9.8218C25.4763 9.8218 25.8624 10.2079 25.8624 10.6841H27.2624C27.2624 9.43468 26.2495 8.4218 25.0001 8.4218V9.8218ZM24.1378 10.6841C24.1378 10.2079 24.5239 9.8218 25.0001 9.8218V8.4218C23.7507 8.4218 22.7378 9.43468 22.7378 10.6841H24.1378ZM24.1378 12.4599V10.6841H22.7378V12.4599H24.1378ZM23.0955 13.239C23.2415 13.2057 23.3939 13.1771 23.5538 13.1502L23.3217 11.7695C23.1462 11.799 22.9654 11.8327 22.784 11.8741L23.0955 13.239ZM17.6351 19.7206C17.4865 16.6608 19.6113 14.0292 23.0945 13.2392L22.7849 11.8739C18.7503 12.7889 16.0499 15.9422 16.2367 19.7885L17.6351 19.7206ZM22.6471 25.2503C20.6091 24.6093 19.3943 23.6798 18.6734 22.7153C17.9507 21.7484 17.6821 20.6895 17.6351 19.7207L16.2367 19.7885C16.2939 20.9673 16.6254 22.3138 17.552 23.5535C18.4804 24.7956 19.964 25.874 22.227 26.5858L22.6471 25.2503ZM19.0796 30.2655L22.932 26.413L21.9421 25.4231L18.0896 29.2755L19.0796 30.2655ZM17.5335 30.2496C17.7733 30.1899 18.0136 30.2362 18.2074 30.3602L18.9618 29.1808C18.4572 28.858 17.8235 28.7347 17.1954 28.8911L17.5335 30.2496ZM16.9054 31.2947C16.7901 30.8325 17.0714 30.3645 17.5334 30.2496L17.1955 28.891C15.9823 29.1928 15.2447 30.4212 15.547 31.6334L16.9054 31.2947ZM17.0401 31.7655C16.9901 31.6113 16.9452 31.4543 16.9054 31.2947L15.547 31.6334C15.5945 31.8241 15.6483 32.0118 15.7081 32.1966L17.0401 31.7655ZM9.23318 40.1119L16.869 32.476L15.8791 31.4861L8.24323 39.1219L9.23318 40.1119ZM19.5706 32.914C21.001 34.7161 23.3973 35.3004 25.2748 35.2551L25.241 33.8555C23.5963 33.8952 21.7179 33.3673 20.6672 32.0436L19.5706 32.914ZM25.2746 35.2551C27.375 35.2049 29.4732 34.4632 30.5573 33.2101L29.4986 32.2941C28.7691 33.1372 27.1231 33.8105 25.2412 33.8555L25.2746 35.2551ZM30.5577 33.2097C31.2393 32.4206 31.4925 31.4771 31.3623 30.4011L29.9724 30.5693C30.0605 31.2972 29.8947 31.8355 29.4982 32.2945L30.5577 33.2097ZM31.3622 30.4008C31.2232 29.2558 30.7029 28.3092 29.7814 27.5698C28.8845 26.8499 27.6377 26.3496 26.0688 25.9986L25.7632 27.3648C27.2328 27.6936 28.2446 28.1315 28.9052 28.6616C29.5413 29.1721 29.8775 29.7874 29.9725 30.5696L31.3622 30.4008ZM25.421 26.1868L19.6239 31.9838L20.6139 32.9738L26.411 27.1767L25.421 26.1868ZM25.5158 23.8292L30.5252 18.8198L29.5353 17.8299L24.5259 22.8393L25.5158 23.8292ZM30.6533 18.0058C29.4528 15.6615 27.1788 14.7313 25.0564 14.7416L25.0632 16.1416C26.7858 16.1333 28.5006 16.8735 29.4072 18.6439L30.6533 18.0058ZM25.0471 14.7418C25.0132 14.7424 24.983 14.7449 24.9771 14.7454L25.0863 16.1411C25.0889 16.1409 25.0899 16.1409 25.0907 16.1408C25.0914 16.1407 25.0909 16.1408 25.0899 16.1409C25.0878 16.141 25.0814 16.1414 25.0725 16.1415L25.0471 14.7418ZM24.9771 14.7454C24.9742 14.7456 24.9732 14.7457 24.9725 14.7458C24.9721 14.7458 24.973 14.7457 24.9748 14.7456C24.9783 14.7454 24.9873 14.7449 24.9997 14.7449V16.1449C25.0423 16.1449 25.0802 16.1416 25.0863 16.1411L24.9771 14.7454ZM24.9997 14.7449C25.0118 14.7449 25.021 14.7453 25.0257 14.7456C25.0297 14.7457 25.0327 14.746 25.0289 14.7457L24.9366 16.1427C24.9387 16.1428 24.9672 16.1449 24.9997 16.1449V14.7449ZM25.029 14.7457C25.0274 14.7456 24.9989 14.7435 24.9664 14.7435V16.1435C24.954 16.1435 24.9445 16.1431 24.9399 16.1428C24.9359 16.1426 24.9329 16.1424 24.9366 16.1427L25.029 14.7457ZM24.9529 14.7436C24.4513 14.7533 23.9541 14.8135 23.4751 14.9224L23.7857 16.2875C24.1696 16.2002 24.5718 16.1512 24.9799 16.1433L24.9529 14.7436ZM23.4756 14.9223C22.4851 15.147 21.437 15.6133 20.6401 16.3819C19.8265 17.1665 19.291 18.2549 19.3581 19.6376L20.7564 19.5698C20.7107 18.6274 21.0611 17.9208 21.6119 17.3896C22.1794 16.8422 22.9743 16.4716 23.7853 16.2876L23.4756 14.9223ZM19.3581 19.6376C19.3934 20.3667 19.5921 21.2996 20.4519 22.1442C21.2869 22.9647 22.6698 23.6261 24.898 24.0234L25.1437 22.6451C23.0543 22.2726 21.9853 21.6882 21.433 21.1456C20.9053 20.6271 20.7811 20.0797 20.7564 19.5698L19.3581 19.6376ZM49.3 25C49.3 38.3987 38.3987 49.3 25 49.3V50.7C39.1719 50.7 50.7 39.1719 50.7 25H49.3ZM25 0.7C38.3987 0.7 49.3 11.6013 49.3 25H50.7C50.7 10.8281 39.1719 -0.7 25 -0.7V0.7ZM0.7 25C0.7 11.6013 11.6013 0.7 25 0.7V-0.7C10.8281 -0.7 -0.7 10.8281 -0.7 25H0.7ZM25 49.3C11.6013 49.3 0.7 38.3987 0.7 25H-0.7C-0.7 39.1719 10.8281 50.7 25 50.7V49.3Z" fill="#2D404B" mask="url(#path-1-inside-1_20_126)"/>
<defs>
<linearGradient id="paint0_linear_20_126" x1="8" y1="4" x2="25" y2="50" gradientUnits="userSpaceOnUse">
<stop stop-color="#7EBBFF"/>
<stop offset="1" stop-color="#5ED9FF"/>
</linearGradient>
</defs>
</svg>
