<svg width="55" height="55" viewBox="0 0 55 55" fill="none" xmlns="http://www.w3.org/2000/svg">
<mask id="path-1-inside-1_20_119" fill="white">
<path fill-rule="evenodd" clip-rule="evenodd" d="M54.8418 29.9569C54.2919 25.9357 52.287 21.6855 49.1824 17.9963C45.1727 13.2191 39.983 10.1487 35.24 9.7019C34.9765 9.06035 34.6214 8.45316 34.1975 7.89184L30.8637 3.51556C28.8818 0.914995 25.4793 -0.310815 21.2862 0.0672032C17.2422 0.422346 12.9003 2.23246 9.06267 5.15374C5.2363 8.06362 2.33784 11.7755 0.928732 15.5789C-0.537673 19.5313 -0.262722 23.1401 1.71922 25.7292L3.63246 28.2381C3.2544 28.7651 2.93362 29.3265 2.69304 29.9222L0.608019 35.0087C-0.629208 38.0332 0.0351989 41.5846 2.4869 45.0215C4.84687 48.3324 8.60454 51.1507 13.0607 52.9837C16.3143 54.3127 19.6825 55 22.81 55C23.9442 55 25.0669 54.9083 26.1781 54.7136C30.3254 53.9804 33.2925 51.9068 34.5297 48.8938L36.4888 44.1051C36.8324 44.2426 37.1876 44.3686 37.5313 44.4717C38.9174 44.9299 40.361 45.1705 41.8159 45.182C44.0728 45.182 46.0662 44.5175 47.6357 43.2L51.8516 39.66C54.3491 37.5864 55.4145 34.1266 54.8417 29.9565L54.8418 29.9569ZM28.7324 36.361L31.5392 34.0011C32.7764 35.3873 34.1398 36.636 35.6291 37.7473L32.8682 40.0729C31.3559 38.9961 29.9696 37.7473 28.7324 36.361ZM27.5524 34.9634C27.1743 34.4707 26.8077 33.9781 26.464 33.4626C26.4297 33.3939 26.3839 33.3252 26.3381 33.2565L26.338 33.2564H26.3265C25.6506 32.2368 25.0434 31.1714 24.5279 30.06C25.3184 29.5789 26.0859 29.0404 26.8421 28.4676C27.0368 28.3187 27.2316 28.1698 27.4263 28.0094C28.2512 29.6361 29.225 31.1714 30.3591 32.5919L27.5524 34.9634ZM24.9862 35.9944C24.6081 36.9338 23.5312 37.3806 22.5918 37.0026L18.353 35.2726L19.4872 32.5002C20.6672 32.0878 21.8242 31.5837 22.9355 30.9879C23.5083 32.1908 24.1727 33.3594 24.9175 34.4592C25.158 34.9289 25.1924 35.4904 24.9862 35.9944ZM22.9012 39.6719C23.2907 40.5998 22.8553 41.6767 21.9159 42.0662C21.4691 42.2495 20.965 42.2609 20.5182 42.0776L16.2794 40.3477L17.6655 36.9566L21.9044 38.6866C22.3512 38.8699 22.7064 39.2251 22.9012 39.6719ZM9.85224 29.2467H10.1501L12.0518 31.7442C9.63456 31.5265 7.7099 30.5871 6.50693 29.0061L6.34654 28.7998C7.4807 29.0977 8.6722 29.2581 9.85224 29.2467ZM14.4577 31.7326C14.4233 31.7326 14.389 31.7326 14.3546 31.7441L12.3153 29.0633C13.6328 28.8685 14.9274 28.5478 16.1876 28.101L18.3528 30.9421C17.0812 31.3431 15.7867 31.6066 14.4577 31.7326ZM22.7749 24.6412L24.9975 27.5511C23.4852 28.6279 21.8584 29.5444 20.1514 30.2662L17.9632 27.3907C19.6588 26.6461 21.2627 25.7296 22.7749 24.6412ZM26.4524 26.4513L24.2298 23.5414C25.6733 22.3729 26.9907 21.0668 28.1594 19.6348L30.3476 22.5103C29.2019 23.9538 27.8959 25.2828 26.4524 26.4513ZM31.4702 20.9408L29.3049 18.0997C30.0725 16.9999 30.7255 15.8428 31.264 14.617L33.3032 17.2978L33.2688 17.4009C32.7991 18.6381 32.2034 19.8296 31.4702 20.9408ZM33.9218 15.0752L32.0201 12.5777C32.3982 11.3519 32.5929 10.0688 32.5929 8.78569L32.7533 8.99191C33.9562 10.5843 34.3457 12.6923 33.9218 15.0752ZM2.64653 16.2209C3.94105 12.7382 6.62185 9.32418 10.1848 6.60903C13.7477 3.89387 17.746 2.22123 21.4573 1.88909C21.8926 1.85472 22.3165 1.8318 22.729 1.8318C25.6847 1.8318 28.0333 2.80559 29.4194 4.62719C31.0004 6.70079 31.1837 9.6909 29.9464 13.0247C28.6519 16.5074 25.9711 19.9214 22.4081 22.6365C18.8452 25.3517 14.8469 27.0243 11.1357 27.3565C7.58425 27.6658 4.75451 26.692 3.17352 24.6184C1.5811 22.5448 1.3978 19.5547 2.64653 16.2209ZM5.04086 30.1057C6.78221 32.3969 9.64631 33.6227 13.1863 33.6227C13.656 33.6227 14.1372 33.5998 14.6184 33.554C15.5005 33.4738 16.3711 33.3363 17.2305 33.1301L14.5612 39.6487L12.8656 38.9499L12.1668 40.6454L13.8623 41.3443L13.1635 43.0399L14.8591 43.7387L15.5808 42.0431L17.2764 42.7419L16.5776 44.4375L18.2732 45.1364L18.972 43.4408L19.8198 43.7845C21.6987 44.552 23.8295 43.6585 24.597 41.7796C24.9636 40.8745 24.9636 39.8663 24.5856 38.9728L24.5855 38.9726C24.5511 38.9039 24.5168 38.8352 24.4824 38.7551C25.4448 38.4229 26.2352 37.7012 26.6362 36.7617C26.6591 36.7961 26.6935 36.8305 26.7164 36.8534C29.0879 39.6716 31.8831 41.9171 34.793 43.372C33.7391 45.6518 31.3103 47.2327 27.9307 47.8285C24.2646 48.4815 19.9685 47.8972 15.8213 46.2017C11.6741 44.5062 8.20289 41.9056 6.04906 38.8697C3.97546 35.9712 3.3912 33.0384 4.37642 30.6212C4.49098 30.3348 4.63991 30.0483 4.8003 29.7849L5.04086 30.1057ZM14.2975 47.5423L12.9114 50.9333C11.2158 50.1772 9.61196 49.2377 8.12261 48.1265L9.48595 44.7812C10.9867 45.8696 12.602 46.7862 14.2975 47.5423ZM15.9931 48.2296C17.7231 48.8827 19.5217 49.3524 21.3547 49.6388L19.9914 52.984C18.147 52.732 16.3483 52.2738 14.607 51.6207L15.9931 48.2296ZM2.30318 35.7191L2.40629 35.4785C2.73853 36.7158 3.25406 37.9073 3.94141 38.9956L2.74995 41.8825C1.70743 39.6943 1.5471 37.5521 2.30318 35.7191ZM3.97583 43.9676C3.96899 43.9574 3.96216 43.9481 3.95562 43.9393C3.94026 43.9186 3.92659 43.9001 3.91855 43.876L5.19023 40.7599C6.02655 41.8024 6.96595 42.7532 7.98562 43.6124L6.63381 46.9119C5.63711 46.0297 4.74339 45.0445 3.97583 43.9676ZM21.9047 53.1556L23.2565 49.8562C23.8064 49.902 24.3563 49.9135 24.8948 49.9135C25.6853 49.9135 26.4643 49.8677 27.2434 49.776L25.9717 52.8921C25.9545 52.8978 25.9374 52.9007 25.9202 52.9036L25.9201 52.9036L25.9201 52.9036C25.9029 52.9064 25.8858 52.9093 25.8686 52.915C24.5511 53.1441 23.2222 53.2243 21.9047 53.1556ZM28.1942 52.2964L29.3857 49.3979C30.6344 49.1001 31.8373 48.6189 32.9371 47.9659L32.834 48.2065C32.0779 50.0509 30.4626 51.46 28.1942 52.2964ZM34.4723 41.115L37.1989 38.8238C38.3331 39.5341 39.5245 40.1298 40.7619 40.6109L38.1842 42.7762L38.0811 42.7418C36.8324 42.3294 35.6179 41.7909 34.4723 41.115ZM46.456 41.8139C44.9323 43.097 42.8473 43.5896 40.4415 43.2689L42.8358 41.2526C43.8783 41.5161 44.9437 41.6535 46.0206 41.6535C46.2382 41.6535 46.4444 41.6421 46.6505 41.6306L46.6507 41.6306L46.456 41.8139ZM50.6719 38.2853C48.667 39.9694 45.6999 40.2902 42.3088 39.2133C38.7688 38.0791 35.2288 35.5702 32.3419 32.1448C30.9671 30.518 29.7986 28.7193 28.8706 26.7947C31.7003 24.1941 33.8426 21.1582 34.9997 18.0536C35.8589 15.7509 36.1225 13.5627 35.8017 11.6266C39.8457 12.2682 44.3481 15.0864 47.7969 19.1878C50.6838 22.6132 52.5397 26.5428 53.0439 30.2204C53.5136 33.7375 52.6773 36.6016 50.6724 38.2857L50.6719 38.2853ZM6.81705 22.7621C6.86287 22.7621 6.9087 22.7621 6.96598 22.7507L20.3354 20.6313C20.6447 20.5855 20.8968 20.3907 21.0228 20.1043L26.6135 7.77708C26.8197 7.31882 26.6135 6.76892 26.1552 6.56268C25.9948 6.49395 25.8115 6.45958 25.6282 6.49395L12.2588 8.61332C11.9495 8.65915 11.6974 8.85391 11.5714 9.1403L5.98075 21.4675C5.77453 21.9258 5.98075 22.4757 6.439 22.6819C6.55357 22.7278 6.67958 22.7621 6.81705 22.7621ZM13.5075 17.8932L16.8756 19.3138L10.2654 20.3563L13.5075 17.8932ZM14.0803 15.1551L13.4388 10.2863L22.3289 8.87715L14.0803 15.1551ZM12.3963 16.4383L9.15416 18.9128L11.9151 12.818L12.3963 16.4383ZM19.7169 18.5348L15.1917 16.6216L23.4402 10.3435L19.7169 18.5348ZM42.4341 25.3858C43.0527 23.9194 44.542 23.0143 46.1344 23.1518L46.1345 23.1517C47.0967 23.2319 48.0018 23.7016 48.6204 24.4348C49.9264 25.9814 49.7203 28.2955 48.1736 29.6015C47.5207 30.1514 46.6843 30.4608 45.8251 30.4608C45.722 30.4608 45.6074 30.4608 45.5043 30.4493C43.7744 30.3004 42.3882 28.9485 42.182 27.2186L40.2803 26.6687L39.8678 27.0124C40.4406 28.2038 40.3146 29.6244 39.5471 30.7127C38.3671 32.3625 36.0873 32.7405 34.4376 31.572C32.7879 30.392 32.4098 28.1122 33.5784 26.4625C34.7583 24.8128 37.0381 24.4348 38.6878 25.6033L39.1003 25.2596L38.8826 23.2892C37.6109 22.9111 36.6371 21.88 36.3507 20.5855C35.904 18.6036 37.1528 16.6445 39.1232 16.1977C41.1051 15.751 43.0642 16.9997 43.511 18.9702C43.9577 20.9521 42.709 22.9112 40.7385 23.358L40.9104 24.939L42.4341 25.3858ZM38.7452 18.386C37.9662 19.0275 37.863 20.1846 38.5161 20.9636C38.8253 21.3417 39.2721 21.5708 39.7533 21.6166C40.2345 21.6624 40.7271 21.502 41.0937 21.1927C41.8727 20.5512 41.9758 19.3941 41.3228 18.6151C40.6813 17.8361 39.5242 17.733 38.7452 18.386ZM36.3966 30.415C37.4048 30.5067 38.2869 29.762 38.3786 28.7539L38.3786 28.7538C38.4702 27.7457 37.7142 26.8635 36.7175 26.7719C36.6602 26.7604 36.6144 26.7604 36.5571 26.7604C35.6062 26.7604 34.8157 27.4822 34.7355 28.4331C34.6439 29.4412 35.3885 30.3234 36.3966 30.415ZM46.9937 28.204C47.3603 27.8832 47.5894 27.4364 47.6353 26.9552L47.6353 26.9552C47.727 25.9471 46.9823 25.065 45.9856 24.9848C45.9284 24.9733 45.8825 24.9733 45.8252 24.9733C45.3899 24.9733 44.9774 25.1223 44.6452 25.3972C43.8662 26.0388 43.7631 27.1958 44.4161 27.9749C45.0576 28.7539 46.2147 28.857 46.9937 28.204Z"/>
</mask>
<path fill-rule="evenodd" clip-rule="evenodd" d="M54.8418 29.9569C54.2919 25.9357 52.287 21.6855 49.1824 17.9963C45.1727 13.2191 39.983 10.1487 35.24 9.7019C34.9765 9.06035 34.6214 8.45316 34.1975 7.89184L30.8637 3.51556C28.8818 0.914995 25.4793 -0.310815 21.2862 0.0672032C17.2422 0.422346 12.9003 2.23246 9.06267 5.15374C5.2363 8.06362 2.33784 11.7755 0.928732 15.5789C-0.537673 19.5313 -0.262722 23.1401 1.71922 25.7292L3.63246 28.2381C3.2544 28.7651 2.93362 29.3265 2.69304 29.9222L0.608019 35.0087C-0.629208 38.0332 0.0351989 41.5846 2.4869 45.0215C4.84687 48.3324 8.60454 51.1507 13.0607 52.9837C16.3143 54.3127 19.6825 55 22.81 55C23.9442 55 25.0669 54.9083 26.1781 54.7136C30.3254 53.9804 33.2925 51.9068 34.5297 48.8938L36.4888 44.1051C36.8324 44.2426 37.1876 44.3686 37.5313 44.4717C38.9174 44.9299 40.361 45.1705 41.8159 45.182C44.0728 45.182 46.0662 44.5175 47.6357 43.2L51.8516 39.66C54.3491 37.5864 55.4145 34.1266 54.8417 29.9565L54.8418 29.9569ZM28.7324 36.361L31.5392 34.0011C32.7764 35.3873 34.1398 36.636 35.6291 37.7473L32.8682 40.0729C31.3559 38.9961 29.9696 37.7473 28.7324 36.361ZM27.5524 34.9634C27.1743 34.4707 26.8077 33.9781 26.464 33.4626C26.4297 33.3939 26.3839 33.3252 26.3381 33.2565L26.338 33.2564H26.3265C25.6506 32.2368 25.0434 31.1714 24.5279 30.06C25.3184 29.5789 26.0859 29.0404 26.8421 28.4676C27.0368 28.3187 27.2316 28.1698 27.4263 28.0094C28.2512 29.6361 29.225 31.1714 30.3591 32.5919L27.5524 34.9634ZM24.9862 35.9944C24.6081 36.9338 23.5312 37.3806 22.5918 37.0026L18.353 35.2726L19.4872 32.5002C20.6672 32.0878 21.8242 31.5837 22.9355 30.9879C23.5083 32.1908 24.1727 33.3594 24.9175 34.4592C25.158 34.9289 25.1924 35.4904 24.9862 35.9944ZM22.9012 39.6719C23.2907 40.5998 22.8553 41.6767 21.9159 42.0662C21.4691 42.2495 20.965 42.2609 20.5182 42.0776L16.2794 40.3477L17.6655 36.9566L21.9044 38.6866C22.3512 38.8699 22.7064 39.2251 22.9012 39.6719ZM9.85224 29.2467H10.1501L12.0518 31.7442C9.63456 31.5265 7.7099 30.5871 6.50693 29.0061L6.34654 28.7998C7.4807 29.0977 8.6722 29.2581 9.85224 29.2467ZM14.4577 31.7326C14.4233 31.7326 14.389 31.7326 14.3546 31.7441L12.3153 29.0633C13.6328 28.8685 14.9274 28.5478 16.1876 28.101L18.3528 30.9421C17.0812 31.3431 15.7867 31.6066 14.4577 31.7326ZM22.7749 24.6412L24.9975 27.5511C23.4852 28.6279 21.8584 29.5444 20.1514 30.2662L17.9632 27.3907C19.6588 26.6461 21.2627 25.7296 22.7749 24.6412ZM26.4524 26.4513L24.2298 23.5414C25.6733 22.3729 26.9907 21.0668 28.1594 19.6348L30.3476 22.5103C29.2019 23.9538 27.8959 25.2828 26.4524 26.4513ZM31.4702 20.9408L29.3049 18.0997C30.0725 16.9999 30.7255 15.8428 31.264 14.617L33.3032 17.2978L33.2688 17.4009C32.7991 18.6381 32.2034 19.8296 31.4702 20.9408ZM33.9218 15.0752L32.0201 12.5777C32.3982 11.3519 32.5929 10.0688 32.5929 8.78569L32.7533 8.99191C33.9562 10.5843 34.3457 12.6923 33.9218 15.0752ZM2.64653 16.2209C3.94105 12.7382 6.62185 9.32418 10.1848 6.60903C13.7477 3.89387 17.746 2.22123 21.4573 1.88909C21.8926 1.85472 22.3165 1.8318 22.729 1.8318C25.6847 1.8318 28.0333 2.80559 29.4194 4.62719C31.0004 6.70079 31.1837 9.6909 29.9464 13.0247C28.6519 16.5074 25.9711 19.9214 22.4081 22.6365C18.8452 25.3517 14.8469 27.0243 11.1357 27.3565C7.58425 27.6658 4.75451 26.692 3.17352 24.6184C1.5811 22.5448 1.3978 19.5547 2.64653 16.2209ZM5.04086 30.1057C6.78221 32.3969 9.64631 33.6227 13.1863 33.6227C13.656 33.6227 14.1372 33.5998 14.6184 33.554C15.5005 33.4738 16.3711 33.3363 17.2305 33.1301L14.5612 39.6487L12.8656 38.9499L12.1668 40.6454L13.8623 41.3443L13.1635 43.0399L14.8591 43.7387L15.5808 42.0431L17.2764 42.7419L16.5776 44.4375L18.2732 45.1364L18.972 43.4408L19.8198 43.7845C21.6987 44.552 23.8295 43.6585 24.597 41.7796C24.9636 40.8745 24.9636 39.8663 24.5856 38.9728L24.5855 38.9726C24.5511 38.9039 24.5168 38.8352 24.4824 38.7551C25.4448 38.4229 26.2352 37.7012 26.6362 36.7617C26.6591 36.7961 26.6935 36.8305 26.7164 36.8534C29.0879 39.6716 31.8831 41.9171 34.793 43.372C33.7391 45.6518 31.3103 47.2327 27.9307 47.8285C24.2646 48.4815 19.9685 47.8972 15.8213 46.2017C11.6741 44.5062 8.20289 41.9056 6.04906 38.8697C3.97546 35.9712 3.3912 33.0384 4.37642 30.6212C4.49098 30.3348 4.63991 30.0483 4.8003 29.7849L5.04086 30.1057ZM14.2975 47.5423L12.9114 50.9333C11.2158 50.1772 9.61196 49.2377 8.12261 48.1265L9.48595 44.7812C10.9867 45.8696 12.602 46.7862 14.2975 47.5423ZM15.9931 48.2296C17.7231 48.8827 19.5217 49.3524 21.3547 49.6388L19.9914 52.984C18.147 52.732 16.3483 52.2738 14.607 51.6207L15.9931 48.2296ZM2.30318 35.7191L2.40629 35.4785C2.73853 36.7158 3.25406 37.9073 3.94141 38.9956L2.74995 41.8825C1.70743 39.6943 1.5471 37.5521 2.30318 35.7191ZM3.97583 43.9676C3.96899 43.9574 3.96216 43.9481 3.95562 43.9393C3.94026 43.9186 3.92659 43.9001 3.91855 43.876L5.19023 40.7599C6.02655 41.8024 6.96595 42.7532 7.98562 43.6124L6.63381 46.9119C5.63711 46.0297 4.74339 45.0445 3.97583 43.9676ZM21.9047 53.1556L23.2565 49.8562C23.8064 49.902 24.3563 49.9135 24.8948 49.9135C25.6853 49.9135 26.4643 49.8677 27.2434 49.776L25.9717 52.8921C25.9545 52.8978 25.9374 52.9007 25.9202 52.9036L25.9201 52.9036L25.9201 52.9036C25.9029 52.9064 25.8858 52.9093 25.8686 52.915C24.5511 53.1441 23.2222 53.2243 21.9047 53.1556ZM28.1942 52.2964L29.3857 49.3979C30.6344 49.1001 31.8373 48.6189 32.9371 47.9659L32.834 48.2065C32.0779 50.0509 30.4626 51.46 28.1942 52.2964ZM34.4723 41.115L37.1989 38.8238C38.3331 39.5341 39.5245 40.1298 40.7619 40.6109L38.1842 42.7762L38.0811 42.7418C36.8324 42.3294 35.6179 41.7909 34.4723 41.115ZM46.456 41.8139C44.9323 43.097 42.8473 43.5896 40.4415 43.2689L42.8358 41.2526C43.8783 41.5161 44.9437 41.6535 46.0206 41.6535C46.2382 41.6535 46.4444 41.6421 46.6505 41.6306L46.6507 41.6306L46.456 41.8139ZM50.6719 38.2853C48.667 39.9694 45.6999 40.2902 42.3088 39.2133C38.7688 38.0791 35.2288 35.5702 32.3419 32.1448C30.9671 30.518 29.7986 28.7193 28.8706 26.7947C31.7003 24.1941 33.8426 21.1582 34.9997 18.0536C35.8589 15.7509 36.1225 13.5627 35.8017 11.6266C39.8457 12.2682 44.3481 15.0864 47.7969 19.1878C50.6838 22.6132 52.5397 26.5428 53.0439 30.2204C53.5136 33.7375 52.6773 36.6016 50.6724 38.2857L50.6719 38.2853ZM6.81705 22.7621C6.86287 22.7621 6.9087 22.7621 6.96598 22.7507L20.3354 20.6313C20.6447 20.5855 20.8968 20.3907 21.0228 20.1043L26.6135 7.77708C26.8197 7.31882 26.6135 6.76892 26.1552 6.56268C25.9948 6.49395 25.8115 6.45958 25.6282 6.49395L12.2588 8.61332C11.9495 8.65915 11.6974 8.85391 11.5714 9.1403L5.98075 21.4675C5.77453 21.9258 5.98075 22.4757 6.439 22.6819C6.55357 22.7278 6.67958 22.7621 6.81705 22.7621ZM13.5075 17.8932L16.8756 19.3138L10.2654 20.3563L13.5075 17.8932ZM14.0803 15.1551L13.4388 10.2863L22.3289 8.87715L14.0803 15.1551ZM12.3963 16.4383L9.15416 18.9128L11.9151 12.818L12.3963 16.4383ZM19.7169 18.5348L15.1917 16.6216L23.4402 10.3435L19.7169 18.5348ZM42.4341 25.3858C43.0527 23.9194 44.542 23.0143 46.1344 23.1518L46.1345 23.1517C47.0967 23.2319 48.0018 23.7016 48.6204 24.4348C49.9264 25.9814 49.7203 28.2955 48.1736 29.6015C47.5207 30.1514 46.6843 30.4608 45.8251 30.4608C45.722 30.4608 45.6074 30.4608 45.5043 30.4493C43.7744 30.3004 42.3882 28.9485 42.182 27.2186L40.2803 26.6687L39.8678 27.0124C40.4406 28.2038 40.3146 29.6244 39.5471 30.7127C38.3671 32.3625 36.0873 32.7405 34.4376 31.572C32.7879 30.392 32.4098 28.1122 33.5784 26.4625C34.7583 24.8128 37.0381 24.4348 38.6878 25.6033L39.1003 25.2596L38.8826 23.2892C37.6109 22.9111 36.6371 21.88 36.3507 20.5855C35.904 18.6036 37.1528 16.6445 39.1232 16.1977C41.1051 15.751 43.0642 16.9997 43.511 18.9702C43.9577 20.9521 42.709 22.9112 40.7385 23.358L40.9104 24.939L42.4341 25.3858ZM38.7452 18.386C37.9662 19.0275 37.863 20.1846 38.5161 20.9636C38.8253 21.3417 39.2721 21.5708 39.7533 21.6166C40.2345 21.6624 40.7271 21.502 41.0937 21.1927C41.8727 20.5512 41.9758 19.3941 41.3228 18.6151C40.6813 17.8361 39.5242 17.733 38.7452 18.386ZM36.3966 30.415C37.4048 30.5067 38.2869 29.762 38.3786 28.7539L38.3786 28.7538C38.4702 27.7457 37.7142 26.8635 36.7175 26.7719C36.6602 26.7604 36.6144 26.7604 36.5571 26.7604C35.6062 26.7604 34.8157 27.4822 34.7355 28.4331C34.6439 29.4412 35.3885 30.3234 36.3966 30.415ZM46.9937 28.204C47.3603 27.8832 47.5894 27.4364 47.6353 26.9552L47.6353 26.9552C47.727 25.9471 46.9823 25.065 45.9856 24.9848C45.9284 24.9733 45.8825 24.9733 45.8252 24.9733C45.3899 24.9733 44.9774 25.1223 44.6452 25.3972C43.8662 26.0388 43.7631 27.1958 44.4161 27.9749C45.0576 28.7539 46.2147 28.857 46.9937 28.204Z" fill="url(#paint0_linear_20_119)"/>
<path d="M49.1824 17.9963L48.9526 18.1892L48.9528 18.1895L49.1824 17.9963ZM54.8418 29.9569L54.5492 30.0234L55.139 29.9163L54.8418 29.9569ZM35.24 9.7019L34.9625 9.81588L35.0314 9.98358L35.2119 10.0006L35.24 9.7019ZM34.1975 7.89184L34.4369 7.71105L34.4361 7.71004L34.1975 7.89184ZM30.8637 3.51556L31.1024 3.33377L31.1023 3.33371L30.8637 3.51556ZM21.2862 0.0672032L21.3125 0.366054L21.3131 0.365991L21.2862 0.0672032ZM9.06267 5.15374L9.24427 5.39254L9.24438 5.39245L9.06267 5.15374ZM0.928732 15.5789L1.21 15.6833L1.21005 15.6832L0.928732 15.5789ZM1.71922 25.7292L1.95777 25.5473L1.95743 25.5468L1.71922 25.7292ZM3.63246 28.2381L3.87622 28.413L4.00558 28.2327L3.87101 28.0562L3.63246 28.2381ZM2.69304 29.9222L2.97063 30.036L2.97121 30.0345L2.69304 29.9222ZM0.608019 35.0087L0.330435 34.8949L0.330353 34.8951L0.608019 35.0087ZM2.4869 45.0215L2.73119 44.8474L2.73113 44.8473L2.4869 45.0215ZM13.0607 52.9837L12.9466 53.2611L12.9473 53.2614L13.0607 52.9837ZM26.1781 54.7136L26.2299 55.0091L26.2304 55.009L26.1781 54.7136ZM34.5297 48.8938L34.8073 49.0078L34.8074 49.0074L34.5297 48.8938ZM36.4888 44.1051L36.6002 43.8265L36.3238 43.716L36.2111 43.9915L36.4888 44.1051ZM37.5313 44.4717L37.6255 44.1867L37.6175 44.1843L37.5313 44.4717ZM41.8159 45.182L41.8135 45.482H41.8159V45.182ZM47.6357 43.2L47.8285 43.4298L47.8286 43.4298L47.6357 43.2ZM51.8516 39.66L51.6599 39.4292L51.6586 39.4303L51.8516 39.66ZM54.8417 29.9565L55.1342 29.8901L54.5445 29.9973L54.8417 29.9565ZM31.5392 34.0011L31.763 33.8013L31.5691 33.584L31.3462 33.7715L31.5392 34.0011ZM28.7324 36.361L28.5394 36.1314L28.3029 36.3303L28.5086 36.5608L28.7324 36.361ZM35.6291 37.7473L35.8224 37.9768L36.1117 37.7331L35.8085 37.5069L35.6291 37.7473ZM32.8682 40.0729L32.6942 40.3173L32.8836 40.4522L33.0615 40.3024L32.8682 40.0729ZM26.464 33.4626L26.1957 33.5968L26.204 33.6135L26.2144 33.629L26.464 33.4626ZM27.5524 34.9634L27.3144 35.146L27.5058 35.3954L27.746 35.1925L27.5524 34.9634ZM26.3381 33.2565L26.5877 33.0901L26.5863 33.0881L26.3381 33.2565ZM26.338 33.2564L26.5862 33.0879L26.497 32.9564H26.338V33.2564ZM26.3265 33.2564L26.0765 33.4221L26.1655 33.5564H26.3265V33.2564ZM24.5279 30.06L24.3719 29.8038L24.1429 29.9431L24.2557 30.1863L24.5279 30.06ZM26.8421 28.4676L27.0232 28.7068L27.0243 28.7059L26.8421 28.4676ZM27.4263 28.0094L27.6939 27.8737L27.5246 27.5398L27.2356 27.7778L27.4263 28.0094ZM30.3591 32.5919L30.5528 32.821L30.7756 32.6327L30.5936 32.4047L30.3591 32.5919ZM22.5918 37.0026L22.4785 37.2803L22.4798 37.2809L22.5918 37.0026ZM24.9862 35.9944L24.7085 35.8808L24.7079 35.8824L24.9862 35.9944ZM18.353 35.2726L18.0753 35.1591L17.9616 35.4369L18.2396 35.5504L18.353 35.2726ZM19.4872 32.5002L19.3882 32.217L19.2606 32.2616L19.2095 32.3866L19.4872 32.5002ZM22.9355 30.9879L23.2064 30.8589L23.0711 30.5748L22.7938 30.7235L22.9355 30.9879ZM24.9175 34.4592L25.1845 34.3224L25.1761 34.3062L25.1659 34.291L24.9175 34.4592ZM21.9159 42.0662L22.0298 42.3437L22.0308 42.3433L21.9159 42.0662ZM22.9012 39.6719L23.1778 39.5557L23.1762 39.552L22.9012 39.6719ZM20.5182 42.0776L20.6321 41.8001L20.6316 41.7999L20.5182 42.0776ZM16.2794 40.3477L16.0017 40.2342L15.8881 40.512L16.166 40.6255L16.2794 40.3477ZM17.6655 36.9566L17.7789 36.6789L17.5013 36.5656L17.3878 36.8431L17.6655 36.9566ZM21.9044 38.6866L22.0183 38.409L22.0177 38.4088L21.9044 38.6866ZM10.1501 29.2467L10.3888 29.0649L10.2987 28.9467H10.1501V29.2467ZM9.85224 29.2467V28.9466L9.84933 28.9467L9.85224 29.2467ZM12.0518 31.7442L12.0249 32.0429L12.7029 32.104L12.2905 31.5624L12.0518 31.7442ZM6.50693 29.0061L6.74569 28.8244L6.74374 28.8219L6.50693 29.0061ZM6.34654 28.7998L6.42275 28.5097L5.56579 28.2846L6.10973 28.984L6.34654 28.7998ZM14.3546 31.7441L14.1158 31.9257L14.2458 32.0966L14.4495 32.0287L14.3546 31.7441ZM14.4577 31.7326V32.0326H14.4719L14.486 32.0313L14.4577 31.7326ZM12.3153 29.0633L12.2715 28.7665L11.7691 28.8408L12.0766 29.2449L12.3153 29.0633ZM16.1876 28.101L16.4262 27.9191L16.2936 27.7451L16.0873 27.8182L16.1876 28.101ZM18.3528 30.9421L18.4431 31.2282L18.8502 31.0999L18.5915 30.7603L18.3528 30.9421ZM24.9975 27.5511L25.1715 27.7955L25.4242 27.6155L25.2359 27.369L24.9975 27.5511ZM22.7749 24.6412L23.0133 24.4591L22.8364 24.2274L22.5997 24.3977L22.7749 24.6412ZM20.1514 30.2662L19.9127 30.4479L20.0537 30.6333L20.2683 30.5425L20.1514 30.2662ZM17.9632 27.3907L17.8426 27.116L17.4938 27.2692L17.7245 27.5724L17.9632 27.3907ZM24.2298 23.5414L24.0411 23.3082L23.8144 23.4917L23.9914 23.7235L24.2298 23.5414ZM26.4524 26.4513L26.214 26.6334L26.4013 26.8786L26.6411 26.6845L26.4524 26.4513ZM28.1594 19.6348L28.3981 19.4531L28.1676 19.1502L27.9269 19.4451L28.1594 19.6348ZM30.3476 22.5103L30.5825 22.6968L30.7275 22.5142L30.5863 22.3286L30.3476 22.5103ZM29.3049 18.0997L29.0589 17.928L28.9337 18.1074L29.0663 18.2815L29.3049 18.0997ZM31.4702 20.9408L31.2316 21.1227L31.4878 21.4589L31.7206 21.1061L31.4702 20.9408ZM31.264 14.617L31.5027 14.4353L31.1942 14.0298L30.9893 14.4963L31.264 14.617ZM33.3032 17.2978L33.5878 17.3926L33.6379 17.2423L33.542 17.1161L33.3032 17.2978ZM33.2688 17.4009L33.5495 17.5074L33.5534 17.4957L33.2688 17.4009ZM32.0201 12.5777L31.7334 12.4893L31.688 12.6367L31.7814 12.7595L32.0201 12.5777ZM33.9218 15.0752L33.6831 15.257L34.0974 15.801L34.2172 15.1278L33.9218 15.0752ZM32.5929 8.78569L32.8297 8.60152L32.2929 7.91129V8.78569H32.5929ZM32.7533 8.99191L32.9927 8.81107L32.9901 8.80774L32.7533 8.99191ZM10.1848 6.60903L10.3666 6.84764L10.1848 6.60903ZM2.64653 16.2209L2.92747 16.3261L2.92773 16.3254L2.64653 16.2209ZM21.4573 1.88909L21.4337 1.59L21.4305 1.59028L21.4573 1.88909ZM29.4194 4.62719L29.1807 4.80886L29.1809 4.80908L29.4194 4.62719ZM29.9464 13.0247L30.2276 13.1292L30.2277 13.1291L29.9464 13.0247ZM22.4081 22.6365L22.2263 22.3979L22.4081 22.6365ZM11.1357 27.3565L11.1617 27.6553L11.1624 27.6553L11.1357 27.3565ZM3.17352 24.6184L3.41209 24.4365L3.41145 24.4357L3.17352 24.6184ZM5.04086 30.1057L4.80084 30.2856L4.80201 30.2872L5.04086 30.1057ZM14.6184 33.554L14.5912 33.2552L14.5899 33.2553L14.6184 33.554ZM17.2305 33.1301L17.5081 33.2438L17.7301 32.7017L17.1604 32.8384L17.2305 33.1301ZM14.5612 39.6487L14.4469 39.9261L14.7249 40.0406L14.8388 39.7624L14.5612 39.6487ZM12.8656 38.9499L12.9799 38.6725L12.7025 38.5582L12.5882 38.8355L12.8656 38.9499ZM12.1668 40.6454L11.8894 40.5311L11.7751 40.8085L12.0524 40.9228L12.1668 40.6454ZM13.8623 41.3443L14.1397 41.4586L14.254 41.1812L13.9767 41.0669L13.8623 41.3443ZM13.1635 43.0399L12.8861 42.9255L12.7718 43.2029L13.0492 43.3172L13.1635 43.0399ZM14.8591 43.7387L14.7448 44.0161L15.019 44.1291L15.1351 43.8562L14.8591 43.7387ZM15.5808 42.0431L15.6952 41.7657L15.421 41.6527L15.3048 41.9256L15.5808 42.0431ZM17.2764 42.7419L17.5538 42.8563L17.6681 42.5789L17.3907 42.4646L17.2764 42.7419ZM16.5776 44.4375L16.3002 44.3232L16.1859 44.6006L16.4633 44.7149L16.5776 44.4375ZM18.2732 45.1364L18.1588 45.4137L18.4362 45.528L18.5505 45.2507L18.2732 45.1364ZM18.972 43.4408L19.0847 43.1628L18.8083 43.0507L18.6946 43.3265L18.972 43.4408ZM19.8198 43.7845L19.9332 43.5067L19.9325 43.5064L19.8198 43.7845ZM24.597 41.7796L24.8747 41.893L24.8751 41.8922L24.597 41.7796ZM24.5856 38.9728L24.8618 38.8559L24.8581 38.8471L24.8539 38.8386L24.5856 38.9728ZM24.4824 38.7551L24.3845 38.4715L24.0796 38.5768L24.2067 38.8733L24.4824 38.7551ZM26.6362 36.7617L26.8858 36.5953L26.578 36.1337L26.3603 36.644L26.6362 36.7617ZM26.7164 36.8534L26.9459 36.6602L26.9376 36.6504L26.9285 36.6413L26.7164 36.8534ZM34.793 43.372L35.0653 43.4979L35.1874 43.2338L34.9272 43.1036L34.793 43.372ZM27.9307 47.8285L27.8786 47.533L27.878 47.5331L27.9307 47.8285ZM15.8213 46.2017L15.7078 46.4794L15.8213 46.2017ZM6.04906 38.8697L6.29374 38.6961L6.29305 38.6951L6.04906 38.8697ZM4.37642 30.6212L4.65423 30.7344L4.65496 30.7326L4.37642 30.6212ZM4.8003 29.7849L5.04032 29.6049L4.77446 29.2503L4.54404 29.6289L4.8003 29.7849ZM12.9114 50.9333L12.7892 51.2073L13.0719 51.3334L13.1891 51.0468L12.9114 50.9333ZM14.2975 47.5423L14.5752 47.6558L14.6852 47.3867L14.4197 47.2683L14.2975 47.5423ZM8.12261 48.1265L7.8448 48.0133L7.75722 48.2282L7.94321 48.367L8.12261 48.1265ZM9.48595 44.7812L9.66208 44.5384L9.35247 44.3138L9.20814 44.668L9.48595 44.7812ZM21.3547 49.6388L21.6325 49.752L21.7756 49.4009L21.401 49.3423L21.3547 49.6388ZM15.9931 48.2296L16.0991 47.949L15.8259 47.8459L15.7154 48.1161L15.9931 48.2296ZM19.9914 52.984L19.9508 53.2813L20.1814 53.3128L20.2692 53.0973L19.9914 52.984ZM14.607 51.6207L14.3293 51.5072L14.2124 51.7931L14.5016 51.9016L14.607 51.6207ZM2.40629 35.4785L2.69603 35.4007L2.47153 34.5647L2.13055 35.3603L2.40629 35.4785ZM2.30318 35.7191L2.02741 35.6009L2.02585 35.6047L2.30318 35.7191ZM3.94141 38.9956L4.21872 39.11L4.27792 38.9666L4.19505 38.8354L3.94141 38.9956ZM2.74995 41.8825L2.47912 42.0116L2.76961 42.6213L3.02726 41.997L2.74995 41.8825ZM3.95562 43.9393L4.19674 43.7608L4.19674 43.7608L3.95562 43.9393ZM3.97583 43.9676L3.72609 44.1341L3.73153 44.1418L3.97583 43.9676ZM3.91855 43.876L3.64079 43.7626L3.59882 43.8655L3.63394 43.9708L3.91855 43.876ZM5.19023 40.7599L5.42424 40.5722L5.10515 40.1744L4.91247 40.6465L5.19023 40.7599ZM7.98562 43.6124L8.26323 43.7262L8.34611 43.5239L8.17893 43.383L7.98562 43.6124ZM6.63381 46.9119L6.43498 47.1365L6.75127 47.4165L6.91141 47.0256L6.63381 46.9119ZM23.2565 49.8562L23.2815 49.5572L23.0623 49.539L22.9789 49.7425L23.2565 49.8562ZM21.9047 53.1556L21.6271 53.0419L21.4668 53.4332L21.8891 53.4552L21.9047 53.1556ZM27.2434 49.776L27.5211 49.8894L27.7132 49.4187L27.2083 49.4781L27.2434 49.776ZM25.9717 52.8921L26.0666 53.1767L26.1974 53.1331L26.2495 53.0055L25.9717 52.8921ZM25.9202 52.9036L25.9695 53.1995H25.9695L25.9202 52.9036ZM25.9201 52.9036L25.8708 52.6077H25.8707L25.9201 52.9036ZM25.8686 52.915L25.92 53.2106L25.9422 53.2067L25.9635 53.1996L25.8686 52.915ZM29.3857 49.3979L29.3161 49.1061L29.1666 49.1418L29.1082 49.2839L29.3857 49.3979ZM28.1942 52.2964L27.9168 52.1823L27.657 52.8142L28.298 52.5779L28.1942 52.2964ZM32.9371 47.9659L33.2129 48.0841L33.5755 47.238L32.784 47.7079L32.9371 47.9659ZM32.834 48.2065L32.5582 48.0883L32.5564 48.0927L32.834 48.2065ZM37.1989 38.8238L37.3581 38.5695L37.1731 38.4536L37.0059 38.5941L37.1989 38.8238ZM34.4723 41.115L34.2793 40.8854L33.9549 41.1581L34.3199 41.3734L34.4723 41.115ZM40.7619 40.6109L40.9548 40.8406L41.3426 40.5149L40.8706 40.3313L40.7619 40.6109ZM38.1842 42.7762L38.0894 43.0608L38.2486 43.1139L38.3772 43.0059L38.1842 42.7762ZM38.0811 42.7418L38.176 42.4572L38.1752 42.4569L38.0811 42.7418ZM40.4415 43.2689L40.2482 43.0394L39.7291 43.4766L40.4018 43.5662L40.4415 43.2689ZM46.456 41.8139L46.6493 42.0434L46.6556 42.038L46.6617 42.0323L46.456 41.8139ZM42.8358 41.2526L42.9093 40.9617L42.7602 40.924L42.6425 41.0231L42.8358 41.2526ZM46.6505 41.6306L46.6672 41.9302L46.6705 41.93L46.6505 41.6306ZM46.6507 41.6306L46.8563 41.8491L47.4655 41.2756L46.6307 41.3313L46.6507 41.6306ZM42.3088 39.2133L42.2173 39.499L42.218 39.4992L42.3088 39.2133ZM50.6719 38.2853L50.8616 38.0528L50.6691 37.8959L50.479 38.0556L50.6719 38.2853ZM32.3419 32.1448L32.5713 31.9514L32.571 31.9511L32.3419 32.1448ZM28.8706 26.7947L28.6676 26.5738L28.5036 26.7244L28.6003 26.925L28.8706 26.7947ZM34.9997 18.0536L34.7187 17.9487L34.7186 17.9488L34.9997 18.0536ZM35.8017 11.6266L35.8487 11.3303L35.4377 11.2651L35.5057 11.6757L35.8017 11.6266ZM47.7969 19.1878L47.5672 19.3809L47.5675 19.3812L47.7969 19.1878ZM53.0439 30.2204L53.3412 30.1807L53.3411 30.1797L53.0439 30.2204ZM50.6724 38.2857L50.4827 38.5181L50.6752 38.6751L50.8653 38.5154L50.6724 38.2857ZM6.96598 22.7507L6.91897 22.4541L6.90714 22.4565L6.96598 22.7507ZM6.81705 22.7621L6.81704 23.0621H6.81705V22.7621ZM20.3354 20.6313L20.2914 20.3345L20.2884 20.335L20.3354 20.6313ZM21.0228 20.1043L20.7495 19.9804L20.7482 19.9835L21.0228 20.1043ZM26.6135 7.77708L26.8867 7.90099L26.887 7.90019L26.6135 7.77708ZM26.1552 6.56268L26.2783 6.28907L26.2734 6.28694L26.1552 6.56268ZM25.6282 6.49395L25.6752 6.79036L25.6835 6.78881L25.6282 6.49395ZM12.2588 8.61332L12.3028 8.9101L12.3058 8.90962L12.2588 8.61332ZM11.5714 9.1403L11.8446 9.26422L11.846 9.26113L11.5714 9.1403ZM5.98075 21.4675L5.70753 21.3436L5.70717 21.3444L5.98075 21.4675ZM6.439 22.6819L6.31576 22.9557L6.32759 22.9605L6.439 22.6819ZM16.8756 19.3138L16.9224 19.6101L17.9616 19.4462L16.9922 19.0373L16.8756 19.3138ZM13.5075 17.8932L13.6241 17.6168L13.4642 17.5494L13.326 17.6544L13.5075 17.8932ZM10.2654 20.3563L10.0839 20.1174L10.3121 20.6526L10.2654 20.3563ZM13.4388 10.2863L13.3918 9.98996L13.1032 10.0357L13.1414 10.3255L13.4388 10.2863ZM14.0803 15.1551L13.7829 15.1943L13.8505 15.7071L14.262 15.3939L14.0803 15.1551ZM22.3289 8.87715L22.5106 9.11587L22.2819 8.58085L22.3289 8.87715ZM9.15416 18.9128L8.88089 18.789L9.33618 19.1513L9.15416 18.9128ZM12.3963 16.4383L12.5783 16.6767L12.7166 16.5712L12.6937 16.3987L12.3963 16.4383ZM11.9151 12.818L12.2125 12.7785L12.0744 11.7394L11.6418 12.6942L11.9151 12.818ZM15.1917 16.6216L15.01 16.3828L14.5981 16.6963L15.0748 16.8979L15.1917 16.6216ZM19.7169 18.5348L19.6001 18.8111L19.8691 18.9249L19.99 18.6589L19.7169 18.5348ZM23.4402 10.3435L23.7133 10.4676L23.2585 10.1047L23.4402 10.3435ZM46.1344 23.1518L46.1086 23.4507L46.3924 23.4752L46.4316 23.1931L46.1344 23.1518ZM42.4341 25.3858L42.3497 25.6736L42.6065 25.7489L42.7105 25.5024L42.4341 25.3858ZM46.1345 23.1517L46.1594 22.8527L45.8764 22.8291L45.8373 23.1104L46.1345 23.1517ZM48.6204 24.4348L48.3912 24.6282L48.3912 24.6283L48.6204 24.4348ZM48.1736 29.6015L48.3669 29.831L48.3672 29.8307L48.1736 29.6015ZM45.5043 30.4493L45.5375 30.151L45.5301 30.1504L45.5043 30.4493ZM42.182 27.2186L42.4799 27.1831L42.4563 26.9856L42.2653 26.9304L42.182 27.2186ZM40.2803 26.6687L40.3636 26.3805L40.2106 26.3363L40.0882 26.4382L40.2803 26.6687ZM39.8678 27.0124L39.6758 26.7819L39.4961 26.9316L39.5975 27.1424L39.8678 27.0124ZM39.5471 30.7127L39.7911 30.8873L39.7922 30.8856L39.5471 30.7127ZM34.4376 31.572L34.263 31.816L34.2642 31.8168L34.4376 31.572ZM33.5784 26.4625L33.3343 26.288L33.3335 26.2891L33.5784 26.4625ZM38.6878 25.6033L38.5144 25.8481L38.7027 25.9814L38.8799 25.8337L38.6878 25.6033ZM39.1003 25.2596L39.2923 25.4901L39.4161 25.3869L39.3984 25.2266L39.1003 25.2596ZM38.8826 23.2892L39.1808 23.2562L39.1589 23.0583L38.9681 23.0016L38.8826 23.2892ZM36.3507 20.5855L36.6437 20.5207L36.6434 20.5196L36.3507 20.5855ZM39.1232 16.1977L39.0572 15.9051L39.0568 15.9052L39.1232 16.1977ZM43.511 18.9702L43.8036 18.9042L43.8036 18.9038L43.511 18.9702ZM40.7385 23.358L40.6722 23.0654L40.4114 23.1245L40.4403 23.3904L40.7385 23.358ZM40.9104 24.939L40.6121 24.9714L40.6338 25.1705L40.826 25.2268L40.9104 24.939ZM38.5161 20.9636L38.7483 20.7736L38.746 20.7709L38.5161 20.9636ZM38.7452 18.386L38.9359 18.6176L38.9379 18.6159L38.7452 18.386ZM39.7533 21.6166L39.7817 21.318L39.7533 21.6166ZM41.0937 21.1927L40.903 20.9611L40.9002 20.9634L41.0937 21.1927ZM41.3228 18.6151L41.0912 18.8058L41.0929 18.8078L41.3228 18.6151ZM38.3786 28.7539L38.0908 28.6692L38.0825 28.6974L38.0798 28.7267L38.3786 28.7539ZM36.3966 30.415L36.4238 30.1162L36.3966 30.415ZM38.3786 28.7538L38.6664 28.8385L38.6747 28.8103L38.6774 28.781L38.3786 28.7538ZM36.7175 26.7719L36.6586 27.066L36.6742 27.0692L36.69 27.0706L36.7175 26.7719ZM34.7355 28.4331L35.0343 28.4602L35.0344 28.4583L34.7355 28.4331ZM47.6353 26.9552L47.6195 26.6556L47.3611 26.6692L47.3366 26.9268L47.6353 26.9552ZM46.9937 28.204L47.1865 28.4339L47.1913 28.4297L46.9937 28.204ZM47.6353 26.9552L47.6511 27.2548L47.9106 27.2412L47.9341 26.9824L47.6353 26.9552ZM45.9856 24.9848L45.9268 25.279L45.944 25.2824L45.9616 25.2838L45.9856 24.9848ZM44.6452 25.3972L44.8359 25.6288L44.8365 25.6283L44.6452 25.3972ZM44.4161 27.9749L44.6477 27.7841L44.646 27.7821L44.4161 27.9749ZM48.9528 18.1895C52.0276 21.8432 54.0036 26.0421 54.5445 29.9976L55.139 29.9163C54.5801 25.8294 52.5464 21.5278 49.4119 17.8031L48.9528 18.1895ZM35.2119 10.0006C39.8551 10.438 44.978 13.4538 48.9526 18.1892L49.4122 17.8034C45.3674 12.9844 40.1109 9.85946 35.2681 9.40323L35.2119 10.0006ZM33.9581 8.07263C34.3679 8.61537 34.7097 9.20032 34.9625 9.81588L35.5175 9.58793C35.2433 8.92038 34.8748 8.29094 34.4369 7.71105L33.9581 8.07263ZM30.6251 3.69735L33.9588 8.07363L34.4361 7.71004L31.1024 3.33377L30.6251 3.69735ZM21.3131 0.365991C25.4369 -0.00577956 28.7236 1.20243 30.6251 3.69741L31.1023 3.33371C29.0399 0.627557 25.5217 -0.615851 21.2593 -0.231585L21.3131 0.365991ZM9.24438 5.39245C13.0456 2.49881 17.335 0.715353 21.3125 0.366053L21.26 -0.231647C17.1494 0.129338 12.7549 1.9661 8.88096 4.91504L9.24438 5.39245ZM1.21005 15.6832C2.59591 11.9425 5.45461 8.27449 9.24427 5.39254L8.88108 4.91495C5.01799 7.85274 2.07977 11.6085 0.647418 15.4747L1.21005 15.6832ZM1.95743 25.5468C0.056752 23.0639 -0.232695 19.5718 1.21 15.6833L0.647467 15.4746C-0.842651 19.4909 -0.582197 23.2164 1.481 25.9115L1.95743 25.5468ZM3.87101 28.0562L1.95777 25.5473L1.48067 25.9111L3.39391 28.42L3.87101 28.0562ZM2.97121 30.0345C3.20164 29.464 3.51005 28.9234 3.87622 28.413L3.3887 28.0632C2.99875 28.6068 2.66561 29.189 2.41487 29.8098L2.97121 30.0345ZM0.885604 35.1225L2.97062 30.036L2.41545 29.8084L0.330435 34.8949L0.885604 35.1225ZM2.73113 44.8473C0.319594 41.4667 -0.30127 38.0239 0.885685 35.1223L0.330353 34.8951C-0.957146 38.0425 -0.249196 41.7025 2.24267 45.1958L2.73113 44.8473ZM13.1749 52.7062C8.76047 50.8904 5.05238 48.1038 2.73119 44.8474L2.24261 45.1957C4.64137 48.5609 8.44861 51.4109 12.9466 53.2611L13.1749 52.7062ZM22.81 54.7C19.7251 54.7 16.3953 54.0217 13.1742 52.706L12.9473 53.2614C16.2332 54.6036 19.6399 55.3 22.81 55.3V54.7ZM26.1264 54.4181C25.0333 54.6097 23.928 54.7 22.81 54.7V55.3C23.9604 55.3 25.1005 55.207 26.2299 55.0091L26.1264 54.4181ZM34.2522 48.7799C33.0653 51.6704 30.2049 53.697 26.1259 54.4182L26.2304 55.009C30.4458 54.2637 33.5198 52.1432 34.8073 49.0078L34.2522 48.7799ZM36.2111 43.9915L34.2521 48.7803L34.8074 49.0074L36.7664 44.2187L36.2111 43.9915ZM37.6175 44.1843C37.2834 44.0841 36.9367 43.9612 36.6002 43.8265L36.3773 44.3836C36.7282 44.524 37.0918 44.6531 37.4451 44.759L37.6175 44.1843ZM41.8183 44.882C40.395 44.8708 38.9823 44.6354 37.6254 44.1869L37.4371 44.7565C38.8526 45.2245 40.3271 45.4703 41.8135 45.482L41.8183 44.882ZM47.4428 42.9702C45.9345 44.2364 44.0122 44.882 41.8159 44.882V45.482C44.1334 45.482 46.1979 44.7986 47.8285 43.4298L47.4428 42.9702ZM51.6586 39.4303L47.4427 42.9703L47.8286 43.4298L52.0445 39.8898L51.6586 39.4303ZM54.5445 29.9973C55.108 34.0994 54.054 37.4414 51.6599 39.4292L52.0432 39.8908C54.6441 37.7314 55.7211 34.1539 55.1389 29.9157L54.5445 29.9973ZM55.1343 29.8905L55.1342 29.8901L54.5491 30.0229L54.5492 30.0234L55.1343 29.8905ZM31.3462 33.7715L28.5394 36.1314L28.9255 36.5907L31.7323 34.2307L31.3462 33.7715ZM35.8085 37.5069C34.3353 36.4076 32.9869 35.1725 31.763 33.8013L31.3154 34.2008C32.566 35.602 33.9443 36.8644 35.4497 37.9878L35.8085 37.5069ZM33.0615 40.3024L35.8224 37.9768L35.4359 37.5179L32.6749 39.8435L33.0615 40.3024ZM28.5086 36.5608C29.7603 37.9633 31.1632 39.2271 32.6942 40.3173L33.0422 39.8286C31.5486 38.765 30.179 37.5313 28.9562 36.1613L28.5086 36.5608ZM26.2144 33.629C26.5636 34.1527 26.9348 34.6514 27.3144 35.146L27.7904 34.7807C27.4138 34.29 27.0519 33.8035 26.7136 33.2962L26.2144 33.629ZM26.0885 33.4229C26.1365 33.4951 26.1712 33.5478 26.1957 33.5968L26.7323 33.3284C26.6881 33.24 26.6312 33.1554 26.5877 33.0901L26.0885 33.4229ZM26.0897 33.4248L26.0898 33.425L26.5863 33.0881L26.5862 33.0879L26.0897 33.4248ZM26.3265 33.5564H26.338V32.9564H26.3265V33.5564ZM24.2557 30.1863C24.7783 31.3127 25.3931 32.3913 26.0765 33.4221L26.5766 33.0906C25.9081 32.0822 25.3085 31.03 24.8 29.9338L24.2557 30.1863ZM26.6609 28.2285C25.9103 28.7971 25.1513 29.3293 24.3719 29.8038L24.6839 30.3163C25.4854 29.8284 26.2615 29.2838 27.0232 28.7068L26.6609 28.2285ZM27.2356 27.7778C27.0457 27.9342 26.8552 28.0799 26.6598 28.2293L27.0243 28.7059C27.2184 28.5575 27.4175 28.4053 27.617 28.2409L27.2356 27.7778ZM30.5936 32.4047C29.473 31.0012 28.5101 29.4834 27.6939 27.8737L27.1588 28.145C27.9923 29.7889 28.977 31.3415 30.1247 32.7791L30.5936 32.4047ZM27.746 35.1925L30.5528 32.821L30.1655 32.3627L27.3588 34.7342L27.746 35.1925ZM22.4798 37.2809C23.5698 37.7195 24.8233 37.2026 25.2645 36.1064L24.7079 35.8824C24.3929 36.665 23.4926 37.0417 22.7038 36.7243L22.4798 37.2809ZM18.2396 35.5504L22.4785 37.2803L22.7052 36.7248L18.4663 34.9949L18.2396 35.5504ZM19.2095 32.3866L18.0753 35.1591L18.6307 35.3862L19.7648 32.6138L19.2095 32.3866ZM22.7938 30.7235C21.6967 31.3116 20.5541 31.8095 19.3882 32.217L19.5861 32.7834C20.7803 32.366 21.9517 31.8557 23.0773 31.2523L22.7938 30.7235ZM25.1659 34.291C24.4299 33.2042 23.773 32.0487 23.2064 30.8589L22.6646 31.1169C23.2437 32.3328 23.9155 33.5146 24.6691 34.6274L25.1659 34.291ZM25.2638 36.108C25.5043 35.5203 25.4636 34.8675 25.1845 34.3224L24.6504 34.596C24.8525 34.9904 24.8805 35.4605 24.7085 35.8808L25.2638 36.108ZM22.0308 42.3433C23.1247 41.8899 23.6312 40.636 23.1778 39.5557L22.6245 39.788C22.9501 40.5636 22.586 41.4636 21.801 41.7891L22.0308 42.3433ZM20.4044 42.3552C20.9289 42.5704 21.5149 42.555 22.0298 42.3437L21.802 41.7886C21.4233 41.944 21.0012 41.9515 20.6321 41.8001L20.4044 42.3552ZM16.166 40.6255L20.4049 42.3554L20.6316 41.7999L16.3927 40.0699L16.166 40.6255ZM17.3878 36.8431L16.0017 40.2342L16.5571 40.4612L17.9432 37.0702L17.3878 36.8431ZM22.0177 38.4088L17.7789 36.6789L17.5522 37.2344L21.791 38.9643L22.0177 38.4088ZM23.1762 39.552C22.9514 39.0363 22.5398 38.623 22.0183 38.409L21.7905 38.9641C22.1625 39.1167 22.4614 39.4138 22.6261 39.7917L23.1762 39.552ZM10.1501 28.9467H9.85224V29.5467H10.1501V28.9467ZM12.2905 31.5624L10.3888 29.0649L9.91142 29.4284L11.8131 31.9259L12.2905 31.5624ZM6.26818 29.1877C7.5341 30.8514 9.54555 31.8197 12.0249 32.0429L12.0787 31.4454C9.72357 31.2333 7.88571 30.3227 6.74567 28.8244L6.26818 29.1877ZM6.10973 28.984L6.27012 29.1902L6.74374 28.8219L6.58336 28.6157L6.10973 28.984ZM9.84933 28.9467C8.69796 28.9579 7.53308 28.8013 6.42275 28.5097L6.27034 29.09C7.42833 29.3941 8.64644 29.5584 9.85515 29.5466L9.84933 28.9467ZM14.4495 32.0287C14.4379 32.0325 14.4303 32.0331 14.4311 32.033C14.4316 32.033 14.4336 32.0328 14.4382 32.0327C14.4431 32.0326 14.4486 32.0326 14.4577 32.0326V31.4326C14.4301 31.4326 14.3474 31.4303 14.2597 31.4595L14.4495 32.0287ZM12.0766 29.2449L14.1158 31.9257L14.5934 31.5625L12.5541 28.8817L12.0766 29.2449ZM16.0873 27.8182C14.8456 28.2585 13.5699 28.5746 12.2715 28.7665L12.3592 29.3601C13.6957 29.1625 15.0093 28.837 16.2878 28.3837L16.0873 27.8182ZM18.5915 30.7603L16.4262 27.9191L15.949 28.2828L18.1142 31.124L18.5915 30.7603ZM14.486 32.0313C15.8362 31.9033 17.1514 31.6355 18.4431 31.2282L18.2626 30.656C17.0109 31.0507 15.7372 31.31 14.4294 31.434L14.486 32.0313ZM25.2359 27.369L23.0133 24.4591L22.5365 24.8233L24.7591 27.7332L25.2359 27.369ZM20.2683 30.5425C21.9961 29.8119 23.642 28.8846 25.1715 27.7955L24.8235 27.3067C23.3284 28.3713 21.7207 29.2769 20.0346 29.9899L20.2683 30.5425ZM17.7245 27.5724L19.9127 30.4479L20.3902 30.0846L18.202 27.209L17.7245 27.5724ZM22.5997 24.3977C21.1044 25.4739 19.5188 26.3799 17.8426 27.116L18.0839 27.6654C19.7988 26.9122 21.4209 25.9853 22.9502 24.8847L22.5997 24.3977ZM23.9914 23.7235L26.214 26.6334L26.6908 26.2692L24.4682 23.3593L23.9914 23.7235ZM27.9269 19.4451C26.7717 20.8608 25.4689 22.1523 24.0411 23.3082L24.4186 23.7746C25.8776 22.5934 27.2098 21.2729 28.3918 19.8245L27.9269 19.4451ZM30.5863 22.3286L28.3981 19.4531L27.9206 19.8165L30.1088 22.692L30.5863 22.3286ZM26.6411 26.6845C28.1023 25.5017 29.4236 24.1569 30.5825 22.6968L30.1126 22.3238C28.9801 23.7506 27.6896 25.0638 26.2636 26.2181L26.6411 26.6845ZM29.0663 18.2815L31.2316 21.1227L31.7088 20.759L29.5436 17.9178L29.0663 18.2815ZM30.9893 14.4963C30.4588 15.7038 29.8156 16.8438 29.0589 17.928L29.551 18.2714C30.3295 17.1559 30.9921 15.9817 31.5386 14.7376L30.9893 14.4963ZM33.542 17.1161L31.5027 14.4353L31.0252 14.7986L33.0644 17.4794L33.542 17.1161ZM33.5534 17.4957L33.5878 17.3926L33.0186 17.2029L32.9842 17.306L33.5534 17.4957ZM31.7206 21.1061C32.4669 19.9749 33.0724 18.7634 33.5493 17.5073L32.9884 17.2944C32.5258 18.5127 31.9398 19.6843 31.2198 20.7756L31.7206 21.1061ZM31.7814 12.7595L33.6831 15.257L34.1605 14.8935L32.2588 12.396L31.7814 12.7595ZM32.2929 8.78569C32.2929 10.0386 32.1027 11.2919 31.7334 12.4893L32.3068 12.6661C32.6936 11.4119 32.8929 10.099 32.8929 8.78569H32.2929ZM32.9901 8.80774L32.8297 8.60152L32.3561 8.96987L32.5165 9.17609L32.9901 8.80774ZM34.2172 15.1278C34.6519 12.6842 34.2577 10.4857 32.9927 8.81109L32.5139 9.17274C33.6547 10.6829 34.0396 12.7004 33.6265 15.0227L34.2172 15.1278ZM10.003 6.37041C6.40441 9.1127 3.68342 12.5702 2.36533 16.1164L2.92773 16.3254C4.19869 12.9061 6.83929 9.53566 10.3666 6.84764L10.003 6.37041ZM21.4305 1.59028C17.6525 1.92839 13.6018 3.6279 10.003 6.37041L10.3666 6.84764C13.8937 4.15985 17.8395 2.51406 21.484 2.18789L21.4305 1.59028ZM22.729 1.5318C22.3058 1.5318 21.8734 1.5553 21.4337 1.59002L21.4809 2.18816C21.9118 2.15413 22.3272 2.1318 22.729 2.1318V1.5318ZM29.6582 4.44552C28.1988 2.52777 25.7474 1.5318 22.729 1.5318V2.1318C25.622 2.1318 27.8677 3.08341 29.1807 4.80886L29.6582 4.44552ZM30.2277 13.1291C31.4861 9.73836 31.3232 6.62937 29.658 4.4453L29.1809 4.80908C30.6776 6.77222 30.8813 9.64344 29.6652 12.9203L30.2277 13.1291ZM22.59 22.8751C26.1885 20.1329 28.9095 16.6753 30.2276 13.1292L29.6652 12.9201C28.3943 16.3394 25.7537 19.7099 22.2263 22.3979L22.59 22.8751ZM11.1624 27.6553C14.9404 27.3172 18.9911 25.6177 22.59 22.8751L22.2263 22.3979C18.6993 25.0857 14.7535 26.7315 11.1089 27.0577L11.1624 27.6553ZM2.93495 24.8003C4.59995 26.9841 7.54946 27.97 11.1617 27.6553L11.1096 27.0576C7.61905 27.3616 4.90907 26.3999 3.41208 24.4365L2.93495 24.8003ZM2.36559 16.1157C1.09539 19.5068 1.25803 22.6166 2.93558 24.8011L3.41145 24.4357C1.90418 22.4729 1.70022 19.6025 2.92747 16.3261L2.36559 16.1157ZM13.1863 33.3227C9.71481 33.3227 6.95062 32.1227 5.27971 29.9241L4.80201 30.2872C6.61381 32.6711 9.57782 33.9227 13.1863 33.9227V33.3227ZM14.5899 33.2553C14.118 33.3003 13.6464 33.3227 13.1863 33.3227V33.9227C13.6657 33.9227 14.1563 33.8993 14.6468 33.8526L14.5899 33.2553ZM17.1604 32.8384C16.3165 33.0409 15.4603 33.1762 14.5912 33.2552L14.6455 33.8528C15.5408 33.7714 16.4258 33.6317 17.3005 33.4218L17.1604 32.8384ZM14.8388 39.7624L17.5081 33.2438L16.9528 33.0164L14.2836 39.535L14.8388 39.7624ZM12.7513 39.2272L14.4469 39.9261L14.6755 39.3713L12.9799 38.6725L12.7513 39.2272ZM12.4441 40.7598L13.143 39.0642L12.5882 38.8355L11.8894 40.5311L12.4441 40.7598ZM13.9767 41.0669L12.2811 40.3681L12.0524 40.9228L13.748 41.6216L13.9767 41.0669ZM13.4409 43.1542L14.1397 41.4586L13.585 41.23L12.8861 42.9255L13.4409 43.1542ZM14.9734 43.4613L13.2778 42.7625L13.0492 43.3172L14.7448 44.0161L14.9734 43.4613ZM15.3048 41.9256L14.5831 43.6212L15.1351 43.8562L15.8569 42.1606L15.3048 41.9256ZM17.3907 42.4646L15.6952 41.7657L15.4665 42.3205L17.1621 43.0193L17.3907 42.4646ZM16.8549 44.5518L17.5538 42.8563L16.9991 42.6276L16.3002 44.3232L16.8549 44.5518ZM18.3875 44.859L16.6919 44.1602L16.4633 44.7149L18.1588 45.4137L18.3875 44.859ZM18.6946 43.3265L17.9958 45.0221L18.5505 45.2507L19.2494 43.5551L18.6946 43.3265ZM19.9325 43.5064L19.0847 43.1628L18.8593 43.7188L19.7071 44.0625L19.9325 43.5064ZM24.3193 41.6661C23.6145 43.3915 21.6589 44.2117 19.9332 43.5067L19.7063 44.0622C21.7384 44.8924 24.0444 43.9254 24.8747 41.893L24.3193 41.6661ZM24.3093 39.0897C24.6555 39.9081 24.6565 40.8337 24.319 41.6669L24.8751 41.8922C25.2708 40.9153 25.2717 39.8246 24.8618 38.8559L24.3093 39.0897ZM24.3172 39.1068L24.3172 39.1069L24.8539 38.8386L24.8538 38.8385L24.3172 39.1068ZM24.2067 38.8733C24.245 38.9626 24.2831 39.0387 24.3172 39.1068L24.8538 38.8385C24.8192 38.7692 24.7886 38.7079 24.7582 38.6369L24.2067 38.8733ZM26.3603 36.644C25.9934 37.5035 25.2688 38.1662 24.3845 38.4715L24.5803 39.0387C25.6207 38.6795 26.477 37.8989 26.9121 36.8795L26.3603 36.644ZM26.9285 36.6413C26.9167 36.6294 26.9071 36.6198 26.8983 36.6101C26.8889 36.5998 26.8856 36.595 26.8858 36.5953L26.3866 36.9282C26.4289 36.9916 26.4856 37.0469 26.5042 37.0655L26.9285 36.6413ZM34.9272 43.1036C32.0578 41.669 29.294 39.4507 26.9459 36.6602L26.4868 37.0465C28.8817 39.8925 31.7085 42.1652 34.6589 43.6403L34.9272 43.1036ZM27.9827 48.1239C31.4209 47.5178 33.9562 45.8971 35.0653 43.4979L34.5207 43.2461C33.522 45.4066 31.1997 46.9476 27.8786 47.533L27.9827 48.1239ZM15.7078 46.4794C19.8962 48.1918 24.2504 48.7888 27.9833 48.1238L27.878 47.5331C24.2789 48.1742 20.0408 47.6027 15.9348 45.924L15.7078 46.4794ZM5.80438 39.0433C7.99746 42.1345 11.5189 44.7669 15.7078 46.4794L15.9348 45.924C11.8293 44.2455 8.40833 41.6767 6.29374 38.6961L5.80438 39.0433ZM4.0986 30.5079C3.06142 33.0527 3.69499 36.0948 5.80507 39.0442L6.29305 38.6951C4.25593 35.8477 3.72098 33.0241 4.65423 30.7344L4.0986 30.5079ZM4.54404 29.6289C4.37677 29.9037 4.21977 30.205 4.09787 30.5097L4.65496 30.7326C4.7622 30.4645 4.90304 30.193 5.05656 29.9408L4.54404 29.6289ZM5.28087 29.9257L5.04032 29.6049L4.56028 29.9648L4.80084 30.2856L5.28087 29.9257ZM13.1891 51.0468L14.5752 47.6558L14.0198 47.4287L12.6337 50.8198L13.1891 51.0468ZM7.94321 48.367C9.45038 49.4915 11.0734 50.4422 12.7892 51.2073L13.0336 50.6593C11.3582 49.9122 9.77354 48.984 8.30201 47.8861L7.94321 48.367ZM9.20814 44.668L7.8448 48.0133L8.40043 48.2397L9.76377 44.8945L9.20814 44.668ZM14.4197 47.2683C12.7418 46.5201 11.1448 45.6137 9.66208 44.5384L9.30983 45.0241C10.8286 46.1256 12.4621 47.0524 14.1754 47.8163L14.4197 47.2683ZM21.401 49.3423C19.5879 49.0591 17.8092 48.5945 16.0991 47.949L15.8872 48.5103C17.6369 49.1708 19.4556 49.6457 21.3084 49.9352L21.401 49.3423ZM20.2692 53.0973L21.6325 49.752L21.0769 49.5255L19.7136 52.8708L20.2692 53.0973ZM14.5016 51.9016C16.2635 52.5623 18.0838 53.0262 19.9508 53.2813L20.032 52.6868C18.2101 52.4378 16.4332 51.9852 14.7123 51.3398L14.5016 51.9016ZM15.7154 48.1161L14.3293 51.5072L14.8846 51.7342L16.2708 48.3432L15.7154 48.1161ZM2.13055 35.3603L2.02744 35.6009L2.57893 35.8373L2.68203 35.5967L2.13055 35.3603ZM4.19505 38.8354C3.52426 37.7733 3.02066 36.6096 2.69603 35.4007L2.11656 35.5563C2.45639 36.8219 2.98386 38.0413 3.68776 39.1558L4.19505 38.8354ZM3.02726 41.997L4.21872 39.11L3.6641 38.8811L2.47264 41.7681L3.02726 41.997ZM2.02585 35.6047C1.23011 37.5339 1.40928 39.766 2.47912 42.0116L3.02079 41.7535C2.00559 39.6226 1.8641 37.5704 2.58052 35.8335L2.02585 35.6047ZM3.71451 44.1178C3.72148 44.1272 3.72407 44.1308 3.72622 44.134L4.22544 43.8012C4.21392 43.7839 4.20283 43.7691 4.19674 43.7608L3.71451 44.1178ZM3.63394 43.9708C3.65936 44.0471 3.70292 44.1022 3.71451 44.1178L4.19674 43.7608C4.19256 43.7552 4.19064 43.7526 4.18911 43.7504C4.1878 43.7486 4.18814 43.749 4.18927 43.7508C4.19194 43.7551 4.19803 43.7657 4.20315 43.7811L3.63394 43.9708ZM4.91247 40.6465L3.64079 43.7626L4.19631 43.9893L5.46799 40.8732L4.91247 40.6465ZM8.17893 43.383C7.17322 42.5356 6.24764 41.5986 5.42424 40.5722L4.95623 40.9476C5.80545 42.0062 6.75867 42.9709 7.79231 43.8419L8.17893 43.383ZM6.91141 47.0256L8.26323 43.7262L7.70802 43.4987L6.3562 46.7981L6.91141 47.0256ZM3.73153 44.1418C4.51279 45.2378 5.42192 46.2399 6.43498 47.1365L6.83263 46.6872C5.8523 45.8196 4.97399 44.8512 4.22012 43.7935L3.73153 44.1418ZM22.9789 49.7425L21.6271 53.0419L22.1823 53.2693L23.5341 49.9699L22.9789 49.7425ZM24.8948 49.6135C24.3601 49.6135 23.8195 49.6021 23.2815 49.5572L23.2316 50.1552C23.7934 50.202 24.3526 50.2135 24.8948 50.2135V49.6135ZM27.2083 49.4781C26.4409 49.5683 25.6736 49.6135 24.8948 49.6135V50.2135C25.697 50.2135 26.4877 50.167 27.2784 50.0739L27.2083 49.4781ZM26.2495 53.0055L27.5211 49.8894L26.9656 49.6626L25.6939 52.7788L26.2495 53.0055ZM25.9695 53.1995C25.9835 53.1972 26.0236 53.191 26.0666 53.1767L25.8768 52.6075C25.8824 52.6057 25.8857 52.605 25.8848 52.6052C25.8843 52.6053 25.8831 52.6055 25.8808 52.606C25.8782 52.6064 25.8754 52.6069 25.8709 52.6076L25.9695 53.1995ZM25.9695 53.1995L25.9695 53.1995L25.8709 52.6076L25.8708 52.6077L25.9695 53.1995ZM25.9694 53.1995L25.9695 53.1995L25.8708 52.6077L25.8708 52.6077L25.9694 53.1995ZM25.9635 53.1996C25.9579 53.2015 25.9546 53.2021 25.9555 53.2019C25.956 53.2018 25.9572 53.2016 25.9595 53.2012C25.9621 53.2007 25.9649 53.2003 25.9694 53.1995L25.8707 52.6077C25.8568 52.61 25.8167 52.6161 25.7737 52.6304L25.9635 53.1996ZM21.8891 53.4552C23.2292 53.5251 24.5806 53.4435 25.92 53.2106L25.8172 52.6195C24.5217 52.8448 23.2152 52.9236 21.9204 52.856L21.8891 53.4552ZM29.1082 49.2839L27.9168 52.1823L28.4717 52.4105L29.6632 49.512L29.1082 49.2839ZM32.784 47.7079C31.711 48.345 30.5364 48.815 29.3161 49.1061L29.4553 49.6897C30.7325 49.3851 31.9637 48.8928 33.0903 48.2238L32.784 47.7079ZM33.1098 48.3246L33.2129 48.0841L32.6614 47.8477L32.5583 48.0883L33.1098 48.3246ZM28.298 52.5779C30.6252 51.7198 32.3163 50.2602 33.1116 48.3203L32.5564 48.0927C31.8395 49.8416 30.2999 51.2003 28.0905 52.0149L28.298 52.5779ZM37.0059 38.5941L34.2793 40.8854L34.6653 41.3447L37.3919 39.0535L37.0059 38.5941ZM40.8706 40.3313C39.6506 39.857 38.4761 39.2697 37.3581 38.5695L37.0397 39.078C38.19 39.7985 39.3984 40.4027 40.6531 40.8905L40.8706 40.3313ZM38.3772 43.0059L40.9548 40.8406L40.5689 40.3812L37.9913 42.5465L38.3772 43.0059ZM37.9863 43.0264L38.0894 43.0608L38.2791 42.4916L38.176 42.4572L37.9863 43.0264ZM34.3199 41.3734C35.4853 42.061 36.7195 42.608 37.987 43.0267L38.1752 42.4569C36.9452 42.0507 35.7505 41.5209 34.6248 40.8567L34.3199 41.3734ZM40.4018 43.5662C42.8696 43.8952 45.0459 43.3936 46.6493 42.0434L46.2628 41.5844C44.8188 42.8004 42.825 43.284 40.4811 42.9715L40.4018 43.5662ZM42.6425 41.0231L40.2482 43.0394L40.6347 43.4983L43.029 41.482L42.6425 41.0231ZM46.0206 41.3535C44.9694 41.3535 43.9287 41.2194 42.9093 40.9617L42.7623 41.5434C43.8279 41.8128 44.9181 41.9535 46.0206 41.9535V41.3535ZM46.6339 41.3311C46.4267 41.3426 46.2286 41.3535 46.0206 41.3535V41.9535C46.2478 41.9535 46.4621 41.9416 46.6672 41.9302L46.6339 41.3311ZM46.6307 41.3313L46.6306 41.3313L46.6705 41.93L46.6707 41.93L46.6307 41.3313ZM46.6617 42.0323L46.8563 41.8491L46.4451 41.4122L46.2504 41.5954L46.6617 42.0323ZM42.218 39.4992C45.6668 40.5945 48.7537 40.2884 50.8649 38.515L50.479 38.0556C48.5804 39.6503 45.7329 39.9859 42.3996 38.9273L42.218 39.4992ZM32.1125 32.3381C35.0283 35.7978 38.6135 38.3444 42.2173 39.499L42.4003 38.9276C38.9241 37.8138 35.4293 35.3425 32.5713 31.9514L32.1125 32.3381ZM28.6003 26.925C29.5394 28.8725 30.7217 30.6924 32.1127 32.3384L32.571 31.9511C31.2125 30.3436 30.0578 28.5662 29.1408 26.6644L28.6003 26.925ZM34.7186 17.9488C33.5808 21.0017 31.4688 23.9994 28.6676 26.5738L29.0736 27.0156C31.9318 24.3888 34.1045 21.3148 35.2808 18.1583L34.7186 17.9488ZM35.5057 11.6757C35.8162 13.5497 35.5636 15.6843 34.7187 17.9487L35.2808 18.1584C36.1543 15.8175 36.4287 13.5757 36.0976 11.5776L35.5057 11.6757ZM48.0265 18.9947C44.545 14.8544 39.9826 11.9861 35.8487 11.3303L35.7547 11.9229C39.7088 12.5502 44.1512 15.3184 47.5672 19.3809L48.0265 18.9947ZM53.3411 30.1797C52.8279 26.4359 50.9428 22.455 48.0263 18.9945L47.5675 19.3812C50.4248 22.7714 52.2516 26.6496 52.7466 30.2612L53.3411 30.1797ZM50.8653 38.5154C52.976 36.7425 53.8191 33.7586 53.3412 30.1807L52.7465 30.2601C53.2081 33.7164 52.3786 36.4607 50.4794 38.0559L50.8653 38.5154ZM50.4823 38.5178L50.4827 38.5181L50.862 38.0532L50.8616 38.0528L50.4823 38.5178ZM6.90714 22.4565C6.8818 22.4616 6.8624 22.4621 6.81705 22.4621V23.0621C6.86334 23.0621 6.9356 23.0627 7.02482 23.0448L6.90714 22.4565ZM20.2884 20.335L6.91901 22.4544L7.01295 23.047L20.3824 20.9276L20.2884 20.335ZM20.7482 19.9835C20.6631 20.1769 20.4972 20.304 20.2914 20.3345L20.3794 20.9281C20.7922 20.8669 21.1305 20.6045 21.2974 20.2251L20.7482 19.9835ZM26.3402 7.65317L20.7496 19.9804L21.296 20.2282L26.8867 7.90099L26.3402 7.65317ZM26.0321 6.83625C26.338 6.97396 26.4786 7.3456 26.3399 7.65396L26.887 7.90019C27.1607 7.29205 26.8889 6.56389 26.2783 6.28911L26.0321 6.83625ZM25.6835 6.78881C25.795 6.76789 25.9173 6.78713 26.037 6.83843L26.2734 6.28694C26.0723 6.20076 25.828 6.15126 25.5729 6.19908L25.6835 6.78881ZM12.3058 8.90962L25.6752 6.79025L25.5812 6.19765L12.2118 8.31702L12.3058 8.90962ZM11.846 9.26113C11.9311 9.06768 12.097 8.94057 12.3028 8.91008L12.2148 8.31656C11.802 8.37772 11.4637 8.64013 11.2968 9.01948L11.846 9.26113ZM6.25396 21.5914L11.8446 9.26421L11.2982 9.0164L5.70753 21.3436L6.25396 21.5914ZM6.56212 22.4084C6.25615 22.2707 6.11555 21.899 6.25432 21.5906L5.70717 21.3444C5.4335 21.9526 5.70534 22.6807 6.31588 22.9555L6.56212 22.4084ZM6.81705 22.4621C6.73011 22.4621 6.64319 22.4405 6.55041 22.4034L6.32759 22.9605C6.46394 23.015 6.62905 23.0621 6.81704 23.0621L6.81705 22.4621ZM16.9922 19.0373L13.6241 17.6168L13.3909 18.1697L16.7591 19.5902L16.9922 19.0373ZM10.3121 20.6526L16.9224 19.6101L16.8289 19.0174L10.2187 20.0599L10.3121 20.6526ZM13.326 17.6544L10.0839 20.1174L10.4469 20.5952L13.689 18.1321L13.326 17.6544ZM13.1414 10.3255L13.7829 15.1943L14.3778 15.116L13.7362 10.2471L13.1414 10.3255ZM22.2819 8.58085L13.3918 9.98996L13.4858 10.5826L22.3758 9.17345L22.2819 8.58085ZM14.262 15.3939L22.5106 9.11587L22.1472 8.63843L13.8986 14.9164L14.262 15.3939ZM9.33618 19.1513L12.5783 16.6767L12.2143 16.1998L8.97215 18.6743L9.33618 19.1513ZM11.6418 12.6942L8.88089 18.789L9.42743 19.0366L12.1884 12.9418L11.6418 12.6942ZM12.6937 16.3987L12.2125 12.7785L11.6177 12.8575L12.0989 16.4778L12.6937 16.3987ZM15.0748 16.8979L19.6001 18.8111L19.8337 18.2585L15.3085 16.3452L15.0748 16.8979ZM23.2585 10.1047L15.01 16.3828L15.3734 16.8603L23.6219 10.5822L23.2585 10.1047ZM19.99 18.6589L23.7133 10.4676L23.1671 10.2193L19.4438 18.4107L19.99 18.6589ZM46.1603 22.8529C44.4376 22.7042 42.8266 23.6835 42.1577 25.2691L42.7105 25.5024C43.2788 24.1553 44.6465 23.3244 46.1086 23.4507L46.1603 22.8529ZM45.8373 23.1104L45.8373 23.1105L46.4316 23.1931L46.4316 23.1929L45.8373 23.1104ZM48.8497 24.2413C48.1798 23.4473 47.2013 22.9396 46.1594 22.8527L46.1095 23.4506C46.9922 23.5242 47.8238 23.9558 48.3912 24.6282L48.8497 24.2413ZM48.3672 29.8307C50.0392 28.4189 50.2636 25.9157 48.8497 24.2412L48.3912 24.6283C49.5893 26.0471 49.4014 28.1721 47.9801 29.3723L48.3672 29.8307ZM45.8251 30.7608C46.7558 30.7608 47.6604 30.426 48.3669 29.831L47.9804 29.3721C47.381 29.8769 46.6129 30.1608 45.8251 30.1608V30.7608ZM45.4712 30.7475C45.5938 30.7611 45.7256 30.7608 45.8251 30.7608V30.1608C45.7184 30.1608 45.621 30.1604 45.5375 30.1511L45.4712 30.7475ZM41.8841 27.2541C42.107 29.1238 43.6055 30.5869 45.4786 30.7482L45.5301 30.1504C43.9432 30.0138 42.6694 28.7733 42.4799 27.1831L41.8841 27.2541ZM40.1969 26.9569L42.0986 27.5068L42.2653 26.9304L40.3636 26.3805L40.1969 26.9569ZM40.0599 27.2428L40.4723 26.8992L40.0882 26.4382L39.6758 26.7819L40.0599 27.2428ZM39.7922 30.8856C40.6214 29.7099 40.759 28.1736 40.1382 26.8824L39.5975 27.1424C40.1223 28.2341 40.0078 29.5389 39.3019 30.5399L39.7922 30.8856ZM34.2642 31.8168C36.0482 33.0804 38.5148 32.6717 39.7911 30.8873L39.303 30.5382C38.2195 32.0532 36.1263 32.4005 34.611 31.3272L34.2642 31.8168ZM33.3335 26.2891C32.0699 28.0731 32.4786 30.5397 34.263 31.816L34.6121 31.328C33.0971 30.2444 32.7498 28.1513 33.8232 26.6359L33.3335 26.2891ZM38.8612 25.3585C37.0772 24.0948 34.6106 24.5035 33.3343 26.288L33.8224 26.637C34.9059 25.1221 36.9991 24.7747 38.5144 25.8481L38.8612 25.3585ZM38.9082 25.0291L38.4958 25.3728L38.8799 25.8337L39.2923 25.4901L38.9082 25.0291ZM38.5844 23.3221L38.8021 25.2925L39.3984 25.2266L39.1808 23.2562L38.5844 23.3221ZM36.0578 20.6503C36.3682 22.0531 37.4227 23.1682 38.7971 23.5767L38.9681 23.0016C37.7991 22.6541 36.9061 21.707 36.6437 20.5207L36.0578 20.6503ZM39.0568 15.9052C36.9259 16.3883 35.5747 18.5071 36.0581 20.6515L36.6434 20.5196C36.2333 18.7 37.3796 16.9007 39.1895 16.4903L39.0568 15.9052ZM43.8036 18.9038C43.3204 16.7729 41.2016 15.4217 39.0572 15.9051L39.1892 16.4904C41.0087 16.0803 42.808 17.2266 43.2184 19.0365L43.8036 18.9038ZM40.8049 23.6505C42.9358 23.1674 44.287 21.0486 43.8036 18.9042L43.2183 19.0361C43.6285 20.8557 42.4821 22.655 40.6722 23.0654L40.8049 23.6505ZM41.2086 24.9065L41.0368 23.3256L40.4403 23.3904L40.6121 24.9714L41.2086 24.9065ZM42.5185 25.0979L40.9948 24.6511L40.826 25.2268L42.3497 25.6736L42.5185 25.0979ZM38.746 20.7709C38.1988 20.1181 38.287 19.1519 38.9359 18.6176L38.5545 18.1544C37.6453 18.9032 37.5273 20.251 38.2861 21.1563L38.746 20.7709ZM39.7817 21.318C39.377 21.2794 39.0048 21.0872 38.7483 20.7737L38.2839 21.1536C38.6459 21.5961 39.1672 21.8622 39.7248 21.9153L39.7817 21.318ZM40.9002 20.9634C40.5934 21.2223 40.1802 21.3559 39.7817 21.318L39.7248 21.9153C40.2887 21.969 40.8608 21.7818 41.2871 21.422L40.9002 20.9634ZM41.0929 18.8078C41.6401 19.4606 41.5518 20.4268 40.903 20.9612L41.2844 21.4243C42.1936 20.6756 42.3116 19.3277 41.5527 18.4224L41.0929 18.8078ZM38.9379 18.6159C39.5907 18.0687 40.5569 18.157 41.0912 18.8058L41.5544 18.4244C40.8056 17.5152 39.4578 17.3972 38.5525 18.1561L38.9379 18.6159ZM38.0798 28.7267C38.003 29.5721 37.2648 30.1927 36.4238 30.1162L36.3695 30.7138C37.5448 30.8206 38.5709 29.952 38.6773 28.781L38.0798 28.7267ZM38.0908 28.6692L38.0908 28.6692L38.6664 28.8385L38.6664 28.8385L38.0908 28.6692ZM36.69 27.0706C37.5257 27.1474 38.1561 27.8872 38.0798 28.7267L38.6774 28.781C38.7844 27.6041 37.9027 26.5796 36.7449 26.4731L36.69 27.0706ZM36.5571 27.0604C36.6158 27.0604 36.634 27.0611 36.6586 27.066L36.7763 26.4777C36.6864 26.4597 36.613 26.4604 36.5571 26.4604V27.0604ZM35.0344 28.4583C35.1015 27.6635 35.7613 27.0604 36.5571 27.0604V26.4604C35.451 26.4604 34.5299 27.3009 34.4366 28.4078L35.0344 28.4583ZM36.4238 30.1162C35.5784 30.0394 34.9578 29.3012 35.0343 28.4602L34.4367 28.4059C34.3299 29.5813 35.1985 30.6073 36.3695 30.7138L36.4238 30.1162ZM47.3366 26.9268C47.2981 27.3313 47.1054 27.7076 46.7962 27.9782L47.1913 28.4297C47.6152 28.0588 47.8808 27.5415 47.9339 26.9837L47.3366 26.9268ZM47.6196 26.6556L47.6195 26.6556L47.651 27.2548L47.6511 27.2548L47.6196 26.6556ZM45.9616 25.2838C46.791 25.3506 47.4132 26.0853 47.3366 26.9281L47.9341 26.9824C48.0408 25.809 47.1737 24.7794 46.0097 24.6858L45.9616 25.2838ZM45.8252 25.2733C45.8839 25.2733 45.9022 25.2741 45.9268 25.279L46.0445 24.6906C45.9545 24.6726 45.8811 24.6733 45.8252 24.6733V25.2733ZM44.8365 25.6283C45.1148 25.398 45.4595 25.2733 45.8252 25.2733V24.6733C45.3202 24.6733 44.8401 24.8465 44.4539 25.1661L44.8365 25.6283ZM44.646 27.7821C44.0988 27.1294 44.1871 26.1632 44.8359 25.6288L44.4545 25.1656C43.5453 25.9144 43.4273 27.2623 44.1862 28.1676L44.646 27.7821ZM46.801 27.9741C46.1482 28.5212 45.182 28.433 44.6477 27.7841L44.1845 28.1656C44.9333 29.0748 46.2811 29.1928 47.1864 28.4339L46.801 27.9741Z" fill="#2A3E46" mask="url(#path-1-inside-1_20_119)"/>
<defs>
<linearGradient id="paint0_linear_20_119" x1="2.5" y1="2" x2="27.4965" y2="55" gradientUnits="userSpaceOnUse">
<stop stop-color="#7EBBFF"/>
<stop offset="1" stop-color="#5ED9FF"/>
</linearGradient>
</defs>
</svg>
