<svg width="62" height="55" viewBox="0 0 62 55" fill="none" xmlns="http://www.w3.org/2000/svg">
<path d="M41.8997 36.8871L46.4123 39.5304L41.8997 42.1089V36.8871Z" fill="url(#paint0_linear_20_133)" stroke="#2B3B46" stroke-width="0.2"/>
<path d="M33.656 26.8125C33.656 28.314 32.4386 29.5314 30.9371 29.5314C29.4357 29.5314 28.2183 28.314 28.2183 26.8125C28.2183 25.311 29.4357 24.0937 30.9371 24.0937C32.4386 24.0937 33.656 25.311 33.656 26.8125Z" fill="url(#paint1_linear_20_133)" stroke="#2B3B46" stroke-width="0.2"/>
<path d="M34.3749 33.3816H34.2749V33.4816V39.426L25.649 30.7333C26.0366 30.375 26.5346 30.144 27.0876 30.144H34.8564C35.9698 30.144 36.8875 31.0617 36.8875 32.1751L36.887 41.7998C36.887 41.8476 36.8764 41.898 36.8622 41.9501L34.8873 40.0394V33.4816V33.3816H34.7873H34.3749Z" fill="url(#paint2_linear_20_133)" stroke="#2B3B46" stroke-width="0.2"/>
<path d="M8.76867 26.8125C8.76867 28.314 7.55174 29.5314 6.0503 29.5314C4.54836 29.5314 3.33145 28.314 3.33145 26.8125C3.33145 25.311 4.54836 24.0937 6.0503 24.0937C7.55174 24.0937 8.76867 25.311 8.76867 26.8125Z" fill="url(#paint3_linear_20_133)" stroke="#2B3B46" stroke-width="0.2"/>
<path d="M2.20021 33.3812H2.10021V33.4812V41.8687C2.10021 42.4321 1.66351 42.8688 1.1001 42.8688C0.536708 42.8688 0.1 42.4321 0.1 41.8687V32.1749C0.1 31.0615 1.01766 30.1438 2.13111 30.1438H9.83467L9.83477 30.144H9.90005C11.0115 30.144 11.9327 31.0602 11.9998 32.1781L12.0003 41.8689C12.0003 42.4323 11.5636 42.869 11.0002 42.869C10.4368 42.869 10.0001 42.4323 10.0001 41.8689V33.4815V33.3815H9.90006H9.48764H9.38764V33.4815V42.969L9.38716 53.4186C9.38716 54.2568 8.74468 54.8997 7.90604 54.8997C7.06782 54.8997 6.42492 54.2573 6.42492 53.4186L6.4254 42.9691L6.42541 42.869H6.3254H5.84392H5.74393L5.74392 42.969L5.74344 53.4186C5.74344 54.2568 5.10097 54.8997 4.26233 54.8997H4.19375C3.35553 54.8997 2.71263 54.2573 2.71263 53.4186V33.4812V33.3812H2.61263H2.20021Z" fill="url(#paint4_linear_20_133)" stroke="#2B3B46" stroke-width="0.2"/>
<path d="M58.6122 26.8125C58.6122 28.314 57.3952 29.5314 55.8938 29.5314C54.3919 29.5314 53.175 28.314 53.175 26.8125C53.175 25.311 54.3919 24.0937 55.8938 24.0937C57.3952 24.0937 58.6122 25.311 58.6122 26.8125Z" fill="url(#paint5_linear_20_133)" stroke="#2B3B46" stroke-width="0.2"/>
<path d="M52.0436 33.3812H51.9436V33.4812V41.8687C51.9436 42.4321 51.5069 42.8688 50.9435 42.8688C50.3801 42.8688 49.9434 42.4321 49.9434 41.8687V32.1749C49.9434 31.0615 50.861 30.1438 51.9745 30.1438H59.6771L59.6772 30.144H59.7434C60.8549 30.144 61.7761 31.0602 61.8432 32.1781L61.8437 41.8689C61.8437 42.4323 61.407 42.869 60.8435 42.869C60.2801 42.869 59.8434 42.4323 59.8434 41.8689V33.4815V33.3815H59.7434H59.331H59.231V33.4815V42.969L59.2305 53.4186C59.2305 54.2568 58.5881 54.8997 57.7494 54.8997C56.9112 54.8997 56.2683 54.2573 56.2683 53.4186L56.2688 42.9691L56.2688 42.869H56.1688H55.6873H55.5873L55.5873 42.969L55.5868 53.4186C55.5868 54.2568 54.9444 54.8997 54.1057 54.8997H54.0371C53.1989 54.8997 52.556 54.2573 52.556 53.4186V33.4812V33.3812H52.456H52.0436Z" fill="url(#paint6_linear_20_133)" stroke="#2B3B46" stroke-width="0.2"/>
<path d="M16.9436 36.8858L21.5233 39.5304L16.9436 42.1101V36.8858Z" fill="url(#paint7_linear_20_133)" stroke="#2B3B46" stroke-width="0.2"/>
<path d="M30.9373 1.61903H30.8292L30.8292 1.61939C27.4867 1.63249 24.2781 2.25417 21.205 3.55205L21.205 3.55204L21.2035 3.5527C18.2373 4.86358 15.5458 6.65755 13.2678 8.9354C10.9452 11.1894 9.1632 13.8498 7.92262 16.7805L6.52451 16.1724C7.82555 13.0608 9.79599 10.2825 12.1723 7.83854L12.1723 7.83853C14.5675 5.37463 17.4432 3.52521 20.5959 2.15462C23.8831 0.785075 27.3759 0.1 30.9378 0.1C34.4995 0.1 37.9929 0.785225 41.2804 2.15492L41.2806 2.15504C44.4299 3.45592 47.2379 5.37323 49.7042 7.83954C51.2115 9.34681 52.581 11.059 53.6763 12.9074L53.803 13.1211L53.8597 12.8793L55.4177 6.24069L56.8745 6.60482L54.6511 16.4421L44.9496 13.4776L45.3727 12.0876L52.4266 14.2583L52.6683 14.3327L52.5428 14.1131C51.4386 12.1809 50.127 10.4552 48.6083 8.9363C46.3303 6.58908 43.6373 4.79391 40.6697 3.55176L40.6682 3.55117C37.564 2.30963 34.3201 1.61903 30.9373 1.61903Z" fill="url(#paint8_linear_20_133)" stroke="#2B3B46" stroke-width="0.2"/>
<path d="M25.0268 34.9917L16.5059 26.4708L17.5978 25.4392L44.2018 51.976L43.106 53.0717L34.4454 44.4111L34.2747 44.2404L34.2747 44.4818L34.2742 53.4189C34.2742 54.2571 33.6317 54.9 32.7931 54.9C31.9549 54.9 31.312 54.2575 31.312 53.4189L31.3125 42.9693L31.3125 42.8693H31.2125H30.731H30.631L30.631 42.9693L30.6305 53.4189C30.6305 54.2571 29.988 54.9 29.1494 54.9H29.0808C28.2426 54.9 27.5997 54.2575 27.5997 53.4189V37.6065V37.5703L27.5765 37.5425L27.2332 37.1301L27.0563 36.9176V37.194V41.8688C27.0563 42.4322 26.6196 42.8689 26.0562 42.8689C25.4928 42.8689 25.0561 42.4322 25.0561 41.8688V35.0624V35.021L25.0268 34.9917Z" fill="url(#paint9_linear_20_133)" stroke="#2B3B46" stroke-width="0.2"/>
<defs>
<linearGradient id="paint0_linear_20_133" x1="42.1881" y1="37.1682" x2="45.1783" y2="41.6294" gradientUnits="userSpaceOnUse">
<stop stop-color="#7EBBFF"/>
<stop offset="1" stop-color="#5ED9FF"/>
</linearGradient>
<linearGradient id="paint1_linear_20_133" x1="28.5734" y1="24.4549" x2="31.4123" y2="29.3562" gradientUnits="userSpaceOnUse">
<stop stop-color="#7EBBFF"/>
<stop offset="1" stop-color="#5ED9FF"/>
</linearGradient>
<linearGradient id="paint2_linear_20_133" x1="26.4332" y1="31.034" x2="32.6807" y2="41.2685" gradientUnits="userSpaceOnUse">
<stop stop-color="#7EBBFF"/>
<stop offset="1" stop-color="#5ED9FF"/>
</linearGradient>
<linearGradient id="paint3_linear_20_133" x1="3.68647" y1="24.4549" x2="6.52551" y2="29.3559" gradientUnits="userSpaceOnUse">
<stop stop-color="#7EBBFF"/>
<stop offset="1" stop-color="#5ED9FF"/>
</linearGradient>
<linearGradient id="paint4_linear_20_133" x1="0.976715" y1="32.0856" x2="15.2381" y2="44.0237" gradientUnits="userSpaceOnUse">
<stop stop-color="#7EBBFF"/>
<stop offset="1" stop-color="#5ED9FF"/>
</linearGradient>
<linearGradient id="paint5_linear_20_133" x1="53.53" y1="24.4549" x2="56.369" y2="29.3559" gradientUnits="userSpaceOnUse">
<stop stop-color="#7EBBFF"/>
<stop offset="1" stop-color="#5ED9FF"/>
</linearGradient>
<linearGradient id="paint6_linear_20_133" x1="50.8201" y1="32.0856" x2="65.0815" y2="44.0237" gradientUnits="userSpaceOnUse">
<stop stop-color="#7EBBFF"/>
<stop offset="1" stop-color="#5ED9FF"/>
</linearGradient>
<linearGradient id="paint7_linear_20_133" x1="17.2377" y1="37.1682" x2="20.2114" y2="41.6687" gradientUnits="userSpaceOnUse">
<stop stop-color="#7EBBFF"/>
<stop offset="1" stop-color="#5ED9FF"/>
</linearGradient>
<linearGradient id="paint8_linear_20_133" x1="10.4787" y1="1.38376" x2="14.143" y2="20.3105" gradientUnits="userSpaceOnUse">
<stop stop-color="#7EBBFF"/>
<stop offset="1" stop-color="#5ED9FF"/>
</linearGradient>
<linearGradient id="paint9_linear_20_133" x1="18.621" y1="27.7298" x2="34.0062" y2="52.7539" gradientUnits="userSpaceOnUse">
<stop stop-color="#7EBBFF"/>
<stop offset="1" stop-color="#5ED9FF"/>
</linearGradient>
</defs>
</svg>
