<svg width="92" height="92" viewBox="0 0 92 92" fill="none" xmlns="http://www.w3.org/2000/svg">
<mask id="path-1-inside-1_43_295" fill="white">
<path fill-rule="evenodd" clip-rule="evenodd" d="M23.913 33.9522L33.2294 40.9398C33.6231 41.2346 34.1567 41.2604 34.5773 41.0049C34.9979 40.7494 35.2205 40.2638 35.1404 39.7787L34.1701 33.9523H37.5666C39.1635 33.9501 40.6947 33.3149 41.8241 32.186C42.9531 31.0566 43.5882 29.5254 43.5904 27.9285V15.8809C43.5882 14.284 42.953 12.7528 41.8241 11.6233C40.6947 10.4944 39.1635 9.85926 37.5666 9.85706H15.8809C14.284 9.85921 12.7528 10.4944 11.6233 11.6233C10.4944 12.7528 9.85926 14.284 9.85706 15.8809V27.9285C9.85921 29.5254 10.4944 31.0566 11.6233 32.186C12.7528 33.315 14.284 33.9501 15.8809 33.9523L23.913 33.9522ZM12.2666 27.9284V15.8808C12.2666 14.9224 12.6474 14.0026 13.325 13.3251C14.0027 12.6475 14.9225 12.2666 15.8808 12.2666H37.5665C38.5249 12.2666 39.4447 12.6474 40.1222 13.3251C40.7998 14.0027 41.1807 14.9225 41.1807 15.8808V27.9284C41.1807 28.8868 40.7999 29.8066 40.1222 30.4842C39.4446 31.1617 38.5248 31.5426 37.5665 31.5426H32.7475C32.3936 31.5426 32.0574 31.6986 31.8288 31.9686C31.5997 32.2386 31.5013 32.5957 31.5594 32.9448L32.2656 37.205L25.037 31.7835C24.8283 31.627 24.575 31.5426 24.3141 31.5426H15.8808C14.9224 31.5426 14.0026 31.1618 13.325 30.4841C12.6475 29.8064 12.2666 28.8867 12.2666 27.9284ZM65.2757 61.4099V45.9999C65.2687 42.0624 64.0574 38.2217 61.8039 34.9926C59.5504 31.7639 56.3625 29.3022 52.6692 27.9383L56.7391 18.7821H56.7385C56.8832 18.4567 56.8762 18.0845 56.7202 17.7645C56.5637 17.445 56.2744 17.2106 55.9291 17.1245L53.333 16.4737C51.62 16.0477 49.8112 16.2467 48.2321 17.0352C47.5383 17.3794 46.774 17.5596 45.9995 17.5607V19.9702C47.1478 19.9675 48.2799 19.7002 49.3077 19.1882C50.3721 18.6568 51.5914 18.5223 52.7462 18.8095L53.9509 19.1118L50.3366 27.2353V27.2359C48.9152 26.9008 47.4597 26.7287 45.9995 26.7238V29.1334C50.4712 29.1382 54.7587 30.9168 57.9207 34.0788C61.0827 37.2408 62.8613 41.5284 62.8662 46V60.9391C59.8097 60.6072 56.725 61.222 54.0294 62.7005L53.7245 62.8667H44.7948C43.2937 62.8667 41.8786 63.5664 40.9669 64.7582C40.0553 65.9506 39.7509 67.4996 40.1446 68.9486L30.4221 64.491C30.0117 64.3119 29.5771 64.1946 29.1329 64.1414V45.9997C29.1302 44.4804 29.3329 42.9675 29.7353 41.5023L27.4123 40.8591C26.9525 42.5339 26.7207 44.2631 26.7234 45.9998V64.4581C25.6047 64.9282 24.7221 65.8274 24.2729 66.9542C23.8631 67.9707 23.8303 69.1002 24.1804 70.1382C24.53 71.1768 25.24 72.0556 26.1812 72.6166L40.049 80.9381C41.3586 81.725 42.8575 82.1418 44.3861 82.1429H82.1413V79.7334H71.2985V66.481H82.1413V64.0715H70.5046C68.9524 62.8506 67.1753 61.9458 65.2746 61.4102L65.2757 61.4099ZM41.2892 78.8796L27.4214 70.5544C26.9717 70.2871 26.6324 69.867 26.4651 69.3706C26.2984 68.8747 26.3145 68.3352 26.5108 67.8501C26.6716 67.4483 26.9491 67.1041 27.3068 66.8615C27.665 66.619 28.0877 66.4894 28.5202 66.4883C28.8305 66.4894 29.1376 66.5566 29.42 66.6862L41.8844 72.3954C42.0414 72.468 42.2125 72.5051 42.3856 72.5051H54.4333C55.0986 72.5051 55.638 71.9657 55.638 71.3004C55.638 70.6351 55.0986 70.0956 54.4333 70.0956H44.7952C43.9341 70.0956 43.1386 69.6363 42.7084 68.8908C42.2781 68.1454 42.2781 67.2268 42.7084 66.4813C43.1386 65.7359 43.9341 65.2766 44.7952 65.2766H54.032C54.2337 65.2766 54.4322 65.226 54.6091 65.1297L55.1825 64.8167V64.8162C57.3214 63.6388 59.7569 63.1095 62.1916 63.2946C64.6259 63.4791 66.9536 64.3692 68.8903 65.8558V79.7333H44.3875C43.2957 79.7328 42.2249 79.4359 41.289 78.8744L41.2892 78.8796ZM73.7089 74.9142H76.1185V77.3237H73.7089V74.9142ZM44.7947 38.7714V36.3619H47.2042V38.7714H50.8185V41.1809H44.1584C43.3355 41.1799 42.6202 41.7457 42.4309 42.5465C42.2416 43.3473 42.6283 44.1734 43.3646 44.5408L49.7111 47.713C50.8438 48.2787 51.6591 49.327 51.9291 50.564C52.1986 51.801 51.8936 53.094 51.0992 54.0799C50.3044 55.0657 49.1065 55.6385 47.8405 55.6379H47.2042V58.0475H44.7947V55.6379H41.1804V53.2284H47.8404C48.6634 53.2295 49.3787 52.6637 49.568 51.8628C49.7573 51.0621 49.3706 50.2359 48.6343 49.8686L42.2878 46.6964C41.1551 46.1307 40.3398 45.0824 40.0698 43.8453C39.8003 42.6083 40.1053 41.3154 40.8997 40.3295C41.6945 39.3437 42.8924 38.7709 44.1584 38.7714H44.7947ZM31.8948 15.0286L19.8472 27.0762L21.551 28.7801L33.5986 16.7325L31.8948 15.0286ZM20.6995 21.9046C21.6579 21.9046 22.5777 21.5238 23.2552 20.8462C23.9328 20.1685 24.3137 19.2487 24.3137 18.2904C24.3137 17.3321 23.9329 16.4122 23.2552 15.7347C22.5775 15.0571 21.6578 14.6762 20.6995 14.6762C19.7412 14.6762 18.8213 15.057 18.1437 15.7347C17.4662 16.4124 17.0852 17.3321 17.0852 18.2904C17.0852 19.2487 17.466 20.1686 18.1437 20.8462C18.8214 21.5237 19.7412 21.9046 20.6995 21.9046ZM20.6995 17.0856C21.1868 17.0856 21.6262 17.3792 21.8123 17.8294C21.9989 18.2796 21.8962 18.7975 21.5514 19.1423C21.2067 19.4871 20.6887 19.5898 20.2385 19.4031C19.7884 19.217 19.4947 18.7776 19.4947 18.2903C19.4947 17.625 20.0342 17.0856 20.6995 17.0856ZM30.1912 28.0747C29.5135 27.3971 29.1327 26.4773 29.1327 25.5189C29.1327 24.5606 29.5136 23.6408 30.1912 22.9632C30.8688 22.2855 31.7886 21.9047 32.747 21.9047C33.7053 21.9047 34.625 22.2856 35.3027 22.9632C35.9804 23.6407 36.3612 24.5606 36.3612 25.5189C36.3612 26.4772 35.9803 27.397 35.3027 28.0747C34.6251 28.7523 33.7053 29.1331 32.747 29.1331C31.7886 29.1331 30.8689 28.7522 30.1912 28.0747ZM33.208 26.6317C33.6581 26.4456 33.9518 26.0062 33.9518 25.5189C33.9518 25.1994 33.8248 24.8929 33.599 24.667C33.3731 24.4411 33.0665 24.3141 32.747 24.3141C32.2597 24.3141 31.8203 24.6078 31.6342 25.058C31.4476 25.5082 31.5503 26.0261 31.8951 26.3708C32.2398 26.7156 32.7578 26.8183 33.208 26.6317Z"/>
</mask>
<path fill-rule="evenodd" clip-rule="evenodd" d="M23.913 33.9522L33.2294 40.9398C33.6231 41.2346 34.1567 41.2604 34.5773 41.0049C34.9979 40.7494 35.2205 40.2638 35.1404 39.7787L34.1701 33.9523H37.5666C39.1635 33.9501 40.6947 33.3149 41.8241 32.186C42.9531 31.0566 43.5882 29.5254 43.5904 27.9285V15.8809C43.5882 14.284 42.953 12.7528 41.8241 11.6233C40.6947 10.4944 39.1635 9.85926 37.5666 9.85706H15.8809C14.284 9.85921 12.7528 10.4944 11.6233 11.6233C10.4944 12.7528 9.85926 14.284 9.85706 15.8809V27.9285C9.85921 29.5254 10.4944 31.0566 11.6233 32.186C12.7528 33.315 14.284 33.9501 15.8809 33.9523L23.913 33.9522ZM12.2666 27.9284V15.8808C12.2666 14.9224 12.6474 14.0026 13.325 13.3251C14.0027 12.6475 14.9225 12.2666 15.8808 12.2666H37.5665C38.5249 12.2666 39.4447 12.6474 40.1222 13.3251C40.7998 14.0027 41.1807 14.9225 41.1807 15.8808V27.9284C41.1807 28.8868 40.7999 29.8066 40.1222 30.4842C39.4446 31.1617 38.5248 31.5426 37.5665 31.5426H32.7475C32.3936 31.5426 32.0574 31.6986 31.8288 31.9686C31.5997 32.2386 31.5013 32.5957 31.5594 32.9448L32.2656 37.205L25.037 31.7835C24.8283 31.627 24.575 31.5426 24.3141 31.5426H15.8808C14.9224 31.5426 14.0026 31.1618 13.325 30.4841C12.6475 29.8064 12.2666 28.8867 12.2666 27.9284ZM65.2757 61.4099V45.9999C65.2687 42.0624 64.0574 38.2217 61.8039 34.9926C59.5504 31.7639 56.3625 29.3022 52.6692 27.9383L56.7391 18.7821H56.7385C56.8832 18.4567 56.8762 18.0845 56.7202 17.7645C56.5637 17.445 56.2744 17.2106 55.9291 17.1245L53.333 16.4737C51.62 16.0477 49.8112 16.2467 48.2321 17.0352C47.5383 17.3794 46.774 17.5596 45.9995 17.5607V19.9702C47.1478 19.9675 48.2799 19.7002 49.3077 19.1882C50.3721 18.6568 51.5914 18.5223 52.7462 18.8095L53.9509 19.1118L50.3366 27.2353V27.2359C48.9152 26.9008 47.4597 26.7287 45.9995 26.7238V29.1334C50.4712 29.1382 54.7587 30.9168 57.9207 34.0788C61.0827 37.2408 62.8613 41.5284 62.8662 46V60.9391C59.8097 60.6072 56.725 61.222 54.0294 62.7005L53.7245 62.8667H44.7948C43.2937 62.8667 41.8786 63.5664 40.9669 64.7582C40.0553 65.9506 39.7509 67.4996 40.1446 68.9486L30.4221 64.491C30.0117 64.3119 29.5771 64.1946 29.1329 64.1414V45.9997C29.1302 44.4804 29.3329 42.9675 29.7353 41.5023L27.4123 40.8591C26.9525 42.5339 26.7207 44.2631 26.7234 45.9998V64.4581C25.6047 64.9282 24.7221 65.8274 24.2729 66.9542C23.8631 67.9707 23.8303 69.1002 24.1804 70.1382C24.53 71.1768 25.24 72.0556 26.1812 72.6166L40.049 80.9381C41.3586 81.725 42.8575 82.1418 44.3861 82.1429H82.1413V79.7334H71.2985V66.481H82.1413V64.0715H70.5046C68.9524 62.8506 67.1753 61.9458 65.2746 61.4102L65.2757 61.4099ZM41.2892 78.8796L27.4214 70.5544C26.9717 70.2871 26.6324 69.867 26.4651 69.3706C26.2984 68.8747 26.3145 68.3352 26.5108 67.8501C26.6716 67.4483 26.9491 67.1041 27.3068 66.8615C27.665 66.619 28.0877 66.4894 28.5202 66.4883C28.8305 66.4894 29.1376 66.5566 29.42 66.6862L41.8844 72.3954C42.0414 72.468 42.2125 72.5051 42.3856 72.5051H54.4333C55.0986 72.5051 55.638 71.9657 55.638 71.3004C55.638 70.6351 55.0986 70.0956 54.4333 70.0956H44.7952C43.9341 70.0956 43.1386 69.6363 42.7084 68.8908C42.2781 68.1454 42.2781 67.2268 42.7084 66.4813C43.1386 65.7359 43.9341 65.2766 44.7952 65.2766H54.032C54.2337 65.2766 54.4322 65.226 54.6091 65.1297L55.1825 64.8167V64.8162C57.3214 63.6388 59.7569 63.1095 62.1916 63.2946C64.6259 63.4791 66.9536 64.3692 68.8903 65.8558V79.7333H44.3875C43.2957 79.7328 42.2249 79.4359 41.289 78.8744L41.2892 78.8796ZM73.7089 74.9142H76.1185V77.3237H73.7089V74.9142ZM44.7947 38.7714V36.3619H47.2042V38.7714H50.8185V41.1809H44.1584C43.3355 41.1799 42.6202 41.7457 42.4309 42.5465C42.2416 43.3473 42.6283 44.1734 43.3646 44.5408L49.7111 47.713C50.8438 48.2787 51.6591 49.327 51.9291 50.564C52.1986 51.801 51.8936 53.094 51.0992 54.0799C50.3044 55.0657 49.1065 55.6385 47.8405 55.6379H47.2042V58.0475H44.7947V55.6379H41.1804V53.2284H47.8404C48.6634 53.2295 49.3787 52.6637 49.568 51.8628C49.7573 51.0621 49.3706 50.2359 48.6343 49.8686L42.2878 46.6964C41.1551 46.1307 40.3398 45.0824 40.0698 43.8453C39.8003 42.6083 40.1053 41.3154 40.8997 40.3295C41.6945 39.3437 42.8924 38.7709 44.1584 38.7714H44.7947ZM31.8948 15.0286L19.8472 27.0762L21.551 28.7801L33.5986 16.7325L31.8948 15.0286ZM20.6995 21.9046C21.6579 21.9046 22.5777 21.5238 23.2552 20.8462C23.9328 20.1685 24.3137 19.2487 24.3137 18.2904C24.3137 17.3321 23.9329 16.4122 23.2552 15.7347C22.5775 15.0571 21.6578 14.6762 20.6995 14.6762C19.7412 14.6762 18.8213 15.057 18.1437 15.7347C17.4662 16.4124 17.0852 17.3321 17.0852 18.2904C17.0852 19.2487 17.466 20.1686 18.1437 20.8462C18.8214 21.5237 19.7412 21.9046 20.6995 21.9046ZM20.6995 17.0856C21.1868 17.0856 21.6262 17.3792 21.8123 17.8294C21.9989 18.2796 21.8962 18.7975 21.5514 19.1423C21.2067 19.4871 20.6887 19.5898 20.2385 19.4031C19.7884 19.217 19.4947 18.7776 19.4947 18.2903C19.4947 17.625 20.0342 17.0856 20.6995 17.0856ZM30.1912 28.0747C29.5135 27.3971 29.1327 26.4773 29.1327 25.5189C29.1327 24.5606 29.5136 23.6408 30.1912 22.9632C30.8688 22.2855 31.7886 21.9047 32.747 21.9047C33.7053 21.9047 34.625 22.2856 35.3027 22.9632C35.9804 23.6407 36.3612 24.5606 36.3612 25.5189C36.3612 26.4772 35.9803 27.397 35.3027 28.0747C34.6251 28.7523 33.7053 29.1331 32.747 29.1331C31.7886 29.1331 30.8689 28.7522 30.1912 28.0747ZM33.208 26.6317C33.6581 26.4456 33.9518 26.0062 33.9518 25.5189C33.9518 25.1994 33.8248 24.8929 33.599 24.667C33.3731 24.4411 33.0665 24.3141 32.747 24.3141C32.2597 24.3141 31.8203 24.6078 31.6342 25.058C31.4476 25.5082 31.5503 26.0261 31.8951 26.3708C32.2398 26.7156 32.7578 26.8183 33.208 26.6317Z" fill="url(#paint0_linear_43_295)"/>
<path d="M33.2294 40.9398L33.0494 41.1798L33.0496 41.18L33.2294 40.9398ZM23.913 33.9522L24.093 33.7122L24.013 33.6522L23.913 33.6522L23.913 33.9522ZM34.5773 41.0049L34.733 41.2613L34.733 41.2613L34.5773 41.0049ZM35.1404 39.7787L35.4364 39.7297L35.4363 39.7294L35.1404 39.7787ZM34.1701 33.9523V33.6523H33.816L33.8742 34.0016L34.1701 33.9523ZM37.5666 33.9523V34.2523L37.567 34.2523L37.5666 33.9523ZM41.8241 32.186L42.0362 32.3982L42.0363 32.3981L41.8241 32.186ZM43.5904 27.9285L43.8904 27.9289V27.9285H43.5904ZM43.5904 15.8809H43.8904V15.8805L43.5904 15.8809ZM41.8241 11.6233L42.0363 11.4112L42.0362 11.4111L41.8241 11.6233ZM37.5666 9.85706L37.567 9.55706H37.5666V9.85706ZM15.8809 9.85706V9.55706L15.8805 9.55706L15.8809 9.85706ZM11.6233 11.6233L11.4112 11.4111L11.4111 11.4112L11.6233 11.6233ZM9.85706 15.8809L9.55706 15.8804V15.8809H9.85706ZM9.85706 27.9285H9.55706L9.55706 27.9289L9.85706 27.9285ZM11.6233 32.186L11.4111 32.3981L11.4112 32.3982L11.6233 32.186ZM15.8809 33.9523L15.8804 34.2523H15.8809L15.8809 33.9523ZM13.325 13.3251L13.5372 13.5372L13.325 13.3251ZM40.1222 13.3251L39.9101 13.5372L39.9101 13.5372L40.1222 13.3251ZM40.1222 30.4842L40.3344 30.6963L40.1222 30.4842ZM31.8288 31.9686L32.0576 32.1627L32.0578 32.1625L31.8288 31.9686ZM31.5594 32.9448L31.8553 32.8957L31.8553 32.8955L31.5594 32.9448ZM32.2656 37.205L32.0856 37.445L32.6838 37.8936L32.5615 37.1559L32.2656 37.205ZM25.037 31.7835L25.217 31.5435L25.217 31.5435L25.037 31.7835ZM13.325 30.4841L13.5372 30.272H13.5372L13.325 30.4841ZM65.2757 45.9999H65.5757V45.9994L65.2757 45.9999ZM65.2757 61.4099L65.3753 61.6929L65.5757 61.6223V61.4099H65.2757ZM61.8039 34.9926L62.0499 34.8209L62.0499 34.8209L61.8039 34.9926ZM52.6692 27.9383L52.395 27.8164L52.2651 28.1089L52.5652 28.2197L52.6692 27.9383ZM56.7391 18.7821L57.0132 18.904L57.2007 18.4821H56.7391V18.7821ZM56.7385 18.7821L56.4644 18.6602L56.2768 19.0821H56.7385V18.7821ZM56.7202 17.7645L56.9899 17.6331L56.9897 17.6325L56.7202 17.7645ZM55.9291 17.1245L55.8561 17.4155L55.8565 17.4156L55.9291 17.1245ZM53.333 16.4737L53.4059 16.1827L53.4054 16.1826L53.333 16.4737ZM48.2321 17.0352L48.3654 17.304L48.3661 17.3036L48.2321 17.0352ZM45.9995 17.5607L45.9991 17.2607L45.6995 17.2611V17.5607H45.9995ZM45.9995 19.9702H45.6995V20.2709L46.0002 20.2702L45.9995 19.9702ZM49.3077 19.1882L49.4415 19.4567L49.4417 19.4566L49.3077 19.1882ZM52.7462 18.8095L52.8192 18.5186L52.8186 18.5184L52.7462 18.8095ZM53.9509 19.1118L54.225 19.2338L54.3701 18.9077L54.0239 18.8208L53.9509 19.1118ZM50.3366 27.2353L50.0625 27.1134L50.0366 27.1716V27.2353H50.3366ZM50.3366 27.2359L50.2678 27.5279L50.6366 27.6148V27.2359H50.3366ZM45.9995 26.7238L46.0005 26.4238L45.6995 26.4229V26.7238H45.9995ZM45.9995 29.1334H45.6995V29.433L45.9992 29.4334L45.9995 29.1334ZM57.9207 34.0788L57.7086 34.2909L57.9207 34.0788ZM62.8662 46H63.1662V45.9997L62.8662 46ZM62.8662 60.9391L62.8338 61.2373L63.1662 61.2734V60.9391H62.8662ZM54.0294 62.7005L54.173 62.9639L54.1737 62.9635L54.0294 62.7005ZM53.7245 62.8667V63.1667H53.8009L53.868 63.1301L53.7245 62.8667ZM40.9669 64.7582L40.7286 64.576L40.7286 64.576L40.9669 64.7582ZM40.1446 68.9486L40.0195 69.2213L40.6021 69.4884L40.4341 68.8699L40.1446 68.9486ZM30.4221 64.491L30.5471 64.2182L30.5421 64.216L30.4221 64.491ZM29.1329 64.1414H28.8329V64.4076L29.0972 64.4393L29.1329 64.1414ZM29.1329 45.9997H29.4329L29.4329 45.9992L29.1329 45.9997ZM29.7353 41.5023L30.0245 41.5818L30.1038 41.2931L29.8153 41.2132L29.7353 41.5023ZM27.4123 40.8591L27.4924 40.57L27.2026 40.4897L27.123 40.7796L27.4123 40.8591ZM26.7234 45.9998H27.0234L27.0234 45.9993L26.7234 45.9998ZM26.7234 64.4581L26.8396 64.7347L27.0234 64.6574V64.4581H26.7234ZM24.2729 66.9542L24.5512 67.0664L24.5516 67.0653L24.2729 66.9542ZM24.1804 70.1382L24.4648 70.0425L24.4647 70.0423L24.1804 70.1382ZM26.1812 72.6166L26.3355 72.3593L26.3348 72.3589L26.1812 72.6166ZM40.049 80.9381L40.2035 80.681L40.2034 80.6809L40.049 80.9381ZM44.3861 82.1429L44.3859 82.4429H44.3861V82.1429ZM82.1413 82.1429V82.4429H82.4413V82.1429H82.1413ZM82.1413 79.7334H82.4413V79.4333H82.1413V79.7334ZM71.2985 79.7334H70.9985V80.0334H71.2985V79.7334ZM71.2985 66.481V66.181H70.9985V66.481H71.2985ZM82.1413 66.481V66.781H82.4413V66.481H82.1413ZM82.1413 64.0715H82.4413V63.7715H82.1413V64.0715ZM70.5046 64.0715L70.3191 64.3072L70.4007 64.3715H70.5046V64.0715ZM65.2746 61.4102L65.175 61.1273L64.2812 61.442L65.1933 61.699L65.2746 61.4102ZM27.4214 70.5544L27.5758 70.2971L27.5747 70.2965L27.4214 70.5544ZM41.2892 78.8796L41.1348 79.1368L41.6078 79.4208L41.589 78.8694L41.2892 78.8796ZM26.4651 69.3706L26.1807 69.4662L26.1808 69.4664L26.4651 69.3706ZM26.5108 67.8501L26.7889 67.9626L26.7893 67.9616L26.5108 67.8501ZM27.3068 66.8615L27.1386 66.6131L27.1384 66.6133L27.3068 66.8615ZM28.5202 66.4883L28.5212 66.1883L28.5194 66.1883L28.5202 66.4883ZM29.42 66.6862L29.2948 66.9589L29.2951 66.959L29.42 66.6862ZM41.8844 72.3954L42.0103 72.1231L42.0093 72.1227L41.8844 72.3954ZM42.7084 68.8908L42.4485 69.0408H42.4486L42.7084 68.8908ZM42.7084 66.4813L42.4486 66.3313L42.7084 66.4813ZM54.6091 65.1297L54.7525 65.3932L54.7529 65.393L54.6091 65.1297ZM55.1825 64.8167L55.3262 65.08L55.4825 64.9947V64.8167H55.1825ZM55.1825 64.8162L55.0378 64.5533L54.8825 64.6389V64.8162H55.1825ZM62.1916 63.2946L62.1688 63.5937L62.1689 63.5937L62.1916 63.2946ZM68.8903 65.8558H69.1903V65.7079L69.073 65.6179L68.8903 65.8558ZM68.8903 79.7333V80.0333H69.1903V79.7333H68.8903ZM44.3875 79.7333L44.3874 80.0333H44.3875V79.7333ZM41.289 78.8744L41.4434 78.6171L40.9705 78.3334L40.9892 78.8846L41.289 78.8744ZM76.1185 74.9142H76.4185V74.6142H76.1185V74.9142ZM73.7089 74.9142V74.6142H73.4089V74.9142H73.7089ZM76.1185 77.3237V77.6237H76.4185V77.3237H76.1185ZM73.7089 77.3237H73.4089V77.6237H73.7089V77.3237ZM44.7947 36.3619V36.0619H44.4947V36.3619H44.7947ZM44.7947 38.7714V39.0714H45.0947V38.7714H44.7947ZM47.2042 36.3619H47.5042V36.0619H47.2042V36.3619ZM47.2042 38.7714H46.9042V39.0714H47.2042V38.7714ZM50.8185 38.7714H51.1185V38.4714H50.8185V38.7714ZM50.8185 41.1809V41.4809H51.1185V41.1809H50.8185ZM44.1584 41.1809L44.1581 41.4809H44.1584V41.1809ZM42.4309 42.5465L42.7228 42.6156L42.7228 42.6155L42.4309 42.5465ZM43.3646 44.5408L43.4987 44.2724L43.4985 44.2723L43.3646 44.5408ZM49.7111 47.713L49.577 47.9813L49.5771 47.9813L49.7111 47.713ZM51.9291 50.564L52.2222 50.5002L52.2222 50.5001L51.9291 50.564ZM51.0992 54.0799L51.3328 54.2682L51.3328 54.2681L51.0992 54.0799ZM47.8405 55.6379L47.8406 55.3379H47.8405V55.6379ZM47.2042 55.6379V55.3379H46.9042V55.6379H47.2042ZM47.2042 58.0475V58.3475H47.5042V58.0475H47.2042ZM44.7947 58.0475H44.4947V58.3475H44.7947V58.0475ZM44.7947 55.6379H45.0947V55.3379H44.7947V55.6379ZM41.1804 55.6379H40.8804V55.9379H41.1804V55.6379ZM41.1804 53.2284V52.9284H40.8804V53.2284H41.1804ZM47.8404 53.2284L47.8408 52.9284H47.8404V53.2284ZM49.568 51.8628L49.2761 51.7938L49.2761 51.7938L49.568 51.8628ZM48.6343 49.8686L48.5002 50.1369L48.5004 50.137L48.6343 49.8686ZM42.2878 46.6964L42.4219 46.4281L42.4218 46.428L42.2878 46.6964ZM40.0698 43.8453L39.7766 43.9092L39.7767 43.9093L40.0698 43.8453ZM40.8997 40.3295L40.6661 40.1412L40.6661 40.1413L40.8997 40.3295ZM44.1584 38.7714L44.1583 39.0714H44.1584V38.7714ZM19.8472 27.0762L19.635 26.8641L19.4229 27.0762L19.635 27.2884L19.8472 27.0762ZM31.8948 15.0286L32.1069 14.8165L31.8948 14.6043L31.6826 14.8165L31.8948 15.0286ZM21.551 28.7801L21.3389 28.9922L21.551 29.2044L21.7632 28.9922L21.551 28.7801ZM33.5986 16.7325L33.8108 16.9446L34.0229 16.7325L33.8108 16.5204L33.5986 16.7325ZM23.2552 15.7347L23.4673 15.5225L23.2552 15.7347ZM18.1437 15.7347L17.9316 15.5226V15.5226L18.1437 15.7347ZM18.1437 20.8462L17.9316 21.0583L18.1437 20.8462ZM21.8123 17.8294L21.535 17.944L21.5351 17.9443L21.8123 17.8294ZM21.5514 19.1423L21.3393 18.9302L21.3393 18.9302L21.5514 19.1423ZM20.2385 19.4031L20.3534 19.126L20.3531 19.1259L20.2385 19.4031ZM30.1912 28.0747L30.4033 27.8625V27.8625L30.1912 28.0747ZM30.1912 22.9632L30.4034 23.1753H30.4034L30.1912 22.9632ZM35.3027 28.0747L35.0905 27.8625H35.0905L35.3027 28.0747ZM33.208 26.6317L33.0933 26.3544L33.0931 26.3546L33.208 26.6317ZM31.6342 25.058L31.9114 25.1729L31.9115 25.1726L31.6342 25.058ZM31.8951 26.3708L31.683 26.583L31.8951 26.3708ZM33.4094 40.6998L24.093 33.7122L23.733 34.1922L33.0494 41.1798L33.4094 40.6998ZM34.4215 40.7485C34.1056 40.9404 33.7048 40.921 33.4092 40.6997L33.0496 41.18C33.5414 41.5482 34.2078 41.5803 34.733 41.2613L34.4215 40.7485ZM34.8444 39.8276C34.9046 40.192 34.7373 40.5567 34.4215 40.7485L34.733 41.2613C35.2584 40.9422 35.5365 40.3356 35.4364 39.7297L34.8444 39.8276ZM33.8742 34.0016L34.8444 39.8279L35.4363 39.7294L34.466 33.903L33.8742 34.0016ZM37.5666 33.6523H34.1701V34.2523H37.5666V33.6523ZM41.612 31.9739C40.5388 33.0466 39.0837 33.6502 37.5662 33.6523L37.567 34.2523C39.2433 34.25 40.8506 33.5833 42.0362 32.3982L41.612 31.9739ZM43.2904 27.9281C43.2883 29.4456 42.6847 30.9007 41.6119 31.974L42.0363 32.3981C43.2214 31.2125 43.8881 29.6052 43.8904 27.9289L43.2904 27.9281ZM43.2904 15.8809V27.9285H43.8904V15.8809H43.2904ZM41.6119 11.8354C42.6847 12.9087 43.2883 14.3638 43.2904 15.8813L43.8904 15.8805C43.8881 14.2042 43.2214 12.5968 42.0363 11.4112L41.6119 11.8354ZM37.5662 10.1571C39.0837 10.1591 40.5388 10.7627 41.612 11.8355L42.0362 11.4111C40.8506 10.2261 39.2433 9.55937 37.567 9.55706L37.5662 10.1571ZM15.8809 10.1571H37.5666V9.55706H15.8809V10.1571ZM11.8354 11.8355C12.9087 10.7627 14.3638 10.1591 15.8813 10.1571L15.8805 9.55706C14.2042 9.55931 12.5968 10.2261 11.4112 11.4111L11.8354 11.8355ZM10.1571 15.8813C10.1591 14.3638 10.7627 12.9087 11.8355 11.8354L11.4111 11.4112C10.2261 12.5969 9.55937 14.2042 9.55706 15.8804L10.1571 15.8813ZM10.1571 27.9285V15.8809H9.55706V27.9285H10.1571ZM11.8355 31.974C10.7627 30.9007 10.1591 29.4456 10.1571 27.9281L9.55706 27.9289C9.55931 29.6052 10.2261 31.2125 11.4111 32.3981L11.8355 31.974ZM15.8813 33.6523C14.3638 33.6502 12.9087 33.0466 11.8354 31.9739L11.4112 32.3982C12.5969 33.5833 14.2042 34.25 15.8804 34.2523L15.8813 33.6523ZM23.913 33.6522L15.8809 33.6523L15.8809 34.2523L23.913 34.2522L23.913 33.6522ZM11.9666 15.8808V27.9284H12.5666V15.8808H11.9666ZM13.1129 13.1129C12.3789 13.8468 11.9666 14.8429 11.9666 15.8808H12.5666C12.5666 15.0019 12.9158 14.1585 13.5372 13.5372L13.1129 13.1129ZM15.8808 11.9666C14.8429 11.9666 13.8469 12.3791 13.1129 13.1129L13.5372 13.5372C14.1586 12.9159 15.002 12.5666 15.8808 12.5666V11.9666ZM37.5665 11.9666H15.8808V12.5666H37.5665V11.9666ZM40.3344 13.1129C39.6005 12.3789 38.6044 11.9666 37.5665 11.9666V12.5666C38.4454 12.5666 39.2888 12.9158 39.9101 13.5372L40.3344 13.1129ZM41.4807 15.8808C41.4807 14.8429 41.0682 13.8469 40.3344 13.1129L39.9101 13.5372C40.5314 14.1586 40.8807 15.002 40.8807 15.8808H41.4807ZM41.4807 27.9284V15.8808H40.8807V27.9284H41.4807ZM40.3344 30.6963C41.0684 29.9625 41.4807 28.9664 41.4807 27.9284H40.8807C40.8807 28.8073 40.5315 29.6508 39.9101 30.272L40.3344 30.6963ZM37.5665 31.8426C38.6044 31.8426 39.6004 31.4301 40.3344 30.6963L39.9101 30.272C39.2887 30.8933 38.4453 31.2426 37.5665 31.2426V31.8426ZM32.7475 31.8426H37.5665V31.2426H32.7475V31.8426ZM32.0578 32.1625C32.2294 31.9597 32.4818 31.8426 32.7475 31.8426V31.2426C32.3053 31.2426 31.8854 31.4375 31.5999 31.7748L32.0578 32.1625ZM31.8553 32.8955C31.8117 32.6335 31.8856 32.3654 32.0576 32.1627L31.6001 31.7745C31.3138 32.1118 31.1909 32.558 31.2634 32.994L31.8553 32.8955ZM32.5615 37.1559L31.8553 32.8957L31.2634 32.9938L31.9696 37.254L32.5615 37.1559ZM24.857 32.0235L32.0856 37.445L32.4456 36.965L25.217 31.5435L24.857 32.0235ZM24.3141 31.8426C24.5101 31.8426 24.7002 31.906 24.857 32.0235L25.217 31.5435C24.9564 31.3481 24.6399 31.2426 24.3141 31.2426V31.8426ZM15.8808 31.8426H24.3141V31.2426H15.8808V31.8426ZM13.1129 30.6962C13.8468 31.4302 14.8429 31.8426 15.8808 31.8426V31.2426C15.0019 31.2426 14.1585 30.8934 13.5372 30.272L13.1129 30.6962ZM11.9666 27.9284C11.9666 28.9662 12.3791 29.9623 13.1129 30.6962L13.5372 30.272C12.9159 29.6506 12.5666 28.8071 12.5666 27.9284H11.9666ZM64.9757 45.9999V61.4099H65.5757V45.9999H64.9757ZM61.5579 35.1642C63.7764 38.3432 64.9688 42.1241 64.9757 46.0005L65.5757 45.9994C65.5686 42.0006 64.3385 38.1003 62.0499 34.8209L61.5579 35.1642ZM52.5652 28.2197C56.2011 29.5624 59.3394 31.9859 61.5579 35.1643L62.0499 34.8209C59.7613 31.542 56.5239 29.042 52.7731 27.6569L52.5652 28.2197ZM56.4649 18.6603L52.395 27.8164L52.9433 28.0602L57.0132 18.904L56.4649 18.6603ZM56.7385 19.0821H56.7391V18.4821H56.7385V19.0821ZM56.4506 17.896C56.5678 18.1366 56.573 18.416 56.4644 18.6602L57.0127 18.904C57.1934 18.4974 57.1846 18.0325 56.9899 17.6331L56.4506 17.896ZM55.8565 17.4156C56.1157 17.4802 56.3331 17.6563 56.4508 17.8965L56.9897 17.6325C56.7943 17.2338 56.4331 16.9409 56.0016 16.8334L55.8565 17.4156ZM53.26 16.7647L55.8561 17.4155L56.002 16.8335L53.4059 16.1827L53.26 16.7647ZM48.3661 17.3036C49.8813 16.5471 51.6169 16.3561 53.2606 16.7648L53.4054 16.1826C51.6231 15.7394 49.7411 15.9464 48.0981 16.7668L48.3661 17.3036ZM45.9999 17.8607C46.8206 17.8595 47.6304 17.6686 48.3654 17.304L48.0988 16.7665C47.4462 17.0902 46.7273 17.2597 45.9991 17.2607L45.9999 17.8607ZM46.2995 19.9702V17.5607H45.6995V19.9702H46.2995ZM49.1739 18.9197C48.1875 19.4111 47.101 19.6676 45.9988 19.6702L46.0002 20.2702C47.1946 20.2674 48.3722 19.9894 49.4415 19.4567L49.1739 18.9197ZM52.8186 18.5184C51.5944 18.214 50.302 18.3565 49.1737 18.9198L49.4417 19.4566C50.4422 18.9571 51.5883 18.8307 52.6738 19.1007L52.8186 18.5184ZM54.0239 18.8208L52.8192 18.5186L52.6732 19.1005L53.8779 19.4028L54.0239 18.8208ZM50.6107 27.3573L54.225 19.2338L53.6768 18.9899L50.0625 27.1134L50.6107 27.3573ZM50.6366 27.2359V27.2353H50.0366V27.2359H50.6366ZM45.9985 27.0238C47.4358 27.0286 48.8685 27.198 50.2678 27.5279L50.4055 26.9439C48.9618 26.6036 47.4836 26.4288 46.0005 26.4238L45.9985 27.0238ZM46.2995 29.1334V26.7238H45.6995V29.1334H46.2995ZM58.1329 33.8667C54.9147 30.6485 50.5509 28.8383 45.9998 28.8334L45.9992 29.4334C50.3914 29.4381 54.6028 31.1851 57.7086 34.2909L58.1329 33.8667ZM63.1662 45.9997C63.1613 41.4486 61.351 37.0848 58.1329 33.8667L57.7086 34.2909C60.8144 37.3967 62.5614 41.6081 62.5662 46.0004L63.1662 45.9997ZM63.1662 60.9391V46H62.5662V60.9391H63.1662ZM54.1737 62.9635C56.8154 61.5146 59.8384 60.9121 62.8338 61.2373L62.8985 60.6408C59.7809 60.3023 56.6347 60.9294 53.8851 62.4375L54.1737 62.9635ZM53.868 63.1301L54.173 62.9639L53.8859 62.4371L53.5809 62.6033L53.868 63.1301ZM44.7948 63.1667H53.7245V62.5667H44.7948V63.1667ZM41.2052 64.9405C42.0601 63.8228 43.3872 63.1667 44.7948 63.1667V62.5667C43.2002 62.5667 41.697 63.31 40.7286 64.576L41.2052 64.9405ZM40.4341 68.8699C40.0649 67.5112 40.3503 66.0587 41.2053 64.9404L40.7286 64.576C39.7602 65.8426 39.4369 67.488 39.8551 69.0273L40.4341 68.8699ZM30.297 64.7637L40.0195 69.2213L40.2696 68.6759L30.5471 64.2183L30.297 64.7637ZM29.0972 64.4393C29.5127 64.4891 29.9189 64.5987 30.3021 64.7659L30.5421 64.216C30.1045 64.0251 29.6415 63.9002 29.1686 63.8435L29.0972 64.4393ZM28.8329 45.9997V64.1414H29.4329V45.9997H28.8329ZM29.446 41.4229C29.0365 42.914 28.8301 44.4539 28.8329 46.0003L29.4329 45.9992C29.4302 44.5069 29.6294 43.0209 30.0245 41.5818L29.446 41.4229ZM27.3323 41.1482L29.6552 41.7915L29.8153 41.2132L27.4924 40.57L27.3323 41.1482ZM27.0234 45.9993C27.0207 44.2896 27.2489 42.5873 27.7016 40.9385L27.123 40.7796C26.656 42.4805 26.4206 44.2366 26.4234 46.0002L27.0234 45.9993ZM27.0234 64.4581V45.9998H26.4234V64.4581H27.0234ZM24.5516 67.0653C24.971 66.0132 25.795 65.1736 26.8396 64.7347L26.6071 64.1815C25.4143 64.6827 24.4732 65.6416 23.9943 66.8431L24.5516 67.0653ZM24.4647 70.0423C24.1375 69.0722 24.1681 68.0165 24.5512 67.0664L23.9947 66.842C23.5581 67.9249 23.5231 69.1282 23.8962 70.2341L24.4647 70.0423ZM26.3348 72.3589C25.455 71.8346 24.7915 71.0131 24.4648 70.0425L23.8961 70.2339C24.2686 71.3405 25.025 72.2767 26.0276 72.8743L26.3348 72.3589ZM40.2034 80.6809L26.3355 72.3593L26.0268 72.8738L39.8946 81.1954L40.2034 80.6809ZM44.3864 81.8429C42.9122 81.8418 41.4666 81.4398 40.2035 80.681L39.8945 81.1953C41.2507 82.0101 42.8029 82.4418 44.3859 82.4429L44.3864 81.8429ZM82.1413 81.8429H44.3861V82.4429H82.1413V81.8429ZM81.8413 79.7334V82.1429H82.4413V79.7334H81.8413ZM71.2985 80.0334H82.1413V79.4333H71.2985V80.0334ZM70.9985 66.481V79.7334H71.5984V66.481H70.9985ZM82.1413 66.181H71.2985V66.781H82.1413V66.181ZM81.8413 64.0715V66.481H82.4413V64.0715H81.8413ZM70.5046 64.3715H82.1413V63.7715H70.5046V64.3715ZM65.1933 61.699C67.056 62.2239 68.7978 63.1106 70.3191 64.3072L70.69 63.8357C69.107 62.5905 67.2945 61.6678 65.356 61.1215L65.1933 61.699ZM65.176 61.1269L65.175 61.1273L65.3743 61.6932L65.3753 61.6929L65.176 61.1269ZM27.267 70.8116L41.1348 79.1368L41.4436 78.6224L27.5758 70.2971L27.267 70.8116ZM26.1808 69.4664C26.3709 70.0307 26.7567 70.5082 27.2681 70.8122L27.5747 70.2965C27.1867 70.0659 26.8938 69.7033 26.7494 69.2748L26.1808 69.4664ZM26.2327 67.7376C26.0095 68.2891 25.9912 68.9024 26.1807 69.4662L26.7494 69.275C26.6055 68.8469 26.6195 68.3813 26.7889 67.9626L26.2327 67.7376ZM27.1384 66.6133C26.7313 66.8893 26.4154 67.2812 26.2323 67.7386L26.7893 67.9616C26.9279 67.6155 27.167 67.3189 27.4752 67.1098L27.1384 66.6133ZM28.5194 66.1883C28.0276 66.1895 27.5465 66.3369 27.1386 66.6131L27.475 67.1099C27.7835 66.901 28.1479 66.7892 28.5209 66.7883L28.5194 66.1883ZM29.5451 66.4136C29.2236 66.266 28.8741 66.1895 28.5212 66.1883L28.5191 66.7883C28.7869 66.7892 29.0516 66.8472 29.2948 66.9589L29.5451 66.4136ZM42.0093 72.1227L29.5449 66.4135L29.2951 66.959L41.7594 72.6682L42.0093 72.1227ZM42.3856 72.2051C42.2553 72.2051 42.1273 72.1772 42.0103 72.1231L41.7585 72.6677C41.9555 72.7588 42.1696 72.8051 42.3856 72.8051V72.2051ZM54.4333 72.2051H42.3856V72.8051H54.4333V72.2051ZM55.338 71.3004C55.338 71.8 54.9329 72.2051 54.4333 72.2051V72.8051C55.2642 72.8051 55.938 72.1313 55.938 71.3004H55.338ZM54.4333 70.3956C54.9329 70.3956 55.338 70.8007 55.338 71.3004H55.938C55.938 70.4694 55.2642 69.7956 54.4333 69.7956V70.3956ZM44.7952 70.3956H54.4333V69.7956H44.7952V70.3956ZM42.4486 69.0408C42.9324 69.8791 43.8269 70.3956 44.7952 70.3956V69.7956C44.0413 69.7956 43.3449 69.3935 42.9682 68.7409L42.4486 69.0408ZM42.4486 66.3313C41.9647 67.1696 41.9647 68.2026 42.4485 69.0408L42.9682 68.7409C42.5915 68.0882 42.5915 67.2839 42.9682 66.6313L42.4486 66.3313ZM44.7952 64.9766C43.8269 64.9766 42.9324 65.493 42.4486 66.3313L42.9682 66.6313C43.3449 65.9787 44.0413 65.5766 44.7952 65.5766V64.9766ZM54.032 64.9766H44.7952V65.5766H54.032V64.9766ZM54.4658 64.8662C54.3328 64.9386 54.1836 64.9766 54.032 64.9766V65.5766C54.2838 65.5766 54.5316 65.5134 54.7525 65.3932L54.4658 64.8662ZM55.0387 64.5534L54.4654 64.8664L54.7529 65.393L55.3262 65.08L55.0387 64.5534ZM54.8825 64.8162V64.8167H55.4825V64.8162H54.8825ZM62.2143 62.9955C59.7214 62.806 57.2278 63.3479 55.0378 64.5533L55.3271 65.079C57.4151 63.9297 59.7923 63.4131 62.1688 63.5937L62.2143 62.9955ZM69.073 65.6179C67.09 64.0957 64.7067 63.1843 62.2142 62.9954L62.1689 63.5937C64.545 63.7738 66.8172 64.6427 68.7077 66.0938L69.073 65.6179ZM69.1903 79.7333V65.8558H68.5903V79.7333H69.1903ZM44.3875 80.0333H68.8903V79.4333H44.3875V80.0333ZM41.1347 79.1316C42.1171 79.7211 43.2413 80.0328 44.3874 80.0333L44.3877 79.4333C43.3502 79.4328 42.3326 79.1507 41.4434 78.6171L41.1347 79.1316ZM41.589 78.8694L41.5889 78.8642L40.9892 78.8846L40.9894 78.8898L41.589 78.8694ZM76.1185 74.6142H73.7089V75.2142H76.1185V74.6142ZM76.4185 77.3237V74.9142H75.8185V77.3237H76.4185ZM73.7089 77.6237H76.1185V77.0237H73.7089V77.6237ZM73.4089 74.9142V77.3237H74.0089V74.9142H73.4089ZM44.4947 36.3619V38.7714H45.0947V36.3619H44.4947ZM47.2042 36.0619H44.7947V36.6619H47.2042V36.0619ZM47.5042 38.7714V36.3619H46.9042V38.7714H47.5042ZM50.8185 38.4714H47.2042V39.0714H50.8185V38.4714ZM51.1185 41.1809V38.7714H50.5185V41.1809H51.1185ZM44.1584 41.4809H50.8185V40.8809H44.1584V41.4809ZM42.7228 42.6155C42.8802 41.9501 43.4745 41.4801 44.1581 41.4809L44.1588 40.8809C43.1965 40.8797 42.3603 41.5413 42.1389 42.4775L42.7228 42.6155ZM43.4985 44.2723C42.8869 43.9672 42.5656 43.2808 42.7228 42.6156L42.1389 42.4775C41.9176 43.4138 42.3697 44.3797 43.2306 44.8092L43.4985 44.2723ZM49.8452 47.4446L43.4987 44.2724L43.2304 44.8091L49.577 47.9813L49.8452 47.4446ZM52.2222 50.5001C51.9329 49.1744 51.0591 48.0509 49.8452 47.4446L49.5771 47.9813C50.6285 48.5065 51.3854 49.4796 51.636 50.628L52.2222 50.5001ZM51.3328 54.2681C52.1842 53.2115 52.511 51.8258 52.2222 50.5002L51.636 50.6279C51.8861 51.7762 51.603 52.9765 50.8656 53.8917L51.3328 54.2681ZM47.8403 55.9379C49.1972 55.9385 50.481 55.3246 51.3328 54.2682L50.8657 53.8916C50.1278 54.8068 49.0158 55.3384 47.8406 55.3379L47.8403 55.9379ZM47.2042 55.9379H47.8405V55.3379H47.2042V55.9379ZM47.5042 58.0475V55.6379H46.9042V58.0475H47.5042ZM44.7947 58.3475H47.2042V57.7475H44.7947V58.3475ZM44.4947 55.6379V58.0475H45.0947V55.6379H44.4947ZM41.1804 55.9379H44.7947V55.3379H41.1804V55.9379ZM40.8804 53.2284V55.6379H41.4804V53.2284H40.8804ZM47.8404 52.9284H41.1804V53.5284H47.8404V52.9284ZM49.2761 51.7938C49.1187 52.4593 48.5243 52.9293 47.8408 52.9284L47.8401 53.5284C48.8024 53.5297 49.6386 52.8681 49.86 51.9319L49.2761 51.7938ZM48.5004 50.137C49.112 50.4422 49.4333 51.1285 49.2761 51.7938L49.86 51.9319C50.0813 50.9956 49.6292 50.0297 48.7683 49.6001L48.5004 50.137ZM42.1536 46.9648L48.5002 50.1369L48.7685 49.6002L42.4219 46.4281L42.1536 46.9648ZM39.7767 43.9093C40.066 45.235 40.9398 46.3585 42.1537 46.9648L42.4218 46.428C41.3704 45.9029 40.6135 44.9297 40.3629 43.7814L39.7767 43.9093ZM40.6661 40.1413C39.8147 41.1979 39.4879 42.5836 39.7766 43.9092L40.3629 43.7815C40.1127 42.6331 40.3959 41.4328 41.1333 40.5177L40.6661 40.1413ZM44.1586 38.4714C42.8017 38.4708 41.5179 39.0847 40.6661 40.1412L41.1332 40.5178C41.8711 39.6026 42.9831 39.0709 44.1583 39.0714L44.1586 38.4714ZM44.7947 38.4714H44.1584V39.0714H44.7947V38.4714ZM20.0593 27.2884L32.1069 15.2407L31.6826 14.8165L19.635 26.8641L20.0593 27.2884ZM21.7632 28.568L20.0593 26.8641L19.635 27.2884L21.3389 28.9922L21.7632 28.568ZM33.3865 16.5204L21.3389 28.568L21.7632 28.9922L33.8108 16.9446L33.3865 16.5204ZM31.6826 15.2407L33.3865 16.9446L33.8108 16.5204L32.1069 14.8165L31.6826 15.2407ZM23.0431 20.6341C22.4218 21.2554 21.5784 21.6046 20.6995 21.6046V22.2046C21.7374 22.2046 22.7335 21.7923 23.4674 21.0583L23.0431 20.6341ZM24.0137 18.2904C24.0137 19.1692 23.6644 20.0126 23.0431 20.6341L23.4674 21.0583C24.2012 20.3243 24.6137 19.3283 24.6137 18.2904H24.0137ZM23.0431 15.9468C23.6645 16.5681 24.0137 17.4116 24.0137 18.2904H24.6137C24.6137 17.2526 24.2013 16.2564 23.4673 15.5225L23.0431 15.9468ZM20.6995 14.9762C21.5782 14.9762 22.4217 15.3255 23.0431 15.9468L23.4673 15.5225C22.7334 14.7887 21.7373 14.3762 20.6995 14.3762V14.9762ZM18.3559 15.9468C18.9771 15.3254 19.8207 14.9762 20.6995 14.9762V14.3762C19.6616 14.3762 18.6654 14.7886 17.9316 15.5226L18.3559 15.9468ZM17.3852 18.2904C17.3852 17.4117 17.7346 16.5682 18.3559 15.9468L17.9316 15.5226C17.1978 16.2565 16.7852 17.2526 16.7852 18.2904H17.3852ZM18.3558 20.634C17.7345 20.0128 17.3852 19.1692 17.3852 18.2904H16.7852C16.7852 19.3282 17.1976 20.3245 17.9316 21.0583L18.3558 20.634ZM20.6995 21.6046C19.8207 21.6046 18.9773 21.2553 18.3558 20.634L17.9316 21.0583C18.6655 21.7921 19.6616 22.2046 20.6995 22.2046V21.6046ZM22.0895 17.7148C21.857 17.1523 21.3081 16.7856 20.6995 16.7856V17.3856C21.0654 17.3856 21.3953 17.6062 21.535 17.944L22.0895 17.7148ZM21.7635 19.3544C22.1942 18.9238 22.3225 18.2767 22.0894 17.7145L21.5351 17.9443C21.6753 18.2824 21.5982 18.6713 21.3393 18.9302L21.7635 19.3544ZM20.1236 19.6803C20.6859 19.9133 21.3329 19.7851 21.7635 19.3544L21.3393 18.9302C21.0804 19.189 20.6916 19.2662 20.3534 19.126L20.1236 19.6803ZM19.1947 18.2903C19.1947 18.8989 19.5615 19.4479 20.1239 19.6804L20.3531 19.1259C20.0153 18.9862 19.7947 18.6563 19.7947 18.2903H19.1947ZM20.6995 16.7856C19.8685 16.7856 19.1947 17.4594 19.1947 18.2903H19.7947C19.7947 17.7907 20.1998 17.3856 20.6995 17.3856V16.7856ZM28.8327 25.5189C28.8327 26.5569 29.2451 27.5529 29.9791 28.2868L30.4033 27.8625C29.7819 27.2412 29.4327 26.3978 29.4327 25.5189H28.8327ZM29.9791 22.751C29.2452 23.485 28.8327 24.4811 28.8327 25.5189H29.4327C29.4327 24.6402 29.782 23.7967 30.4034 23.1753L29.9791 22.751ZM32.747 21.6047C31.7091 21.6047 30.7129 22.017 29.9791 22.751L30.4034 23.1753C31.0246 22.5539 31.8682 22.2047 32.747 22.2047V21.6047ZM35.5148 22.751C34.7809 22.0172 33.7848 21.6047 32.747 21.6047V22.2047C33.6257 22.2047 34.4692 22.554 35.0906 23.1753L35.5148 22.751ZM36.6612 25.5189C36.6612 24.4811 36.2488 23.4849 35.5148 22.751L35.0906 23.1753C35.7119 23.7966 36.0612 24.6401 36.0612 25.5189H36.6612ZM35.5148 28.2868C36.2487 27.5528 36.6612 26.5568 36.6612 25.5189H36.0612C36.0612 26.3977 35.7119 27.2411 35.0905 27.8625L35.5148 28.2868ZM32.747 29.4331C33.7848 29.4331 34.781 29.0208 35.5148 28.2868L35.0905 27.8625C34.4693 28.4839 33.6257 28.8331 32.747 28.8331V29.4331ZM29.9791 28.2868C30.713 29.0206 31.7091 29.4331 32.747 29.4331V28.8331C31.8682 28.8331 31.0247 28.4838 30.4033 27.8625L29.9791 28.2868ZM33.6518 25.5189C33.6518 25.8849 33.4312 26.2148 33.0933 26.3544L33.3226 26.9089C33.885 26.6764 34.2518 26.1275 34.2518 25.5189H33.6518ZM33.3868 24.8791C33.5564 25.0487 33.6518 25.279 33.6518 25.5189H34.2518C34.2518 25.1199 34.0933 24.737 33.8111 24.4548L33.3868 24.8791ZM32.747 24.6141C32.987 24.6141 33.2172 24.7095 33.3868 24.8791L33.8111 24.4548C33.5289 24.1727 33.146 24.0141 32.747 24.0141V24.6141ZM31.9115 25.1726C32.0512 24.8347 32.3811 24.6141 32.747 24.6141V24.0141C32.1384 24.0141 31.5895 24.3809 31.357 24.9434L31.9115 25.1726ZM32.1072 26.1587C31.8483 25.8998 31.7712 25.511 31.9114 25.1729L31.3571 24.9431C31.124 25.5053 31.2523 26.1523 31.683 26.583L32.1072 26.1587ZM33.0931 26.3546C32.7549 26.4947 32.3661 26.4176 32.1072 26.1587L31.683 26.583C32.1136 27.0136 32.7606 27.1419 33.3228 26.9088L33.0931 26.3546Z" fill="#26343C" mask="url(#path-1-inside-1_43_295)"/>
<defs>
<linearGradient id="paint0_linear_43_295" x1="30.1594" y1="23.876" x2="36.4022" y2="28.9689" gradientUnits="userSpaceOnUse">
<stop stop-color="#81BDFF"/>
<stop offset="1" stop-color="#57C5E7"/>
</linearGradient>
</defs>
</svg>
