<svg width="92" height="92" viewBox="0 0 92 92" fill="none" xmlns="http://www.w3.org/2000/svg">
<mask id="path-1-inside-1_43_329" fill="white">
<path fill-rule="evenodd" clip-rule="evenodd" d="M67.5655 74.5416V55.387L79.7966 55.3874C82.2246 55.3874 84.2016 53.4104 84.2016 50.9825V33.2891C84.2016 30.8612 82.2246 28.8842 79.7966 28.8842H67.5655V17.4574C67.5655 13.2794 64.1449 9.85718 59.9643 9.85718H31.4228C27.2452 9.85718 23.8215 13.2799 23.8215 17.4574V74.5416C23.8215 78.7248 27.2393 82.1429 31.4228 82.1429H59.9643C64.1474 82.1429 67.5655 78.7252 67.5655 74.5416ZM26.3397 67.899H65.0471V56.2731L55.7971 60.8595C54.9303 61.2861 53.9344 60.6129 53.9879 59.6685L53.9864 55.3866H52.1474C49.7195 55.3866 47.7425 53.4095 47.7425 50.9816V33.2883C47.7425 30.8604 49.7195 28.8833 52.1474 28.8833H65.0477V23.2667H26.3397V67.899ZM26.3392 70.4177H65.0469V74.5417C65.0469 77.3337 62.7557 79.6249 59.9637 79.6249H31.4223C28.6304 79.6249 26.3392 77.3337 26.3392 74.5417V70.4177ZM65.0471 20.748H26.3394V17.4564C26.3394 14.6631 28.6291 12.3748 31.4226 12.3748H59.964C62.7604 12.3748 65.0471 14.6615 65.0471 17.4564V20.748ZM52.1466 31.4018H79.7961L79.7967 31.4019C80.8328 31.4019 81.6835 32.2525 81.6835 33.2887V50.9821C81.6835 52.0182 80.8328 52.8689 79.7967 52.8689H66.5489C66.3139 52.8689 66.0951 52.9329 65.9065 53.0459L56.4941 57.7125L56.4926 54.1278C56.4926 53.4365 55.9304 52.8748 55.2391 52.8688H52.1466C51.1105 52.8688 50.2598 52.0182 50.2598 50.982V33.2886C50.2598 32.2525 51.1105 31.4018 52.1466 31.4018ZM65.7144 39.0177C65.7144 39.6972 66.2026 40.2499 66.8029 40.2499H77.7688C78.3691 40.2499 78.8573 39.6972 78.8573 39.0177C78.8573 38.3382 78.3691 37.7856 77.7688 37.7856H66.8029C66.2026 37.7856 65.7144 38.3382 65.7144 39.0177ZM66.8029 46.8213C66.2026 46.8213 65.7144 46.2686 65.7144 45.5891C65.7144 44.9096 66.2026 44.357 66.8029 44.357H77.7688C78.3691 44.357 78.8573 44.9096 78.8573 45.5891C78.8573 46.2686 78.3691 46.8213 77.7688 46.8213H66.8029ZM45.6938 77.0051C46.9428 77.0051 47.9553 75.9926 47.9553 74.7441C47.9553 73.4951 46.9428 72.4826 45.6938 72.4826C44.4453 72.4826 43.4328 73.4951 43.4328 74.7441C43.4328 75.9926 44.4453 77.0051 45.6938 77.0051Z"/>
</mask>
<path fill-rule="evenodd" clip-rule="evenodd" d="M67.5655 74.5416V55.387L79.7966 55.3874C82.2246 55.3874 84.2016 53.4104 84.2016 50.9825V33.2891C84.2016 30.8612 82.2246 28.8842 79.7966 28.8842H67.5655V17.4574C67.5655 13.2794 64.1449 9.85718 59.9643 9.85718H31.4228C27.2452 9.85718 23.8215 13.2799 23.8215 17.4574V74.5416C23.8215 78.7248 27.2393 82.1429 31.4228 82.1429H59.9643C64.1474 82.1429 67.5655 78.7252 67.5655 74.5416ZM26.3397 67.899H65.0471V56.2731L55.7971 60.8595C54.9303 61.2861 53.9344 60.6129 53.9879 59.6685L53.9864 55.3866H52.1474C49.7195 55.3866 47.7425 53.4095 47.7425 50.9816V33.2883C47.7425 30.8604 49.7195 28.8833 52.1474 28.8833H65.0477V23.2667H26.3397V67.899ZM26.3392 70.4177H65.0469V74.5417C65.0469 77.3337 62.7557 79.6249 59.9637 79.6249H31.4223C28.6304 79.6249 26.3392 77.3337 26.3392 74.5417V70.4177ZM65.0471 20.748H26.3394V17.4564C26.3394 14.6631 28.6291 12.3748 31.4226 12.3748H59.964C62.7604 12.3748 65.0471 14.6615 65.0471 17.4564V20.748ZM52.1466 31.4018H79.7961L79.7967 31.4019C80.8328 31.4019 81.6835 32.2525 81.6835 33.2887V50.9821C81.6835 52.0182 80.8328 52.8689 79.7967 52.8689H66.5489C66.3139 52.8689 66.0951 52.9329 65.9065 53.0459L56.4941 57.7125L56.4926 54.1278C56.4926 53.4365 55.9304 52.8748 55.2391 52.8688H52.1466C51.1105 52.8688 50.2598 52.0182 50.2598 50.982V33.2886C50.2598 32.2525 51.1105 31.4018 52.1466 31.4018ZM65.7144 39.0177C65.7144 39.6972 66.2026 40.2499 66.8029 40.2499H77.7688C78.3691 40.2499 78.8573 39.6972 78.8573 39.0177C78.8573 38.3382 78.3691 37.7856 77.7688 37.7856H66.8029C66.2026 37.7856 65.7144 38.3382 65.7144 39.0177ZM66.8029 46.8213C66.2026 46.8213 65.7144 46.2686 65.7144 45.5891C65.7144 44.9096 66.2026 44.357 66.8029 44.357H77.7688C78.3691 44.357 78.8573 44.9096 78.8573 45.5891C78.8573 46.2686 78.3691 46.8213 77.7688 46.8213H66.8029ZM45.6938 77.0051C46.9428 77.0051 47.9553 75.9926 47.9553 74.7441C47.9553 73.4951 46.9428 72.4826 45.6938 72.4826C44.4453 72.4826 43.4328 73.4951 43.4328 74.7441C43.4328 75.9926 44.4453 77.0051 45.6938 77.0051Z" fill="url(#paint0_linear_43_329)"/>
<path d="M67.5655 55.387L67.5656 55.087L67.2655 55.087V55.387H67.5655ZM79.7966 55.3874L79.7966 55.6874H79.7966V55.3874ZM67.5655 28.8842H67.2655V29.1842H67.5655V28.8842ZM65.0471 67.899V68.199H65.3471V67.899H65.0471ZM26.3397 67.899H26.0397V68.199H26.3397V67.899ZM65.0471 56.2731H65.3471V55.7895L64.9139 56.0043L65.0471 56.2731ZM55.7971 60.8595L55.9296 61.1287L55.9304 61.1283L55.7971 60.8595ZM53.9879 59.6685L54.2874 59.6855L54.2879 59.6769L54.2879 59.6684L53.9879 59.6685ZM53.9864 55.3866L54.2864 55.3865L54.2863 55.0866H53.9864V55.3866ZM65.0477 28.8833V29.1833H65.3477V28.8833H65.0477ZM65.0477 23.2667H65.3477V22.9667H65.0477V23.2667ZM26.3397 23.2667V22.9667H26.0397V23.2667H26.3397ZM65.0469 70.4177H65.3469V70.1177H65.0469V70.4177ZM26.3392 70.4177V70.1177H26.0392V70.4177H26.3392ZM26.3394 20.748H26.0394V21.048H26.3394V20.748ZM65.0471 20.748V21.048H65.3471V20.748H65.0471ZM79.7961 31.4018L79.8518 31.107L79.8242 31.1018H79.7961V31.4018ZM79.7967 31.4019L79.741 31.6967L79.7686 31.7019H79.7967V31.4019ZM65.9065 53.0459L66.0398 53.3146L66.0505 53.3093L66.0607 53.3032L65.9065 53.0459ZM56.4941 57.7125L56.1941 57.7126L56.1943 58.1959L56.6273 57.9812L56.4941 57.7125ZM56.4926 54.1278H56.1926V54.128L56.4926 54.1278ZM55.2391 52.8688L55.2417 52.5688H55.2391V52.8688ZM67.2655 55.387V74.5416H67.8655V55.387H67.2655ZM79.7966 55.0874L67.5656 55.087L67.5655 55.687L79.7966 55.6874L79.7966 55.0874ZM83.9016 50.9825C83.9016 53.2447 82.0589 55.0874 79.7966 55.0874V55.6874C82.3902 55.6874 84.5016 53.5761 84.5016 50.9825H83.9016ZM83.9016 33.2891V50.9825H84.5016V33.2891H83.9016ZM79.7966 29.1842C82.0589 29.1842 83.9016 31.0269 83.9016 33.2891H84.5016C84.5016 30.6955 82.3902 28.5842 79.7966 28.5842V29.1842ZM67.5655 29.1842H79.7966V28.5842H67.5655V29.1842ZM67.2655 17.4574V28.8842H67.8655V17.4574H67.2655ZM59.9643 10.1572C63.9792 10.1572 67.2655 13.4451 67.2655 17.4574H67.8655C67.8655 13.1137 64.3106 9.55718 59.9643 9.55718V10.1572ZM31.4228 10.1572H59.9643V9.55718H31.4228V10.1572ZM24.1215 17.4574C24.1215 13.4457 27.4108 10.1572 31.4228 10.1572V9.55718C27.0796 9.55718 23.5215 13.1142 23.5215 17.4574H24.1215ZM24.1215 74.5416V17.4574H23.5215V74.5416H24.1215ZM31.4228 81.8429C27.4049 81.8429 24.1215 78.5591 24.1215 74.5416H23.5215C23.5215 78.8904 27.0736 82.4429 31.4228 82.4429V81.8429ZM59.9643 81.8429H31.4228V82.4429H59.9643V81.8429ZM67.2655 74.5416C67.2655 78.5595 63.9818 81.8429 59.9643 81.8429V82.4429C64.3131 82.4429 67.8655 78.8909 67.8655 74.5416H67.2655ZM65.0471 67.599H26.3397V68.199H65.0471V67.599ZM64.7471 56.2731V67.899H65.3471V56.2731H64.7471ZM55.9304 61.1283L65.1804 56.5418L64.9139 56.0043L55.6638 60.5907L55.9304 61.1283ZM53.6883 59.6516C53.622 60.824 54.8556 61.6572 55.9296 61.1287L55.6646 60.5903C55.005 60.915 54.2469 60.4018 54.2874 59.6855L53.6883 59.6516ZM53.6864 55.3867L53.6879 59.6686L54.2879 59.6684L54.2864 55.3865L53.6864 55.3867ZM52.1474 55.6866H53.9864V55.0866H52.1474V55.6866ZM47.4425 50.9816C47.4425 53.5752 49.5538 55.6866 52.1474 55.6866V55.0866C49.8852 55.0866 48.0425 53.2439 48.0425 50.9816H47.4425ZM47.4425 33.2883V50.9816H48.0425V33.2883H47.4425ZM52.1474 28.5833C49.5538 28.5833 47.4425 30.6947 47.4425 33.2883H48.0425C48.0425 31.0261 49.8852 29.1833 52.1474 29.1833V28.5833ZM65.0477 28.5833H52.1474V29.1833H65.0477V28.5833ZM64.7477 23.2667V28.8833H65.3477V23.2667H64.7477ZM26.3397 23.5667H65.0477V22.9667H26.3397V23.5667ZM26.6397 67.899V23.2667H26.0397V67.899H26.6397ZM65.0469 70.1177H26.3392V70.7177H65.0469V70.1177ZM65.3469 74.5417V70.4177H64.7469V74.5417H65.3469ZM59.9637 79.9249C62.9214 79.9249 65.3469 77.4993 65.3469 74.5417H64.7469C64.7469 77.168 62.59 79.3249 59.9637 79.3249V79.9249ZM31.4223 79.9249H59.9637V79.3249H31.4223V79.9249ZM26.0392 74.5417C26.0392 77.4993 28.4647 79.9249 31.4223 79.9249V79.3249C28.7961 79.3249 26.6392 77.168 26.6392 74.5417H26.0392ZM26.0392 70.4177V74.5417H26.6392V70.4177H26.0392ZM26.3394 21.048H65.0471V20.448H26.3394V21.048ZM26.0394 17.4564V20.748H26.6394V17.4564H26.0394ZM31.4226 12.0748C28.4635 12.0748 26.0394 14.4973 26.0394 17.4564H26.6394C26.6394 14.8288 28.7947 12.6748 31.4226 12.6748V12.0748ZM59.964 12.0748H31.4226V12.6748H59.964V12.0748ZM65.3471 17.4564C65.3471 14.4958 62.9261 12.0748 59.964 12.0748V12.6748C62.5948 12.6748 64.7471 14.8272 64.7471 17.4564H65.3471ZM65.3471 20.748V17.4564H64.7471V20.748H65.3471ZM79.7961 31.1018H52.1466V31.7018H79.7961V31.1018ZM79.8523 31.1071L79.8518 31.107L79.7405 31.6966L79.741 31.6967L79.8523 31.1071ZM81.9835 33.2887C81.9835 32.0869 80.9985 31.1019 79.7967 31.1019V31.7019C80.6672 31.7019 81.3835 32.4182 81.3835 33.2887H81.9835ZM81.9835 50.9821V33.2887H81.3835V50.9821H81.9835ZM79.7967 53.1689C80.9985 53.1689 81.9835 52.1839 81.9835 50.9821H81.3835C81.3835 51.8526 80.6672 52.5689 79.7967 52.5689V53.1689ZM66.5489 53.1689H79.7967V52.5689H66.5489V53.1689ZM66.0607 53.3032C66.2038 53.2175 66.3695 53.1689 66.5489 53.1689V52.5689C66.2584 52.5689 65.9864 52.6483 65.7524 52.7885L66.0607 53.3032ZM56.6273 57.9812L66.0398 53.3146L65.7733 52.7771L56.3608 57.4437L56.6273 57.9812ZM56.1926 54.128L56.1941 57.7126L56.7941 57.7123L56.7926 54.1277L56.1926 54.128ZM55.2364 53.1688C55.7648 53.1734 56.1926 53.6029 56.1926 54.1278H56.7926C56.7926 53.2702 56.096 52.5763 55.2417 52.5688L55.2364 53.1688ZM52.1466 53.1688H55.2391V52.5688H52.1466V53.1688ZM49.9598 50.982C49.9598 52.1838 50.9448 53.1688 52.1466 53.1688V52.5688C51.2761 52.5688 50.5598 51.8525 50.5598 50.982H49.9598ZM49.9598 33.2886V50.982H50.5598V33.2886H49.9598ZM52.1466 31.1018C50.9448 31.1018 49.9598 32.0868 49.9598 33.2886H50.5598C50.5598 32.4181 51.2761 31.7018 52.1466 31.7018V31.1018ZM66.8029 39.9499C66.4022 39.9499 66.0144 39.5676 66.0144 39.0177H65.4144C65.4144 39.8269 66.0031 40.5499 66.8029 40.5499V39.9499ZM77.7688 39.9499H66.8029V40.5499H77.7688V39.9499ZM78.5573 39.0177C78.5573 39.5676 78.1695 39.9499 77.7688 39.9499V40.5499C78.5686 40.5499 79.1573 39.8269 79.1573 39.0177H78.5573ZM77.7688 38.0856C78.1695 38.0856 78.5573 38.4679 78.5573 39.0177H79.1573C79.1573 38.2086 78.5686 37.4856 77.7688 37.4856V38.0856ZM66.8029 38.0856H77.7688V37.4856H66.8029V38.0856ZM66.0144 39.0177C66.0144 38.4679 66.4022 38.0856 66.8029 38.0856V37.4856C66.0031 37.4856 65.4144 38.2086 65.4144 39.0177H66.0144ZM65.4144 45.5891C65.4144 46.3983 66.0031 47.1213 66.8029 47.1213V46.5213C66.4022 46.5213 66.0144 46.139 66.0144 45.5891H65.4144ZM66.8029 44.057C66.0031 44.057 65.4144 44.78 65.4144 45.5891H66.0144C66.0144 45.0393 66.4022 44.657 66.8029 44.657V44.057ZM77.7688 44.057H66.8029V44.657H77.7688V44.057ZM79.1573 45.5891C79.1573 44.78 78.5686 44.057 77.7688 44.057V44.657C78.1695 44.657 78.5573 45.0393 78.5573 45.5891H79.1573ZM77.7688 47.1213C78.5686 47.1213 79.1573 46.3983 79.1573 45.5891H78.5573C78.5573 46.139 78.1695 46.5213 77.7688 46.5213V47.1213ZM66.8029 47.1213H77.7688V46.5213H66.8029V47.1213ZM47.6553 74.7441C47.6553 75.8268 46.7772 76.7051 45.6938 76.7051V77.3051C47.1085 77.3051 48.2553 76.1583 48.2553 74.7441H47.6553ZM45.6938 72.7826C46.7771 72.7826 47.6553 73.6608 47.6553 74.7441H48.2553C48.2553 73.3294 47.1085 72.1826 45.6938 72.1826V72.7826ZM43.7328 74.7441C43.7328 73.6608 44.611 72.7826 45.6938 72.7826V72.1826C44.2796 72.1826 43.1328 73.3295 43.1328 74.7441H43.7328ZM45.6938 76.7051C44.611 76.7051 43.7328 75.8269 43.7328 74.7441H43.1328C43.1328 76.1583 44.2797 77.3051 45.6938 77.3051V76.7051Z" fill="#283B44" mask="url(#path-1-inside-1_43_329)"/>
<path d="M60.3943 38.5606C60.2342 38.8175 59.8963 38.896 59.6397 38.7356C58.7646 38.1934 57.6709 38.1058 56.9052 38.5166L60.3943 38.5606ZM60.3943 38.5606C60.5542 38.3034 60.4761 37.965 60.2193 37.8047L60.3943 38.5606ZM59.5076 38.9479C59.8816 39.1813 60.3735 39.0666 60.6065 38.6928L60.6066 38.6926C60.8392 38.3186 60.7258 37.8262 60.3517 37.5926L60.3517 37.5926L60.3501 37.5916C59.8464 37.2823 59.2876 37.0752 58.7055 36.9813V35.8689C58.7055 35.4287 58.349 35.0713 57.9086 35.0713C57.4682 35.0713 57.1117 35.4287 57.1117 35.8689V37.033C56.8178 37.1009 56.5334 37.2062 56.2657 37.3469C55.8426 37.5597 55.4845 37.8832 55.2301 38.2833C54.9752 38.6839 54.8336 39.1462 54.8203 39.621C54.7914 40.5369 55.2 41.156 55.7666 41.5943C56.3016 42.0082 56.9868 42.268 57.566 42.4876C57.5833 42.4941 57.6005 42.5007 57.6176 42.5072L57.6176 42.5072C58.3488 42.7845 58.8241 42.9878 59.1118 43.2207C59.249 43.3317 59.3337 43.4425 59.3829 43.563C59.4325 43.6843 59.4536 43.8342 59.4345 44.0349L59.4345 44.0349L59.4342 44.039C59.4159 44.2721 59.3317 44.4951 59.1913 44.6813L59.1911 44.6815C59.0508 44.868 58.8601 45.0105 58.6416 45.0921L58.4456 45.1653C58.0688 45.2855 57.6313 45.314 57.2158 45.2685C56.7258 45.2149 56.3068 45.063 56.0755 44.8808L56.0752 44.8806C55.7285 44.6086 55.2272 44.6691 54.9555 45.016L54.9554 45.0161C54.6839 45.363 54.7446 45.8644 55.0909 46.1364L55.0906 46.1367L55.1015 46.1443C55.6957 46.5621 56.3906 46.8108 57.1118 46.8657V47.9165C57.1118 48.3567 57.4683 48.7141 57.9087 48.7141C58.3491 48.7141 58.7056 48.3567 58.7056 47.9165V46.7479C58.8908 46.7015 59.0726 46.6415 59.2491 46.5686C59.7398 46.375 60.1662 46.0471 60.4793 45.6227C60.7925 45.1982 60.9803 44.6939 61.0206 44.1678C61.1189 43.1506 60.725 42.4615 60.1342 41.9762C59.5661 41.5096 58.8149 41.231 58.1881 40.9986L58.1735 40.9932C57.5052 40.7448 57.0525 40.5506 56.769 40.3371C56.6319 40.2338 56.5451 40.1335 56.4926 40.0304C56.4409 39.9291 56.4148 39.8101 56.422 39.6565L56.422 39.6565L56.4222 39.652C56.4277 39.4605 56.4858 39.2744 56.5901 39.1139L56.5902 39.1137C56.6943 38.9534 56.8407 38.8248 57.0134 38.7419L57.0135 38.7422L57.0234 38.7369C57.6944 38.3769 58.692 38.4426 59.5076 38.9479Z" fill="url(#paint1_linear_43_329)" stroke="url(#paint2_linear_43_329)" stroke-width="0.5"/>
<defs>
<linearGradient id="paint0_linear_43_329" x1="43.7097" y1="72.7395" x2="45.9704" y2="77.2875" gradientUnits="userSpaceOnUse">
<stop stop-color="#7BBFFF"/>
<stop offset="1" stop-color="#63D6FF"/>
</linearGradient>
<linearGradient id="paint1_linear_43_329" x1="56.0811" y1="38.4577" x2="63.2679" y2="42.4594" gradientUnits="userSpaceOnUse">
<stop stop-color="#7BBFFF"/>
<stop offset="1" stop-color="#62D6FF"/>
</linearGradient>
<linearGradient id="paint2_linear_43_329" x1="56.6785" y1="35.732" x2="57.9106" y2="48.4641" gradientUnits="userSpaceOnUse">
<stop stop-color="#7AC1FF"/>
<stop offset="1" stop-color="#69D1FF"/>
</linearGradient>
</defs>
</svg>
