<svg width="92" height="92" viewBox="0 0 92 92" fill="none" xmlns="http://www.w3.org/2000/svg">
<mask id="path-1-inside-1_43_262" fill="white">
<path fill-rule="evenodd" clip-rule="evenodd" d="M44.6091 11.2479C44.6091 10.4803 45.2316 9.85785 45.9992 9.85785L46 9.85706C55.5861 9.85706 64.7791 13.665 71.5571 20.4429C78.335 27.2218 82.1429 36.4138 82.1429 45.9999C82.1429 55.586 78.335 64.779 71.5571 71.5569C64.7782 78.3349 55.5861 82.1428 46 82.1428C36.414 82.1428 27.2209 78.3349 20.443 71.5569C13.6651 64.7781 9.85718 55.5853 9.85718 45.9999C9.85718 45.2323 10.4796 44.6098 11.2473 44.6098C12.0149 44.6098 12.6374 45.2323 12.6374 45.9999C12.6374 54.8477 16.1523 63.3335 22.409 69.5902C28.6652 75.8468 37.1514 79.3618 45.9992 79.3618C54.8471 79.3618 63.3328 75.8468 69.5895 69.5902C75.8462 63.334 79.3611 54.8477 79.3611 45.9999C79.3611 37.1521 75.8462 28.6663 69.5895 22.4097C63.3333 16.153 54.8474 12.638 45.9992 12.638C45.2316 12.638 44.6091 12.0156 44.6091 11.2479ZM63.6923 63.6937C58.9997 68.3858 52.6356 71.0221 45.9992 71.0221C39.363 71.0221 32.9989 68.3858 28.3061 63.6937C23.614 59.001 20.9777 52.6368 20.9777 46.0006C20.9777 39.3644 23.614 33.0003 28.3061 28.3075C32.9988 23.6153 39.363 20.9791 45.9992 20.9791C52.6354 20.9791 58.9995 23.6153 63.6923 28.3075C68.3845 33.0001 71.0207 39.3644 71.0207 46.0006C71.0207 52.6368 68.3845 59.0009 63.6923 63.6937ZM61.7265 30.2731C57.5549 26.1022 51.8978 23.7589 45.9992 23.7589C40.1006 23.7589 34.4435 26.1022 30.272 30.2731C26.1011 34.4447 23.7578 40.1018 23.7578 46.0004C23.7578 51.899 26.1011 57.5561 30.272 61.7277C34.4435 65.8986 40.1006 68.2419 45.9992 68.2419C51.8978 68.2419 57.5549 65.8986 61.7265 61.7277C65.8974 57.5561 68.2407 51.899 68.2407 46.0004C68.2407 40.1018 65.8974 34.4447 61.7265 30.2731ZM30.9036 16.1136C31.1128 16.1149 31.32 16.0671 31.5081 15.9746C32.1448 15.6662 32.4483 14.9289 32.2131 14.2619C31.9785 13.5947 31.2803 13.2106 30.5909 13.3689C29.9014 13.5271 29.4409 14.1781 29.521 14.8812C29.601 15.5837 30.1962 16.1143 30.9036 16.1137L30.9036 16.1136ZM38.5493 13.4722C38.4488 13.4939 38.3457 13.5051 38.2433 13.5069C37.5055 13.5088 36.8948 12.9335 36.8526 12.1969C36.8098 11.4602 37.3503 10.8192 38.0832 10.7354C38.8161 10.6523 39.487 11.1562 39.6105 11.8835C39.7346 12.6108 39.2685 13.3083 38.5493 13.4722ZM24.3202 20.2273C24.6361 20.2273 24.9426 20.1193 25.189 19.922C25.7177 19.4975 25.8636 18.7547 25.5341 18.162C25.2051 17.57 24.4971 17.3013 23.8578 17.526C23.2187 17.7512 22.8345 18.4041 22.9493 19.0724C23.0635 19.7402 23.6425 20.2279 24.3202 20.2273L24.3202 20.2273ZM14.6798 32.3145C14.4701 32.3169 14.2628 32.2692 14.0748 32.1755L14.0747 32.1755C13.384 31.8416 13.0948 31.0106 13.4287 30.3199C13.7626 29.6292 14.5936 29.34 15.2843 29.6733C15.8676 29.9556 16.1779 30.6035 16.0333 31.2347C15.8887 31.8664 15.3277 32.3138 14.6798 32.3145ZM11.803 39.6203C11.9067 39.634 12.0122 39.634 12.1158 39.6203C12.7606 39.6179 13.3191 39.1717 13.4643 38.543C13.5909 37.9951 13.375 37.4241 12.9164 37.0977C12.4578 36.7713 11.8477 36.7533 11.3711 37.0524C10.8939 37.3515 10.6451 37.9088 10.7394 38.4636C10.8343 39.0184 11.2538 39.4615 11.803 39.5856V39.6203ZM18.8231 25.7331C18.5072 25.7325 18.2007 25.6251 17.9543 25.4272L17.9544 25.4271C17.3537 24.9475 17.2556 24.0712 17.7353 23.4705C18.215 22.8698 19.0912 22.7717 19.6919 23.2514C20.158 23.6194 20.3392 24.2419 20.1431 24.8022C19.9464 25.3626 19.4164 25.7362 18.8231 25.7331Z"/>
</mask>
<path fill-rule="evenodd" clip-rule="evenodd" d="M44.6091 11.2479C44.6091 10.4803 45.2316 9.85785 45.9992 9.85785L46 9.85706C55.5861 9.85706 64.7791 13.665 71.5571 20.4429C78.335 27.2218 82.1429 36.4138 82.1429 45.9999C82.1429 55.586 78.335 64.779 71.5571 71.5569C64.7782 78.3349 55.5861 82.1428 46 82.1428C36.414 82.1428 27.2209 78.3349 20.443 71.5569C13.6651 64.7781 9.85718 55.5853 9.85718 45.9999C9.85718 45.2323 10.4796 44.6098 11.2473 44.6098C12.0149 44.6098 12.6374 45.2323 12.6374 45.9999C12.6374 54.8477 16.1523 63.3335 22.409 69.5902C28.6652 75.8468 37.1514 79.3618 45.9992 79.3618C54.8471 79.3618 63.3328 75.8468 69.5895 69.5902C75.8462 63.334 79.3611 54.8477 79.3611 45.9999C79.3611 37.1521 75.8462 28.6663 69.5895 22.4097C63.3333 16.153 54.8474 12.638 45.9992 12.638C45.2316 12.638 44.6091 12.0156 44.6091 11.2479ZM63.6923 63.6937C58.9997 68.3858 52.6356 71.0221 45.9992 71.0221C39.363 71.0221 32.9989 68.3858 28.3061 63.6937C23.614 59.001 20.9777 52.6368 20.9777 46.0006C20.9777 39.3644 23.614 33.0003 28.3061 28.3075C32.9988 23.6153 39.363 20.9791 45.9992 20.9791C52.6354 20.9791 58.9995 23.6153 63.6923 28.3075C68.3845 33.0001 71.0207 39.3644 71.0207 46.0006C71.0207 52.6368 68.3845 59.0009 63.6923 63.6937ZM61.7265 30.2731C57.5549 26.1022 51.8978 23.7589 45.9992 23.7589C40.1006 23.7589 34.4435 26.1022 30.272 30.2731C26.1011 34.4447 23.7578 40.1018 23.7578 46.0004C23.7578 51.899 26.1011 57.5561 30.272 61.7277C34.4435 65.8986 40.1006 68.2419 45.9992 68.2419C51.8978 68.2419 57.5549 65.8986 61.7265 61.7277C65.8974 57.5561 68.2407 51.899 68.2407 46.0004C68.2407 40.1018 65.8974 34.4447 61.7265 30.2731ZM30.9036 16.1136C31.1128 16.1149 31.32 16.0671 31.5081 15.9746C32.1448 15.6662 32.4483 14.9289 32.2131 14.2619C31.9785 13.5947 31.2803 13.2106 30.5909 13.3689C29.9014 13.5271 29.4409 14.1781 29.521 14.8812C29.601 15.5837 30.1962 16.1143 30.9036 16.1137L30.9036 16.1136ZM38.5493 13.4722C38.4488 13.4939 38.3457 13.5051 38.2433 13.5069C37.5055 13.5088 36.8948 12.9335 36.8526 12.1969C36.8098 11.4602 37.3503 10.8192 38.0832 10.7354C38.8161 10.6523 39.487 11.1562 39.6105 11.8835C39.7346 12.6108 39.2685 13.3083 38.5493 13.4722ZM24.3202 20.2273C24.6361 20.2273 24.9426 20.1193 25.189 19.922C25.7177 19.4975 25.8636 18.7547 25.5341 18.162C25.2051 17.57 24.4971 17.3013 23.8578 17.526C23.2187 17.7512 22.8345 18.4041 22.9493 19.0724C23.0635 19.7402 23.6425 20.2279 24.3202 20.2273L24.3202 20.2273ZM14.6798 32.3145C14.4701 32.3169 14.2628 32.2692 14.0748 32.1755L14.0747 32.1755C13.384 31.8416 13.0948 31.0106 13.4287 30.3199C13.7626 29.6292 14.5936 29.34 15.2843 29.6733C15.8676 29.9556 16.1779 30.6035 16.0333 31.2347C15.8887 31.8664 15.3277 32.3138 14.6798 32.3145ZM11.803 39.6203C11.9067 39.634 12.0122 39.634 12.1158 39.6203C12.7606 39.6179 13.3191 39.1717 13.4643 38.543C13.5909 37.9951 13.375 37.4241 12.9164 37.0977C12.4578 36.7713 11.8477 36.7533 11.3711 37.0524C10.8939 37.3515 10.6451 37.9088 10.7394 38.4636C10.8343 39.0184 11.2538 39.4615 11.803 39.5856V39.6203ZM18.8231 25.7331C18.5072 25.7325 18.2007 25.6251 17.9543 25.4272L17.9544 25.4271C17.3537 24.9475 17.2556 24.0712 17.7353 23.4705C18.215 22.8698 19.0912 22.7717 19.6919 23.2514C20.158 23.6194 20.3392 24.2419 20.1431 24.8022C19.9464 25.3626 19.4164 25.7362 18.8231 25.7331Z" fill="url(#paint0_linear_43_262)"/>
<path d="M45.9992 9.85785V10.1579H46.1232L46.211 10.0704L45.9992 9.85785ZM46 9.85706V9.55706H45.8761L45.7883 9.64456L46 9.85706ZM71.5571 20.4429L71.7692 20.2308L71.7692 20.2307L71.5571 20.4429ZM71.5571 71.5569L71.7692 71.7691L71.7692 71.7691L71.5571 71.5569ZM20.443 71.5569L20.2309 71.7691L20.2309 71.7691L20.443 71.5569ZM22.409 69.5902L22.6211 69.378L22.6211 69.378L22.409 69.5902ZM69.5895 69.5902L69.3774 69.378L69.3774 69.378L69.5895 69.5902ZM69.5895 22.4097L69.3773 22.6218L69.3774 22.6218L69.5895 22.4097ZM63.6923 63.6937L63.9044 63.9058L63.9045 63.9058L63.6923 63.6937ZM28.3061 63.6937L28.094 63.9058L28.094 63.9058L28.3061 63.6937ZM28.3061 28.3075L28.094 28.0953L28.094 28.0954L28.3061 28.3075ZM63.6923 28.3075L63.9044 28.0954L63.9044 28.0953L63.6923 28.3075ZM61.7265 30.2731L61.9386 30.061L61.9386 30.061L61.7265 30.2731ZM30.272 30.2731L30.0598 30.061L30.0598 30.061L30.272 30.2731ZM30.272 61.7277L30.0598 61.9398L30.0598 61.9398L30.272 61.7277ZM61.7265 61.7277L61.9386 61.9398L61.9386 61.9398L61.7265 61.7277ZM31.5081 15.9746L31.3773 15.7046L31.3757 15.7054L31.5081 15.9746ZM30.9036 16.1136L30.9054 15.8136L30.7162 15.8125L30.6337 15.9827L30.9036 16.1136ZM32.2131 14.2619L31.93 14.3614L31.9301 14.3616L32.2131 14.2619ZM30.5909 13.3689L30.5238 13.0765V13.0765L30.5909 13.3689ZM29.521 14.8812L29.2229 14.9151L29.2229 14.9152L29.521 14.8812ZM30.9036 16.1137L30.9039 16.4137L31.0917 16.4135L31.1736 16.2445L30.9036 16.1137ZM38.2433 13.5069L38.2441 13.8069L38.2488 13.8069L38.2433 13.5069ZM38.5493 13.4722L38.6127 13.7654L38.6159 13.7647L38.5493 13.4722ZM36.8526 12.1969L37.1521 12.1797L37.1521 12.1795L36.8526 12.1969ZM38.0832 10.7354L38.0494 10.4373L38.0492 10.4374L38.0832 10.7354ZM39.6105 11.8835L39.3147 11.9337L39.3148 11.9339L39.6105 11.8835ZM25.189 19.922L25.3766 20.1561L25.3768 20.1559L25.189 19.922ZM24.3202 20.2273V19.9273H24.2437L24.1765 19.9639L24.3202 20.2273ZM25.5341 18.162L25.2718 18.3077L25.2719 18.3078L25.5341 18.162ZM23.8578 17.526L23.7584 17.2429L23.7581 17.243L23.8578 17.526ZM22.9493 19.0724L23.245 19.0219L23.245 19.0217L22.9493 19.0724ZM24.3202 20.2273L24.3204 20.5273L24.3968 20.5273L24.4638 20.4907L24.3202 20.2273ZM14.0748 32.1755L14.2086 31.9069L14.0133 31.8096L13.8606 31.9654L14.0748 32.1755ZM14.6798 32.3145L14.6795 32.0144L14.6763 32.0145L14.6798 32.3145ZM14.0747 32.1755L13.9441 32.4456L14.1381 32.5393L14.2889 32.3856L14.0747 32.1755ZM13.4287 30.3199L13.1586 30.1893L13.1586 30.1894L13.4287 30.3199ZM15.2843 29.6733L15.415 29.4033L15.4146 29.4031L15.2843 29.6733ZM16.0333 31.2347L15.7409 31.1677L15.7409 31.1677L16.0333 31.2347ZM12.1158 39.6203L12.1147 39.3203L12.0956 39.3204L12.0766 39.3229L12.1158 39.6203ZM11.803 39.6203H11.503V39.8834L11.7639 39.9178L11.803 39.6203ZM13.4643 38.543L13.172 38.4755L13.172 38.4755L13.4643 38.543ZM12.9164 37.0977L12.7424 37.3421L12.9164 37.0977ZM11.3711 37.0524L11.5305 37.3066L11.5306 37.3065L11.3711 37.0524ZM10.7394 38.4636L10.4436 38.5139L10.4437 38.5142L10.7394 38.4636ZM11.803 39.5856H12.103V39.3458L11.8692 39.293L11.803 39.5856ZM17.9543 25.4272L17.769 25.1913L17.4721 25.4245L17.7664 25.661L17.9543 25.4272ZM18.8231 25.7331L18.8247 25.4331L18.8237 25.4331L18.8231 25.7331ZM17.9544 25.4271L18.1397 25.663L18.4376 25.429L18.1416 25.1927L17.9544 25.4271ZM17.7353 23.4705L17.9698 23.6577L17.9698 23.6577L17.7353 23.4705ZM19.6919 23.2514L19.5047 23.4859L19.506 23.4869L19.6919 23.2514ZM20.1431 24.8022L20.4262 24.9016L20.4263 24.9013L20.1431 24.8022ZM45.9992 9.55785C45.0659 9.55785 44.3091 10.3146 44.3091 11.2479H44.9091C44.9091 10.646 45.3973 10.1579 45.9992 10.1579V9.55785ZM45.7883 9.64456L45.7875 9.64535L46.211 10.0704L46.2118 10.0696L45.7883 9.64456ZM71.7692 20.2307C64.935 13.3966 55.6657 9.55706 46 9.55706V10.1571C55.5065 10.1571 64.6233 13.9333 71.3449 20.655L71.7692 20.2307ZM82.4429 45.9999C82.4429 36.3343 78.6034 27.0659 71.7692 20.2308L71.3449 20.655C78.0666 27.3776 81.8429 36.4934 81.8429 45.9999H82.4429ZM71.7692 71.7691C78.6034 64.9349 82.4429 55.6655 82.4429 45.9999H81.8429C81.8429 55.5064 78.0666 64.6231 71.3449 71.3448L71.7692 71.7691ZM46 82.4428C55.6657 82.4428 64.934 78.6033 71.7692 71.7691L71.3449 71.3448C64.6223 78.0665 55.5065 81.8428 46 81.8428V82.4428ZM20.2309 71.7691C27.0651 78.6033 36.3344 82.4428 46 82.4428V81.8428C36.4935 81.8428 27.3768 78.0665 20.6551 71.3448L20.2309 71.7691ZM9.55718 45.9999C9.55718 55.6649 13.3967 64.9339 20.2309 71.7691L20.6551 71.3448C13.9335 64.6222 10.1572 55.5058 10.1572 45.9999H9.55718ZM11.2473 44.3098C10.3139 44.3098 9.55718 45.0666 9.55718 45.9999H10.1572C10.1572 45.3979 10.6453 44.9098 11.2473 44.9098V44.3098ZM12.9374 45.9999C12.9374 45.0666 12.1806 44.3098 11.2473 44.3098V44.9098C11.8492 44.9098 12.3374 45.3979 12.3374 45.9999H12.9374ZM22.6211 69.378C16.4207 63.1776 12.9374 54.7682 12.9374 45.9999H12.3374C12.3374 54.9273 15.8839 63.4894 22.1969 69.8023L22.6211 69.378ZM45.9992 79.0618C37.231 79.0618 28.8211 75.5785 22.6211 69.378L22.1968 69.8023C28.5093 76.1152 37.0719 79.6618 45.9992 79.6618V79.0618ZM69.3774 69.378C63.1769 75.5785 54.7675 79.0618 45.9992 79.0618V79.6618C54.9266 79.6618 63.4887 76.1152 69.8016 69.8023L69.3774 69.378ZM79.0611 45.9999C79.0611 54.7682 75.5778 63.1781 69.3774 69.378L69.8016 69.8023C76.1146 63.4898 79.6611 54.9273 79.6611 45.9999H79.0611ZM69.3774 22.6218C75.5778 28.8222 79.0611 37.2317 79.0611 45.9999H79.6611C79.6611 37.0725 76.1146 28.5105 69.8016 22.1975L69.3774 22.6218ZM45.9992 12.938C54.7678 12.938 63.1774 16.4214 69.3773 22.6218L69.8016 22.1975C63.4892 15.8846 54.9269 12.338 45.9992 12.338V12.938ZM44.3091 11.2479C44.3091 12.1813 45.0659 12.938 45.9992 12.938V12.338C45.3973 12.338 44.9091 11.8499 44.9091 11.2479H44.3091ZM45.9992 71.3221C52.7152 71.3221 59.1555 68.6542 63.9044 63.9058L63.4802 63.4815C58.8438 68.1174 52.556 70.7221 45.9992 70.7221V71.3221ZM28.094 63.9058C32.8431 68.6542 39.2834 71.3221 45.9992 71.3221V70.7221C39.4426 70.7221 33.1548 68.1174 28.5183 63.4815L28.094 63.9058ZM20.6777 46.0006C20.6777 52.7164 23.3456 59.1569 28.094 63.9058L28.5183 63.4815C23.8824 58.8452 21.2777 52.5572 21.2777 46.0006H20.6777ZM28.094 28.0954C23.3456 32.8444 20.6777 39.2848 20.6777 46.0006H21.2777C21.2777 39.4439 23.8824 33.1561 28.5183 28.5196L28.094 28.0954ZM45.9992 20.6791C39.2834 20.6791 32.8429 23.3469 28.094 28.0953L28.5183 28.5196C33.1546 23.8837 39.4426 21.2791 45.9992 21.2791V20.6791ZM63.9044 28.0953C59.1554 23.3469 52.715 20.6791 45.9992 20.6791V21.2791C52.5559 21.2791 58.8436 23.8837 63.4802 28.5196L63.9044 28.0953ZM71.3207 46.0006C71.3207 39.2848 68.6529 32.8442 63.9044 28.0954L63.4802 28.5196C68.1161 33.156 70.7207 39.4439 70.7207 46.0006H71.3207ZM63.9045 63.9058C68.6529 59.1567 71.3207 52.7164 71.3207 46.0006H70.7207C70.7207 52.5572 68.1161 58.845 63.4802 63.4815L63.9045 63.9058ZM45.9992 24.0589C51.8182 24.0589 57.3991 26.3706 61.5144 30.4853L61.9386 30.061C57.7108 25.8338 51.9774 23.4589 45.9992 23.4589V24.0589ZM30.4841 30.4853C34.5994 26.3706 40.1802 24.0589 45.9992 24.0589V23.4589C40.0211 23.4589 34.2876 25.8338 30.0598 30.061L30.4841 30.4853ZM24.0578 46.0004C24.0578 40.1814 26.3694 34.6006 30.4841 30.4853L30.0598 30.061C25.8327 34.2888 23.4578 40.0222 23.4578 46.0004H24.0578ZM30.4841 61.5156C26.3694 57.4003 24.0578 51.8194 24.0578 46.0004H23.4578C23.4578 51.9786 25.8327 57.712 30.0598 61.9398L30.4841 61.5156ZM45.9992 67.9419C40.1802 67.9419 34.5994 65.6302 30.4841 61.5155L30.0598 61.9398C34.2876 66.167 40.0211 68.5419 45.9992 68.5419V67.9419ZM61.5144 61.5155C57.3991 65.6302 51.8182 67.9419 45.9992 67.9419V68.5419C51.9774 68.5419 57.7108 66.167 61.9386 61.9398L61.5144 61.5155ZM67.9407 46.0004C67.9407 51.8194 65.629 57.4003 61.5143 61.5156L61.9386 61.9398C66.1658 57.712 68.5407 51.9786 68.5407 46.0004H67.9407ZM61.5143 30.4853C65.629 34.6006 67.9407 40.1814 67.9407 46.0004H68.5407C68.5407 40.0222 66.1658 34.2888 61.9386 30.061L61.5143 30.4853ZM31.3757 15.7054C31.2292 15.7775 31.0678 15.8146 30.9054 15.8136L30.9019 16.4136C31.1578 16.4151 31.4109 16.3567 31.6405 16.2438L31.3757 15.7054ZM31.9301 14.3616C32.1145 14.8846 31.8766 15.4627 31.3773 15.7046L31.6389 16.2446C32.4129 15.8696 32.782 14.9733 32.496 14.1621L31.9301 14.3616ZM30.658 13.6612C31.1989 13.5371 31.7462 13.8385 31.93 14.3614L32.4961 14.1623C32.2108 13.351 31.3618 12.8841 30.5238 13.0765L30.658 13.6612ZM29.8191 14.8473C29.7563 14.2957 30.1175 13.7853 30.658 13.6612L30.5238 13.0765C29.6854 13.2689 29.1256 14.0604 29.2229 14.9151L29.8191 14.8473ZM30.9034 15.8137C30.3485 15.8141 29.8818 15.398 29.8191 14.8472L29.2229 14.9152C29.3203 15.7694 30.0439 16.4144 30.9039 16.4137L30.9034 15.8137ZM30.6337 15.9827L30.6337 15.9828L31.1736 16.2445L31.1736 16.2445L30.6337 15.9827ZM38.2488 13.8069C38.3692 13.8047 38.4917 13.7915 38.6126 13.7654L38.4859 13.1789C38.4059 13.1962 38.3223 13.2054 38.2379 13.207L38.2488 13.8069ZM36.5531 12.214C36.6044 13.1097 37.3469 13.8092 38.2441 13.8069L38.2426 13.2069C37.6641 13.2084 37.1852 12.7573 37.1521 12.1797L36.5531 12.214ZM38.0492 10.4374C37.1584 10.5392 36.5011 11.3184 36.5531 12.2143L37.1521 12.1795C37.1186 11.6021 37.5422 11.0992 38.1173 11.0335L38.0492 10.4374ZM39.9062 11.8333C39.7561 10.9488 38.9404 10.3362 38.0494 10.4373L38.1171 11.0335C38.6919 10.9683 39.2179 11.3636 39.3147 11.9337L39.9062 11.8333ZM38.6159 13.7647C39.4905 13.5655 40.0571 12.7174 39.9062 11.833L39.3148 11.9339C39.4121 12.5042 39.0466 13.0512 38.4827 13.1797L38.6159 13.7647ZM25.0015 19.6878C24.8082 19.8427 24.5677 19.9273 24.3202 19.9273V20.5273C24.7044 20.5273 25.0771 20.396 25.3766 20.1561L25.0015 19.6878ZM25.2719 18.3078C25.5303 18.7726 25.416 19.355 25.0012 19.688L25.3768 20.1559C26.0195 19.64 26.1969 18.7368 25.7962 18.0163L25.2719 18.3078ZM23.9573 17.809C24.4587 17.6328 25.0139 17.8436 25.2718 18.3077L25.7963 18.0164C25.3964 17.2964 24.5354 16.9698 23.7584 17.2429L23.9573 17.809ZM23.245 19.0217C23.155 18.4976 23.4561 17.9856 23.9576 17.8089L23.7581 17.243C22.9812 17.5168 22.514 18.3105 22.6536 19.1232L23.245 19.0217ZM24.3199 19.9273C23.7884 19.9278 23.3345 19.5453 23.245 19.0219L22.6536 19.123C22.7925 19.935 23.4966 20.5281 24.3204 20.5273L24.3199 19.9273ZM24.1765 19.9639L24.1765 19.964L24.4638 20.4907L24.4638 20.4907L24.1765 19.9639ZM13.941 32.444C14.1713 32.5588 14.4257 32.6175 14.6834 32.6144L14.6763 32.0145C14.5145 32.0164 14.3543 31.9795 14.2086 31.9069L13.941 32.444ZM14.2889 32.3856L14.2889 32.3855L13.8606 31.9654L13.8605 31.9654L14.2889 32.3856ZM13.1586 30.1894C12.7526 31.0292 13.1042 32.0395 13.9441 32.4456L14.2053 31.9054C13.6638 31.6436 13.437 30.9921 13.6988 30.4505L13.1586 30.1894ZM15.4146 29.4031C14.5749 28.9979 13.5647 29.3494 13.1586 30.1893L13.6988 30.4505C13.9606 29.909 14.6122 29.6821 15.1539 29.9435L15.4146 29.4031ZM16.3257 31.3017C16.5015 30.5344 16.1243 29.7466 15.415 29.4033L15.1536 29.9433C15.6109 30.1647 15.8543 30.6727 15.7409 31.1677L16.3257 31.3017ZM14.6801 32.6145C15.4678 32.6137 16.15 32.0696 16.3257 31.3016L15.7409 31.1677C15.6275 31.6632 15.1876 32.014 14.6795 32.0145L14.6801 32.6145ZM12.0766 39.3229C11.999 39.3331 11.9198 39.3331 11.8422 39.3229L11.7639 39.9178C11.8935 39.9349 12.0253 39.9349 12.155 39.9178L12.0766 39.3229ZM13.172 38.4755C13.0581 38.9686 12.6201 39.3184 12.1147 39.3203L12.117 39.9203C12.9011 39.9173 13.5801 39.3747 13.7566 38.6106L13.172 38.4755ZM12.7424 37.3421C13.1019 37.598 13.2713 38.0457 13.172 38.4755L13.7566 38.6106C13.9105 37.9444 13.6481 37.2503 13.0903 36.8533L12.7424 37.3421ZM11.5306 37.3065C11.9042 37.072 12.3826 37.086 12.7424 37.3421L13.0903 36.8533C12.5329 36.4565 11.7912 36.4345 11.2117 36.7983L11.5306 37.3065ZM11.0351 38.4133C10.9611 37.978 11.1564 37.541 11.5305 37.3066L11.2118 36.7982C10.6314 37.162 10.329 37.8396 10.4436 38.5139L11.0351 38.4133ZM11.8692 39.293C11.4386 39.1957 11.1096 38.8483 11.0351 38.413L10.4437 38.5142C10.5591 39.1885 11.069 39.7273 11.7369 39.8782L11.8692 39.293ZM12.103 39.6203V39.5856H11.503V39.6203H12.103ZM17.7664 25.661C18.0663 25.902 18.4391 26.0324 18.8225 26.0331L18.8237 25.4331C18.5754 25.4326 18.3351 25.3482 18.1422 25.1933L17.7664 25.661ZM17.769 25.1912L17.769 25.1913L18.1397 25.6631L18.1397 25.663L17.769 25.1912ZM17.5009 23.2833C16.9178 24.0134 17.037 25.0785 17.7672 25.6615L18.1416 25.1927C17.6704 24.8164 17.5934 24.129 17.9698 23.6577L17.5009 23.2833ZM19.8791 23.017C19.149 22.4339 18.0839 22.5531 17.5009 23.2833L17.9698 23.6577C18.346 23.1865 19.0335 23.1095 19.5047 23.4859L19.8791 23.017ZM20.4263 24.9013C20.6647 24.22 20.4443 23.4632 19.8779 23.016L19.506 23.4869C19.8717 23.7756 20.0137 24.2637 19.8599 24.7031L20.4263 24.9013ZM18.8216 26.0331C19.5429 26.0369 20.1871 25.5827 20.4262 24.9016L19.86 24.7029C19.7057 25.1426 19.2899 25.4355 18.8247 25.4331L18.8216 26.0331Z" fill="#2A3D45" mask="url(#path-1-inside-1_43_262)"/>
<path d="M44.9711 32.8571V36.4186H43.1853C41.2056 36.4186 40.1009 37.1201 39.2272 38.9155L36.8622 43.7285C36.3482 44.7686 36.1428 45.4714 36.1428 46.6166C36.1428 47.631 36.3992 48.4634 36.8367 49.3483L39.2017 54.1869C40.0244 55.8784 41.1291 56.6581 43.0566 56.6581H44.9712V59.9642H47.6232V56.6581H49.5378C51.4652 56.6581 52.5699 55.8784 53.3927 54.1869L55.0357 50.8243H52.1707L51.1579 52.9122C50.6732 53.9176 50.4079 54.0433 49.4104 54.0548V54.0497H43.2252L43.1856 54.051V54.0561C42.1881 54.0446 41.9228 53.9189 41.4381 52.9135L39.2543 48.412C38.9456 47.7875 38.7147 47.345 38.7147 46.6166C38.7147 45.8099 38.9201 45.3418 39.2543 44.639L41.4904 40.112C41.9662 39.1489 42.155 39.027 43.1869 39.0206V39.0271H49.4106V39.0206C50.4413 39.0258 50.6314 39.1489 51.1071 40.112L52.0383 41.9959H54.8829L53.37 38.9155C52.4962 37.12 51.3916 36.4185 49.4119 36.4185H47.6248V32.8571L44.9711 32.8571Z" fill="url(#paint1_linear_43_262)"/>
<defs>
<linearGradient id="paint0_linear_43_262" x1="17.9383" y1="23.6118" x2="65.3036" y2="78.8571" gradientUnits="userSpaceOnUse">
<stop stop-color="#7BBFFF"/>
<stop offset="1" stop-color="#62D6FF"/>
</linearGradient>
<linearGradient id="paint1_linear_43_262" x1="38.2377" y1="38.9562" x2="55.2891" y2="53.7808" gradientUnits="userSpaceOnUse">
<stop stop-color="#81BDFF"/>
<stop offset="1" stop-color="#5ED9FF"/>
</linearGradient>
</defs>
</svg>
