<svg width="92" height="92" viewBox="0 0 92 92" fill="none" xmlns="http://www.w3.org/2000/svg">
<path d="M18.5763 29.2081C16.9897 30.7947 16.1157 32.9038 16.1157 35.1481C16.1157 37.3916 16.9897 39.5014 18.5763 41.0881C20.163 42.6748 22.2721 43.5487 24.5164 43.5487C26.7605 43.5487 28.8697 42.6747 30.4564 41.0881C32.043 39.5014 32.917 37.3923 32.917 35.1481C32.917 32.904 32.043 30.7941 30.4564 29.2081C28.8697 27.6214 26.7606 26.7474 24.5164 26.7474C22.2729 26.7474 20.163 27.6209 18.5763 29.2081ZM32.0573 35.1481C32.0573 37.1618 31.2727 39.055 29.8486 40.4798C28.4245 41.9039 26.5307 42.6886 24.5162 42.6886C22.5019 42.6886 20.6087 41.9039 19.1839 40.4798C17.7598 39.0557 16.9751 37.162 16.9751 35.1481C16.9751 33.1337 17.7597 31.2399 19.1839 29.8157C20.608 28.3916 22.5017 27.607 24.5162 27.607C26.5306 27.607 28.4238 28.3916 29.8486 29.8157C31.2727 31.2398 32.0573 33.1336 32.0573 35.1481Z" fill="url(#paint0_linear_43_276)"/>
<path d="M71.2088 39.9947C70.994 39.8705 70.7139 39.8075 70.3689 39.8075H70.2784V38.0786H68.5586V39.8075H68.1656V38.0786H66.4458V39.8075H66.2059C65.8609 39.8075 65.5772 39.8699 65.3558 39.9947C65.1339 40.1188 65.0229 40.2796 65.0229 40.4758V42.384C65.0229 42.6449 65.1813 42.8831 65.498 43.0996L70.0619 46.2412V48.4859H66.4908V46.1686H65.0223V48.5579C65.0223 48.7547 65.1333 48.9154 65.3553 49.0396C65.5772 49.1638 65.8604 49.2262 66.2053 49.2262H66.4459V50.6971H68.1657V49.2262H68.5586V50.6971H70.2784V49.2262H70.369C70.7139 49.2262 70.994 49.1638 71.2088 49.0396C71.4236 48.9154 71.5316 48.7547 71.5316 48.5579V46.3791C71.5316 46.1182 71.3798 45.8836 71.0774 45.6748L66.4921 42.5333V40.5471H70.0631V42.6652H71.5322V40.4744C71.531 40.2789 71.4236 40.1187 71.2089 39.9945L71.2088 39.9947Z" fill="url(#paint1_linear_43_276)"/>
<path d="M73.9622 38.5803C72.3756 36.9936 70.2665 36.1196 68.0222 36.1196C65.778 36.1196 63.6683 36.9936 62.0822 38.5803C58.8069 41.8556 58.8069 47.1848 62.0822 50.4601C63.6689 52.0468 65.778 52.9203 68.0222 52.9203C70.2657 52.9203 72.3756 52.0463 73.9622 50.4601C77.2375 47.1854 77.2375 41.8556 73.9622 38.5803ZM73.3546 49.8525C71.9305 51.2766 70.0367 52.0606 68.0228 52.0606C66.0085 52.0606 64.1147 51.276 62.6905 49.8525C59.7504 46.9124 59.7504 42.1284 62.6905 39.1885C64.1146 37.7644 66.0083 36.9798 68.0228 36.9798C70.0366 36.9798 71.9298 37.7644 73.3546 39.1885C76.2946 42.1286 76.2946 46.9126 73.3546 49.8525Z" fill="url(#paint2_linear_43_276)"/>
<path d="M79.8363 60.5084V54.6164H74.1423C74.9425 54.1293 75.6965 53.5552 76.3756 52.8756C80.982 48.2692 80.982 40.7736 76.3756 36.1674C74.4968 34.2886 72.0943 33.1313 69.4993 32.8087V29.456L76.0967 30.7925L77.1933 25.3804L49.8919 19.8495V17.2257H42.9946V18.4524L16.7897 13.1429L15.6925 18.555L23.3614 20.1086V23.3905C20.6422 23.6527 18.119 24.8381 16.1623 26.7949C13.9308 29.0264 12.7016 31.9934 12.7016 35.1493C12.7016 38.3051 13.9308 41.2722 16.1623 43.5031C17.1917 44.5325 18.383 45.3381 19.6721 45.9182H12.7015V54.3639H9.03564L12.9834 64.0362H36.0893L39.319 54.3639H36.3298V45.9182H29.3592C30.6483 45.3376 31.8396 44.5325 32.869 43.5031C35.1005 41.2722 36.3296 38.3051 36.3296 35.1493C36.3296 31.9934 35.1005 29.0264 32.869 26.7949C30.7718 24.6977 28.022 23.5004 25.0795 23.3618L25.0801 20.4572L42.9923 24.0871V78.8572L49.8897 78.8566V25.484L67.7773 29.1085V32.7198C64.7125 32.7816 61.8397 33.9946 59.6658 36.1685C55.0594 40.7749 55.0594 48.2705 59.6658 52.8767C60.3449 53.5558 61.0989 54.1299 61.8992 54.6176L56.2052 54.6164V63.1118H52.8345L56.7823 72.7847H79.8882L83.1179 63.1118H79.8335L79.8363 60.5084ZM36.9324 56.0838L34.8514 62.3159L14.1381 62.3165L11.5941 56.0838H12.7002V56.1353H36.3298V56.0838L36.9324 56.0838ZM14.4208 54.364V51.9638H34.6104V54.364H14.4208ZM34.6104 50.0899H14.4208V47.6375H34.6104V50.0899ZM34.6104 35.1487C34.6104 37.8452 33.56 40.3802 31.6536 42.2866C29.7466 44.193 27.2115 45.2434 24.5158 45.2434C21.8193 45.2434 19.2843 44.193 17.3779 42.2866C15.4715 40.3802 14.4211 37.8451 14.4211 35.1487C14.4211 32.4524 15.4715 29.9173 17.3779 28.0109C19.2849 26.1045 21.82 25.0541 24.5158 25.0541C27.2123 25.0541 29.7472 26.1045 31.6536 28.0109C33.5606 29.9173 34.6104 32.4524 34.6104 35.1487ZM17.7194 17.2104L18.1328 15.1697L42.9939 20.2069V22.331L17.7194 17.2104ZM48.172 77.1374H44.7143V18.9458H48.172V77.1374ZM49.8918 21.6056L75.1661 26.7261L74.7528 28.7663L49.8916 23.7297L49.8918 21.6056ZM60.8839 51.6604C56.9481 47.7246 56.9481 41.3197 60.8839 37.3839C62.7909 35.4775 65.326 34.4271 68.0218 34.4271C70.7183 34.4271 73.2526 35.4775 75.1596 37.3839C79.0954 41.3197 79.0954 47.7246 75.1596 51.6604C73.2526 53.5668 70.7181 54.6172 68.0218 54.6172C65.3259 54.6166 62.7909 53.5668 60.8839 51.6604ZM57.9277 56.337H78.1158V58.7887H57.9277V56.337ZM57.9277 60.6621H78.1158V63.112H57.9277V60.6621ZM80.7326 64.8318L78.6516 71.0645H57.9399L55.3965 64.8318H56.2069V64.8342H79.8364V64.8318H80.7326Z" fill="url(#paint3_linear_43_276)"/>
<path d="M23.9297 28.8072V30.4731H23.0899C22.1588 30.4731 21.6394 30.8012 21.2285 31.641L20.1163 33.8923C19.8745 34.3788 19.778 34.7076 19.778 35.2433C19.778 35.7178 19.8985 36.1071 20.1043 36.521L21.2165 38.7843C21.6034 39.5755 22.1229 39.9402 23.0293 39.9402H23.9297V41.4867H25.1769V39.9402H26.0773C26.9837 39.9402 27.5032 39.5755 27.8902 38.7843L28.6628 37.2114H27.3155L26.8392 38.188C26.6112 38.6583 26.4865 38.7171 26.0174 38.7225V38.7201H23.1086L23.09 38.7207V38.7231C22.6209 38.7177 22.4961 38.6589 22.2682 38.1886L21.2412 36.0831C21.096 35.7909 20.9875 35.584 20.9875 35.2432C20.9875 34.8659 21.084 34.647 21.2412 34.3182L22.2928 32.2007C22.5165 31.7502 22.6053 31.6932 23.0906 31.6902V31.6932H26.0175V31.6902C26.5022 31.6926 26.5916 31.7502 26.8153 32.2007L27.2532 33.0819H28.5909L27.8795 31.641C27.4686 30.8012 26.9491 30.473 26.0181 30.473H25.1777V28.8071L23.9297 28.8072Z" fill="url(#paint4_linear_43_276)"/>
<defs>
<linearGradient id="paint0_linear_43_276" x1="17.9787" y1="30.5277" x2="28.3954" y2="43.5216" gradientUnits="userSpaceOnUse">
<stop stop-color="#81BDFF"/>
<stop offset="1" stop-color="#5ED9FF"/>
</linearGradient>
<linearGradient id="paint1_linear_43_276" x1="65.7442" y1="40.9178" x2="73.0393" y2="45.6125" gradientUnits="userSpaceOnUse">
<stop stop-color="#81BDFF"/>
<stop offset="1" stop-color="#5ED9FF"/>
</linearGradient>
<linearGradient id="paint2_linear_43_276" x1="61.4878" y1="39.8998" x2="71.9051" y2="52.8886" gradientUnits="userSpaceOnUse">
<stop stop-color="#81BDFF"/>
<stop offset="1" stop-color="#5ED9FF"/>
</linearGradient>
<linearGradient id="paint3_linear_43_276" x1="17.2499" y1="27.9287" x2="56.6785" y2="83.3751" gradientUnits="userSpaceOnUse">
<stop stop-color="#81BDFF"/>
<stop offset="1" stop-color="#5ED9FF"/>
</linearGradient>
<linearGradient id="paint4_linear_43_276" x1="20.7631" y1="31.66" x2="28.7449" y2="38.6368" gradientUnits="userSpaceOnUse">
<stop stop-color="#81BDFF"/>
<stop offset="1" stop-color="#5ED9FF"/>
</linearGradient>
</defs>
</svg>
