<svg width="92" height="92" viewBox="0 0 92 92" fill="none" xmlns="http://www.w3.org/2000/svg">
<path d="M47.4716 57.1884H47.4329C44.9918 57.1884 43.523 56.6666 42.6281 55.9021C41.8331 55.2229 41.531 54.3857 41.3765 53.672L38.1249 53.9947C38.3688 55.6712 38.9463 57.0058 39.8576 57.9903C40.8215 59.0315 42.1839 59.7082 43.9953 59.9645L44.2532 60.001V60.2616V63.1649H47.1334V60.3029V60.0332L47.4015 60.0046C49.0175 59.8318 50.4958 59.277 51.5646 58.344C52.6261 57.4175 53.2997 56.1053 53.2997 54.3701C53.2997 52.2235 52.439 50.5662 50.5394 49.559C50.1061 49.3307 49.4623 49.0994 48.7095 48.866C48.0637 48.6658 47.353 48.4686 46.648 48.273C46.5351 48.2416 46.4224 48.2104 46.3101 48.1791C45.5002 47.9538 44.7119 47.73 44.0727 47.5091C43.753 47.3986 43.4644 47.2869 43.2259 47.1735C42.9933 47.0631 42.7833 46.9398 42.6414 46.7979C42.237 46.3935 41.9779 45.8897 41.9643 45.369C41.9503 44.8362 42.1951 44.3299 42.7116 43.9484L42.7119 43.9482C43.5859 43.3044 44.7716 43.1495 45.7977 43.2145C46.316 43.2473 46.8076 43.337 47.2197 43.4574C47.6239 43.5755 47.9788 43.7311 48.2031 43.9114M47.4716 57.1884L48.0154 44.1454M47.4716 57.1884L47.509 57.1786C48.9059 56.8122 49.8708 55.8227 49.9791 54.7136C50.091 53.568 49.2814 52.4822 47.5186 51.9569L47.5157 51.956C47.1626 51.8547 46.762 51.7557 46.3275 51.6484C44.6199 51.2264 42.3899 50.6754 40.4752 49.3458C38.4875 47.9648 38.2508 45.1493 39.6103 43.0389C40.5712 41.559 42.2293 40.8598 43.9925 40.6238L44.2527 40.589V40.3265V37.4428H47.1329V40.3411V40.6026L47.392 40.6383C48.8922 40.8444 50.052 41.3279 50.8918 42.0704L50.8927 42.0711C51.9875 43.032 52.5951 44.2923 52.7128 45.8846M47.4716 57.1884L52.7128 45.8846M48.2031 43.9114C48.2032 43.9114 48.2033 43.9115 48.2033 43.9116L48.0154 44.1454M48.2031 43.9114C48.203 43.9113 48.2029 43.9113 48.2029 43.9112L48.0154 44.1454M48.2031 43.9114C48.7774 44.3713 49.1451 45.0811 49.336 46.0004M48.0154 44.1454C48.564 44.5846 48.922 45.3041 49.0884 46.309M49.336 46.0004L49.0781 46.0092L49.0884 46.309M49.336 46.0004L52.7128 45.8846M49.336 46.0004C49.3536 46.0852 49.3697 46.1717 49.3843 46.26L49.0884 46.309M49.0884 46.309L52.7128 45.8846M69.252 52.0367H68.952V52.3367V76.0634C68.952 79.2448 66.3539 81.8429 63.1715 81.8429H28.216C25.0345 81.8429 22.4364 79.2448 22.4364 76.0634V52.3367V52.0367H22.1364H14.1762C10.1562 52.0367 6.87141 48.7519 6.87141 44.7319V17.4619C6.87141 13.4491 10.1628 10.1572 14.1762 10.1572H77.2122C81.2322 10.1572 84.517 13.442 84.517 17.4619V44.7319C84.517 48.7432 81.2235 52.0367 77.2122 52.0367H69.252ZM65.9436 68.2594C65.3966 68.4789 64.7993 68.5991 64.173 68.5991H27.2089C26.5164 68.5991 25.8561 68.4488 25.2612 68.1796L24.8375 67.9878V68.4529V69.9968C24.8375 71.6969 26.2243 73.0843 27.9249 73.0843H63.4562C65.1521 73.0843 66.5436 71.6929 66.5436 69.9968V68.4569H66.3119L66.2498 68.1569L66.248 68.1569L65.9436 68.1524V68.2594ZM66.5456 34.4552V34.1552H66.2456H25.138H24.838L24.838 34.4551L24.8377 63.824C24.8377 65.1307 25.9033 66.1964 27.2091 66.1964H64.1732C65.4749 66.1964 66.5456 65.1263 66.5456 63.824V34.4552ZM66.2454 74.7693H66.168L66.1003 74.8067C65.3157 75.2404 64.4145 75.4888 63.458 75.4888H27.9267C26.9702 75.4888 26.0681 75.2404 25.2845 74.8068L24.8393 74.5604V75.0693V76.0636C24.8393 77.919 26.3586 79.4389 28.2146 79.4389H63.1701C65.0264 79.4389 66.5464 77.9196 66.5464 76.0636V75.0693V74.7693H66.2464H66.2454ZM22.1327 39.584H16.8025V27.1131H74.5798V39.584H69.2496H68.9496V39.884V49.3313V49.6313H69.2496H77.2099C79.9098 49.6313 82.1114 47.4307 82.1114 44.7306V17.4607C82.1114 14.7688 79.9033 12.56 77.2099 12.56H14.1724C11.4735 12.56 9.27181 14.7617 9.27181 17.4607V44.7306C9.27181 47.4224 11.4799 49.6313 14.1724 49.6313H22.1327H22.4327V49.3313V39.884V39.584H22.1327ZM72.1757 29.8163L72.1757 29.5163H71.8757H19.5069H19.2069V29.8163V36.8801V37.1801H19.5069H22.134H22.434V36.8801V31.7501L68.9504 31.7491V36.8801V37.1801H69.2504H71.8765H72.1765L72.1765 36.8801L72.1757 29.8163Z" fill="url(#paint0_linear_43_315)" stroke="#233239" stroke-width="0.6"/>
<defs>
<linearGradient id="paint0_linear_43_315" x1="16.0178" y1="16.8393" x2="71.4643" y2="81.3215" gradientUnits="userSpaceOnUse">
<stop stop-color="#81BDFF"/>
<stop offset="1" stop-color="#57C5E7"/>
</linearGradient>
</defs>
</svg>
