<svg width="24" height="24" viewBox="0 0 24 24" fill="none" xmlns="http://www.w3.org/2000/svg">
<rect width="24" height="24" rx="4" fill="#B6C3CB"/>
<path d="M7.5122 9.07317H4.39024V20H7.5122V9.07317ZM7.90244 5.95122C7.90244 4.87359 7.02885 4 5.95122 4C4.87359 4 4 4.87359 4 5.95122C4 7.02885 4.87359 7.90244 5.95122 7.90244C7.02885 7.90244 7.90244 7.02885 7.90244 5.95122ZM20 14.2088C20 10.7746 18.8605 8.76098 15.5356 8.76098C14.1259 8.76115 12.8089 9.46355 12.0234 10.6341V9.07317H9.07317V20H12.1951V14.8956C12.1122 14.1467 12.3442 13.397 12.8355 12.8257C13.3269 12.2545 14.0335 11.913 14.7863 11.8829C16.5971 11.8829 16.878 13.6624 16.878 14.8956V20H20V14.2088Z" fill="#1C272D"/>
</svg>
