<svg width="24" height="24" viewBox="0 0 24 24" fill="none" xmlns="http://www.w3.org/2000/svg">
<rect width="24" height="24" rx="4" fill="#B6C3CB"/>
<path d="M19.9965 7.53891C19.4079 7.79994 18.7754 7.97635 18.1115 8.05569C18.7892 7.6495 19.3095 7.00634 19.5546 6.24001C18.9205 6.61607 18.2181 6.8892 17.4706 7.03642C16.8719 6.39858 16.0189 6 15.075 6C13.2625 6 11.793 7.4694 11.793 9.2818C11.793 9.53902 11.8221 9.78951 11.8781 10.0297C9.15049 9.89284 6.73226 8.58627 5.11359 6.60074C4.8311 7.08545 4.66926 7.64921 4.66926 8.25065C4.66926 9.38923 5.2487 10.3938 6.1293 10.9823C5.59128 10.9652 5.08527 10.8176 4.64275 10.5718C4.64252 10.5855 4.64252 10.5992 4.64252 10.6131C4.64252 12.2032 5.77378 13.5296 7.27513 13.8311C6.99972 13.9061 6.70979 13.9462 6.41045 13.9462C6.19898 13.9462 5.99337 13.9256 5.79303 13.8873C6.21063 15.1912 7.42264 16.14 8.85875 16.1665C7.73556 17.0467 6.32045 17.5714 4.78289 17.5714C4.518 17.5714 4.25675 17.5559 4 17.5256C5.45238 18.4567 7.17747 19 9.03083 19C15.0674 19 18.3684 13.9992 18.3684 9.66236C18.3684 9.52006 18.3652 9.37852 18.3589 9.2378C19 8.77509 19.5565 8.19705 19.9965 7.53891Z" fill="#1C272D"/>
</svg>
