<svg width="24" height="24" viewBox="0 0 24 24" fill="none" xmlns="http://www.w3.org/2000/svg">
<rect width="24" height="24" rx="4" fill="#B6C3CB"/>
<path d="M5.89729 8.57681C5.91717 8.3815 5.84227 8.18845 5.69561 8.05699L4.20168 6.26734V6H8.84034L12.4258 13.8195L15.578 6H20V6.26734L18.7227 7.48519C18.6126 7.56867 18.5579 7.70586 18.5808 7.84164V16.7899C18.5579 16.9257 18.6126 17.0629 18.7227 17.1464L19.9701 18.3642V18.6316H13.6956V18.3642L14.9879 17.1167C15.1148 16.9904 15.1148 16.9533 15.1148 16.7602V9.52734L11.5219 18.6019H11.0364L6.85341 9.52734V15.6092C6.81853 15.8649 6.90393 16.1223 7.08497 16.3073L8.76564 18.3345V18.6019H4V18.3345L5.68067 16.3073C5.86039 16.122 5.94081 15.8629 5.89729 15.6092V8.57681Z" fill="#1C272D"/>
</svg>
