<svg width="24" height="24" viewBox="0 0 24 24" fill="none" xmlns="http://www.w3.org/2000/svg">
<rect width="24" height="24" rx="4" fill="#B6C3CB"/>
<path d="M19.9998 12.1048C20.0022 12.2668 19.9818 12.4285 19.9386 12.585C19.8953 12.7414 19.8299 12.8913 19.744 13.0297C19.6584 13.168 19.5533 13.294 19.432 13.4037C19.3107 13.5134 19.1743 13.6056 19.0269 13.6778C19.0302 13.721 19.0329 13.7644 19.0344 13.8079C19.038 13.8946 19.038 13.9814 19.0344 14.0681C19.0329 14.1115 19.0302 14.155 19.0269 14.1982C19.0269 16.8475 15.8919 19 12.0243 19C8.15659 19 5.02162 16.8475 5.02162 14.1982C5.01831 14.155 5.01561 14.1115 5.01411 14.0681C5.01049 13.9814 5.01049 13.8946 5.01411 13.8079C5.01561 13.7644 5.01831 13.721 5.02162 13.6778C4.79062 13.5732 4.58546 13.4205 4.42032 13.2302C4.25519 13.0399 4.13402 12.8165 4.06521 12.5755C3.99651 12.3344 3.98188 12.0815 4.02232 11.8343C4.06277 11.5871 4.15732 11.3515 4.29943 11.1438C4.44142 10.9362 4.62758 10.7615 4.845 10.6318C5.06242 10.5021 5.30589 10.4206 5.55853 10.3928C5.81119 10.3649 6.06699 10.3915 6.3082 10.4706C6.54941 10.5497 6.77026 10.6796 6.95545 10.8511C7.29922 10.6217 7.65941 10.417 8.03317 10.2387C8.40702 10.0607 8.79349 9.90936 9.18957 9.78636C9.58564 9.66336 9.99043 9.56904 10.4003 9.50369C10.8102 9.43835 11.2246 9.40257 11.6399 9.39636L12.5287 5.29234C12.5386 5.24474 12.5582 5.19979 12.5861 5.15958C12.6137 5.11966 12.6494 5.08537 12.6906 5.05905C12.732 5.03273 12.7783 5.0147 12.8269 5.00583C12.8753 4.99725 12.9251 4.99814 12.9732 5.00849L15.9159 5.58802C16.2129 5.08566 16.8363 4.87041 17.3867 5.07975C17.9372 5.28909 18.2519 5.86123 18.1287 6.42952C18.0059 6.99781 17.4816 7.39402 16.8925 7.36416C16.303 7.3343 15.8229 6.88723 15.7598 6.30947L13.1894 5.77725L12.4086 9.46732C12.8188 9.4759 13.2281 9.51374 13.6329 9.58027C14.4435 9.71332 15.2303 9.96089 15.9691 10.3153C16.3381 10.4921 16.6936 10.6949 17.033 10.9221C17.277 10.6914 17.5836 10.5352 17.9158 10.4723C18.248 10.4093 18.5917 10.4422 18.9053 10.5672C19.2189 10.6922 19.4891 10.9038 19.6833 11.1766C19.8776 11.4495 19.9875 11.7718 19.9998 12.1048ZM8.07971 13.7402C8.14037 13.8836 8.22866 14.014 8.34036 14.1237C8.45177 14.2337 8.58419 14.3206 8.72983 14.3803C8.87561 14.4397 9.03182 14.4702 9.18957 14.4702C9.67543 14.4702 10.1132 14.1819 10.2994 13.7402C10.4853 13.2981 10.3823 12.7896 10.0388 12.4513C9.69525 12.1131 9.17876 12.0116 8.72983 12.1947C8.28121 12.378 7.98843 12.8091 7.98843 13.2875C7.98843 13.4427 8.01936 13.5965 8.07971 13.7402ZM14.9592 16.5793C15.0208 16.5201 15.0559 16.4394 15.0571 16.3549C15.0583 16.27 15.025 16.1884 14.9649 16.1278C14.9049 16.0672 14.8229 16.0326 14.737 16.0314C14.6508 16.0302 14.568 16.063 14.4986 16.1142C14.318 16.2417 14.1267 16.354 13.9269 16.4498C13.727 16.5456 13.5192 16.6246 13.3059 16.686C13.0927 16.7472 12.8744 16.7907 12.6536 16.8158C12.4326 16.841 12.2101 16.8475 11.9882 16.8356C11.7666 16.8454 11.5444 16.8365 11.3243 16.8093C11.1041 16.7824 10.8867 16.7369 10.6745 16.6733C10.4619 16.61 10.2556 16.529 10.0571 16.4314C9.8586 16.3339 9.66882 16.2197 9.48985 16.0905C9.42769 16.0403 9.34872 16.0145 9.26824 16.0184C9.18777 16.0222 9.11179 16.0556 9.05474 16.1115C8.99798 16.1677 8.96405 16.2425 8.96015 16.3217C8.95625 16.401 8.98237 16.4787 9.03342 16.54C9.24452 16.6967 9.46883 16.835 9.70395 16.9539C9.93908 17.0728 10.1844 17.1712 10.4366 17.2487C10.6889 17.3262 10.9474 17.382 11.2096 17.416C11.4717 17.4498 11.7363 17.4613 12.0002 17.4506C12.2642 17.4613 12.5287 17.4498 12.7909 17.416C13.3159 17.348 13.8252 17.1917 14.2965 16.9539C14.5316 16.835 14.7559 16.6967 14.967 16.54L14.9592 16.5793ZM14.7388 14.5648C14.9016 14.5666 15.0631 14.5355 15.2136 14.474C15.364 14.4123 15.5 14.3212 15.6136 14.2062C15.7271 14.0911 15.8153 13.9545 15.8736 13.8046C15.9319 13.6549 15.9586 13.495 15.952 13.3348C15.952 12.8564 15.6592 12.4253 15.2106 12.242C14.7616 12.0589 14.2452 12.1604 13.9016 12.4986C13.5581 12.8369 13.4551 13.3454 13.641 13.7875C13.8272 14.2292 14.265 14.5175 14.7508 14.5175L14.7388 14.5648Z" fill="#1C272D"/>
</svg>
