<svg width="158" height="45" viewBox="0 0 158 45" fill="none" xmlns="http://www.w3.org/2000/svg">
<path fill-rule="evenodd" clip-rule="evenodd" d="M154.709 17.6187C154.249 17.6499 153.788 17.5799 153.358 17.4137C153.271 17.3742 153.178 17.3494 153.083 17.3404C152.918 17.3331 152.752 17.3355 152.585 17.338C152.503 17.3392 152.42 17.3404 152.338 17.3404H151.721C151.529 14.767 150.507 12.3255 148.808 10.383L148.991 10.1999L149.712 9.4785C149.846 9.34544 149.927 9.18753 150.01 9.02647C150.058 8.93266 150.106 8.83778 150.166 8.74614C150.403 8.36663 150.722 8.04506 151.1 7.80505C151.191 7.74666 151.282 7.68943 151.374 7.63219C151.629 7.47225 151.885 7.31234 152.124 7.12761C152.428 6.92553 152.666 6.63922 152.81 6.3037C152.929 5.93752 152.761 5.60612 152.508 5.3443C152.395 5.21616 152.253 5.11631 152.094 5.05274C151.935 4.98916 151.763 4.96361 151.593 4.97812C151.278 5.03436 150.992 5.19497 150.78 5.43402C150.509 5.70859 150.31 6.0338 150.111 6.35891C149.952 6.61696 149.794 6.87494 149.601 7.10747C149.297 7.45301 148.922 7.72903 148.502 7.91673C148.414 7.9509 148.331 7.99913 148.259 8.05954L148.258 8.05972C148.075 8.24275 147.892 8.42578 147.709 8.61797L147.363 8.96401C146.172 7.99389 144.804 7.26281 143.335 6.81086C142.424 6.50068 141.479 6.2979 140.521 6.20666V4.77489C140.525 4.73408 140.525 4.69303 140.521 4.65222C140.51 4.59994 140.487 4.54642 140.464 4.49347C140.448 4.45555 140.432 4.41792 140.42 4.38124C140.346 4.14856 140.293 3.90954 140.263 3.66719C140.201 3.16185 140.308 2.68413 140.416 2.20289L140.416 2.20278C140.479 1.92037 140.543 1.63674 140.572 1.3456C140.603 1.02885 140.614 0.671824 140.441 0.391695C140.267 0.111566 139.913 0.0108646 139.58 0.00171003C139.565 -0.000204679 139.549 -0.000204679 139.534 0.00171003C139.185 -0.0157901 138.843 0.101558 138.579 0.329444C138.399 0.533929 138.304 0.799041 138.313 1.07096C138.299 1.50509 138.399 1.925 138.498 2.34457L138.498 2.34495C138.554 2.58174 138.611 2.81843 138.646 3.0575C138.697 3.51815 138.646 3.98434 138.498 4.42336C138.448 4.54169 138.409 4.66424 138.381 4.78954C138.366 5.02672 138.366 5.26458 138.381 5.50176V6.23413C135.905 6.47133 133.557 7.44875 131.645 9.03908L131.416 8.81021L130.731 8.12729C130.701 8.09001 130.667 8.05568 130.631 8.02476C130.559 7.98741 130.485 7.9544 130.409 7.92589C130.181 7.81158 129.964 7.67546 129.763 7.51942C129.352 7.20261 129.085 6.78255 128.817 6.36002C128.643 6.08661 128.468 5.81217 128.254 5.56401C128.155 5.40985 128.022 5.28132 127.864 5.189C127.706 5.09669 127.528 5.04323 127.345 5.03304C127.162 5.02285 126.98 5.05622 126.813 5.13039C126.645 5.20456 126.498 5.31741 126.383 5.45965C125.485 6.38447 126.566 7.06969 127.451 7.63168C127.748 7.81958 128.022 7.99371 128.194 8.15841C128.522 8.50007 128.791 8.89427 128.99 9.3247C129.011 9.37021 129.04 9.41126 129.076 9.44554C129.212 9.5862 129.351 9.72419 129.49 9.86199L129.491 9.8632L129.492 9.86399L129.492 9.86443C129.551 9.92312 129.61 9.98177 129.669 10.0406L130.145 10.5166C130.134 10.5293 130.123 10.5419 130.112 10.5544L130.082 10.5872L130.082 10.5876C130.054 10.6184 130.026 10.6493 129.999 10.6814C128.452 12.5772 127.529 14.9039 127.353 17.3441H126.017C125.93 17.3393 125.843 17.3492 125.76 17.3734C125.44 17.4931 125.106 17.5743 124.766 17.6151C124.312 17.6583 123.869 17.5546 123.426 17.4508C123.119 17.3789 122.811 17.3069 122.499 17.2837C122.149 17.2402 121.794 17.304 121.481 17.4668C121.332 17.5619 121.211 17.6953 121.131 17.8531C121.051 18.0109 121.014 18.1873 121.026 18.3639C121.045 19.7317 122.453 19.4193 123.504 19.1861C123.757 19.1299 123.989 19.0784 124.177 19.056C124.622 19.0213 125.07 19.0838 125.489 19.2391C125.587 19.2826 125.69 19.3139 125.795 19.3325C125.962 19.3447 126.131 19.3406 126.299 19.3365C126.383 19.3345 126.466 19.3325 126.548 19.3325H127.06C132.031 18.8143 136.464 19.1329 138.381 21.3226C139.933 23.0968 138.804 26.8264 137.255 30.1568C137.628 30.2227 138.004 30.2715 138.381 30.3033V31.8724C138.377 31.9162 138.377 31.9603 138.381 32.0042C138.405 32.0835 138.434 32.1612 138.469 32.2367C138.542 32.4592 138.595 32.6877 138.628 32.9196C138.683 33.3275 138.659 33.7422 138.557 34.1408C138.46 34.5189 138.384 34.9022 138.331 35.2888C138.297 35.6129 138.286 35.9827 138.463 36.2702C138.657 36.5851 139.023 36.6638 139.379 36.6693C139.728 36.687 140.07 36.5674 140.333 36.3361C140.512 36.1293 140.606 35.8624 140.596 35.5891C140.609 35.1553 140.51 34.7357 140.411 34.3164L140.411 34.3161C140.355 34.079 140.299 33.842 140.263 33.6026C140.214 33.143 140.265 32.6782 140.413 32.2404C140.462 32.1219 140.501 31.9994 140.528 31.8742C140.541 31.6369 140.541 31.3992 140.528 31.162V30.2904C141.462 30.2061 142.384 30.0163 143.275 29.7247C144.725 29.2882 146.079 28.5792 147.264 27.6356L147.479 27.8498L148.18 28.5511C148.212 28.5892 148.248 28.6247 148.286 28.6573C148.344 28.6928 148.406 28.7234 148.469 28.7488C148.673 28.8459 148.868 28.9618 149.051 29.0949C149.406 29.3552 149.704 29.6847 149.928 30.0634C150.137 30.4184 150.368 30.7591 150.622 31.0832C150.827 31.3676 151.125 31.5706 151.464 31.6563C151.656 31.6766 151.85 31.6513 152.03 31.5826C152.21 31.5139 152.371 31.4036 152.501 31.2608C153.429 30.3035 152.361 29.6174 151.47 29.0451C151.178 28.8579 150.906 28.6828 150.728 28.5145C150.387 28.1863 150.113 27.7944 149.923 27.361C149.901 27.3065 149.87 27.2563 149.831 27.2127C149.709 27.0783 149.577 26.9504 149.446 26.8231C149.38 26.7596 149.315 26.6962 149.251 26.6323L148.789 26.1709C150.483 24.2566 151.515 21.8479 151.734 19.3013H152.882C152.969 19.306 153.057 19.2942 153.14 19.2665C153.48 19.1382 153.836 19.0557 154.198 19.0212C154.625 18.9923 155.042 19.0917 155.46 19.1912C155.785 19.2685 156.11 19.346 156.441 19.3636C156.788 19.3987 157.138 19.3306 157.446 19.1677C157.768 18.9718 157.873 18.6385 157.878 18.2779C157.847 16.9359 156.423 17.2551 155.384 17.488C155.126 17.5458 154.892 17.5983 154.709 17.6187ZM135.241 17.3203H131.396C131.555 15.8721 132.087 14.4899 132.939 13.3088L134.94 15.3099L135.742 16.1119C135.517 16.4881 135.348 16.8952 135.241 17.3203ZM138.353 13.0561V14.1363C137.953 14.2382 137.57 14.3999 137.218 14.616L134.366 11.7653C134.853 11.357 135.385 11.0051 135.951 10.7162C136.71 10.3539 137.52 10.11 138.353 9.99298V13.0561ZM143.119 16.057C144.062 15.1174 145.004 14.1785 145.945 13.2402C146.803 14.3659 147.369 15.6865 147.592 17.0841C147.601 17.1425 147.608 17.201 147.615 17.26V17.2601V17.2603C147.618 17.2862 147.622 17.3123 147.625 17.3386H143.635C143.535 16.886 143.36 16.453 143.119 16.057ZM140.494 9.99115C141.974 10.2006 143.368 10.8152 144.522 11.7671L142.352 13.9368L141.673 14.6197C141.308 14.4023 140.912 14.2406 140.499 14.14L140.494 9.99115ZM140.494 26.4968V22.3461C140.859 22.2521 141.21 22.1086 141.537 21.9195L144.437 24.8197C143.334 25.6811 142.03 26.2481 140.647 26.4675C140.602 26.4822 140.55 26.4876 140.499 26.4931L140.494 26.4968ZM143.925 21.3007L143.073 20.4493C143.303 20.0872 143.479 19.6937 143.595 19.2812H147.643C147.452 20.7567 146.867 22.1534 145.948 23.3238L143.925 21.3007ZM9.94972 21.7896C9.94972 21.59 9.76663 21.4106 9.41143 21.2403C9.05624 21.07 8.50513 20.9949 7.76362 20.9949C7.35621 20.9853 6.94902 21.0216 6.54972 21.103C6.30665 21.1517 6.0765 21.2509 5.87412 21.3941C5.73638 21.4901 5.63357 21.6282 5.58117 21.7877C5.53828 21.9309 5.51669 22.0795 5.51709 22.229C5.52082 22.3876 5.56169 22.543 5.63642 22.6829C5.71114 22.8229 5.81764 22.9433 5.94735 23.0346C6.29768 23.3014 6.68109 23.5217 7.08801 23.69C7.56038 23.8951 8.09806 24.1008 8.70104 24.3071C9.30402 24.5133 9.92226 24.7422 10.5558 24.9937C11.1894 25.2474 11.808 25.5372 12.4086 25.8615C12.9929 26.1755 13.535 26.5625 14.0217 27.0131C14.4943 27.4525 14.8811 27.9759 15.1623 28.5566C15.4602 29.1964 15.6074 29.8961 15.5926 30.6017C15.5926 31.5953 15.4009 32.4302 15.0177 33.1064C14.6351 33.7802 14.0828 34.342 13.4156 34.7359C12.6609 35.173 11.8345 35.4724 10.975 35.6203C9.95631 35.8024 8.92295 35.89 7.88812 35.8821C7.23532 35.8821 6.58347 35.8326 5.9382 35.7338C5.31581 35.6409 4.70176 35.4988 4.1018 35.309C3.54011 35.1293 2.99642 34.8976 2.47778 34.6169C2.00692 34.3645 1.57009 34.0532 1.17783 33.6905C0.825746 33.3637 0.533848 32.9776 0.315473 32.5498C0.105492 32.1358 -0.00247992 31.6775 0.00055639 31.2133C-0.00637497 30.8889 0.0515161 30.5665 0.170832 30.2648C0.272662 30.0137 0.426829 29.7871 0.623067 29.6002C0.809081 29.4277 1.02839 29.295 1.26755 29.2102C1.51243 29.1252 1.76999 29.0825 2.0292 29.0839C2.35748 29.086 2.68261 29.1481 2.9886 29.267C3.30783 29.3871 3.60071 29.568 3.85096 29.7998C4.12978 30.0581 4.35052 30.3727 4.49856 30.7227C4.6466 31.0728 4.71855 31.4503 4.70966 31.8303C4.71913 31.9589 4.77358 32.0801 4.86345 32.1726C4.99005 32.3114 5.14159 32.425 5.3102 32.5077C5.54276 32.624 5.78872 32.7113 6.04256 32.7677C6.37087 32.8436 6.70711 32.8799 7.04407 32.8757C7.46514 32.8845 7.886 32.8502 8.30007 32.7732C8.5547 32.7284 8.79873 32.6366 9.01962 32.5022C9.1665 32.4126 9.28025 32.2777 9.34369 32.1177C9.39253 31.9814 9.41791 31.8378 9.41875 31.693C9.41875 31.5099 9.28693 31.3597 9.02511 31.2242C8.6917 31.0603 8.34579 30.9232 7.99065 30.8141C7.56588 30.675 7.07519 30.5285 6.52592 30.371C5.97665 30.2136 5.41639 30.0287 4.8488 29.8126C4.27313 29.5928 3.71284 29.3347 3.17169 29.04C2.63469 28.7512 2.1415 28.3874 1.70696 27.9597C1.27698 27.5317 0.927243 27.03 0.674333 26.4785C0.398873 25.8571 0.26384 25.1826 0.278855 24.503C0.268214 23.8231 0.359553 23.1454 0.549829 22.4926C0.716409 21.9317 0.975706 21.4026 1.31698 20.9272C1.64431 20.4747 2.04538 20.0805 2.50341 19.7609C2.98044 19.4296 3.49791 19.1607 4.04321 18.9608C4.63308 18.7459 5.24357 18.5925 5.86496 18.5031C6.53682 18.4063 7.21482 18.3586 7.89361 18.3603C8.97626 18.3391 10.0567 18.466 11.105 18.7374C11.8742 18.9368 12.6037 19.2662 13.2618 19.7115C13.7644 20.0522 14.1791 20.5071 14.4721 21.0389C14.7104 21.4758 14.8398 21.9639 14.8492 22.4615C14.8592 22.8406 14.7675 23.2155 14.5838 23.5472C14.4112 23.8469 14.1749 24.1051 13.8917 24.3034C13.5975 24.5067 13.2686 24.6543 12.9213 24.7392C12.5625 24.8319 12.1933 24.8787 11.8227 24.8783C11.4733 24.8793 11.125 24.84 10.7846 24.7611C10.4693 24.6926 10.167 24.5739 9.8893 24.4096C9.64265 24.2655 9.42877 24.0716 9.2613 23.8402C9.10003 23.6153 9.01588 23.3442 9.02145 23.0675C9.00843 22.8955 9.05927 22.7247 9.16426 22.5878C9.25788 22.4845 9.36578 22.3952 9.48467 22.3224C9.60185 22.251 9.70804 22.1795 9.80325 22.11C9.85263 22.0732 9.89195 22.0245 9.91755 21.9685C9.94315 21.9125 9.95422 21.851 9.94972 21.7896ZM25.5966 27.8497H30.4082L30.4009 31.0978C30.4141 31.3544 30.3703 31.6107 30.2727 31.8484C30.2025 32.0051 30.095 32.1421 29.9596 32.2476C29.8366 32.3356 29.6971 32.3979 29.5495 32.4307C29.3994 32.4655 29.2639 32.5057 29.1394 32.5479C29.0232 32.5872 28.9161 32.6494 28.8245 32.7309C28.7782 32.7793 28.7428 32.837 28.7207 32.9002C28.6986 32.9633 28.6903 33.0305 28.6963 33.0971C28.6861 33.5041 28.8075 33.9035 29.0424 34.236C29.3084 34.5828 29.6615 34.8532 30.0658 35.0196C30.6017 35.2447 31.1661 35.395 31.7429 35.4663C32.5058 35.5683 33.2748 35.6166 34.0444 35.611C34.803 35.6165 35.5611 35.5681 36.3129 35.4663C36.885 35.3947 37.4444 35.2444 37.9754 35.0196C38.377 34.8522 38.7275 34.5819 38.9915 34.236C39.2264 33.9035 39.3478 33.5041 39.3376 33.0971C39.3438 33.0302 39.3353 32.9626 39.3125 32.8993C39.2897 32.836 39.2533 32.7785 39.2057 32.7309C39.1084 32.6487 38.9958 32.5865 38.8743 32.5479C38.7443 32.5057 38.5997 32.4655 38.4441 32.4307C38.2895 32.3985 38.1427 32.3363 38.012 32.2476C37.8695 32.1429 37.7561 32.0037 37.6824 31.843C37.5819 31.6079 37.5362 31.3531 37.5488 31.0978V23.1077C37.5357 22.8565 37.5815 22.6057 37.6824 22.3753C37.7562 22.2177 37.8698 22.082 38.012 21.9817C38.1429 21.8935 38.2896 21.8313 38.4441 21.7986C38.5997 21.762 38.7443 21.7253 38.8743 21.6869C38.9949 21.6523 39.1075 21.5945 39.2057 21.5166C39.2532 21.469 39.2895 21.4114 39.3123 21.3482C39.3351 21.2849 39.3437 21.2174 39.3376 21.1504C39.3412 20.2704 38.8872 19.6332 37.9754 19.239C37.0636 18.8447 35.7532 18.6476 34.0444 18.6476C32.3099 18.6488 30.9862 18.8465 30.0732 19.2408C29.1601 19.6351 28.7036 20.2722 28.7036 21.1523C28.6979 21.2189 28.7063 21.286 28.7284 21.3491C28.7505 21.4123 28.7857 21.47 28.8318 21.5185C28.9245 21.5954 29.0316 21.6532 29.1467 21.6887C29.2712 21.7272 29.4067 21.7638 29.5568 21.8004C29.7043 21.8337 29.8437 21.8959 29.967 21.9835C30.1031 22.086 30.2108 22.2215 30.28 22.3772C30.377 22.6086 30.4208 22.8589 30.4082 23.1095V25.7881H25.6186V23.1095C25.6059 22.8589 25.6497 22.6086 25.7467 22.3772C25.8166 22.2219 25.9242 22.0865 26.0598 21.9835C26.1831 21.8959 26.3224 21.8337 26.4699 21.8004C26.6201 21.7638 26.7574 21.7272 26.8801 21.6887C26.9954 21.6538 27.1025 21.5958 27.195 21.5185C27.2414 21.4702 27.2769 21.4126 27.2991 21.3494C27.3212 21.2862 27.3294 21.2189 27.3231 21.1523C27.3339 20.7464 27.2124 20.348 26.9771 20.0171C26.7099 19.6731 26.3569 19.4054 25.9536 19.2408C25.4179 19.0148 24.8535 18.8638 24.2765 18.7922C23.5136 18.6909 22.7446 18.6432 21.975 18.6494C21.2286 18.6434 20.4827 18.6912 19.7432 18.7922C19.1788 18.8651 18.6273 19.0161 18.1045 19.2408C17.7054 19.4074 17.3565 19.6749 17.092 20.0171C16.8567 20.348 16.7352 20.7464 16.746 21.1523C16.7397 21.2189 16.7479 21.2862 16.77 21.3494C16.7922 21.4126 16.8277 21.4702 16.8741 21.5185C16.9659 21.5958 17.0724 21.6538 17.1872 21.6887C17.3117 21.7272 17.4472 21.7638 17.5918 21.8004C17.7375 21.8341 17.875 21.8963 17.9965 21.9835C18.1326 22.0864 18.2409 22.2217 18.3114 22.3772C18.4084 22.6086 18.4522 22.8589 18.4396 23.1095V31.1435C18.4525 31.3942 18.4087 31.6446 18.3114 31.8759C18.2399 32.0297 18.1318 32.1636 17.9965 32.2659C17.8742 32.3516 17.737 32.4137 17.5918 32.449C17.4472 32.4838 17.3117 32.5204 17.1872 32.5607C17.0718 32.5941 16.9649 32.6522 16.8741 32.7309C16.8276 32.7791 16.792 32.8368 16.7699 32.9C16.7477 32.9632 16.7396 33.0305 16.746 33.0971C16.7357 33.5041 16.8571 33.9035 17.092 34.236C17.3549 34.5814 17.7041 34.8517 18.1045 35.0196C18.6274 35.2436 19.1789 35.394 19.7432 35.4663C20.4827 35.5681 21.2286 35.6164 21.975 35.611C23.7071 35.6122 25.0314 35.4151 25.9481 35.0196C26.8648 34.6241 27.3231 33.9833 27.3231 33.0971C27.3295 33.0305 27.3214 32.9632 27.2992 32.9C27.2771 32.8368 27.2415 32.7791 27.195 32.7309C27.1035 32.6492 26.9964 32.5869 26.8801 32.5479C26.7454 32.5018 26.6086 32.4627 26.4699 32.4307C26.3213 32.3976 26.1806 32.3353 26.0561 32.2476C25.9163 32.1411 25.8045 32.0023 25.7302 31.843C25.6306 31.6077 25.585 31.353 25.5966 31.0978V27.8497ZM54.1772 23.1098C54.3441 23.0224 54.4812 22.8873 54.5708 22.7216C54.6202 22.6202 54.6494 22.5101 54.6569 22.3975C54.6539 22.3327 54.6358 22.2694 54.604 22.2128C54.5723 22.1562 54.5276 22.1079 54.4738 22.0716C54.3566 21.9764 54.2248 21.8776 54.0783 21.7732C53.9371 21.6738 53.8053 21.5617 53.6847 21.4381C53.6262 21.3813 53.5798 21.3133 53.5484 21.2381C53.5169 21.1629 53.501 21.0821 53.5016 21.0006C53.4871 20.5947 53.6047 20.1951 53.8366 19.8617C54.0662 19.5482 54.3701 19.2965 54.721 19.1294C55.116 18.9436 55.536 18.8165 55.9678 18.7522C56.4383 18.677 56.914 18.6397 57.3904 18.6405C57.9307 18.638 58.4703 18.6809 59.0035 18.7687C59.4646 18.8393 59.9142 18.9717 60.34 19.1623C60.6952 19.3181 61.0088 19.5551 61.2555 19.8544C61.4851 20.1411 61.6064 20.4996 61.5979 20.8669C61.6088 21.083 61.5382 21.2953 61.4001 21.4619C61.2512 21.6244 61.0696 21.7536 60.8673 21.8409C60.6184 21.9528 60.3598 22.0417 60.0947 22.1064C59.8042 22.1809 59.5027 22.2682 59.1902 22.3682C58.8673 22.4712 58.5522 22.5973 58.2473 22.7454C57.9262 22.9016 57.63 23.1046 57.3685 23.3478L55.1201 25.4259L59.5875 31.098C59.7736 31.3477 59.9943 31.5697 60.243 31.7572C60.4358 31.8977 60.6411 32.0202 60.8563 32.1233C61.028 32.2083 61.2054 32.2811 61.3873 32.3412C61.5358 32.3863 61.6789 32.4477 61.8139 32.5243C61.9331 32.5941 62.0307 32.6955 62.0959 32.8172C62.1731 32.9857 62.2083 33.1705 62.1984 33.3555C62.1984 34.1428 61.7633 34.7147 60.893 35.0711C60.0227 35.4275 58.7636 35.6051 57.1158 35.6039C56.3746 35.609 55.6341 35.5589 54.9004 35.4538C54.3264 35.3767 53.7657 35.2208 53.2343 34.9905C52.8229 34.817 52.4621 34.5424 52.1852 34.1923C51.9376 33.8546 51.8088 33.4445 51.819 33.026C51.8138 32.9487 51.8278 32.8713 51.8598 32.8007C51.8917 32.7301 51.9406 32.6685 52.0021 32.6213C52.1295 32.5265 52.267 32.4461 52.4122 32.3815C52.5605 32.3138 52.6978 32.2442 52.8223 32.1728C52.8798 32.1424 52.9275 32.0963 52.9599 32.04C52.9923 31.9836 53.0081 31.9192 53.0054 31.8542C53.0009 31.7468 52.9694 31.6423 52.9139 31.5503C52.8296 31.4036 52.7354 31.2629 52.6319 31.1292L50.801 28.7325C50.7309 28.6503 50.645 28.583 50.5483 28.5348C50.4487 28.4813 50.3429 28.4401 50.2334 28.4121C50.1185 28.3827 50.0005 28.3667 49.8819 28.3645H49.5157H49.3033V31.1108C49.2911 31.3656 49.3349 31.62 49.4315 31.856C49.5013 32.0159 49.611 32.1553 49.75 32.2607C49.8754 32.3481 50.0165 32.4103 50.1657 32.4437C50.3158 32.4785 50.4531 32.5188 50.5813 32.5609C50.6994 32.5996 50.8084 32.6619 50.9017 32.744C50.9476 32.7925 50.9827 32.8503 51.0045 32.9134C51.0262 32.9766 51.0343 33.0437 51.028 33.1102C51.028 33.9964 50.5703 34.6372 49.6548 35.0326C48.7394 35.4281 47.415 35.6253 45.6818 35.624C44.9353 35.6296 44.1894 35.5812 43.4499 35.4794C42.8825 35.408 42.3279 35.2576 41.8021 35.0326C41.402 34.8642 41.0529 34.5941 40.7896 34.249C40.5547 33.9165 40.4333 33.5171 40.4435 33.1102C40.4375 33.0435 40.4458 32.9764 40.4679 32.9132C40.4901 32.8501 40.5254 32.7924 40.5717 32.744C40.6635 32.6657 40.7708 32.6076 40.8866 32.5737C41.0111 32.5335 41.1448 32.4968 41.2912 32.4621C41.4362 32.4264 41.5734 32.3644 41.6959 32.279C41.8312 32.1767 41.9393 32.0428 42.0108 31.889C42.1065 31.6572 42.1497 31.4071 42.1371 31.1566V23.1098C42.1493 22.8593 42.1061 22.6093 42.0108 22.3774C41.9403 22.222 41.832 22.0867 41.6959 21.9838C41.5742 21.8969 41.4368 21.8347 41.2912 21.8007C41.1448 21.764 41.0111 21.7274 40.8866 21.689C40.7715 21.6535 40.6644 21.5956 40.5717 21.5187C40.5256 21.4702 40.4904 21.4125 40.4683 21.3494C40.4462 21.2863 40.4378 21.2192 40.4435 21.1525C40.4328 20.7466 40.5542 20.3482 40.7896 20.0174C41.0545 19.6756 41.4033 19.4082 41.8021 19.2411C42.3277 19.0154 42.8824 18.8645 43.4499 18.7925C44.1895 18.6913 44.9353 18.6436 45.6818 18.6497C46.4513 18.6435 47.2203 18.6912 47.9832 18.7925C48.5602 18.8643 49.1245 19.0152 49.6603 19.2411C50.0629 19.4061 50.4151 19.6738 50.682 20.0174C50.9173 20.3482 51.0388 20.7466 51.028 21.1525C51.0342 21.219 51.0261 21.2861 51.0043 21.3492C50.9825 21.4124 50.9475 21.4701 50.9017 21.5187C50.8073 21.5963 50.6984 21.6542 50.5813 21.689C50.4531 21.7274 50.3158 21.764 50.1657 21.8007C50.0167 21.8346 49.8756 21.8968 49.75 21.9838C49.6112 22.0848 49.5014 22.2206 49.4315 22.3774C49.3345 22.6089 49.2907 22.8591 49.3033 23.1098V26.4347C49.5029 26.4347 49.7116 26.4237 49.9313 26.4017C50.1484 26.3815 50.3553 26.3003 50.5282 26.1674L54.1772 23.1098ZM71.8216 21.9286C70.9965 21.6339 70.1253 21.4895 69.2492 21.502C68.4974 21.4992 67.7486 21.5971 67.0228 21.7931C66.3792 21.9632 65.7628 22.2233 65.1919 22.5657C64.6652 22.8855 64.1879 23.2803 63.7748 23.7375C63.3742 24.1826 63.0343 24.6788 62.7641 25.2132C62.4927 25.7487 62.2885 26.3157 62.1563 26.9013C61.8914 28.0761 61.8914 29.295 62.1563 30.4698C62.2872 31.0518 62.4856 31.6165 62.7477 32.1524C63.0115 32.689 63.3445 33.1888 63.7382 33.6391C64.1423 34.0989 64.6103 34.4984 65.1278 34.8255C65.6795 35.1736 66.2791 35.4395 66.9075 35.6146C67.617 35.81 68.3504 35.9049 69.0863 35.8966C69.8441 35.9061 70.5998 35.8131 71.3328 35.6201C71.9566 35.4545 72.5513 35.1939 73.096 34.8475C73.5878 34.5314 74.0249 34.1375 74.3904 33.6812C74.7426 33.2377 75.0265 32.744 75.2326 32.2164C75.2528 32.1683 75.2669 32.1179 75.2747 32.0663C75.2823 32.0136 75.286 31.9603 75.2857 31.907C75.2866 31.7422 75.2381 31.5809 75.1466 31.4438C75.1068 31.3786 75.0504 31.325 74.9832 31.2887C74.916 31.2523 74.8403 31.2345 74.7639 31.2369C74.6471 31.2394 74.5329 31.2722 74.4325 31.3321C74.2601 31.4248 74.0822 31.5067 73.8997 31.5775C73.6873 31.6617 73.4548 31.7441 73.2021 31.8228C72.9435 31.8992 72.6806 31.9604 72.4149 32.0059C72.1527 32.0545 71.8868 32.0796 71.6202 32.081C71.176 32.0855 70.7328 32.037 70.3002 31.9363C69.9162 31.8474 69.563 31.6578 69.2767 31.387C68.9647 31.0695 68.7363 30.6794 68.6121 30.2519C68.4345 29.6346 68.3536 28.9935 68.3722 28.3514H73.4987C73.8045 28.3514 74.0773 28.3404 74.319 28.3184C74.5302 28.3066 74.737 28.2524 74.9269 28.1592C75.0918 28.0721 75.2241 27.934 75.304 27.7655C75.4047 27.5299 75.4504 27.2744 75.4377 27.0185C75.4439 26.2747 75.2974 25.5375 75.0074 24.8525C74.7247 24.1873 74.3034 23.5899 73.7716 23.1004C73.2055 22.5847 72.5427 22.1864 71.8216 21.9286ZM69.3975 24.3838C69.5951 24.2801 69.8152 24.2267 70.0383 24.2282C70.3009 24.2236 70.5621 24.2671 70.8091 24.3564C71.0303 24.444 71.2212 24.5941 71.3584 24.7885C71.5249 25.0327 71.6407 25.3079 71.699 25.5977C71.7847 26.0088 71.824 26.4283 71.8161 26.8482H68.418C68.4122 26.4529 68.4534 26.0584 68.5407 25.6728C68.6057 25.3828 68.721 25.1065 68.8812 24.8562C69.0116 24.6585 69.189 24.4961 69.3975 24.3838ZM83.5761 21.502C84.4521 21.4895 85.3234 21.6339 86.1485 21.9286C86.8696 22.1864 87.5323 22.5847 88.0984 23.1004C88.6303 23.5899 89.0516 24.1873 89.3343 24.8525C89.6243 25.5375 89.7707 26.2747 89.7646 27.0185C89.7768 27.2742 89.7318 27.5294 89.6327 27.7655C89.5531 27.9371 89.4202 28.0784 89.2537 28.1683C89.0638 28.2616 88.8571 28.3157 88.6459 28.3276C88.4042 28.3496 88.1314 28.3606 87.8256 28.3606H82.6991C82.6805 29.0026 82.7614 29.6437 82.9389 30.261C83.063 30.6891 83.2921 31.0793 83.6054 31.3962C83.8906 31.6675 84.2434 31.8572 84.627 31.9455C85.0597 32.0461 85.5029 32.0947 85.9471 32.0901C86.2137 32.0889 86.4796 32.0638 86.7417 32.0151C87.0075 31.9695 87.2704 31.9084 87.529 31.832C87.7817 31.7532 88.0142 31.6708 88.2266 31.5866C88.4091 31.5159 88.587 31.434 88.7594 31.3413C88.8597 31.2813 88.9739 31.2485 89.0908 31.2461C89.1672 31.2436 89.2428 31.2615 89.31 31.2978C89.3773 31.3342 89.4336 31.3877 89.4734 31.453C89.5658 31.5896 89.6144 31.7512 89.6126 31.9162C89.6128 31.9695 89.6092 32.0227 89.6016 32.0755C89.5938 32.1271 89.5797 32.1775 89.5595 32.2256C89.3534 32.7531 89.0695 33.2468 88.7173 33.6903C88.3518 34.1467 87.9146 34.5406 87.4228 34.8566C86.8782 35.203 86.2835 35.4636 85.6597 35.6293C84.9267 35.8223 84.171 35.9153 83.4131 35.9057C82.6773 35.914 81.9439 35.8191 81.2343 35.6238C80.6059 35.4486 80.0064 35.1828 79.4547 34.8347C78.9372 34.5076 78.4692 34.108 78.065 33.6482C77.6714 33.198 77.3384 32.6982 77.0745 32.1615C76.8125 31.6256 76.614 31.0609 76.4831 30.4789C76.2183 29.3042 76.2183 28.0852 76.4831 26.9105C76.6154 26.3249 76.8196 25.7579 77.091 25.2224C77.3612 24.688 77.701 24.1917 78.1017 23.7467C78.5147 23.2894 78.9921 22.8947 79.5188 22.5749C80.0897 22.2325 80.7061 21.9723 81.3497 21.8022C82.0751 21.6032 82.8239 21.5022 83.5761 21.502ZM84.3652 24.2282C84.1426 24.2264 83.9231 24.2799 83.7262 24.3838C83.5168 24.4955 83.3386 24.6579 83.2081 24.8562C83.0478 25.1065 82.9326 25.3828 82.8675 25.6728C82.7803 26.0584 82.7391 26.4529 82.7448 26.8482H86.143C86.1509 26.4283 86.1116 26.0088 86.0258 25.5977C85.9676 25.3079 85.8518 25.0327 85.6853 24.7885C85.548 24.5941 85.3572 24.444 85.136 24.3564C84.889 24.2671 84.6278 24.2236 84.3652 24.2282ZM107.581 30.4499C107.648 29.8983 107.682 29.3431 107.682 28.7874C107.684 28.2184 107.651 27.6498 107.585 27.0847C107.512 26.5178 107.39 25.9584 107.219 25.4131C107.055 24.8824 106.834 24.3715 106.558 23.8898C106.29 23.4206 105.945 23.0008 105.536 22.6484C105.108 22.2857 104.619 22.0029 104.091 21.8135C103.48 21.5971 102.834 21.4923 102.185 21.5041C101.745 21.5007 101.305 21.5325 100.869 21.5993C100.505 21.6566 100.146 21.7404 99.7942 21.8501C99.4947 21.9425 99.2042 22.062 98.9263 22.2072C98.6878 22.3311 98.4594 22.4737 98.2434 22.6338C98.0047 22.307 97.6541 22.0796 97.2584 21.9948C96.6276 21.8547 95.9819 21.7932 95.3359 21.8117C94.6625 21.8067 93.9895 21.849 93.3219 21.938C92.8076 22.0032 92.3052 22.1413 91.8297 22.3481C91.4688 22.5044 91.1537 22.7502 90.9143 23.0622C90.6993 23.3648 90.5888 23.7292 90.5994 24.1003C90.5937 24.1611 90.6006 24.2225 90.6199 24.2805C90.6391 24.3385 90.6701 24.3918 90.7111 24.4372C90.7941 24.5094 90.8924 24.562 90.9985 24.591C91.1084 24.6258 91.2329 24.6587 91.3647 24.6862C91.4965 24.7172 91.6209 24.7739 91.7309 24.8528C91.8562 24.9439 91.9554 25.0664 92.0183 25.208C92.1027 25.4177 92.1408 25.6432 92.13 25.869V37.5374C92.142 37.7644 92.1039 37.9913 92.0183 38.202C91.9548 38.3422 91.8557 38.4634 91.7309 38.5535C91.6209 38.6325 91.4965 38.6891 91.3647 38.7201C91.2402 38.7476 91.1157 38.7787 90.9985 38.8153C90.8924 38.8443 90.7941 38.8969 90.7111 38.9691C90.6701 39.0145 90.6391 39.0679 90.6199 39.1259C90.6006 39.1838 90.5937 39.2452 90.5994 39.306C90.5888 39.6771 90.6993 40.0415 90.9143 40.3441C91.1537 40.6561 91.4688 40.9019 91.8297 41.0582C92.3052 41.265 92.8076 41.4031 93.3219 41.4683C93.9895 41.5574 94.6625 41.5996 95.3359 41.5947C96.9203 41.5959 98.1311 41.4171 98.9685 41.0582C99.8058 40.6993 100.224 40.1153 100.224 39.306C100.231 39.2447 100.223 39.1828 100.203 39.1246C100.183 39.0664 100.15 39.0134 100.107 38.9691C100.023 38.898 99.9255 38.8456 99.8198 38.8153C99.7063 38.7787 99.58 38.7458 99.4427 38.7146C99.3065 38.683 99.1777 38.6252 99.0637 38.5444C98.9393 38.4477 98.8406 38.3219 98.7762 38.1782C98.6872 37.9601 98.6472 37.725 98.659 37.4898V35.0089C99.1311 35.2752 99.6341 35.4824 100.157 35.6259C100.839 35.8088 101.543 35.895 102.249 35.8822C102.895 35.8941 103.539 35.7931 104.15 35.5838C104.672 35.4021 105.156 35.1259 105.578 34.769C105.979 34.425 106.319 34.0166 106.585 33.5606C106.857 33.0928 107.075 32.596 107.235 32.0794C107.399 31.5478 107.515 31.0024 107.581 30.4499ZM99.1168 33.0168C98.9605 32.9885 98.8073 32.9456 98.659 32.8887L98.692 25.8726V25.0634C98.692 24.8144 98.6847 24.58 98.67 24.3603C98.7833 24.3157 98.9012 24.2837 99.0216 24.2651C99.1486 24.2432 99.2772 24.2322 99.406 24.2321C99.6985 24.2233 99.987 24.301 100.235 24.4555C100.491 24.6449 100.682 24.9073 100.785 25.208C100.951 25.6638 101.055 26.1398 101.094 26.6233C101.164 27.3584 101.196 28.0966 101.189 28.835C101.189 29.6724 101.18 30.3645 101.162 30.9113C101.158 31.3508 101.097 31.7879 100.979 32.2112C100.914 32.4843 100.747 32.7221 100.512 32.8759C100.228 33.0143 99.9123 33.0774 99.5965 33.059C99.4356 33.0597 99.275 33.0456 99.1168 33.0168ZM116.002 21.5018C116.875 21.4906 117.743 21.635 118.565 21.9284C119.286 22.1859 119.948 22.5842 120.513 23.1002C121.045 23.5898 121.466 24.1871 121.749 24.8524C122.04 25.5372 122.187 26.2744 122.181 27.0184C122.194 27.2743 122.148 27.5297 122.047 27.7654C121.971 27.9359 121.842 28.0772 121.679 28.1682C121.489 28.2612 121.283 28.3153 121.071 28.3275C120.83 28.3494 120.557 28.3604 120.251 28.3604H115.125C115.106 28.9994 115.186 29.6374 115.363 30.2517C115.487 30.6793 115.715 31.0693 116.027 31.3869C116.313 31.6585 116.667 31.8482 117.051 31.9362C117.483 32.0369 117.927 32.0855 118.371 32.0808C118.637 32.0795 118.903 32.0544 119.165 32.0058C119.431 31.96 119.694 31.8989 119.953 31.8227C120.205 31.7439 120.438 31.6615 120.65 31.5773C120.833 31.5062 121.011 31.4243 121.183 31.332C121.283 31.2721 121.396 31.2393 121.513 31.2368C121.589 31.2344 121.665 31.2523 121.733 31.2886C121.8 31.3249 121.857 31.3784 121.897 31.4437C121.988 31.5809 122.036 31.7422 122.035 31.9069C122.034 31.9601 122.031 32.0133 122.025 32.0662C122.018 32.118 122.003 32.1686 121.981 32.2163C121.777 32.7441 121.493 33.238 121.141 33.681C120.776 34.1374 120.338 34.5313 119.847 34.8473C119.302 35.1938 118.707 35.4543 118.083 35.62C117.35 35.813 116.594 35.906 115.835 35.8964C115.1 35.9046 114.367 35.8097 113.658 35.6145C113.03 35.4393 112.43 35.1735 111.878 34.8254C111.361 34.4983 110.893 34.0988 110.489 33.6389C110.095 33.1892 109.762 32.6893 109.498 32.1522C109.235 31.6167 109.037 31.0519 108.907 30.4696C108.64 29.2952 108.64 28.0756 108.907 26.9012C109.039 26.3159 109.243 25.749 109.513 25.2131C109.784 24.6789 110.125 24.1828 110.525 23.7374C110.938 23.2797 111.416 22.8849 111.943 22.5656C112.513 22.2228 113.13 21.9627 113.773 21.7929C114.5 21.5966 115.249 21.4987 116.002 21.5018ZM116.789 24.2281C116.566 24.2267 116.347 24.2802 116.15 24.3837C115.941 24.4955 115.764 24.6579 115.634 24.8561C115.472 25.1056 115.357 25.3822 115.293 25.6726C115.205 26.0581 115.164 26.4528 115.17 26.8481H118.569C118.576 26.4282 118.536 26.0088 118.451 25.5976C118.393 25.3078 118.277 25.0326 118.111 24.7883C117.97 24.5929 117.775 24.4428 117.551 24.3562C117.307 24.2679 117.049 24.2244 116.789 24.2281ZM130.999 32.1964C130.911 31.9804 130.871 31.7481 130.881 31.5153L130.903 25.8194C130.908 25.5731 130.883 25.3272 130.828 25.087C130.785 24.9275 130.76 24.7634 130.755 24.5981C130.753 24.5542 130.761 24.5103 130.779 24.4704C130.798 24.4305 130.826 24.3957 130.861 24.3693C130.996 24.3016 131.147 24.2737 131.297 24.2887C131.388 24.282 131.479 24.2949 131.565 24.3265C131.65 24.3581 131.728 24.4076 131.793 24.4718C131.909 24.603 131.999 24.7545 132.059 24.9186L132.059 24.9211C132.118 25.098 132.182 25.2912 132.242 25.499C132.301 25.708 132.396 25.905 132.524 26.0812C132.669 26.2718 132.857 26.4249 133.073 26.5279C133.377 26.6636 133.709 26.7263 134.041 26.711C134.419 26.7191 134.793 26.6461 135.14 26.4968C135.439 26.3676 135.707 26.1774 135.927 25.9384C136.136 25.708 136.297 25.4385 136.402 25.1456C136.507 24.8518 136.561 24.5422 136.561 24.2301C136.575 23.8143 136.482 23.4018 136.29 23.0327C136.113 22.7144 135.862 22.4437 135.557 22.2436C135.238 22.0349 134.882 21.8872 134.508 21.8078C133.796 21.6522 133.06 21.6323 132.341 21.7492C132.073 21.7949 131.809 21.8641 131.553 21.9561C131.318 22.0426 131.09 22.146 130.87 22.2656C130.658 22.3809 130.453 22.5036 130.253 22.6317C129.982 22.3424 129.638 22.1307 129.257 22.0184C128.709 21.8632 128.139 21.7935 127.569 21.8115C126.889 21.8059 126.209 21.8481 125.535 21.9378C125.021 22.003 124.518 22.1411 124.043 22.348C123.682 22.5042 123.367 22.75 123.127 23.062C122.913 23.365 122.803 23.7292 122.813 24.1001C122.807 24.1614 122.814 24.2232 122.834 24.2814C122.855 24.3395 122.887 24.3926 122.93 24.437C123.014 24.5078 123.112 24.5602 123.217 24.5908C123.323 24.6256 123.448 24.6586 123.583 24.686C123.716 24.7157 123.84 24.7724 123.95 24.8526C124.073 24.9458 124.172 25.0678 124.237 25.2078C124.324 25.4168 124.364 25.6425 124.354 25.8688V31.5556C124.365 31.7837 124.325 32.0115 124.237 32.222C124.17 32.3601 124.072 32.4805 123.95 32.5736C123.84 32.6525 123.715 32.7086 123.583 32.7384C123.455 32.7658 123.331 32.7988 123.217 32.8336C123.112 32.865 123.014 32.9173 122.93 32.9874C122.887 33.0318 122.855 33.0849 122.834 33.143C122.814 33.2012 122.807 33.263 122.813 33.3243C122.803 33.6952 122.913 34.0594 123.127 34.3624C123.367 34.6744 123.682 34.9201 124.043 35.0764C124.518 35.2841 125.021 35.4222 125.535 35.4866C126.209 35.5769 126.889 35.6198 127.569 35.6147C129.154 35.6147 130.364 35.4353 131.202 35.0764C132.039 34.7176 132.458 34.1335 132.458 33.3243C132.464 33.263 132.457 33.201 132.436 33.1429C132.416 33.0847 132.383 33.0316 132.341 32.9874C132.255 32.9161 132.155 32.8637 132.048 32.8336C131.93 32.7988 131.804 32.764 131.67 32.7329C131.535 32.6998 131.406 32.6421 131.291 32.5626C131.164 32.4676 131.063 32.3415 130.999 32.1964Z" fill="url(#paint0_linear_18_56)"/>
<path fill-rule="evenodd" clip-rule="evenodd" d="M15.3729 37.4016V36.8139C15.1477 36.7419 14.9136 36.7012 14.6772 36.693C14.4906 36.6879 14.306 36.7328 14.1426 36.823C14.004 36.9021 13.8943 37.0233 13.8295 37.1691C13.7558 37.4002 13.7248 37.6427 13.7379 37.8849V38.6173H13.1246V39.1354H13.7379V43.2861H14.3385V39.1354H15.3125V38.6173H14.3385V37.9856C14.3306 37.8214 14.341 37.6568 14.3696 37.495C14.3966 37.425 14.448 37.3671 14.5142 37.332C14.6033 37.2813 14.7048 37.2566 14.8072 37.2606C15.0032 37.2701 15.1954 37.318 15.3729 37.4016ZM10.9675 36.8142H11.568V43.2864H10.9675V36.8142ZM2.63148 39.5274L3.01597 39.1283C2.57838 38.7072 2.14812 38.4966 1.72334 38.4783C1.55507 38.4733 1.3875 38.5019 1.23034 38.5622C1.07319 38.6226 0.929586 38.7135 0.80789 38.8299C0.688512 38.9435 0.594258 39.0809 0.531191 39.2333C0.468125 39.3856 0.437645 39.5494 0.44171 39.7142C0.436012 39.9765 0.515691 40.2335 0.668744 40.4465C0.903818 40.723 1.19787 40.9432 1.52927 41.091C1.80822 41.2131 2.0645 41.3815 2.28727 41.589C2.39615 41.7165 2.45531 41.8791 2.45388 42.0468C2.45428 42.1514 2.4317 42.2548 2.38772 42.3497C2.34374 42.4446 2.27945 42.5287 2.19938 42.596C2.0326 42.7498 1.81283 42.8331 1.58603 42.8286C1.24182 42.8286 0.915917 42.6552 0.608324 42.3086L0.231154 42.737C0.39266 42.9444 0.600957 43.1107 0.839017 43.2222C1.07934 43.3411 1.34356 43.4037 1.61166 43.4053C1.79811 43.4108 1.98372 43.3782 2.15717 43.3096C2.33062 43.241 2.48826 43.1377 2.62049 43.0062C2.75145 42.8805 2.85499 42.7291 2.92463 42.5614C2.99426 42.3938 3.02847 42.2136 3.02512 42.0321C3.02777 41.7689 2.94489 41.5119 2.78894 41.2997C2.53521 41.0135 2.22303 40.785 1.87348 40.6296C1.60409 40.5107 1.35893 40.3431 1.15027 40.1353C1.04344 40.0162 0.98243 39.8631 0.978168 39.7032C0.978483 39.6175 0.997294 39.5329 1.03332 39.4552C1.06934 39.3775 1.12172 39.3084 1.18689 39.2528C1.32199 39.1245 1.50229 39.0548 1.68856 39.0587C1.99616 39.0587 2.30924 39.2143 2.63148 39.5274ZM9.15151 42.0028L8.64435 41.7373C8.50837 41.9821 8.33615 42.2049 8.13352 42.3982C7.96408 42.542 7.76989 42.6536 7.56045 42.7278C7.33832 42.81 7.10338 42.8522 6.86654 42.8523C6.63479 42.8571 6.40462 42.8133 6.19082 42.7237C5.97703 42.6342 5.78435 42.5008 5.62518 42.3323C5.2844 41.9723 5.0978 41.4933 5.1052 40.9976H9.31812C9.33302 40.423 9.15154 39.8605 8.80364 39.4029C8.58088 39.1107 8.2915 38.876 7.95964 38.7184C7.62778 38.5607 7.26304 38.4847 6.89583 38.4966C6.53903 38.4851 6.18469 38.5594 5.86258 38.7133C5.54047 38.8671 5.26001 39.0961 5.04478 39.3809C4.68416 39.8295 4.49006 40.3891 4.49551 40.9646C4.49348 41.5889 4.72312 42.1917 5.13999 42.6564C5.56964 43.1556 6.1653 43.4052 6.92696 43.4052C7.23906 43.4098 7.54934 43.357 7.84241 43.2496C8.1139 43.146 8.36264 42.9905 8.57477 42.7919C8.81242 42.5652 9.00772 42.298 9.15151 42.0028ZM8.29465 39.7105C8.4647 39.9389 8.58394 40.2011 8.64435 40.4795L5.16013 40.4849C5.2492 40.1182 5.43952 39.7839 5.7094 39.5201C6.0309 39.2225 6.45413 39.0594 6.89217 39.0642C7.16731 39.0658 7.43867 39.1283 7.68678 39.2473C7.92252 39.3525 8.13061 39.5111 8.29465 39.7105ZM19.9078 36.8142H20.5083V39.4544C20.7222 39.1602 20.9962 38.9149 21.3121 38.7348C21.6022 38.5762 21.928 38.4943 22.2587 38.4968C22.5883 38.4902 22.9123 38.5827 23.1888 38.7623C23.456 38.9351 23.6647 39.1846 23.7875 39.4781C23.9391 39.93 24.0044 40.4064 23.9797 40.8825V43.2864H23.3792V41.0582C23.3915 40.6982 23.37 40.3377 23.3151 39.9816C23.2631 39.71 23.1205 39.4641 22.9105 39.2841C22.6881 39.1198 22.4159 39.0371 22.1397 39.0497C21.7808 39.0495 21.434 39.1796 21.1638 39.4159C20.8835 39.6453 20.684 39.9584 20.5944 40.3094C20.5221 40.7289 20.4933 41.1547 20.5083 41.58V43.2919H19.9078V36.8142ZM29.0914 38.6892C28.7823 38.5541 28.4474 38.4884 28.1103 38.4966C27.7722 38.4884 27.4365 38.5545 27.1268 38.6902C26.8171 38.8259 26.5409 39.028 26.3178 39.2821C25.8967 39.7489 25.6667 40.357 25.6735 40.9856C25.6803 41.6142 25.9234 42.2172 26.3544 42.6748C26.5842 42.9062 26.8574 43.0898 27.1585 43.2151C27.4595 43.3404 27.7824 43.405 28.1084 43.405C28.4345 43.405 28.7574 43.3404 29.0584 43.2151C29.3594 43.0898 29.6327 42.9062 29.8624 42.6748C30.2937 42.2166 30.5369 41.6129 30.5437 40.9837C30.5505 40.3545 30.3204 39.7458 29.8991 39.2784C29.6761 39.0254 29.4004 38.8242 29.0914 38.6892ZM27.4119 39.2246C27.6322 39.1302 27.8698 39.0824 28.1095 39.0843C28.3488 39.0829 28.5858 39.1309 28.8057 39.2253C29.0259 39.3198 29.2243 39.4588 29.3882 39.6336C29.5653 39.8085 29.7052 40.0174 29.7995 40.2477C29.8939 40.478 29.9409 40.725 29.9375 40.9738C29.939 41.3041 29.8544 41.6291 29.6922 41.9168C29.5384 42.1997 29.3089 42.4343 29.0294 42.5942C28.7493 42.7497 28.4343 42.8313 28.1139 42.8313C27.7936 42.8313 27.4785 42.7497 27.1985 42.5942C26.9189 42.4343 26.6894 42.1997 26.5357 41.9168C26.3726 41.6294 26.2879 41.3042 26.2903 40.9738C26.2859 40.7258 26.3312 40.4794 26.4237 40.2492C26.5161 40.019 26.6538 39.8097 26.8286 39.6336C26.9927 39.4584 27.1913 39.3192 27.4119 39.2246ZM34.6359 39.1283L34.2532 39.5201C33.931 39.207 33.6179 39.0514 33.3103 39.0514C33.1241 39.0478 32.9439 39.1175 32.8086 39.2455C32.7435 39.3024 32.6916 39.3729 32.6565 39.4519C32.6214 39.531 32.604 39.6167 32.6054 39.7032C32.6096 39.8631 32.6707 40.0162 32.7775 40.1353C32.9861 40.3431 33.2313 40.5107 33.5007 40.6296C33.8503 40.785 34.1624 41.0135 34.4162 41.2997C34.5721 41.5119 34.655 41.7689 34.6523 42.0321C34.653 42.2133 34.6163 42.3927 34.5445 42.559C34.4727 42.7254 34.3673 42.8751 34.2349 42.9988C34.1027 43.1304 33.945 43.2336 33.7716 43.3023C33.5981 43.3709 33.4125 43.4034 33.2261 43.398C32.958 43.3962 32.6938 43.3336 32.4534 43.2149C32.2157 43.1028 32.0075 42.9367 31.8456 42.7297L32.2227 42.3013C32.5303 42.6479 32.8562 42.8212 33.2004 42.8212C33.4277 42.8253 33.6479 42.7421 33.8156 42.5887C33.8952 42.521 33.959 42.4368 34.0026 42.342C34.0463 42.2471 34.0687 42.1439 34.0683 42.0394C34.0697 41.8718 34.0105 41.7092 33.9017 41.5817C33.6793 41.3737 33.4229 41.2053 33.1437 41.0837C32.8128 40.9359 32.5193 40.7157 32.285 40.4392C32.1314 40.2263 32.0511 39.9693 32.0561 39.7069C32.052 39.5421 32.0825 39.3782 32.1456 39.2259C32.2087 39.0736 32.3029 38.9362 32.4223 38.8225C32.544 38.7062 32.6876 38.6152 32.8447 38.5549C33.0019 38.4945 33.1695 38.466 33.3378 38.471C33.7662 38.4966 34.2001 38.7072 34.6359 39.1283ZM37.4574 36.8836H36.855V38.6175H36.0366V39.1356H36.855V43.2863H37.4574V39.1356H38.4094V38.6175H37.4574V36.8836ZM43.8745 41.7373L44.3798 42.0028C44.2366 42.2979 44.042 42.5651 43.8049 42.7919C43.5922 42.9897 43.3436 43.1451 43.0726 43.2496C42.7765 43.3579 42.4631 43.4107 42.1479 43.4052C41.3863 43.4052 40.7906 43.1556 40.361 42.6564C39.9447 42.1914 39.7152 41.5888 39.7165 40.9646C39.712 40.3893 39.9059 39.8299 40.2658 39.3809C40.481 39.0961 40.7615 38.8671 41.0836 38.7133C41.4057 38.5594 41.76 38.4851 42.1168 38.4966C42.484 38.4847 42.8488 38.5607 43.1806 38.7184C43.5125 38.876 43.8019 39.1107 44.0246 39.4029C44.3732 39.8602 44.5553 40.4228 44.5409 40.9976H40.3298C40.3225 41.4933 40.509 41.9723 40.8498 42.3323C41.009 42.5008 41.2017 42.6342 41.4155 42.7237C41.6293 42.8133 41.8594 42.8571 42.0912 42.8523C42.328 42.8522 42.563 42.81 42.7851 42.7278C42.9948 42.6542 43.1891 42.5425 43.3582 42.3982C43.5622 42.2048 43.7362 41.9821 43.8745 41.7373ZM43.8745 40.4795C43.8135 40.201 43.6936 39.9388 43.523 39.7105C43.3594 39.5106 43.1512 39.3519 42.9151 39.2473C42.6671 39.1281 42.3956 39.0655 42.1205 39.0642C41.6848 39.0562 41.2624 39.2146 40.9395 39.5072C40.668 39.7697 40.4774 40.1046 40.3903 40.4721L43.8745 40.4795ZM50.9473 43.2864V36.8142H50.365V39.4745C50.1537 39.1694 49.8733 38.9184 49.5466 38.7421C49.2254 38.576 48.8682 38.4917 48.5067 38.4968C48.1886 38.4927 47.8731 38.5541 47.5798 38.6773C47.2866 38.8004 47.0218 38.9827 46.8021 39.2127C46.5741 39.438 46.394 39.7071 46.2725 40.0038C46.1511 40.3005 46.0908 40.6187 46.0953 40.9392C46.0886 41.2629 46.1472 41.5845 46.2677 41.885C46.3882 42.1854 46.5681 42.4585 46.7966 42.6877C47.143 43.042 47.5913 43.2793 48.079 43.3666C48.5667 43.4539 49.0695 43.3869 49.5173 43.1748C49.846 43.0072 50.135 42.7712 50.365 42.4827V43.2864H50.9473ZM47.6205 39.3225C47.9015 39.1583 48.2215 39.0729 48.5469 39.0754C48.7913 39.0707 49.034 39.1168 49.2596 39.2107C49.4853 39.3046 49.689 39.4443 49.8579 39.621C50.0338 39.799 50.1719 40.0109 50.2638 40.2437C50.3556 40.4766 50.3994 40.7256 50.3925 40.9758C50.3968 41.3096 50.3148 41.6388 50.1545 41.9316C49.9953 42.2146 49.76 42.4474 49.4752 42.6035C49.1906 42.7672 48.8679 42.8531 48.5396 42.8525C48.2174 42.8534 47.9009 42.7667 47.6242 42.6017C47.3384 42.4337 47.1037 42.1914 46.9449 41.9004C46.7794 41.6138 46.6922 41.2886 46.6922 40.9575C46.6922 40.6265 46.7794 40.3013 46.9449 40.0146C47.104 39.7275 47.3373 39.4885 47.6205 39.3225ZM56.0025 36.8142H56.6031V40.5016L58.7672 38.6176H59.6497L57.0864 40.844L59.8016 43.2864H58.9558L56.6049 41.1846V43.2864H56.0043L56.0025 36.8142ZM65.4885 42.0028L64.9814 41.7373C64.8465 41.9818 64.6755 42.2047 64.4742 42.3982C64.3048 42.542 64.1106 42.6536 63.9011 42.7278C63.6789 42.8098 63.444 42.8519 63.2072 42.8523C62.9752 42.8571 62.7447 42.8133 62.5306 42.7238C62.3165 42.6342 62.1235 42.5009 61.964 42.3323C61.6241 41.9717 61.4376 41.4931 61.444 40.9976H65.6551C65.67 40.423 65.4886 39.8605 65.1407 39.4029C64.9179 39.1107 64.6285 38.876 64.2967 38.7184C63.9648 38.5607 63.6001 38.4847 63.2329 38.4966C62.8761 38.4851 62.5217 38.5594 62.1996 38.7133C61.8775 38.8671 61.597 39.0961 61.3818 39.3809C61.0212 39.8295 60.8271 40.3891 60.8325 40.9646C60.8305 41.5889 61.0601 42.1917 61.477 42.6564C61.9067 43.1556 62.5023 43.4052 63.264 43.4052C63.5761 43.4095 63.8863 43.3568 64.1794 43.2496C64.4507 43.1455 64.6993 42.9901 64.9118 42.7919C65.1494 42.5652 65.3447 42.298 65.4885 42.0028ZM64.6317 39.7105C64.8017 39.9389 64.921 40.2011 64.9814 40.4795L61.4971 40.4849C61.5862 40.1182 61.7765 39.7839 62.0464 39.5201C62.3679 39.2225 62.7912 39.0594 63.2292 39.0642C63.5043 39.066 63.7756 39.1285 64.0238 39.2473C64.2593 39.353 64.4672 39.5115 64.6317 39.7105ZM71.3254 41.7373L71.8326 42.0028C71.6888 42.298 71.4935 42.5652 71.2558 42.7919C71.0437 42.9905 70.7949 43.146 70.5235 43.2496C70.2304 43.357 69.9201 43.4098 69.608 43.4052C68.8463 43.4052 68.2507 43.1556 67.821 42.6564C67.4042 42.1917 67.1745 41.5889 67.1766 40.9646C67.1711 40.3891 67.3652 39.8295 67.7258 39.3809C67.9411 39.0961 68.2215 38.8671 68.5436 38.7133C68.8657 38.5594 69.2201 38.4851 69.5769 38.4966C69.9441 38.4847 70.3088 38.5607 70.6407 38.7184C70.9725 38.876 71.2619 39.1107 71.4847 39.4029C71.8326 39.8605 72.0141 40.423 71.9992 40.9976H67.7863C67.7781 41.4934 67.9648 41.9727 68.3062 42.3323C68.4654 42.5008 68.6581 42.6342 68.8719 42.7237C69.0857 42.8133 69.3158 42.8571 69.5476 42.8523C69.7844 42.8522 70.0194 42.81 70.2415 42.7278C70.4509 42.6536 70.6451 42.542 70.8146 42.3982C71.0172 42.2049 71.1894 41.9821 71.3254 41.7373ZM71.3254 40.4795C71.265 40.2011 71.1458 39.9389 70.9757 39.7105C70.8117 39.5111 70.6036 39.3525 70.3678 39.2473C70.1197 39.1285 69.8483 39.066 69.5732 39.0642C69.1369 39.0559 68.7139 39.2143 68.3904 39.5072C68.1206 39.7711 67.9302 40.1054 67.8412 40.4721L71.3254 40.4795ZM74.3502 38.6174H73.7478V44.9999H74.3484V42.4898C74.5774 42.7777 74.8652 43.0136 75.1924 43.1818C75.6403 43.3946 76.1436 43.4613 76.6315 43.3726C77.1193 43.2839 77.567 43.0442 77.9113 42.6875C78.1395 42.458 78.3191 42.1849 78.4396 41.8845C78.5601 41.5841 78.6189 41.2626 78.6125 40.939C78.6177 40.6182 78.5575 40.2997 78.4357 40.0029C78.3139 39.7061 78.133 39.4371 77.904 39.2124C77.685 38.9825 77.4209 38.8002 77.1282 38.677C76.8355 38.5538 76.5206 38.4924 76.2031 38.4966C75.8433 38.4919 75.4879 38.5762 75.1686 38.7419C74.8434 38.9202 74.5634 39.1707 74.3502 39.4743V38.6174ZM75.4377 39.2117C75.6637 39.1172 75.9069 39.0707 76.1518 39.0751L76.1555 39.0788C76.4818 39.0768 76.8026 39.163 77.084 39.3283C77.3653 39.4937 77.5968 39.732 77.7539 40.018C77.9188 40.3049 78.0057 40.63 78.0057 40.961C78.0057 41.2919 77.9188 41.617 77.7539 41.9039C77.5951 42.1948 77.3603 42.4372 77.0746 42.6051C76.7979 42.7705 76.4814 42.8572 76.1591 42.8559C75.8309 42.856 75.5083 42.7702 75.2235 42.6069C74.9383 42.4514 74.7029 42.2185 74.5443 41.935C74.3831 41.6426 74.3011 41.3131 74.3062 40.9793C74.2994 40.7292 74.343 40.4803 74.4346 40.2475C74.5261 40.0147 74.6637 39.8028 74.839 39.6244C75.0078 39.4468 75.2117 39.3063 75.4377 39.2117ZM84.2973 41.7373L84.8044 42.0028C84.6607 42.298 84.4654 42.5652 84.2277 42.7919C84.0156 42.9905 83.7668 43.146 83.4954 43.2496C83.2022 43.3568 82.892 43.4095 82.5799 43.4052C81.8182 43.4052 81.2226 43.1556 80.7929 42.6564C80.3761 42.1917 80.1464 41.5889 80.1484 40.9646C80.143 40.3891 80.3371 39.8295 80.6977 39.3809C80.9129 39.0961 81.1934 38.8671 81.5155 38.7133C81.8376 38.5594 82.192 38.4851 82.5488 38.4966C82.916 38.4847 83.2807 38.5607 83.6126 38.7184C83.9445 38.876 84.2338 39.1107 84.4566 39.4029C84.8045 39.8605 84.986 40.423 84.9711 40.9976H80.7581C80.7503 41.493 80.9362 41.972 81.2763 42.3323C81.4358 42.5009 81.6288 42.6342 81.8429 42.7238C82.057 42.8133 82.2875 42.8571 82.5195 42.8523C82.7563 42.8519 82.9912 42.8098 83.2134 42.7278C83.4228 42.6536 83.617 42.542 83.7865 42.3982C83.9891 42.2049 84.1613 41.9821 84.2973 41.7373ZM84.2973 40.4795C84.2369 40.2011 84.1176 39.9389 83.9476 39.7105C83.7832 39.5115 83.5752 39.353 83.3397 39.2473C83.0915 39.1285 82.8202 39.066 82.5451 39.0642C82.1071 39.0594 81.6838 39.2225 81.3623 39.5201C81.0925 39.7839 80.9021 40.1182 80.8131 40.4849L84.2973 40.4795ZM87.0968 38.6175H86.4835V43.279H87.0968V41.6989C87.0751 41.1588 87.1126 40.6179 87.2085 40.0859C87.2741 39.7954 87.4215 39.5298 87.6333 39.3205C87.789 39.1684 87.9961 39.0802 88.2137 39.0734C88.3235 39.0796 88.431 39.1069 88.5305 39.1539L88.8435 38.6559C88.6831 38.5583 88.5003 38.5035 88.3126 38.4966C88.0856 38.4981 87.8643 38.5677 87.6772 38.6962C87.4464 38.8572 87.2492 39.0619 87.0968 39.2986V38.6175Z" fill="white"/>
<defs>
<linearGradient id="paint0_linear_18_56" x1="2.83058e-07" y1="33" x2="152.25" y2="30.75" gradientUnits="userSpaceOnUse">
<stop stop-color="#81BDFF"/>
<stop offset="1" stop-color="#5ED9FF"/>
</linearGradient>
</defs>
</svg>
