<svg width="158" height="54" viewBox="0 0 158 54" fill="none" xmlns="http://www.w3.org/2000/svg">
<path d="M12.7181 28.6074C12.1858 28.2891 11.6352 28.0047 11.069 27.7568C10.5889 27.5428 10.0539 27.3445 9.45899 27.1566C8.86406 26.9713 8.28216 26.8774 7.71593 26.8774C7.25407 26.8774 6.88615 26.9479 6.61216 27.0914C6.33818 27.2323 6.19988 27.4723 6.19988 27.8089C6.19988 28.0568 6.28077 28.2604 6.43994 28.4222C6.59912 28.5813 6.83135 28.7274 7.13143 28.8605C7.43412 28.9936 7.80204 29.1215 8.2352 29.2467C8.67096 29.372 9.16152 29.5207 9.7121 29.6981C10.581 29.9643 11.3664 30.2565 12.0684 30.5775C12.7703 30.8958 13.3678 31.2742 13.8636 31.7074C14.3594 32.1431 14.743 32.6702 15.0091 33.2913C15.2753 33.9123 15.4084 34.6664 15.4084 35.5536C15.4084 36.6887 15.1996 37.6437 14.7821 38.4135C14.3646 39.1858 13.814 39.8016 13.133 40.2635C12.4493 40.7254 11.677 41.0568 10.8185 41.2629C9.95738 41.4664 9.09368 41.5682 8.22476 41.5682C7.53327 41.5682 6.82352 41.516 6.09551 41.409C5.36749 41.302 4.64469 41.1533 3.92711 40.9576C3.20953 40.7619 2.51544 40.5323 1.85005 40.2661C1.18466 40 0.568844 39.6973 0 39.3607L2.23624 34.8099C2.85727 35.2013 3.50439 35.5458 4.18022 35.8484C4.74907 36.1146 5.39097 36.3547 6.11116 36.566C6.82874 36.78 7.56198 36.8844 8.30826 36.8844C8.8771 36.8844 9.27112 36.8087 9.49292 36.6573C9.71471 36.506 9.82431 36.3077 9.82431 36.0598C9.82431 35.7936 9.7121 35.5666 9.49292 35.3814C9.27112 35.1961 8.96582 35.0317 8.57441 34.8882C8.18301 34.7473 7.7368 34.6038 7.23058 34.4629C6.72437 34.322 6.18683 34.1523 5.6206 33.9566C4.7856 33.6722 4.06802 33.3669 3.46525 33.0381C2.86249 32.7094 2.3641 32.3388 1.9753 31.9213C1.58389 31.5038 1.29686 31.0289 1.11159 30.4966C0.926329 29.9643 0.832391 29.3511 0.832391 28.6596C0.832391 27.6132 1.02288 26.6895 1.40385 25.8911C1.78481 25.0926 2.30408 24.4272 2.96164 23.8949C3.61921 23.3626 4.3681 22.9581 5.21093 22.6841C6.05376 22.4101 6.94616 22.2719 7.88554 22.2719C8.57702 22.2719 9.25285 22.3371 9.90781 22.4728C10.5654 22.6059 11.1994 22.7755 11.81 22.979C12.4232 23.1825 12.9947 23.4043 13.527 23.6444C14.0593 23.8844 14.5395 24.1115 14.9648 24.3228L12.7181 28.6074Z" fill="#78CCF4"/>
<path d="M34.4072 22.431V41.3281H29.2197V33.9279H22.8841V41.3281H17.6941V22.431H22.8841V29.4033H29.2197V22.431H34.4072Z" fill="#78CCF4"/>
<path d="M37.656 41.3281V22.431H42.8461V29.6173L48.5945 22.431H54.45L47.5821 30.8959L54.9275 41.3281H48.965L44.2812 34.382L42.8434 35.8719V41.3281H37.656Z" fill="#78CCF4"/>
<path d="M62.5677 41.5942C61.3439 41.5942 60.2532 41.4038 59.2929 41.0228C58.3353 40.6418 57.5316 40.1226 56.8845 39.465C56.2374 38.8074 55.7442 38.0533 55.4076 37.2027C55.071 36.352 54.9014 35.4544 54.9014 34.515C54.9014 33.5026 55.0658 32.5449 55.3945 31.6395C55.7233 30.734 56.2113 29.946 56.8584 29.2702C57.5055 28.5969 58.304 28.0594 59.2538 27.6602C60.2036 27.2609 61.3074 27.0626 62.5677 27.0626C63.8098 27.0626 64.9109 27.2609 65.8686 27.6602C66.8262 28.0594 67.6299 28.5917 68.277 29.2571C68.9242 29.9225 69.4121 30.6949 69.7409 31.5716C70.0697 32.451 70.2341 33.3669 70.2341 34.3271C70.2341 34.5933 70.221 34.8647 70.1949 35.1386C70.1688 35.4126 70.1375 35.6579 70.101 35.8693H60.2793C60.3315 36.6156 60.6081 37.1505 61.1039 37.4793C61.5996 37.808 62.1424 37.9724 62.7269 37.9724C63.2775 37.9724 63.7967 37.8472 64.2847 37.5993C64.7726 37.3514 65.0962 37.0043 65.2554 36.5608L69.54 37.7846C68.9711 38.9014 68.097 39.8173 66.9176 40.527C65.7381 41.2394 64.2873 41.5942 62.5677 41.5942ZM64.804 32.8398C64.7152 32.1666 64.4673 31.6343 64.0577 31.2428C63.6506 30.8514 63.1261 30.6583 62.4868 30.6583C61.8475 30.6583 61.3257 30.854 60.916 31.2428C60.5063 31.6343 60.2584 32.1666 60.1697 32.8398H64.804Z" fill="#78CCF4"/>
<path d="M78.7772 41.5942C77.5534 41.5942 76.4627 41.4038 75.5024 41.0228C74.5448 40.6418 73.7411 40.1226 73.094 39.465C72.4468 38.8074 71.9537 38.0533 71.6171 37.2027C71.2805 36.352 71.1108 35.4544 71.1108 34.515C71.1108 33.5026 71.2752 32.5449 71.604 31.6395C71.9328 30.734 72.4207 29.946 73.0679 29.2702C73.715 28.5969 74.5135 28.0594 75.4633 27.6602C76.4131 27.2609 77.5169 27.0626 78.7772 27.0626C80.0193 27.0626 81.1204 27.2609 82.0781 27.6602C83.0357 28.0594 83.8394 28.5917 84.4865 29.2571C85.1336 29.9225 85.6216 30.6949 85.9504 31.5716C86.2791 32.451 86.4435 33.3669 86.4435 34.3271C86.4435 34.5933 86.4305 34.8647 86.4044 35.1386C86.3783 35.4126 86.347 35.6579 86.3105 35.8693H76.4888C76.541 36.6156 76.8175 37.1505 77.3133 37.4793C77.8091 37.808 78.3519 37.9724 78.9364 37.9724C79.4869 37.9724 80.0062 37.8472 80.4942 37.5993C80.9821 37.3514 81.3057 37.0043 81.4648 36.5608L85.7494 37.7846C85.1806 38.9014 84.3065 39.8173 83.127 40.527C81.9476 41.2394 80.4968 41.5942 78.7772 41.5942ZM81.0108 32.8398C80.9221 32.1666 80.6742 31.6343 80.2645 31.2428C79.8549 30.8514 79.333 30.6583 78.6937 30.6583C78.0544 30.6583 77.5325 30.854 77.1228 31.2428C76.7132 31.6343 76.4653 32.1666 76.3766 32.8398H81.0108Z" fill="#78CCF4"/>
<path d="M97.5126 41.5942C96.5001 41.5942 95.6234 41.3959 94.8771 40.9967C94.1308 40.5975 93.5541 40.0156 93.1471 39.2536V51.4994H88.0901V27.3288H92.4817V29.4319C92.9775 28.67 93.5907 28.0829 94.3187 27.6758C95.0467 27.2688 95.9417 27.0626 97.0063 27.0626C97.9274 27.0626 98.7885 27.2453 99.587 27.608C100.385 27.9707 101.069 28.4743 101.635 29.111C102.202 29.7503 102.65 30.5122 102.979 31.3994C103.308 32.2866 103.472 33.2442 103.472 34.2749C103.472 35.3213 103.321 36.2946 103.021 37.1896C102.718 38.0846 102.303 38.8622 101.771 39.5198C101.239 40.1774 100.607 40.6862 99.8819 41.0489C99.1538 41.4142 98.3658 41.5942 97.5126 41.5942ZM95.7564 37.3357C96.1296 37.3357 96.4714 37.2549 96.7819 37.0957C97.0924 36.9365 97.3586 36.7147 97.5804 36.4303C97.8022 36.1459 97.9796 35.8171 98.1127 35.4466C98.2458 35.076 98.3136 34.6742 98.3136 34.2488C98.3136 33.3617 98.0605 32.6519 97.5543 32.1196C97.0481 31.5873 96.3775 31.3211 95.5451 31.3211C94.6031 31.3211 93.8046 31.8013 93.1497 32.7589V35.1804C93.3976 35.8014 93.7629 36.3155 94.2404 36.7251C94.7179 37.1322 95.2241 37.3357 95.7564 37.3357Z" fill="#78CCF4"/>
<path d="M112.206 41.5942C110.982 41.5942 109.891 41.4038 108.931 41.0228C107.973 40.6418 107.17 40.1226 106.523 39.465C105.876 38.8074 105.382 38.0533 105.046 37.2027C104.709 36.352 104.54 35.4544 104.54 34.515C104.54 33.5026 104.704 32.5449 105.033 31.6395C105.362 30.734 105.849 29.946 106.497 29.2702C107.144 28.5969 107.942 28.0594 108.892 27.6602C109.842 27.2609 110.946 27.0626 112.206 27.0626C113.448 27.0626 114.549 27.2609 115.507 27.6602C116.464 28.0594 117.268 28.5917 117.915 29.2571C118.562 29.9225 119.05 30.6949 119.379 31.5716C119.708 32.451 119.872 33.3669 119.872 34.3271C119.872 34.5933 119.859 34.8647 119.833 35.1386C119.807 35.4126 119.776 35.6579 119.739 35.8693H109.917C109.97 36.6156 110.246 37.1505 110.742 37.4793C111.238 37.808 111.781 37.9724 112.365 37.9724C112.916 37.9724 113.435 37.8472 113.923 37.5993C114.411 37.3514 114.734 37.0043 114.894 36.5608L119.178 37.7846C118.609 38.9014 117.735 39.8173 116.556 40.527C115.376 41.2394 113.925 41.5942 112.206 41.5942ZM114.44 32.8398C114.351 32.1666 114.103 31.6343 113.693 31.2428C113.284 30.8514 112.762 30.6583 112.122 30.6583C111.483 30.6583 110.961 30.854 110.552 31.2428C110.142 31.6343 109.894 32.1666 109.805 32.8398H114.44Z" fill="#78CCF4"/>
<path d="M131.022 31.6421C130.046 31.6421 129.159 31.7491 128.36 31.9604C127.562 32.1744 126.967 32.5293 126.578 33.025V41.3281H121.521V27.3288H126.153V29.9903C126.649 29.051 127.267 28.3256 128.003 27.822C128.739 27.3157 129.532 27.0626 130.385 27.0626C130.722 27.0626 130.936 27.0731 131.025 27.0887V31.6421H131.022Z" fill="#78CCF4"/>
<path d="M0.780247 49.9364C0.730669 50.4792 1.1012 50.9749 1.7405 50.9749C2.35109 50.9749 2.67205 50.5287 2.67205 50.0538C2.67205 49.4041 2.14756 49.2188 1.64395 49.044C1.09076 48.8587 0.255762 48.5691 0.255762 47.5593C0.255762 46.7243 0.829825 46.0641 1.79008 46.0641C2.66422 46.0641 3.26437 46.6956 3.25655 47.5097H2.53636C2.5468 47.0348 2.2154 46.7138 1.7692 46.7138C1.26559 46.7138 0.973341 47.053 0.973341 47.4992C0.973341 48.1098 1.51609 48.3055 2.01187 48.4595C2.64334 48.663 3.38962 48.9344 3.38962 49.9338C3.38962 50.9045 2.76859 51.6221 1.68048 51.6221C0.574106 51.6221 0.0600586 50.8158 0.0600586 49.9338H0.780247V49.9364Z" fill="white"/>
<path d="M4.76728 49.1014C4.85339 50.1582 5.67012 50.9749 6.78694 50.9749C7.62194 50.9749 8.31081 50.5 8.6422 49.772H9.38849C8.96055 50.9175 7.98986 51.6273 6.78694 51.6273C5.22392 51.6273 4.021 50.4426 4.021 48.8509C4.021 47.541 4.98125 46.0641 6.78694 46.0641C8.79616 46.0641 9.52417 47.7341 9.51374 49.1014H4.76728V49.1014ZM8.73875 48.4517C8.53522 47.374 7.71066 46.7138 6.78694 46.7138C5.76667 46.7138 4.94211 47.4418 4.76728 48.4517H8.73875Z" fill="white"/>
<path d="M10.5339 44.3158H11.2515V51.4994H10.5339V44.3158Z" fill="white"/>
<path d="M12.8146 46.8417H11.99V46.192H12.8146V46.085C12.8146 45.0465 13.5139 44.3185 14.7064 44.3185H14.8525V44.9682H14.7064C14.4924 44.9682 13.5321 44.9865 13.5321 46.085V46.192H14.8525V46.8417H13.5321V51.5021H12.8146V46.8417V46.8417Z" fill="white"/>
<path d="M17.783 44.3158H18.5005V46.9565C18.8398 46.4607 19.3929 46.0641 20.2175 46.0641C21.4204 46.0641 22.5372 46.8104 22.5372 48.7048V51.4994H21.8197V48.7048C21.8197 48.316 21.791 46.7138 20.1314 46.7138C19.3929 46.7138 18.5005 47.0922 18.5005 48.5873V51.4994H17.783V44.3158Z" fill="white"/>
<path d="M29.0528 48.8509C29.0528 50.4322 27.8394 51.6273 26.2764 51.6273C24.7134 51.6273 23.5 50.4322 23.5 48.8509C23.5 47.2696 24.7029 46.0641 26.2764 46.0641C27.8498 46.0641 29.0528 47.267 29.0528 48.8509ZM24.2202 48.8509C24.2202 50.0538 25.0839 50.9775 26.279 50.9775C27.4741 50.9775 28.3378 50.0564 28.3378 48.8509C28.3378 47.648 27.4741 46.7164 26.279 46.7164C25.0839 46.7138 24.2202 47.6454 24.2202 48.8509Z" fill="white"/>
<path d="M30.3836 49.9364C30.334 50.4792 30.7045 50.9749 31.3438 50.9749C31.9544 50.9749 32.2754 50.5287 32.2754 50.0538C32.2754 49.4041 31.7509 49.2188 31.2473 49.044C30.6941 48.8587 29.8591 48.5691 29.8591 47.5593C29.8591 46.7243 30.4306 46.0641 31.3934 46.0641C32.2676 46.0641 32.8677 46.6956 32.8599 47.5097H32.1423C32.1528 47.0348 31.8214 46.7138 31.3752 46.7138C30.8689 46.7138 30.5793 47.053 30.5793 47.4992C30.5793 48.1098 31.122 48.3055 31.6178 48.4595C32.2493 48.663 32.9956 48.9344 32.9956 49.9338C32.9956 50.9045 32.3745 51.6221 31.2864 51.6221C30.1801 51.6221 29.666 50.8158 29.666 49.9338H30.3836V49.9364Z" fill="white"/>
<path d="M34.4387 46.8417H33.3323V46.192H34.4387V44.3185H35.1562V46.192H36.3879V46.8417H35.1562V51.5021H34.4387V46.8417Z" fill="white"/>
<path d="M37.6611 49.1014C37.7472 50.1582 38.5639 50.9749 39.6807 50.9749C40.5157 50.9749 41.2046 50.5 41.536 49.772H42.2823C41.8543 50.9175 40.8837 51.6273 39.6807 51.6273C38.1177 51.6273 36.9148 50.4426 36.9148 48.8509C36.9148 47.541 37.875 46.0641 39.6807 46.0641C41.69 46.0641 42.418 47.7341 42.4075 49.1014H37.6611V49.1014ZM41.6325 48.4517C41.429 47.374 40.6045 46.7138 39.6807 46.7138C38.6605 46.7138 37.8359 47.4418 37.6611 48.4517H41.6325Z" fill="white"/>
<path d="M48.8528 51.4994H48.1744V50.5287H48.1535C47.6786 51.228 46.9402 51.6247 46.0765 51.6247C44.4952 51.6247 43.2427 50.44 43.2427 48.8091C43.2427 47.5671 44.1742 46.0615 46.0582 46.0615C46.494 46.0615 47.4751 46.1293 48.117 47.1104H48.1353V44.3158H48.8528V51.4994V51.4994ZM43.9603 48.8692C43.9603 50.093 44.9414 50.9749 46.0765 50.9749C47.2507 50.9749 48.1744 50.0616 48.1744 48.877C48.1744 47.6532 47.282 46.7112 46.0582 46.7112C44.9022 46.7138 43.9603 47.6375 43.9603 48.8692Z" fill="white"/>
<path d="M52.3362 44.3158H53.0538V49.5006L55.5588 46.1893H56.412L54.3532 48.8483L56.5477 51.4994H55.6266L53.8992 49.4015L53.0538 50.4896V51.4994H52.3362V44.3158Z" fill="white"/>
<path d="M57.7534 49.1014C57.8422 50.1582 58.6563 50.9749 59.7731 50.9749C60.6081 50.9749 61.297 50.5 61.6284 49.772H62.3773C61.9493 50.9175 60.9786 51.6273 59.7757 51.6273C58.2127 51.6273 57.0098 50.4426 57.0098 48.8509C57.0098 47.541 57.97 46.0641 59.7757 46.0641C61.7849 46.0641 62.5129 47.7341 62.5025 49.1014H57.7534V49.1014ZM61.7223 48.4517C61.5188 47.374 60.6942 46.7138 59.7705 46.7138C58.7502 46.7138 57.9257 47.4418 57.7508 48.4517H61.7223Z" fill="white"/>
<path d="M64.0628 49.1014C64.1515 50.1582 64.9656 50.9749 66.0824 50.9749C66.9174 50.9749 67.6063 50.5 67.9377 49.772H68.6866C68.2586 50.9175 67.288 51.6273 66.085 51.6273C64.522 51.6273 63.3191 50.4426 63.3191 48.8509C63.3191 47.541 64.2793 46.0641 66.085 46.0641C68.0943 46.0641 68.8223 47.7341 68.8118 49.1014H64.0628V49.1014ZM68.0316 48.4517C67.8281 47.374 67.0035 46.7138 66.0798 46.7138C65.0595 46.7138 64.235 47.4418 64.0602 48.4517H68.0316Z" fill="white"/>
<path d="M69.8269 46.1893H70.5053V47.1026H70.5236C71.1838 46.1815 72.1153 46.0641 72.6007 46.0641C74.4638 46.0641 75.4266 47.5201 75.4266 48.8692C75.4266 50.4505 74.2133 51.6247 72.5824 51.6247C71.2908 51.6247 70.748 50.8184 70.5628 50.5079H70.5445V53.3625H69.8269V46.1893ZM70.508 48.8796C70.508 50.0538 71.3717 50.9775 72.585 50.9775C73.7592 50.9775 74.7117 50.0643 74.7117 48.8613C74.7117 47.6584 73.7905 46.7164 72.6059 46.7164C71.3717 46.7138 70.508 47.6845 70.508 48.8796Z" fill="white"/>
<path d="M76.9898 49.1014C77.0759 50.1582 77.8926 50.9749 79.0094 50.9749C79.8444 50.9749 80.5333 50.5 80.8647 49.772H81.6136C81.1856 50.9175 80.215 51.6273 79.012 51.6273C77.449 51.6273 76.2461 50.4426 76.2461 48.8509C76.2461 47.541 77.2063 46.0641 79.012 46.0641C81.0213 46.0641 81.7493 47.7341 81.7388 49.1014H76.9898V49.1014ZM80.9612 48.4517C80.7577 47.374 79.9331 46.7138 79.0094 46.7138C77.9892 46.7138 77.1646 47.4418 76.9898 48.4517H80.9612Z" fill="white"/>
<path d="M82.7563 46.1893H83.4347V46.9565H83.453C83.7452 46.3851 84.3271 46.0537 84.9768 46.0745V46.7921C84.2984 46.8313 83.4712 47.2775 83.4712 48.3551V51.4994H82.7537V46.1893H82.7563Z" fill="white"/>
<path d="M154.139 18.1047C152.552 13.5461 149.283 9.87731 144.935 7.77676C140.588 5.67621 135.685 5.39179 131.124 6.9809C126.563 8.57001 122.897 11.8369 120.796 16.1842C119.489 18.8875 118.891 21.8048 119.001 24.7194H119.784C119.671 21.9196 120.245 19.1171 121.501 16.5234C123.51 12.364 127.019 9.23801 131.382 7.71935C133.245 7.06962 135.166 6.74866 137.081 6.74866C139.651 6.74866 142.211 7.33056 144.594 8.48129C148.753 10.4905 151.879 14.0001 153.398 18.363C156.534 27.368 151.759 37.2445 142.754 40.3783C139.106 41.6491 135.226 41.6674 131.622 40.4644L131.374 41.2081C133.219 41.8239 135.132 42.1344 137.052 42.1344C139.054 42.1344 141.063 41.7978 143.01 41.1194C152.424 37.8394 157.416 27.5167 154.139 18.1047Z" fill="#78CCF4" stroke="#78CCF4" stroke-width="2" stroke-miterlimit="10"/>
<path d="M155.694 17.5619C153.961 12.5858 150.397 8.58561 145.653 6.29197C140.912 3.99833 135.56 3.69042 130.584 5.42305C122.236 8.32989 117.08 16.3146 117.359 24.7168H117.62C117.341 16.4216 122.429 8.53864 130.67 5.66833C135.578 3.95918 140.859 4.26448 145.541 6.52681C150.219 8.78914 153.739 12.7397 155.449 17.648C158.976 27.7828 153.604 38.8961 143.469 42.4266C139.236 43.9009 134.834 43.82 130.884 42.4919L130.811 42.7398C132.815 43.413 134.931 43.7705 137.084 43.7705C139.231 43.7705 141.413 43.4182 143.552 42.6719C153.825 39.0971 159.271 27.8324 155.694 17.5619Z" fill="#78CCF4"/>
<path d="M130.531 5.65792C130.37 5.65792 130.218 5.55615 130.161 5.39437L128.465 0.520052C128.394 0.31652 128.501 0.092114 128.705 0.0216608C128.908 -0.0487924 129.133 0.0581921 129.203 0.261724L130.899 5.13604C130.97 5.33957 130.863 5.56398 130.659 5.63443C130.618 5.6527 130.573 5.65792 130.531 5.65792Z" fill="#78CCF4"/>
<path d="M135.648 20.0956C135.594 20.0956 135.544 20.0617 135.526 20.0069L131.826 9.37627C131.802 9.30843 131.839 9.23276 131.907 9.20927C131.974 9.18579 132.048 9.22232 132.074 9.29016L135.774 19.9208C135.797 19.9886 135.761 20.0643 135.693 20.0878C135.677 20.0956 135.664 20.0956 135.648 20.0956Z" fill="#78CCF4"/>
<path d="M152.75 12.137C152.636 12.137 152.521 12.0848 152.443 11.9882C152.309 11.8186 152.338 11.5734 152.508 11.4377L156.474 8.29858C156.644 8.1629 156.889 8.19421 157.025 8.36382C157.158 8.53343 157.129 8.77871 156.959 8.9144L152.993 12.0535C152.92 12.1083 152.834 12.137 152.75 12.137Z" fill="#78CCF4"/>
<path d="M140.512 21.562C140.473 21.562 140.437 21.5438 140.411 21.5124C140.366 21.455 140.377 21.3741 140.432 21.3298L149.262 14.3419C149.319 14.2975 149.4 14.308 149.444 14.3628C149.489 14.4202 149.478 14.501 149.424 14.5454L140.593 21.5333C140.567 21.5516 140.539 21.562 140.512 21.562Z" fill="#78CCF4"/>
<path d="M157.606 38.7814C157.525 38.7814 157.447 38.7579 157.377 38.7057L153.178 35.658C153.003 35.5301 152.964 35.2874 153.092 35.11C153.22 34.9352 153.463 34.896 153.64 35.0239L157.839 38.0716C158.013 38.1995 158.053 38.4422 157.925 38.6196C157.846 38.7266 157.729 38.7814 157.606 38.7814Z" fill="#78CCF4"/>
<path d="M149.94 32.9546C149.914 32.9546 149.885 32.9468 149.864 32.9285L140.739 26.3033C140.682 26.2616 140.669 26.1807 140.711 26.1207C140.752 26.0633 140.836 26.0502 140.893 26.092L150.018 32.7172C150.076 32.7589 150.089 32.8398 150.047 32.8998C150.021 32.9364 149.982 32.9546 149.94 32.9546Z" fill="#78CCF4"/>
<path d="M129.647 48.363C129.608 48.363 129.571 48.3577 129.532 48.3447C129.326 48.2821 129.208 48.0629 129.274 47.8567L130.779 42.9485C130.842 42.7424 131.061 42.6249 131.267 42.6902C131.473 42.7528 131.591 42.972 131.526 43.1781L130.02 48.0864C129.97 48.256 129.814 48.363 129.647 48.363Z" fill="#78CCF4"/>
<path d="M132.426 39.0475C132.413 39.0475 132.4 39.0449 132.387 39.0423C132.319 39.0214 132.28 38.9483 132.301 38.8805L135.602 28.1194C135.623 28.0516 135.696 28.0098 135.763 28.0333C135.831 28.0542 135.87 28.1273 135.85 28.1951L132.549 38.9562C132.533 39.011 132.481 39.0475 132.426 39.0475Z" fill="#78CCF4"/>
<path d="M112.015 24.6724C111.801 24.6724 111.624 24.4976 111.624 24.2837C111.624 24.0671 111.796 23.8922 112.013 23.8896L117.198 23.8557H117.2C117.414 23.8557 117.592 24.0305 117.592 24.2445C117.592 24.4611 117.419 24.6359 117.203 24.6385L112.015 24.6724C112.018 24.6724 112.018 24.6724 112.015 24.6724Z" fill="#78CCF4"/>
<path d="M121.49 24.3541C121.42 24.3541 121.36 24.2967 121.36 24.2236C121.36 24.1506 121.417 24.0932 121.49 24.0932L132.83 24.0227C132.901 24.0227 132.961 24.0801 132.961 24.1532C132.961 24.2262 132.904 24.2836 132.83 24.2836L121.49 24.3541Z" fill="#78CCF4"/>
<path d="M137.373 26.6948C137.011 26.6948 136.651 26.6191 136.309 26.4651C135.68 26.1807 135.197 25.6693 134.952 25.0221C134.707 24.375 134.73 23.6731 135.014 23.0416C135.299 22.4128 135.81 21.93 136.457 21.6848C137.105 21.4395 137.806 21.463 138.438 21.7474C139.067 22.0318 139.55 22.5432 139.795 23.1904C140.04 23.8375 140.017 24.5394 139.732 25.1709C139.448 25.7997 138.936 26.2825 138.289 26.5278C137.992 26.64 137.681 26.6948 137.373 26.6948ZM137.373 22.3006C137.157 22.3006 136.943 22.3397 136.734 22.418C135.803 22.7703 135.333 23.814 135.685 24.7456C135.855 25.197 136.191 25.5545 136.63 25.7528C137.068 25.9511 137.559 25.9667 138.01 25.7971C138.461 25.6275 138.819 25.2909 139.017 24.8525C139.216 24.4142 139.231 23.9236 139.062 23.4722C138.892 23.0208 138.555 22.6633 138.117 22.465C137.88 22.3554 137.626 22.3006 137.373 22.3006Z" fill="#78CCF4"/>
</svg>
