<svg width="112" height="112" viewBox="0 0 112 112" fill="none" xmlns="http://www.w3.org/2000/svg">
<path fill-rule="evenodd" clip-rule="evenodd" d="M9 13H103V79H63V88H69C75.0751 88 80 92.9249 80 99H31C31 92.9249 35.9249 88 42 88H49V79H9V13Z" fill="#6BCFFF" fill-opacity="0.12"/>
<path fill-rule="evenodd" clip-rule="evenodd" d="M12.4748 80.2639H47.5723V87.9058H40.9343C34.876 87.9058 29.9468 92.8345 29.9468 98.8933C29.9468 99.5044 30.4424 100 31.0534 100H80.334H80.3353C80.9463 100 81.442 99.5052 81.442 98.8933C81.442 92.8351 76.5133 87.9058 70.4545 87.9058H63.8131V80.2639H98.9106H98.9114C101.93 80.2639 104.386 77.8079 104.385 74.7891V66.2803C104.386 66.2664 104.386 66.2526 104.386 66.2386L104.386 66.2264C104.386 66.2166 104.386 66.2067 104.385 66.1969V17.4748C104.385 14.456 101.929 12 98.9106 12H12.4748C9.45603 12 7 14.456 7 17.4748V74.7891C7 77.8079 9.45603 80.2639 12.4748 80.2639ZM61.5998 87.9058H49.7856V80.2639H61.5998V87.9058ZM62.7521 78.0509H98.9106C100.709 78.0509 102.172 76.5877 102.172 74.7895L102.172 67.3453H9.21341V74.7895C9.21341 76.5878 10.6766 78.0509 12.4748 78.0509H48.6333C48.6485 78.0503 48.6637 78.05 48.6789 78.05C48.6942 78.05 48.7094 78.0503 48.7245 78.0509H62.6609C62.676 78.0503 62.6912 78.05 62.7065 78.05C62.7217 78.05 62.7369 78.0503 62.7521 78.0509ZM102.172 65.1319L102.173 17.4752C102.173 15.6769 100.71 14.2138 98.9114 14.2138H12.4748C10.6765 14.2138 9.21341 15.677 9.21341 17.4752V65.1319H102.172ZM32.2291 97.7866H79.1583C78.6129 93.4691 74.9166 90.119 70.4536 90.119H40.9334C36.4696 90.119 32.7743 93.4691 32.2287 97.7866H32.2291ZM33.0916 38.1453C33.1873 38.1706 33.2837 38.1833 33.3786 38.1833C33.867 38.1833 34.3145 37.8568 34.4473 37.3628L38.8779 20.8286C39.036 20.2381 38.6858 19.631 38.0953 19.4729C37.5049 19.3149 36.8978 19.665 36.7397 20.2555L32.309 36.7897C32.151 37.3802 32.5011 37.9872 33.0916 38.1453ZM91.7438 21.6485H59.837C59.226 21.6485 58.7304 21.1529 58.7304 20.5418C58.7304 19.9308 59.226 19.4352 59.837 19.4352H91.743C92.3541 19.4352 92.8497 19.9308 92.8497 20.5418C92.8497 21.1529 92.3549 21.6485 91.7438 21.6485ZM59.837 29.3017H91.7438C92.3549 29.3017 92.8497 28.8061 92.8497 28.1951C92.8497 27.584 92.3541 27.0884 91.743 27.0884H59.837C59.226 27.0884 58.7304 27.584 58.7304 28.1951C58.7304 28.8061 59.226 29.3017 59.837 29.3017ZM77.3108 59.9106H74.2746C73.6635 59.9106 73.1679 59.415 73.1679 58.8039V57.091C72.1925 56.8412 71.251 56.4515 70.3838 55.9369L69.172 57.1487C68.7405 57.5811 68.0393 57.5811 67.6069 57.1487L65.4601 55.0027C65.2522 54.7948 65.136 54.5134 65.136 54.2201C65.136 53.9261 65.2522 53.6455 65.4601 53.4376L66.6719 52.2258C66.1573 51.3586 65.7676 50.4172 65.5178 49.4417H63.8049C63.1938 49.4417 62.6982 48.9461 62.6982 48.3351V45.2989C62.6982 44.6878 63.1938 44.1922 63.8049 44.1922H65.5178C65.7676 43.2168 66.1573 42.2753 66.6719 41.4081L65.4601 40.1963C65.2522 39.9885 65.136 39.707 65.136 39.4138C65.136 39.1197 65.2522 38.8391 65.4601 38.6312L67.6069 36.4844C68.0385 36.052 68.7397 36.052 69.172 36.4844L70.3838 37.6962C71.2518 37.1816 72.1924 36.7919 73.1679 36.5421V34.8292C73.1679 34.2181 73.6635 33.7225 74.2746 33.7225H77.3108C77.9218 33.7225 78.4174 34.2181 78.4174 34.8292V36.5421C79.3929 36.7919 80.3343 37.1816 81.2015 37.6962L82.4133 36.4844C82.8449 36.052 83.546 36.052 83.9784 36.4844L86.1252 38.6312C86.3331 38.8391 86.4493 39.1205 86.4493 39.4138C86.4493 39.7078 86.3331 39.9884 86.1252 40.1963L84.9134 41.4081C85.4272 42.2753 85.8177 43.2167 86.0675 44.1922H87.7804C88.3915 44.1922 88.8871 44.6878 88.8871 45.2989V48.3351C88.8871 48.9461 88.3915 49.4417 87.7804 49.4417H86.0675C85.8177 50.4171 85.428 51.3586 84.9134 52.2258L86.1252 53.4376C86.3331 53.6455 86.4493 53.9269 86.4493 54.2201C86.4493 54.5142 86.3331 54.7948 86.1252 55.0027L83.9784 57.1487C83.5468 57.5811 82.8456 57.5811 82.4133 57.1487L81.2015 55.9369C80.3335 56.4507 79.3929 56.8412 78.4174 57.091V58.8039C78.4174 59.4157 77.9218 59.9106 77.3108 59.9106ZM75.3812 57.6972H76.2041V56.1914C76.2041 55.6483 76.5985 55.1851 77.1353 55.0989C78.4142 54.8934 79.6474 54.3828 80.7002 53.6215C81.1413 53.3038 81.7468 53.352 82.131 53.7362L83.1965 54.8009L83.7783 54.2191L82.7135 53.1544C82.3294 52.7702 82.2812 52.1639 82.5989 51.7236C83.3601 50.6707 83.8708 49.4376 84.0763 48.1587C84.1625 47.622 84.6257 47.2275 85.1687 47.2275H86.6746V46.4046H85.1687C84.6257 46.4046 84.1625 46.0102 84.0763 45.4734C83.8708 44.1945 83.3601 42.9614 82.5989 41.9085C82.2804 41.4682 82.3294 40.8619 82.7135 40.4777L83.7783 39.413L83.1965 38.8312L82.131 39.896C81.7468 40.2801 81.1413 40.3283 80.7002 40.0106C79.6466 39.2494 78.4142 38.7387 77.1353 38.5332C76.5986 38.447 76.2041 37.9838 76.2041 37.4408V35.9349H75.3812V37.4408C75.3812 37.9846 74.9868 38.4471 74.4501 38.5332C73.1711 38.7387 71.938 39.2494 70.8851 40.0106C70.4448 40.3291 69.8385 40.2801 69.4543 39.896L68.3888 38.8312L67.807 39.413L68.8718 40.4777C69.2559 40.8619 69.3041 41.4682 68.9864 41.9085C68.2252 42.9614 67.7145 44.1945 67.509 45.4734C67.4228 46.0102 66.9596 46.4046 66.4166 46.4046H64.9107V47.2275H66.4166C66.9596 47.2275 67.4229 47.6219 67.509 48.1587C67.7145 49.4377 68.2252 50.6708 68.9864 51.7236C69.3049 52.1639 69.2559 52.7702 68.8718 53.1544L67.807 54.2191L68.3888 54.8009L69.4543 53.7362C69.8377 53.352 70.444 53.303 70.8851 53.6215C71.938 54.3828 73.1711 54.8934 74.4501 55.0989C74.9868 55.1851 75.3812 55.6483 75.3812 56.1914V57.6972ZM75.793 53.3116C72.2107 53.3116 69.2963 50.3973 69.2963 46.8149C69.2963 43.2325 72.2107 40.3182 75.793 40.3182C79.3754 40.3182 82.2898 43.2325 82.2898 46.8149C82.2898 50.3973 79.3746 53.3116 75.793 53.3116ZM75.793 42.5314C73.4311 42.5314 71.5095 44.453 71.5095 46.8149C71.5095 49.1768 73.4311 51.0984 75.793 51.0984C78.155 51.0984 80.0766 49.1768 80.0766 46.8149C80.0766 44.453 78.155 42.5314 75.793 42.5314ZM29.0125 34.3768C29.214 34.5325 29.4519 34.6076 29.6875 34.6076L29.6875 34.6072C30.0187 34.6072 30.3468 34.4586 30.5649 34.1748C30.9388 33.6903 30.8487 32.9955 30.365 32.6223L25.4183 28.8069L30.365 24.9914C30.8487 24.6175 30.9381 23.9227 30.5649 23.4389C30.191 22.9551 29.4962 22.8658 29.0125 23.2389L22.9297 27.9312C22.6578 28.1415 22.4989 28.4648 22.4989 28.8078C22.4989 29.1509 22.6578 29.475 22.9297 29.6845L29.0125 34.3768ZM41.4992 34.6076C41.168 34.6076 40.84 34.4598 40.6226 34.1768C40.2495 33.693 40.3388 32.9982 40.8226 32.6243L45.7693 28.8088L40.8226 24.9933C40.3388 24.6202 40.2487 23.9254 40.6226 23.4409C40.9957 22.9563 41.6905 22.867 42.1751 23.2409L48.2578 27.9332C48.5297 28.1427 48.6886 28.4667 48.6886 28.8098C48.6886 29.1529 48.5297 29.4762 48.2578 29.6864L42.1751 34.3787C41.9727 34.5329 41.7348 34.608 41.4993 34.608L41.4992 34.6076ZM51.5464 44.6041H19.6404C19.0294 44.6041 18.5337 44.1085 18.5337 43.4975C18.5337 42.8864 19.0293 42.3908 19.6404 42.3908H51.5464C52.1574 42.3908 52.653 42.8864 52.653 43.4975C52.653 44.1085 52.1582 44.6041 51.5464 44.6041ZM19.6404 52.2574H51.5464C52.1582 52.2574 52.653 51.7617 52.653 51.1507C52.653 50.5397 52.1574 50.044 51.5464 50.044H19.6404C19.0293 50.044 18.5337 50.5397 18.5337 51.1507C18.5337 51.7617 19.0294 52.2574 19.6404 52.2574ZM51.5464 59.9106H19.6404C19.0294 59.9106 18.5337 59.415 18.5337 58.8039C18.5337 58.1929 19.0293 57.6973 19.6404 57.6973H51.5464C52.1574 57.6973 52.653 58.1929 52.653 58.8039C52.653 59.4157 52.1582 59.9106 51.5464 59.9106Z" fill="url(#paint0_linear_27_333)"/>
<defs>
<linearGradient id="paint0_linear_27_333" x1="10" y1="13.5" x2="81.5" y2="100" gradientUnits="userSpaceOnUse">
<stop stop-color="#7AC1FF"/>
<stop offset="1" stop-color="#62D8FF"/>
</linearGradient>
</defs>
</svg>
