<svg width="112" height="112" viewBox="0 0 112 112" fill="none" xmlns="http://www.w3.org/2000/svg">
<rect x="12" y="17.1428" width="86.8571" height="78.8571" rx="1" fill="#6BCFFF" fill-opacity="0.13"/>
<path fill-rule="evenodd" clip-rule="evenodd" d="M12 16V96H99.4798V16H12ZM97.4753 18.0032V26.2835H14.0029V18.0032H97.4753ZM14.0029 94.1308V28.2873H97.4753V94.1308H14.0029ZM83.186 21.2084H85.1891V23.2116H83.186V21.2084ZM90.263 21.2084H88.2598V23.2116H90.263V21.2084ZM78.1106 21.2084H80.1138V23.2116H78.1106V21.2084ZM71.8323 21.2084H20.4134V23.2116H71.8323V21.2084ZM73.57 74.2306L71.0328 70.4914C71.834 69.0223 72.5019 67.4195 72.9027 65.8172L77.3099 65.016V57.9378L72.9027 57.1366C72.5018 55.5337 71.8345 53.9314 70.8995 52.4625L73.4373 48.7226L68.3616 43.6463L64.6218 46.1841C63.1527 45.383 61.5499 44.715 59.9476 44.3143L59.1464 39.907H52.0682L51.267 44.3143C49.6641 44.7151 48.0618 45.3824 46.5929 46.3174L42.853 43.7796L37.7779 48.8547L40.3158 52.5945C39.5146 54.0636 38.8467 55.6664 38.4459 57.2687L34.0374 58.0705V65.1487L38.4447 65.9499C38.8455 67.5528 39.5128 69.1551 40.4478 70.6241L37.91 74.3639L42.9857 79.4396L46.7256 76.9018C48.1946 77.8367 49.7974 78.3708 51.3997 78.7716L52.2009 83.1789H59.2791L60.0803 78.7716C61.6832 78.3708 63.2855 77.7034 64.7545 76.7685L68.4943 79.3063L73.57 74.2306ZM64.8889 74.3645L64.3548 74.7653C62.7519 75.8335 61.0158 76.5014 59.1458 76.9023L58.4778 77.0361L57.6767 81.1756H53.9368L53.1357 77.0355L52.4678 76.9017C50.5979 76.5008 48.8617 75.8335 47.2588 74.7647L46.7247 74.3638L43.2525 76.7685L40.5815 74.0975L42.9856 70.6254L42.4515 70.0907C41.3833 68.4877 40.7154 66.7517 40.3145 64.8816L40.1807 64.2137L36.0405 63.5458V59.8059L40.1807 59.0048L40.3145 58.3369C40.7154 56.467 41.3827 54.7308 42.4515 53.1279L42.8523 52.5938L40.3145 48.9889L42.9855 46.3179L46.4577 48.722L46.9917 48.3211C48.5947 47.2529 50.3307 46.585 52.2008 46.1841L52.8687 46.0503L53.5366 41.9102H57.2765L58.0776 46.0503L58.7455 46.1841C60.6154 46.585 62.3516 47.2523 63.9545 48.3211L64.4886 48.722L67.9608 46.3179L70.6318 48.9889L68.2277 52.4611L68.6286 52.9952C69.6968 54.5981 70.3647 56.3341 70.7656 58.2042L70.8994 58.8721L75.0395 59.54V63.2799L70.8994 64.081L71.0326 64.7483C70.6317 66.6182 69.9644 68.3544 68.8957 69.9574L68.4948 70.4914L70.8989 73.9636L68.2278 76.6346L64.8889 74.3645ZM46.1906 61.5424C46.1906 56.2002 50.4639 51.9263 55.6729 51.9263C60.8819 51.9263 65.1552 56.2002 65.1552 61.4086C65.1552 66.7507 60.8819 71.0247 55.6729 71.0247C50.4645 71.0247 46.1906 66.7514 46.1906 61.5424ZM48.06 61.5428C48.06 65.683 51.5328 69.0219 55.6729 69.0219C59.8131 69.0219 63.2859 65.5492 63.0183 61.409C63.0183 57.2689 59.6793 53.9299 55.5391 53.9299C51.399 53.9299 48.06 57.4027 48.06 61.5428ZM27.3599 36.8349H43.6542V34.8318H25.3571V48.588H27.3609L27.3599 36.8349ZM25.3561 74.3639H27.3599L27.359 86.2503H43.6532V88.2535H25.3561V74.3639ZM83.9859 86.2509H67.6917V88.2541H85.9888V74.3645H83.985L83.9859 86.2509ZM83.9875 36.8349H67.6932L67.6942 34.8318H85.9913V48.588H83.9875V36.8349Z" fill="url(#paint0_linear_27_301)"/>
<defs>
<linearGradient id="paint0_linear_27_301" x1="17.7143" y1="24.5714" x2="92.5714" y2="96" gradientUnits="userSpaceOnUse">
<stop stop-color="#7BBFFF"/>
<stop offset="1" stop-color="#62D6FF"/>
</linearGradient>
</defs>
</svg>
