<svg width="112" height="112" viewBox="0 0 112 112" fill="none" xmlns="http://www.w3.org/2000/svg">
<path fill-rule="evenodd" clip-rule="evenodd" d="M19 32C19 35.6692 19.9854 39.0955 21.6919 42H16V99H94V78H97V62H94V42H72.3081C74.0146 39.0955 75 35.6692 75 32C75 21.5066 66.9411 13 57 13C53.2997 13 49.8602 14.1786 47 16.1995C44.1398 14.1786 40.7003 13 37 13C27.0589 13 19 21.5066 19 32Z" fill="#6BCFFF" fill-opacity="0.13"/>
<path fill-rule="evenodd" clip-rule="evenodd" d="M97.8533 78.4122H94.8226L94.8228 100H15V40.8549H20.1434C18.4604 37.9453 17.5656 34.669 17.5656 31.2514C17.5656 20.636 26.2016 12 36.817 12C40.3032 12 43.6869 12.9449 46.6595 14.7175C49.5369 13.003 52.885 12 56.4706 12C67.0852 12 75.722 20.636 75.722 31.2514C75.722 34.6682 74.828 37.9437 73.1443 40.8549H94.8226L94.8234 60.6879H97.8541L97.8533 78.4122ZM72.3803 76.097H95.5389L95.5385 63.004H72.3778L68.915 69.5242L72.3803 76.097ZM70.4085 40.8533C72.3652 38.022 73.4078 34.7174 73.4078 31.2498C73.4078 21.9111 65.8102 14.3136 56.4724 14.3136C47.1337 14.3136 39.5362 21.9111 39.5362 31.2498C39.5362 34.7165 40.5796 38.0212 42.5363 40.8533H46.6766C44.1837 38.3055 42.7292 34.8718 42.7292 31.2498C42.7292 23.6717 48.8941 17.506 56.4724 17.506C64.0507 17.506 70.2156 23.6717 70.2156 31.2498C70.2156 34.8716 68.7612 38.3055 66.2682 40.8533H70.4085ZM60.5287 36.2043L61.2668 34.6909L63.3561 34.691L62.1584 37.1282C61.5593 38.3541 60.7541 38.9194 59.3497 38.9194H57.9551V40.8543H64.5795C67.3938 38.4737 69.0582 34.9673 69.0582 31.2508C69.0582 24.3113 63.4119 18.6649 56.4724 18.6649C49.5329 18.6649 43.8865 24.3107 43.8865 31.2508C43.8865 34.9671 45.5509 38.4735 48.3652 40.8543H56.0209V38.9194H54.6262C53.2218 38.9194 52.4167 38.3541 51.8175 37.1282L50.0942 33.6201C49.776 32.9789 49.5886 32.3757 49.5886 31.64C49.5886 30.8098 49.738 30.301 50.1127 29.5468L51.8361 26.0581C52.4732 24.7563 53.2783 24.2475 54.7207 24.2475H56.0216V21.6658H57.9549V24.2475H59.2559C60.6982 24.2475 61.5042 24.7563 62.1405 26.0581L63.2436 28.2911H61.1707L60.4924 26.9255C60.1459 26.2277 60.007 26.1389 59.256 26.1349V26.1389H54.72V26.1349C53.9682 26.1389 53.8301 26.2277 53.4836 26.9255L51.8539 30.2066C51.6101 30.7161 51.4607 31.0553 51.4607 31.64C51.4607 32.1494 51.6177 32.4657 51.8302 32.894L51.8539 32.9418L53.4457 36.2043C53.7986 36.9327 53.9924 37.024 54.7192 37.032V37.0288H59.2552V37.032C59.982 37.0239 60.175 36.9327 60.5287 36.2043ZM24.2297 31.2506C24.2297 34.9669 25.8949 38.4725 28.7101 40.8541L35.3943 40.8542V38.9193H33.9996C32.5953 38.9193 31.7901 38.354 31.1909 37.1281L29.4676 33.62C29.1494 32.9788 28.9621 32.3756 28.9621 31.6399C28.9621 30.8097 29.1115 30.301 29.4862 29.5467L31.2095 26.058C31.8467 24.7562 32.6518 24.2475 34.0941 24.2475L34.1224 24.2483H35.3951V21.6666H37.3284V24.2483H38.5567C39.2326 22.5241 40.15 20.9235 41.2684 19.482C39.8529 18.9442 38.3621 18.6647 36.8164 18.6647C29.876 18.6647 24.2297 24.3105 24.2297 31.2506ZM37.9292 26.1387H34.1224L34.095 26.138V26.1339C33.3432 26.1379 33.2051 26.2268 32.8586 26.9245L31.2289 30.2056C30.9851 30.7152 30.8357 31.0544 30.8357 31.639C30.8357 32.1484 30.9927 32.4647 31.2052 32.893L31.2289 32.9408L32.8206 36.2033C33.1736 36.9318 33.3674 37.023 34.0942 37.0311V37.0279H38.1061C37.5255 35.1778 37.2186 33.238 37.2186 31.2498C37.2186 29.4779 37.4786 27.7691 37.9292 26.1387ZM38.7231 38.9191H37.3285L37.3278 40.8532H39.7964C39.4305 40.2209 39.0962 39.5748 38.8071 38.9094C38.7943 38.9101 38.7826 38.9121 38.7708 38.914C38.7559 38.9165 38.7408 38.9191 38.7231 38.9191ZM36.8166 14.3134C27.4779 14.3134 19.8804 21.9109 19.8804 31.2496L19.8806 31.2494C19.8806 34.7187 20.924 38.0223 22.8807 40.8521H27.021C24.5272 38.3043 23.072 34.8698 23.072 31.2486C23.072 23.6705 29.2385 17.5048 36.8166 17.5048C38.6361 17.5048 40.3836 17.8706 42.0358 18.553C42.7958 17.6906 43.626 16.8935 44.5272 16.178C42.1506 14.9602 39.5194 14.3134 36.8166 14.3134ZM17.3156 94.1002V97.6842L92.505 97.6829V78.4095H88.9655V79.5659C88.9655 79.8857 88.7063 80.145 88.3865 80.145C88.0667 80.145 87.8075 79.8857 87.8075 79.5659V78.4095H70.9796L66.2933 69.5182L70.9821 60.6858H87.8077V59.5278C87.8077 59.208 88.0669 58.9488 88.3867 58.9488C88.7065 58.9488 88.9657 59.208 88.9657 59.5278V60.6858H92.5053V43.1683H71.0192L71.0187 43.1684L71.018 43.1687L71.0172 43.169L71.0168 43.1691C71.016 43.1691 71.0143 43.1683 71.0135 43.1683H17.316V46.7506H19.4633C19.7831 46.7506 20.0424 47.0098 20.0424 47.3296C20.0424 47.6494 19.7831 47.9086 19.4633 47.9086H17.316V58.1582L30.6996 58.159L32.3842 53.5939H41.6865C41.9102 52.3882 42.4836 51.235 43.4139 50.3047C44.6018 49.1168 46.1814 48.4626 47.8604 48.4626C49.5401 48.4626 51.1197 49.1168 52.3068 50.3047C53.4948 51.4926 54.1497 53.0714 54.1497 54.7512C54.1497 56.4309 53.4948 58.0097 52.3068 59.1977C51.1197 60.3856 49.5401 61.0397 47.8604 61.0397C46.1814 61.0397 44.6018 60.3856 43.4139 59.1985C42.4836 58.2682 41.9102 57.115 41.6865 55.9093H33.9984L32.3138 60.4744H17.3158V72.2625H30.6986L32.3832 67.6974H41.7074C41.9448 66.5297 42.5101 65.4161 43.4138 64.5124C44.6017 63.3245 46.1813 62.6704 47.8602 62.6704C49.54 62.6704 51.1196 63.3245 52.3067 64.5124C53.4946 65.7003 54.1496 67.2792 54.1496 68.9589C54.1496 70.6394 53.4946 72.2183 52.3067 73.4062C51.1196 74.5933 49.54 75.2482 47.8602 75.2482C46.1813 75.2482 44.6017 74.5941 43.4138 73.4062C42.4568 72.4492 41.8859 71.2565 41.6759 70.0137L33.9983 70.0128L32.3138 74.578H17.3157V86.3667H30.6985L32.3831 81.8015H41.7379C41.9883 80.6735 42.5374 79.5978 43.4136 78.7216C44.6015 77.5337 46.1812 76.8795 47.8601 76.8795C49.5398 76.8795 51.1194 77.5337 52.3066 78.7216C53.4945 79.9087 54.1494 81.4883 54.1494 83.1681C54.1494 84.8478 53.4945 86.4266 52.3066 87.6145C51.1195 88.8017 49.5398 89.4566 47.8601 89.4566C46.1812 89.4566 44.6015 88.8025 43.4136 87.6145C42.43 86.6309 41.8599 85.3978 41.6652 84.1178H33.9982L32.3137 88.683H17.3156V92.9421H19.463C19.7828 92.9421 20.042 93.2013 20.042 93.5211C20.042 93.841 19.7828 94.1002 19.463 94.1002H17.3156ZM47.8608 79.1958C46.8005 79.1958 45.8023 79.6093 45.0513 80.3595C43.5024 81.9083 43.5024 84.4288 45.0513 85.9777C46.5543 87.4782 49.1699 87.4782 50.6704 85.9777C51.4214 85.2275 51.8349 84.2301 51.8349 83.169C51.8349 82.1078 51.4214 81.1105 50.6704 80.3603C49.9193 79.6093 48.9228 79.1958 47.8608 79.1958ZM47.8608 64.9874C46.8005 64.9874 45.8023 65.4001 45.0513 66.1511C43.5024 67.7 43.5024 70.2205 45.0513 71.7702C46.5543 73.2707 49.1699 73.2707 50.6704 71.7702C51.4214 71.0191 51.8349 70.0226 51.8349 68.9607C51.8349 67.8995 51.4214 66.9022 50.6704 66.1511C49.9193 65.4009 48.9228 64.9874 47.8608 64.9874ZM47.8608 50.7791C46.8005 50.7791 45.8023 51.1918 45.0513 51.9428C43.5024 53.4911 43.5024 56.0122 45.0513 57.5619C46.5543 59.0631 49.1699 59.0607 50.6704 57.5619C51.4214 56.8108 51.8349 55.8135 51.8349 54.7523C51.8349 53.6912 51.4214 52.6938 50.6704 51.9428C49.9193 51.1926 48.9228 50.7791 47.8608 50.7791ZM82.9263 72.779C82.0638 73.6415 80.9179 74.1163 79.6977 74.1163C78.4783 74.1163 77.3316 73.6423 76.4683 72.779C75.6058 71.9165 75.131 70.7706 75.131 69.5504C75.131 68.331 75.6058 67.1843 76.4683 66.3218C78.1939 64.5968 81.2014 64.5968 82.9263 66.3218C83.7896 67.1843 84.2653 68.3302 84.2653 69.5504C84.2653 70.7698 83.7888 71.9165 82.9263 72.779ZM79.6977 66.1417C78.786 66.1417 77.9308 66.4962 77.2872 67.1398C76.6428 67.7834 76.2891 68.6395 76.2891 69.5504C76.2891 70.4613 76.6428 71.3173 77.2872 71.9609C78.5743 73.249 80.8218 73.249 82.1083 71.9609C82.7527 71.3165 83.108 70.4613 83.108 69.5504C83.108 68.6395 82.7527 67.7834 82.1083 67.1398C81.4647 66.4962 80.6087 66.1417 79.6977 66.1417ZM88.389 82.8695C88.0692 82.8695 87.8099 83.1287 87.8099 83.4485V87.3281C87.8099 87.6479 88.0692 87.9072 88.389 87.9072C88.7088 87.9072 88.968 87.6479 88.968 87.3281V83.4485C88.968 83.1287 88.7088 82.8695 88.389 82.8695ZM87.8099 91.2073C87.8099 90.8875 88.0691 90.6283 88.3889 90.6283L88.3889 90.6283C88.7087 90.6283 88.9679 90.8868 88.9679 91.2074V93.5226C88.9679 93.8424 88.7087 94.1016 88.3889 94.1016H86.0737C85.7539 94.1016 85.4946 93.8424 85.4946 93.5226C85.4946 93.2028 85.7539 92.9436 86.0737 92.9436H87.8099V91.2073ZM28.3446 92.9437H23.9045C23.5847 92.9437 23.3255 93.2029 23.3255 93.5228C23.3255 93.8425 23.5847 94.1018 23.9045 94.1018H28.3446C28.6644 94.1018 28.9236 93.8425 28.9236 93.5228C28.9236 93.2029 28.6652 92.9437 28.3446 92.9437ZM32.7873 92.9437H37.228C37.5478 92.9437 37.807 93.2029 37.807 93.5228C37.807 93.8425 37.5478 94.1018 37.228 94.1018H32.7873C32.4675 94.1018 32.2083 93.8425 32.2083 93.5228C32.2083 93.2029 32.4675 92.9437 32.7873 92.9437ZM46.1073 92.9437H41.6673C41.3475 92.9437 41.0883 93.2029 41.0883 93.5228C41.0883 93.8425 41.3475 94.1018 41.6673 94.1018H46.1073C46.4271 94.1018 46.6864 93.8425 46.6864 93.5228C46.6864 93.2029 46.4271 92.9437 46.1073 92.9437ZM77.1922 92.9437H81.6329C81.9527 92.9437 82.2111 93.2029 82.2119 93.5228C82.2119 93.8425 81.9527 94.1018 81.6329 94.1018H77.1922C76.8724 94.1018 76.6132 93.8425 76.6132 93.5228C76.6132 93.2029 76.8724 92.9437 77.1922 92.9437ZM54.9886 92.9437H50.548C50.2282 92.9437 49.9689 93.2029 49.9689 93.5228C49.9689 93.8425 50.2282 94.1018 50.548 94.1018H54.9886C55.3084 94.1018 55.5677 93.8425 55.5677 93.5228C55.5677 93.2029 55.3084 92.9437 54.9886 92.9437ZM59.4294 92.9437H63.8701C64.1899 92.9437 64.4491 93.2029 64.4491 93.5228C64.4491 93.8425 64.1899 94.1018 63.8701 94.1018H59.4294C59.1096 94.1018 58.8504 93.8425 58.8504 93.5228C58.8504 93.2029 59.1096 92.9437 59.4294 92.9437ZM72.7535 92.9437H68.3128C67.993 92.9437 67.7338 93.2029 67.7338 93.5228C67.7338 93.8425 67.993 94.1018 68.3128 94.1018H72.7535C73.0733 94.1018 73.3326 93.8425 73.3326 93.5228C73.3318 93.2029 73.0733 92.9437 72.7535 92.9437ZM54.9885 46.7546C55.3083 46.7546 55.5676 47.0139 55.5676 47.3337C55.5676 47.6535 55.3083 47.9127 54.9885 47.9127H50.5478C50.228 47.9127 49.9688 47.6535 49.9688 47.3337C49.9688 47.0139 50.228 46.7546 50.5478 46.7546H54.9885ZM37.2259 46.7527H32.7853C32.4655 46.7527 32.2062 47.0119 32.2062 47.3317C32.2062 47.6515 32.4655 47.9107 32.7853 47.9107H37.2259C37.5457 47.9107 37.805 47.6515 37.805 47.3317C37.805 47.0119 37.5466 46.7527 37.2259 46.7527ZM23.9039 46.7527H28.3445C28.6651 46.7527 28.9236 47.0119 28.9236 47.3317C28.9236 47.6515 28.6643 47.9107 28.3445 47.9107H23.9039C23.5841 47.9107 23.3248 47.6515 23.3248 47.3317C23.3248 47.0119 23.5841 46.7527 23.9039 46.7527ZM68.3108 47.9124H72.7515C73.0713 47.9124 73.3305 47.6532 73.3305 47.3334C73.3305 47.0136 73.0713 46.7544 72.7515 46.7544H68.3108C67.991 46.7544 67.7318 47.0136 67.7318 47.3334C67.7318 47.6532 67.991 47.9124 68.3108 47.9124ZM63.8695 47.9124H59.4294C59.1096 47.9124 58.8504 47.6532 58.8504 47.3334C58.8504 47.0136 59.1096 46.7544 59.4294 46.7544H63.8695C64.1893 46.7544 64.4485 47.0136 64.4485 47.3334C64.4485 47.6532 64.1893 47.9124 63.8695 47.9124ZM77.1922 47.9124H81.6322C81.952 47.9124 82.2113 47.6532 82.2113 47.3334C82.2113 47.0136 81.952 46.7544 81.6322 46.7544H77.1922C76.8724 46.7544 76.6132 47.0136 76.6132 47.3334C76.614 47.6532 76.8724 47.9124 77.1922 47.9124ZM41.6666 46.7527H46.1073C46.4271 46.7527 46.6863 47.0119 46.6863 47.3317C46.6863 47.6515 46.4271 47.9107 46.1073 47.9107H41.6666C41.3468 47.9107 41.0876 47.6515 41.0876 47.3317C41.0876 47.0119 41.3468 46.7527 41.6666 46.7527ZM86.0735 47.9125H87.8097V49.6488C87.8097 49.9686 88.069 50.2278 88.3888 50.2278C88.7086 50.2278 88.9678 49.9686 88.9678 49.6488V47.3335C88.9678 47.0137 88.7086 46.7545 88.3888 46.7545H86.0735C85.7537 46.7545 85.4945 47.0137 85.4945 47.3335C85.4945 47.6533 85.7537 47.9126 86.0735 47.9125ZM87.8099 52.9425C87.8099 52.6227 88.0692 52.3635 88.389 52.3635C88.7088 52.3635 88.968 52.6219 88.968 52.9425V56.2367C88.968 56.5565 88.7088 56.8157 88.389 56.8157C88.0692 56.8157 87.8099 56.5565 87.8099 56.2367V52.9425Z" fill="url(#paint0_linear_27_332)"/>
<defs>
<linearGradient id="paint0_linear_27_332" x1="15" y1="15" x2="92" y2="100" gradientUnits="userSpaceOnUse">
<stop stop-color="#7BBFFF"/>
<stop offset="1" stop-color="#62D8FF"/>
</linearGradient>
</defs>
</svg>
