<svg width="112" height="112" viewBox="0 0 112 112" fill="none" xmlns="http://www.w3.org/2000/svg">
<path d="M40.2727 95.5454H47.7727L47.0909 93.2727L48.9091 85.5454H61.6363L64.8182 93.7273L62.7727 95.5454H70.2727V100.091H40.2727V95.5454Z" fill="#6BCFFF" fill-opacity="0.13"/>
<path fill-rule="evenodd" clip-rule="evenodd" d="M97.5455 34.2554C96.098 35.623 94.1865 36.4545 92.091 36.4545C87.5723 36.4545 83.9091 32.5879 83.9091 27.8182C83.9091 26.3381 84.2619 24.9449 84.8835 23.7273H14.9092C14.3569 23.7273 13.9092 24.175 13.9092 24.7273V84.5455C13.9092 85.0978 14.3569 85.5455 14.9092 85.5455H96.5455C97.0978 85.5455 97.5455 85.0978 97.5455 84.5455V34.2554Z" fill="#6BCFFF" fill-opacity="0.13"/>
<path fill-rule="evenodd" clip-rule="evenodd" d="M89.3977 11.5792C89.3964 11.2606 89.6537 11.0013 89.9723 11L94.7254 11C94.8792 10.9995 95.0271 11.0603 95.1358 11.169C95.2445 11.2776 95.3052 11.4255 95.3047 11.5792V14.5425C96.6828 14.866 97.9905 15.4117 99.1936 16.157L101.293 14.0568C101.401 13.9481 101.549 13.8868 101.702 13.8868C101.856 13.8868 102.003 13.9481 102.111 14.0568L105.467 17.417C105.691 17.6418 105.691 18.0054 105.467 18.2303L103.368 20.3305C104.114 21.5348 104.658 22.8431 104.981 24.2225H107.95C108.267 24.223 108.524 24.4798 108.525 24.7971V29.5498C108.524 29.8671 108.267 30.1236 107.95 30.1244V30.1241H104.986C104.663 31.5038 104.118 32.8126 103.371 34.0171L105.467 36.1164C105.691 36.3415 105.691 36.7049 105.467 36.93L102.111 40.2899C102.003 40.3988 101.856 40.4599 101.702 40.4599C101.549 40.4599 101.401 40.3988 101.293 40.2899L99.1893 38.1863C97.9872 38.9306 96.6811 39.4732 95.3049 39.7965V42.7688C95.3054 42.9225 95.2446 43.0704 95.1359 43.179C95.0272 43.2877 94.8793 43.3485 94.7256 43.348H89.9723C89.6537 43.3467 89.3964 43.0873 89.3977 42.7688V39.8042C88.0199 39.481 86.7071 38.9407 85.5042 38.1953L83.4094 40.29C83.3012 40.3989 83.1539 40.4599 83.0003 40.4599C82.8468 40.4599 82.6998 40.3989 82.5913 40.29L79.231 36.93C79.0072 36.7049 79.0072 36.3415 79.231 36.1164L81.3349 34.0128C80.5894 32.8096 80.0444 31.5025 79.7212 30.1244H76.7519C76.4351 30.1231 76.1785 29.8666 76.1772 29.5499V24.7971C76.1785 24.4804 76.4351 24.2239 76.7519 24.2226H79.7122C80.0357 22.8427 80.5838 21.5354 81.3303 20.3306L79.231 18.2304C79.0072 18.0055 79.0072 17.6419 79.231 17.417L82.5913 14.0569C82.6998 13.9482 82.8468 13.8869 83.0003 13.8869C83.1539 13.8869 83.3012 13.9482 83.4094 14.0569L85.5089 16.1571C86.7107 15.413 88.0218 14.8747 89.3977 14.5515V11.5792ZM92.3513 34.5396C96.5031 34.5396 99.8688 31.2419 99.8688 27.174C99.8688 23.1061 96.5031 19.8084 92.3513 19.8084C88.1995 19.8084 84.8338 23.1061 84.8338 27.174C84.8338 31.2419 88.1995 34.5396 92.3513 34.5396Z" fill="#27373F"/>
<mask id="path-4-outside-1_27_302" maskUnits="userSpaceOnUse" x="12" y="10" width="97" height="92" fill="black">
<rect fill="white" x="12" y="10" width="97" height="92"/>
<path fill-rule="evenodd" clip-rule="evenodd" d="M89.3977 11.5792C89.3964 11.2606 89.6537 11.0013 89.9724 11L94.7255 11C94.8792 10.9995 95.0271 11.0603 95.1358 11.169C95.2445 11.2776 95.3053 11.4255 95.3047 11.5792V14.5425C96.6828 14.866 97.9905 15.4117 99.1936 16.157L101.293 14.0568C101.401 13.9481 101.549 13.8868 101.702 13.8868C101.856 13.8868 102.003 13.9481 102.111 14.0568L105.467 17.417C105.691 17.6418 105.691 18.0054 105.467 18.2303L103.368 20.3305C104.114 21.5348 104.658 22.8431 104.981 24.2225H107.95C108.267 24.223 108.524 24.4798 108.525 24.7971V29.5498C108.524 29.8671 108.267 30.1236 107.95 30.1244V30.1241H104.986C104.663 31.5038 104.118 32.8126 103.371 34.0171L105.467 36.1164C105.691 36.3415 105.691 36.7049 105.467 36.93L102.111 40.2899C102.003 40.3988 101.856 40.4599 101.702 40.4599C101.549 40.4599 101.401 40.3988 101.293 40.2899L99.1893 38.1863C98.8181 38.4161 98.437 38.6267 98.047 38.8176V82.3826C98.047 84.6067 96.2376 86.4161 94.0135 86.4161H94.0126H63.0653C63.0909 88.0488 63.4469 92.5079 66.4631 94.6215H70.5808C71.1894 94.6215 71.6848 95.1169 71.6848 95.7255V99.896C71.6848 100.505 71.1894 101 70.5808 101H40.4653C39.8566 101 39.3613 100.505 39.3613 99.896V95.7255C39.3613 95.1169 39.8566 94.6215 40.4653 94.6215H44.5837C47.6081 92.5031 47.96 88.0478 47.9833 86.4161H17.0335C14.8094 86.4161 13 84.6067 13 82.3826V26.1199C13 23.8958 14.8094 22.0864 17.0335 22.0864H80.4153C80.675 21.4807 80.9809 20.8944 81.3303 20.3306L79.231 18.2304C79.0072 18.0055 79.0072 17.6419 79.231 17.417L82.5913 14.0569C82.6998 13.9482 82.8468 13.8869 83.0004 13.8869C83.1539 13.8869 83.3012 13.9482 83.4094 14.0569L85.5089 16.1571C86.7107 15.413 88.0218 14.8747 89.3977 14.5515V11.5792ZM79.9356 23.3952H17.0335C15.5308 23.3952 14.3088 24.6173 14.3088 26.1199V73.1143H96.7387L96.7383 39.3716C96.2703 39.5402 95.792 39.6821 95.3049 39.7965V42.7688C95.3054 42.9225 95.2446 43.0704 95.1359 43.179C95.0272 43.2877 94.8794 43.3485 94.7256 43.348H89.9724C89.6537 43.3467 89.3964 43.0873 89.3977 42.7688V39.8042C88.0199 39.481 86.7071 38.9407 85.5042 38.1953L83.4094 40.29C83.3012 40.3989 83.1539 40.4599 83.0004 40.4599C82.8468 40.4599 82.6998 40.3989 82.5913 40.29L79.231 36.93C79.0072 36.7049 79.0072 36.3415 79.231 36.1164L81.3349 34.0128C80.5894 32.8096 80.0444 31.5025 79.7212 30.1244H76.7519C76.4351 30.1231 76.1785 29.8666 76.1773 29.5499V24.7971C76.1785 24.4804 76.4351 24.2239 76.7519 24.2226H79.7122C79.7776 23.9437 79.8521 23.6679 79.9356 23.3952ZM96.7387 74.423H14.3088V82.3826C14.3088 83.8847 15.5309 85.1073 17.0335 85.1073H94.0141C95.5168 85.1073 96.7388 83.8846 96.7388 82.3826L96.7387 74.423ZM49.2945 86.4161C49.2798 88.0139 48.9825 91.9819 46.5559 94.6215H64.4918C62.0652 91.982 61.7677 88.014 61.7531 86.4161H49.2945ZM94.1509 12.1538H90.5516L90.5514 14.9221C90.5509 15.1987 90.3544 15.4359 90.0826 15.4879C88.5094 15.7928 87.0163 16.4099 85.688 17.3064C85.4593 17.4625 85.1517 17.4342 84.9555 17.2387L83.0003 15.2793L80.458 17.8212L82.4086 19.7762C82.6023 19.972 82.6306 20.2772 82.4763 20.5054C81.5787 21.8345 80.9582 23.3339 80.653 24.9086C80.5992 25.1785 80.3625 25.3727 80.0874 25.3729H77.3275V28.9705H80.0954C80.3723 28.9705 80.6101 29.1673 80.6621 29.4393C80.9673 31.0124 81.5844 32.5097 82.4808 33.8381C82.6348 34.0663 82.6062 34.3718 82.412 34.5672V34.567L80.4535 36.5207L83.0003 39.0673L84.9509 37.1136C85.1469 36.9178 85.4544 36.889 85.6834 37.0448C87.013 37.9423 88.508 38.5627 90.0828 38.8679C90.3548 38.92 90.5516 39.1577 90.5516 39.4348V42.1941H94.1509V39.4258C94.1504 39.1503 94.3448 38.9128 94.615 38.859C96.1883 38.554 97.6858 37.937 99.0144 37.0405C99.2426 36.887 99.547 36.9158 99.7425 37.1092V37.109L101.702 39.064L104.244 36.521L102.294 34.5706C102.097 34.3754 102.067 34.0679 102.222 33.8382H102.221C103.119 32.5088 103.74 31.014 104.045 29.4393C104.097 29.1676 104.334 28.9711 104.611 28.9706H107.37V25.373H104.606C104.331 25.3728 104.094 25.1786 104.04 24.9087C103.735 23.3356 103.114 21.8372 102.217 20.5088C102.065 20.2799 102.095 19.9752 102.289 19.7807L104.244 17.8213L101.702 15.284L99.7469 17.2344C99.5514 17.4273 99.2467 17.4556 99.019 17.3019H99.0188C97.6895 16.4044 96.1899 15.7852 94.6151 15.48C94.3449 15.4262 94.1504 15.1887 94.1509 14.9132V12.1538ZM84.2827 27.1736C84.2827 22.7251 87.9002 19.1082 92.349 19.1082C96.7981 19.1082 100.42 22.7253 100.42 27.1736C100.42 31.6223 96.7979 35.2402 92.349 35.2402C87.9 35.2402 84.2827 31.622 84.2827 27.1736ZM99.2659 27.1736C99.2659 23.3486 96.1742 20.262 92.349 20.262L92.3489 20.2626C88.7196 20.2626 85.7589 23.0431 85.465 26.5948H91.7655L90.3602 25.2754C90.1876 25.117 90.1278 24.8698 90.2092 24.6501C90.2906 24.4304 90.4967 24.2816 90.7311 24.2738C90.8861 24.2695 91.0366 24.3279 91.1481 24.4361L93.5719 26.7097C93.5739 26.7112 93.5757 26.7128 93.5775 26.7143C93.723 26.8266 93.8062 27.0015 93.8019 27.1853C93.8006 27.243 93.7908 27.3005 93.7725 27.3553C93.7601 27.3919 93.7444 27.4269 93.7251 27.4601C93.7182 27.4728 93.7107 27.4851 93.7027 27.4972C93.6978 27.5047 93.6929 27.5116 93.688 27.5189C93.6811 27.5278 93.6739 27.5368 93.6668 27.5457L93.6666 27.5459L93.6661 27.5465L93.6639 27.5489L93.6587 27.5549C93.6527 27.5613 93.6468 27.5678 93.6406 27.574C93.6334 27.5812 93.6257 27.5884 93.618 27.5953C93.6115 27.6015 93.6048 27.6075 93.5979 27.6134L91.1481 29.9119C91.0397 30.0312 90.8867 30.0997 90.7257 30.1012C90.5647 30.1025 90.4104 30.0366 90.3002 29.9194C90.19 29.802 90.1336 29.6438 90.1451 29.4834C90.1565 29.3227 90.2345 29.1741 90.3602 29.0736L91.7712 27.7485L85.465 27.7483C85.7562 31.3026 88.7178 34.0851 92.349 34.0851C96.1743 34.0851 99.2659 30.9985 99.2659 27.1736ZM27.1995 80.7741H20.9848C20.6229 80.7741 20.3304 80.4811 20.3304 80.1198C20.3304 79.7585 20.6229 79.4655 20.9848 79.4655H27.1995C27.5614 79.4655 27.8539 79.7585 27.8539 80.1198C27.8533 80.4811 27.5608 80.7741 27.1995 80.7741ZM70.3758 99.6913H40.6688V95.9295H70.3758V99.6913ZM67.4718 66.0809H43.574C42.1159 66.0809 40.8718 65.089 40.5479 63.6681L37.2835 49.3997H36.1978C35.4764 49.3997 34.8891 48.8129 34.8891 48.091V44.6015C34.8891 43.8801 35.4764 43.2928 36.1978 43.2928H42.9546L48.4872 32.038V32.0374C48.9755 31.0444 49.9656 30.4279 51.072 30.4279C52.074 30.4279 52.9875 30.9358 53.5168 31.7853C54.0466 32.6354 54.0988 33.6795 53.6568 34.5783L49.3734 43.2928H61.6731L57.3896 34.5782C56.9476 33.6794 56.9998 32.6353 57.5296 31.7851C58.0594 30.935 58.9729 30.4278 59.975 30.4278C61.0642 30.4278 62.0787 31.0596 62.5598 32.0373V32.0379L68.0919 43.2928H74.8498C75.5712 43.2928 76.1585 43.8795 76.1585 44.6015V48.091C76.1585 48.8129 75.5712 49.3997 74.8498 49.3997H73.763L70.4979 63.6688C70.1734 65.089 68.9288 66.0809 67.4718 66.0809ZM67.7064 44.6016L74.8498 44.6015V48.091H73.272L73.2563 48.0905L73.2417 48.0903H37.8047C37.7946 48.0903 37.7845 48.0905 37.7745 48.091H36.1978V44.6021L43.3502 44.602L43.3617 44.6021H48.3229L48.323 44.6022C48.3296 44.6022 48.3363 44.6021 48.3429 44.6019L62.7011 44.6017C62.7087 44.602 62.7163 44.6021 62.724 44.6021H67.6846L67.6847 44.602C67.692 44.602 67.6992 44.6019 67.7064 44.6016ZM66.6343 43.2928L61.3857 32.6147V32.6152C61.1229 32.0813 60.57 31.7367 59.975 31.7367C59.428 31.7367 58.9297 32.0137 58.6408 32.4776C58.3513 32.9415 58.3234 33.5116 58.5643 34.0022L63.1313 43.2928H66.6343ZM44.412 43.2928H47.9156L52.4826 34.0015C52.7234 33.5109 52.6956 32.9408 52.4061 32.4769C52.1172 32.013 51.6188 31.736 51.0719 31.736C50.468 31.736 49.9275 32.0729 49.6612 32.6145V32.614L44.412 43.2928ZM72.4202 49.3996L69.2226 63.3775C69.034 64.1991 68.3138 64.7733 67.4714 64.7733H43.5749C42.7314 64.7733 42.0118 64.1997 41.8237 63.3775L38.6262 49.3996H72.4202ZM62.4072 61.9409C62.0454 61.9409 61.7529 61.6479 61.7529 61.2866V52.8869C61.7529 52.5256 62.0454 52.2326 62.4072 52.2326C62.7691 52.2326 63.0616 52.5256 63.0616 52.8869V61.2866C63.0616 61.6479 62.7685 61.9409 62.4072 61.9409ZM54.8686 61.2866C54.8686 61.6479 55.1611 61.9409 55.523 61.9409C55.8849 61.9409 56.1773 61.6479 56.1773 61.2866V52.8869C56.1773 52.5256 55.8849 52.2326 55.523 52.2326C55.1611 52.2326 54.8686 52.5256 54.8686 52.8869V61.2866ZM48.6388 61.9409C48.2769 61.9409 47.9845 61.6479 47.9845 61.2866V52.8869C47.9845 52.5256 48.2769 52.2326 48.6388 52.2326C49.0007 52.2326 49.2931 52.5256 49.2931 52.8869V61.2866C49.2931 61.6479 49.0007 61.9409 48.6388 61.9409Z"/>
</mask>
<path fill-rule="evenodd" clip-rule="evenodd" d="M89.3977 11.5792C89.3964 11.2606 89.6537 11.0013 89.9724 11L94.7255 11C94.8792 10.9995 95.0271 11.0603 95.1358 11.169C95.2445 11.2776 95.3053 11.4255 95.3047 11.5792V14.5425C96.6828 14.866 97.9905 15.4117 99.1936 16.157L101.293 14.0568C101.401 13.9481 101.549 13.8868 101.702 13.8868C101.856 13.8868 102.003 13.9481 102.111 14.0568L105.467 17.417C105.691 17.6418 105.691 18.0054 105.467 18.2303L103.368 20.3305C104.114 21.5348 104.658 22.8431 104.981 24.2225H107.95C108.267 24.223 108.524 24.4798 108.525 24.7971V29.5498C108.524 29.8671 108.267 30.1236 107.95 30.1244V30.1241H104.986C104.663 31.5038 104.118 32.8126 103.371 34.0171L105.467 36.1164C105.691 36.3415 105.691 36.7049 105.467 36.93L102.111 40.2899C102.003 40.3988 101.856 40.4599 101.702 40.4599C101.549 40.4599 101.401 40.3988 101.293 40.2899L99.1893 38.1863C98.8181 38.4161 98.437 38.6267 98.047 38.8176V82.3826C98.047 84.6067 96.2376 86.4161 94.0135 86.4161H94.0126H63.0653C63.0909 88.0488 63.4469 92.5079 66.4631 94.6215H70.5808C71.1894 94.6215 71.6848 95.1169 71.6848 95.7255V99.896C71.6848 100.505 71.1894 101 70.5808 101H40.4653C39.8566 101 39.3613 100.505 39.3613 99.896V95.7255C39.3613 95.1169 39.8566 94.6215 40.4653 94.6215H44.5837C47.6081 92.5031 47.96 88.0478 47.9833 86.4161H17.0335C14.8094 86.4161 13 84.6067 13 82.3826V26.1199C13 23.8958 14.8094 22.0864 17.0335 22.0864H80.4153C80.675 21.4807 80.9809 20.8944 81.3303 20.3306L79.231 18.2304C79.0072 18.0055 79.0072 17.6419 79.231 17.417L82.5913 14.0569C82.6998 13.9482 82.8468 13.8869 83.0004 13.8869C83.1539 13.8869 83.3012 13.9482 83.4094 14.0569L85.5089 16.1571C86.7107 15.413 88.0218 14.8747 89.3977 14.5515V11.5792ZM79.9356 23.3952H17.0335C15.5308 23.3952 14.3088 24.6173 14.3088 26.1199V73.1143H96.7387L96.7383 39.3716C96.2703 39.5402 95.792 39.6821 95.3049 39.7965V42.7688C95.3054 42.9225 95.2446 43.0704 95.1359 43.179C95.0272 43.2877 94.8794 43.3485 94.7256 43.348H89.9724C89.6537 43.3467 89.3964 43.0873 89.3977 42.7688V39.8042C88.0199 39.481 86.7071 38.9407 85.5042 38.1953L83.4094 40.29C83.3012 40.3989 83.1539 40.4599 83.0004 40.4599C82.8468 40.4599 82.6998 40.3989 82.5913 40.29L79.231 36.93C79.0072 36.7049 79.0072 36.3415 79.231 36.1164L81.3349 34.0128C80.5894 32.8096 80.0444 31.5025 79.7212 30.1244H76.7519C76.4351 30.1231 76.1785 29.8666 76.1773 29.5499V24.7971C76.1785 24.4804 76.4351 24.2239 76.7519 24.2226H79.7122C79.7776 23.9437 79.8521 23.6679 79.9356 23.3952ZM96.7387 74.423H14.3088V82.3826C14.3088 83.8847 15.5309 85.1073 17.0335 85.1073H94.0141C95.5168 85.1073 96.7388 83.8846 96.7388 82.3826L96.7387 74.423ZM49.2945 86.4161C49.2798 88.0139 48.9825 91.9819 46.5559 94.6215H64.4918C62.0652 91.982 61.7677 88.014 61.7531 86.4161H49.2945ZM94.1509 12.1538H90.5516L90.5514 14.9221C90.5509 15.1987 90.3544 15.4359 90.0826 15.4879C88.5094 15.7928 87.0163 16.4099 85.688 17.3064C85.4593 17.4625 85.1517 17.4342 84.9555 17.2387L83.0003 15.2793L80.458 17.8212L82.4086 19.7762C82.6023 19.972 82.6306 20.2772 82.4763 20.5054C81.5787 21.8345 80.9582 23.3339 80.653 24.9086C80.5992 25.1785 80.3625 25.3727 80.0874 25.3729H77.3275V28.9705H80.0954C80.3723 28.9705 80.6101 29.1673 80.6621 29.4393C80.9673 31.0124 81.5844 32.5097 82.4808 33.8381C82.6348 34.0663 82.6062 34.3718 82.412 34.5672V34.567L80.4535 36.5207L83.0003 39.0673L84.9509 37.1136C85.1469 36.9178 85.4544 36.889 85.6834 37.0448C87.013 37.9423 88.508 38.5627 90.0828 38.8679C90.3548 38.92 90.5516 39.1577 90.5516 39.4348V42.1941H94.1509V39.4258C94.1504 39.1503 94.3448 38.9128 94.615 38.859C96.1883 38.554 97.6858 37.937 99.0144 37.0405C99.2426 36.887 99.547 36.9158 99.7425 37.1092V37.109L101.702 39.064L104.244 36.521L102.294 34.5706C102.097 34.3754 102.067 34.0679 102.222 33.8382H102.221C103.119 32.5088 103.74 31.014 104.045 29.4393C104.097 29.1676 104.334 28.9711 104.611 28.9706H107.37V25.373H104.606C104.331 25.3728 104.094 25.1786 104.04 24.9087C103.735 23.3356 103.114 21.8372 102.217 20.5088C102.065 20.2799 102.095 19.9752 102.289 19.7807L104.244 17.8213L101.702 15.284L99.7469 17.2344C99.5514 17.4273 99.2467 17.4556 99.019 17.3019H99.0188C97.6895 16.4044 96.1899 15.7852 94.6151 15.48C94.3449 15.4262 94.1504 15.1887 94.1509 14.9132V12.1538ZM84.2827 27.1736C84.2827 22.7251 87.9002 19.1082 92.349 19.1082C96.7981 19.1082 100.42 22.7253 100.42 27.1736C100.42 31.6223 96.7979 35.2402 92.349 35.2402C87.9 35.2402 84.2827 31.622 84.2827 27.1736ZM99.2659 27.1736C99.2659 23.3486 96.1742 20.262 92.349 20.262L92.3489 20.2626C88.7196 20.2626 85.7589 23.0431 85.465 26.5948H91.7655L90.3602 25.2754C90.1876 25.117 90.1278 24.8698 90.2092 24.6501C90.2906 24.4304 90.4967 24.2816 90.7311 24.2738C90.8861 24.2695 91.0366 24.3279 91.1481 24.4361L93.5719 26.7097C93.5739 26.7112 93.5757 26.7128 93.5775 26.7143C93.723 26.8266 93.8062 27.0015 93.8019 27.1853C93.8006 27.243 93.7908 27.3005 93.7725 27.3553C93.7601 27.3919 93.7444 27.4269 93.7251 27.4601C93.7182 27.4728 93.7107 27.4851 93.7027 27.4972C93.6978 27.5047 93.6929 27.5116 93.688 27.5189C93.6811 27.5278 93.6739 27.5368 93.6668 27.5457L93.6666 27.5459L93.6661 27.5465L93.6639 27.5489L93.6587 27.5549C93.6527 27.5613 93.6468 27.5678 93.6406 27.574C93.6334 27.5812 93.6257 27.5884 93.618 27.5953C93.6115 27.6015 93.6048 27.6075 93.5979 27.6134L91.1481 29.9119C91.0397 30.0312 90.8867 30.0997 90.7257 30.1012C90.5647 30.1025 90.4104 30.0366 90.3002 29.9194C90.19 29.802 90.1336 29.6438 90.1451 29.4834C90.1565 29.3227 90.2345 29.1741 90.3602 29.0736L91.7712 27.7485L85.465 27.7483C85.7562 31.3026 88.7178 34.0851 92.349 34.0851C96.1743 34.0851 99.2659 30.9985 99.2659 27.1736ZM27.1995 80.7741H20.9848C20.6229 80.7741 20.3304 80.4811 20.3304 80.1198C20.3304 79.7585 20.6229 79.4655 20.9848 79.4655H27.1995C27.5614 79.4655 27.8539 79.7585 27.8539 80.1198C27.8533 80.4811 27.5608 80.7741 27.1995 80.7741ZM70.3758 99.6913H40.6688V95.9295H70.3758V99.6913ZM67.4718 66.0809H43.574C42.1159 66.0809 40.8718 65.089 40.5479 63.6681L37.2835 49.3997H36.1978C35.4764 49.3997 34.8891 48.8129 34.8891 48.091V44.6015C34.8891 43.8801 35.4764 43.2928 36.1978 43.2928H42.9546L48.4872 32.038V32.0374C48.9755 31.0444 49.9656 30.4279 51.072 30.4279C52.074 30.4279 52.9875 30.9358 53.5168 31.7853C54.0466 32.6354 54.0988 33.6795 53.6568 34.5783L49.3734 43.2928H61.6731L57.3896 34.5782C56.9476 33.6794 56.9998 32.6353 57.5296 31.7851C58.0594 30.935 58.9729 30.4278 59.975 30.4278C61.0642 30.4278 62.0787 31.0596 62.5598 32.0373V32.0379L68.0919 43.2928H74.8498C75.5712 43.2928 76.1585 43.8795 76.1585 44.6015V48.091C76.1585 48.8129 75.5712 49.3997 74.8498 49.3997H73.763L70.4979 63.6688C70.1734 65.089 68.9288 66.0809 67.4718 66.0809ZM67.7064 44.6016L74.8498 44.6015V48.091H73.272L73.2563 48.0905L73.2417 48.0903H37.8047C37.7946 48.0903 37.7845 48.0905 37.7745 48.091H36.1978V44.6021L43.3502 44.602L43.3617 44.6021H48.3229L48.323 44.6022C48.3296 44.6022 48.3363 44.6021 48.3429 44.6019L62.7011 44.6017C62.7087 44.602 62.7163 44.6021 62.724 44.6021H67.6846L67.6847 44.602C67.692 44.602 67.6992 44.6019 67.7064 44.6016ZM66.6343 43.2928L61.3857 32.6147V32.6152C61.1229 32.0813 60.57 31.7367 59.975 31.7367C59.428 31.7367 58.9297 32.0137 58.6408 32.4776C58.3513 32.9415 58.3234 33.5116 58.5643 34.0022L63.1313 43.2928H66.6343ZM44.412 43.2928H47.9156L52.4826 34.0015C52.7234 33.5109 52.6956 32.9408 52.4061 32.4769C52.1172 32.013 51.6188 31.736 51.0719 31.736C50.468 31.736 49.9275 32.0729 49.6612 32.6145V32.614L44.412 43.2928ZM72.4202 49.3996L69.2226 63.3775C69.034 64.1991 68.3138 64.7733 67.4714 64.7733H43.5749C42.7314 64.7733 42.0118 64.1997 41.8237 63.3775L38.6262 49.3996H72.4202ZM62.4072 61.9409C62.0454 61.9409 61.7529 61.6479 61.7529 61.2866V52.8869C61.7529 52.5256 62.0454 52.2326 62.4072 52.2326C62.7691 52.2326 63.0616 52.5256 63.0616 52.8869V61.2866C63.0616 61.6479 62.7685 61.9409 62.4072 61.9409ZM54.8686 61.2866C54.8686 61.6479 55.1611 61.9409 55.523 61.9409C55.8849 61.9409 56.1773 61.6479 56.1773 61.2866V52.8869C56.1773 52.5256 55.8849 52.2326 55.523 52.2326C55.1611 52.2326 54.8686 52.5256 54.8686 52.8869V61.2866ZM48.6388 61.9409C48.2769 61.9409 47.9845 61.6479 47.9845 61.2866V52.8869C47.9845 52.5256 48.2769 52.2326 48.6388 52.2326C49.0007 52.2326 49.2931 52.5256 49.2931 52.8869V61.2866C49.2931 61.6479 49.0007 61.9409 48.6388 61.9409Z" fill="url(#paint0_linear_27_302)"/>
<path d="M89.9724 11V10.6L89.9707 10.6L89.9724 11ZM89.3977 11.5792H89.7977L89.7977 11.5776L89.3977 11.5792ZM94.7255 11V11.4L94.7268 11.4L94.7255 11ZM95.1358 11.169L95.4186 10.8861L95.4186 10.8861L95.1358 11.169ZM95.3047 11.5792L94.9047 11.5779V11.5792H95.3047ZM95.3047 14.5425H94.9047V14.8595L95.2133 14.9319L95.3047 14.5425ZM99.1936 16.157L98.9829 16.497L99.2524 16.664L99.4765 16.4398L99.1936 16.157ZM101.293 14.0568L101.576 14.3396L101.577 14.339L101.293 14.0568ZM102.111 14.0568L101.828 14.3393L101.828 14.3394L102.111 14.0568ZM105.467 17.417L105.751 17.1349L105.75 17.1343L105.467 17.417ZM105.467 18.2303L105.75 18.5131L105.751 18.5123L105.467 18.2303ZM103.368 20.3305L103.085 20.0477L102.861 20.2719L103.028 20.5413L103.368 20.3305ZM104.981 24.2225L104.592 24.3138L104.664 24.6225H104.981V24.2225ZM107.95 24.2225L107.95 23.8225H107.95V24.2225ZM108.525 24.7971H108.925L108.925 24.7955L108.525 24.7971ZM108.525 29.5498L108.925 29.5514V29.5498H108.525ZM107.95 30.1244H107.55V30.5253L107.951 30.5244L107.95 30.1244ZM107.95 30.1241H108.35V29.7241H107.95V30.1241ZM104.986 30.1241V29.7241H104.669L104.596 30.0329L104.986 30.1241ZM103.371 34.0171L103.031 33.8064L102.864 34.0756L103.088 34.2997L103.371 34.0171ZM105.467 36.1164L105.751 35.8345L105.75 35.8338L105.467 36.1164ZM105.467 36.93L105.75 37.2126L105.751 37.2119L105.467 36.93ZM102.111 40.2899L101.828 40.0072L101.828 40.0077L102.111 40.2899ZM101.293 40.2899L101.577 40.008L101.576 40.007L101.293 40.2899ZM99.1893 38.1863L99.4721 37.9034L99.2481 37.6794L98.9787 37.8462L99.1893 38.1863ZM98.047 38.8176L97.8711 38.4583L97.647 38.568V38.8176H98.047ZM63.0653 86.4161V86.0161H62.659L62.6654 86.4223L63.0653 86.4161ZM66.4631 94.6215L66.2335 94.9491L66.3369 95.0215H66.4631V94.6215ZM44.5837 94.6215V95.0215H44.7099L44.8132 94.9492L44.5837 94.6215ZM47.9833 86.4161L48.3832 86.4218L48.389 86.0161H47.9833V86.4161ZM80.4153 22.0864V22.4864H80.679L80.7829 22.2441L80.4153 22.0864ZM81.3303 20.3306L81.6703 20.5413L81.8372 20.2719L81.6132 20.0478L81.3303 20.3306ZM79.231 18.2304L78.9476 18.5126L78.9481 18.5131L79.231 18.2304ZM79.231 17.417L78.9482 17.1342L78.9476 17.1348L79.231 17.417ZM82.5913 14.0569L82.8742 14.3397L82.8745 14.3394L82.5913 14.0569ZM83.4094 14.0569L83.1259 14.339L83.1265 14.3396L83.4094 14.0569ZM85.5089 16.1571L85.226 16.4399L85.45 16.664L85.7194 16.4972L85.5089 16.1571ZM89.3977 14.5515L89.4892 14.9409L89.7977 14.8685V14.5515H89.3977ZM79.9356 23.3952L80.3181 23.5123L80.4764 22.9952H79.9356V23.3952ZM14.3088 73.1143H13.9088V73.5143H14.3088V73.1143ZM96.7387 73.1143V73.5143H97.1387V73.1143L96.7387 73.1143ZM96.7383 39.3716L97.1383 39.3716L97.1383 38.8023L96.6027 38.9953L96.7383 39.3716ZM95.3049 39.7965L95.2134 39.4071L94.9049 39.4795V39.7965H95.3049ZM95.3049 42.7688H94.9049V42.7701L95.3049 42.7688ZM95.1359 43.179L95.4187 43.4619L95.4187 43.4619L95.1359 43.179ZM94.7256 43.348L94.7269 42.948H94.7256V43.348ZM89.9724 43.348L89.9707 43.748H89.9724V43.348ZM89.3977 42.7688L89.7977 42.7704V42.7688H89.3977ZM89.3977 39.8042H89.7977V39.4871L89.4891 39.4147L89.3977 39.8042ZM85.5042 38.1953L85.7149 37.8553L85.4455 37.6884L85.2214 37.9125L85.5042 38.1953ZM83.4094 40.29L83.1265 40.0071L83.1255 40.0081L83.4094 40.29ZM82.5913 40.29L82.8748 40.0078L82.8742 40.0071L82.5913 40.29ZM79.231 36.93L78.9474 37.2121L78.9482 37.2129L79.231 36.93ZM79.231 36.1164L78.9482 35.8336L78.9474 35.8344L79.231 36.1164ZM81.3349 34.0128L81.6177 34.2957L81.8418 34.0716L81.6749 33.8022L81.3349 34.0128ZM79.7212 30.1244L80.1106 30.0331L80.0382 29.7244H79.7212V30.1244ZM76.7519 30.1244L76.7503 30.5244H76.7519V30.1244ZM76.1773 29.5499H75.7773L75.7773 29.5515L76.1773 29.5499ZM76.1773 24.7971L75.7773 24.7955V24.7971H76.1773ZM76.7519 24.2226V23.8226L76.7503 23.8226L76.7519 24.2226ZM79.7122 24.2226V24.6226H80.0293L80.1016 24.3139L79.7122 24.2226ZM96.7387 74.423L97.1387 74.423L97.1387 74.023H96.7387V74.423ZM14.3088 74.423V74.023H13.9088V74.423H14.3088ZM96.7388 82.3826H97.1388V82.3826L96.7388 82.3826ZM49.2945 86.4161V86.0161H48.8981L48.8945 86.4124L49.2945 86.4161ZM46.5559 94.6215L46.2614 94.3508L45.6448 95.0215H46.5559V94.6215ZM64.4918 94.6215V95.0215H65.4028L64.7862 94.3508L64.4918 94.6215ZM61.7531 86.4161L62.153 86.4124L62.1494 86.0161H61.7531V86.4161ZM90.5516 12.1538V11.7538H90.1517L90.1516 12.1538L90.5516 12.1538ZM94.1509 12.1538H94.5509V11.7538H94.1509V12.1538ZM90.5514 14.9221L90.9514 14.9228V14.9221L90.5514 14.9221ZM90.0826 15.4879L90.0074 15.095L90.0065 15.0952L90.0826 15.4879ZM85.688 17.3064L85.4642 16.9749L85.4625 16.976L85.688 17.3064ZM84.9555 17.2387L84.6723 17.5212L84.6732 17.5221L84.9555 17.2387ZM83.0003 15.2793L83.2834 14.9967L83.0006 14.7133L82.7174 14.9964L83.0003 15.2793ZM80.458 17.8212L80.1752 17.5384L79.8926 17.8209L80.1749 18.1038L80.458 17.8212ZM82.4086 19.7762L82.6929 19.4949L82.6918 19.4937L82.4086 19.7762ZM82.4763 20.5054L82.145 20.2813L82.1449 20.2815L82.4763 20.5054ZM80.653 24.9086L81.0453 24.9868L81.0457 24.9847L80.653 24.9086ZM80.0874 25.3729V25.7729L80.0878 25.7729L80.0874 25.3729ZM77.3275 25.3729V24.9729H76.9275V25.3729H77.3275ZM77.3275 28.9705H76.9275V29.3705H77.3275V28.9705ZM80.6621 29.4393L80.2692 29.5144L80.2694 29.5154L80.6621 29.4393ZM82.4808 33.8381L82.1492 34.0619L82.1493 34.0619L82.4808 33.8381ZM82.412 34.5672H82.012V35.5374L82.6958 34.8492L82.412 34.5672ZM82.412 34.567H82.812V33.603L82.1295 34.2838L82.412 34.567ZM80.4535 36.5207L80.171 36.2375L79.8874 36.5204L80.1706 36.8036L80.4535 36.5207ZM83.0003 39.0673L82.7175 39.3502L83.0006 39.6332L83.2834 39.3499L83.0003 39.0673ZM84.9509 37.1136L84.6683 36.8305L84.6678 36.831L84.9509 37.1136ZM85.6834 37.0448L85.4584 37.3755L85.4596 37.3763L85.6834 37.0448ZM90.0828 38.8679L90.0067 39.2606L90.0076 39.2608L90.0828 38.8679ZM90.5516 42.1941H90.1516V42.5941H90.5516V42.1941ZM94.1509 42.1941V42.5941H94.5509V42.1941H94.1509ZM94.1509 39.4258H94.5509V39.4251L94.1509 39.4258ZM94.615 38.859L94.5389 38.4663L94.5369 38.4667L94.615 38.859ZM99.0144 37.0405L98.7911 36.7085L98.7906 36.7089L99.0144 37.0405ZM99.7425 37.1092L99.4612 37.3936L100.143 38.0677V37.1092H99.7425ZM99.7425 37.109L100.025 36.8258L99.3425 36.1449V37.109H99.7425ZM101.702 39.064L101.42 39.3471L101.703 39.6293L101.985 39.3468L101.702 39.064ZM104.244 36.521L104.527 36.8038L104.81 36.5209L104.527 36.2381L104.244 36.521ZM102.294 34.5706L102.577 34.2878L102.575 34.2865L102.294 34.5706ZM102.222 33.8382L102.553 34.062L102.974 33.4382H102.222V33.8382ZM102.221 33.8382L101.89 33.6144L101.469 34.2382H102.221V33.8382ZM104.045 29.4393L104.437 29.5155L104.438 29.5146L104.045 29.4393ZM104.611 28.9706V28.5706L104.61 28.5706L104.611 28.9706ZM107.37 28.9706V29.3706H107.77V28.9706H107.37ZM107.37 25.373H107.77V24.973H107.37V25.373ZM104.606 25.373L104.606 25.773H104.606V25.373ZM104.04 24.9087L103.648 24.9848L103.648 24.9869L104.04 24.9087ZM102.217 20.5088L101.884 20.7305L101.886 20.7326L102.217 20.5088ZM102.289 19.7807L102.572 20.0636L102.572 20.0633L102.289 19.7807ZM104.244 17.8213L104.528 18.1039L104.81 17.8207L104.527 17.5382L104.244 17.8213ZM101.702 15.284L101.985 15.0009L101.702 14.719L101.42 15.0008L101.702 15.284ZM99.7469 17.2344L100.028 17.5191L100.029 17.5176L99.7469 17.2344ZM99.019 17.3019L99.2429 16.9704L99.1414 16.9019H99.019V17.3019ZM99.0188 17.3019L98.795 17.6334L98.8964 17.7019H99.0188V17.3019ZM94.6151 15.48L94.5369 15.8723L94.539 15.8727L94.6151 15.48ZM94.1509 14.9132L94.5509 14.9139V14.9132H94.1509ZM92.349 20.262V19.862H91.9684L91.9495 20.2421L92.349 20.262ZM92.3489 20.2626V20.6626H92.7295L92.7485 20.2826L92.3489 20.2626ZM85.465 26.5948L85.0663 26.5619L85.0305 26.9948H85.465V26.5948ZM91.7655 26.5948V26.9948H92.7759L92.0393 26.3032L91.7655 26.5948ZM90.3602 25.2754L90.634 24.9838L90.6306 24.9807L90.3602 25.2754ZM90.2092 24.6501L89.8342 24.5111V24.5111L90.2092 24.6501ZM90.7311 24.2738L90.7198 23.874L90.7179 23.8741L90.7311 24.2738ZM91.1481 24.4361L90.8696 24.7233L90.8744 24.7278L91.1481 24.4361ZM93.5719 26.7097L93.2982 27.0014L93.3142 27.0165L93.3319 27.0297L93.5719 26.7097ZM93.5775 26.7143L93.317 27.0178L93.3249 27.0246L93.3332 27.031L93.5775 26.7143ZM93.8019 27.1853L93.402 27.1758L93.402 27.1764L93.8019 27.1853ZM93.7725 27.3553L94.1514 27.4834L94.152 27.4818L93.7725 27.3553ZM93.7251 27.4601L93.3792 27.259L93.3747 27.2672L93.7251 27.4601ZM93.7027 27.4972L93.3688 27.2769L93.368 27.2781L93.7027 27.4972ZM93.688 27.5189L94.0046 27.7633L94.0122 27.7536L94.0191 27.7434L93.688 27.5189ZM93.6668 27.5457L93.9707 27.8062L93.9792 27.7955L93.6668 27.5457ZM93.6666 27.5459L93.9624 27.8155L93.9703 27.8062L93.6666 27.5459ZM93.6661 27.5465L93.3705 27.2771L93.3701 27.2775L93.6661 27.5465ZM93.6639 27.5489L93.3679 27.2798L93.3628 27.2855L93.6639 27.5489ZM93.6587 27.5549L93.9532 27.8257L93.9597 27.8183L93.6587 27.5549ZM93.6406 27.574L93.3578 27.2911L93.3577 27.2912L93.6406 27.574ZM93.618 27.5953L93.3503 27.2978L93.341 27.3068L93.618 27.5953ZM93.5979 27.6134L93.3384 27.309L93.3311 27.3151L93.3242 27.3217L93.5979 27.6134ZM91.1481 29.9119L90.8744 29.6202L90.8629 29.6311L90.8522 29.6428L91.1481 29.9119ZM90.7257 30.1012L90.7289 30.5012L90.7295 30.5012L90.7257 30.1012ZM90.3002 29.9194L90.0086 30.1932L90.0089 30.1935L90.3002 29.9194ZM90.1451 29.4834L90.5441 29.5122L90.5442 29.5115L90.1451 29.4834ZM90.3602 29.0736L90.6099 29.3861L90.6224 29.3761L90.634 29.3652L90.3602 29.0736ZM91.7712 27.7485L92.045 28.0401L92.7813 27.3486L91.7712 27.3485L91.7712 27.7485ZM85.465 27.7483L85.465 27.3483L85.0309 27.3483L85.0663 27.7809L85.465 27.7483ZM27.8539 80.1198L28.2539 80.1205V80.1198H27.8539ZM40.6688 99.6913H40.2688V100.091H40.6688V99.6913ZM70.3758 99.6913V100.091H70.7758V99.6913H70.3758ZM40.6688 95.9295V95.5295H40.2688V95.9295H40.6688ZM70.3758 95.9295H70.7758V95.5295H70.3758V95.9295ZM40.5479 63.6681L40.9379 63.5792L40.9378 63.5789L40.5479 63.6681ZM37.2835 49.3997L37.6734 49.3104L37.6023 48.9997H37.2835V49.3997ZM42.9546 43.2928V43.6928H43.2037L43.3136 43.4693L42.9546 43.2928ZM48.4872 32.038L48.8462 32.2145L48.8872 32.131V32.038H48.4872ZM48.4872 32.0374L48.1283 31.861L48.0872 31.9444V32.0374H48.4872ZM53.5168 31.7853L53.1773 31.9968L53.1773 31.9968L53.5168 31.7853ZM53.6568 34.5783L53.2979 34.4018L53.2978 34.4018L53.6568 34.5783ZM49.3734 43.2928L49.0144 43.1164L48.7311 43.6928H49.3734V43.2928ZM61.6731 43.2928V43.6928H62.3154L62.032 43.1164L61.6731 43.2928ZM57.3896 34.5782L57.7486 34.4017L57.7485 34.4016L57.3896 34.5782ZM57.5296 31.7851L57.1901 31.5736L57.1901 31.5736L57.5296 31.7851ZM62.5598 32.0373H62.9598V31.9442L62.9187 31.8607L62.5598 32.0373ZM62.5598 32.0379H62.1598V32.1309L62.2008 32.2144L62.5598 32.0379ZM68.0919 43.2928L67.7329 43.4693L67.8428 43.6928H68.0919V43.2928ZM73.763 49.3997V48.9997H73.4442L73.373 49.3104L73.763 49.3997ZM70.4979 63.6688L70.108 63.5795L70.108 63.5797L70.4979 63.6688ZM74.8498 44.6015H75.2498V44.2015L74.8498 44.2015L74.8498 44.6015ZM67.7064 44.6016L67.7064 44.2014L67.6933 44.2019L67.7064 44.6016ZM74.8498 48.091V48.491H75.2498V48.091H74.8498ZM73.272 48.091L73.2582 48.491H73.272V48.091ZM73.2563 48.0905L73.2701 47.6906L73.2607 47.6905L73.2563 48.0905ZM73.2417 48.0903L73.2461 47.6903H73.2417V48.0903ZM37.7745 48.091V48.491H37.7837L37.793 48.4906L37.7745 48.091ZM36.1978 48.091H35.7978V48.491H36.1978V48.091ZM36.1978 44.6021L36.1978 44.2021L35.7978 44.2021V44.6021H36.1978ZM43.3502 44.602L43.3536 44.202H43.3502L43.3502 44.602ZM43.3617 44.6021L43.3582 45.0021H43.3617V44.6021ZM48.3229 44.6021L48.6716 44.406L48.5569 44.2021H48.3229V44.6021ZM48.323 44.6022L47.9744 44.7983L48.0891 45.0022H48.323V44.6022ZM48.3429 44.6019L48.3429 44.2018L48.3306 44.2021L48.3429 44.6019ZM62.7011 44.6017L62.7151 44.2017H62.7011L62.7011 44.6017ZM67.6846 44.6021V45.0021H67.895L68.0142 44.8287L67.6846 44.6021ZM67.6847 44.602V44.202H67.4743L67.3551 44.3754L67.6847 44.602ZM61.3857 32.6147L61.7447 32.4382L60.9857 32.6147H61.3857ZM66.6343 43.2928V43.6928H67.2766L66.9933 43.1164L66.6343 43.2928ZM61.3857 32.6152L61.0269 32.7919L61.7857 32.6152H61.3857ZM58.6408 32.4776L58.9802 32.6894L58.9804 32.6891L58.6408 32.4776ZM58.5643 34.0022L58.2052 34.1785L58.2053 34.1787L58.5643 34.0022ZM63.1313 43.2928L62.7723 43.4693L62.8822 43.6928H63.1313V43.2928ZM47.9156 43.2928V43.6928H48.1647L48.2746 43.4693L47.9156 43.2928ZM44.412 43.2928L44.053 43.1164L43.7697 43.6928H44.412V43.2928ZM52.4826 34.0015L52.8416 34.178L52.8417 34.1778L52.4826 34.0015ZM52.4061 32.4769L52.0665 32.6884L52.0667 32.6887L52.4061 32.4769ZM49.6612 32.6145H49.2612L50.0201 32.7911L49.6612 32.6145ZM49.6612 32.614H50.0612L49.3022 32.4375L49.6612 32.614ZM69.2226 63.3775L69.6125 63.467L69.6126 63.4667L69.2226 63.3775ZM72.4202 49.3996L72.8102 49.4888L72.9221 48.9996H72.4202V49.3996ZM41.8237 63.3775L42.2137 63.2883L42.2137 63.2883L41.8237 63.3775ZM38.6262 49.3996V48.9996H38.1243L38.2362 49.4888L38.6262 49.3996ZM89.9707 10.6C89.4313 10.6022 88.9955 11.0413 88.9977 11.5808L89.7977 11.5776C89.7973 11.48 89.8762 11.4004 89.974 11.4L89.9707 10.6ZM94.7255 10.6L89.9724 10.6V11.4L94.7255 11.4V10.6ZM95.4186 10.8861C95.2343 10.7019 94.9841 10.5991 94.7241 10.6L94.7268 11.4C94.7743 11.3998 94.8198 11.4187 94.853 11.4518L95.4186 10.8861ZM95.7047 11.5806C95.7056 11.3205 95.6029 11.0703 95.4186 10.8861L94.8529 11.4518C94.8861 11.4849 94.9049 11.5304 94.9047 11.5779L95.7047 11.5806ZM95.7047 14.5425V11.5792H94.9047V14.5425H95.7047ZM99.4042 15.817C98.1649 15.0492 96.8171 14.4866 95.3961 14.1531L95.2133 14.9319C96.5485 15.2453 97.816 15.7741 98.9829 16.497L99.4042 15.817ZM101.01 13.774L98.9107 15.8742L99.4765 16.4398L101.576 14.3396L101.01 13.774ZM101.702 13.4868C101.442 13.4868 101.193 13.5905 101.01 13.7746L101.577 14.339C101.61 14.3057 101.655 14.2868 101.702 14.2868V13.4868ZM102.394 13.7743C102.211 13.5907 101.962 13.4868 101.702 13.4868V14.2868C101.749 14.2868 101.794 14.3055 101.828 14.3393L102.394 13.7743ZM105.75 17.1343L102.394 13.7741L101.828 14.3394L105.184 17.6996L105.75 17.1343ZM105.751 18.5123C106.129 18.1315 106.129 17.5158 105.751 17.1349L105.183 17.699C105.252 17.7678 105.252 17.8794 105.183 17.9482L105.751 18.5123ZM103.65 20.6133L105.75 18.5131L105.184 17.9475L103.085 20.0477L103.65 20.6133ZM105.371 24.1312C105.037 22.7092 104.477 21.3606 103.708 20.1198L103.028 20.5413C103.751 21.7089 104.278 22.977 104.592 24.3138L105.371 24.1312ZM107.95 23.8225H104.981V24.6225H107.95V23.8225ZM108.925 24.7955C108.923 24.2584 108.488 23.8234 107.95 23.8225L107.949 24.6225C108.046 24.6227 108.125 24.7011 108.125 24.7987L108.925 24.7955ZM108.925 29.5498V24.7971H108.125V29.5498H108.925ZM107.951 30.5244C108.488 30.523 108.923 30.0887 108.925 29.5514L108.125 29.5481C108.125 29.6454 108.046 29.7241 107.949 29.7244L107.951 30.5244ZM107.55 30.1241V30.1244H108.35V30.1241H107.55ZM104.986 30.5241H107.95V29.7241H104.986V30.5241ZM103.711 34.2278C104.48 32.9869 105.042 31.6378 105.375 30.2153L104.596 30.0329C104.283 31.3697 103.755 32.6383 103.031 33.8064L103.711 34.2278ZM105.75 35.8338L103.654 33.7345L103.088 34.2997L105.184 36.399L105.75 35.8338ZM105.751 37.2119C106.129 36.8308 106.129 36.2156 105.751 35.8345L105.183 36.3983C105.252 36.4674 105.252 36.579 105.183 36.6481L105.751 37.2119ZM102.394 40.5726L105.75 37.2126L105.184 36.6473L101.828 40.0072L102.394 40.5726ZM101.702 40.8599C101.962 40.8599 102.211 40.7565 102.395 40.5721L101.828 40.0077C101.794 40.0412 101.749 40.0599 101.702 40.0599V40.8599ZM101.009 40.5717C101.193 40.7567 101.443 40.8599 101.702 40.8599V40.0599C101.655 40.0599 101.61 40.041 101.577 40.008L101.009 40.5717ZM98.9065 38.4691L101.01 40.5727L101.576 40.007L99.4721 37.9034L98.9065 38.4691ZM98.2228 39.1769C98.6248 38.9802 99.0175 38.7631 99.3999 38.5264L98.9787 37.8462C98.6188 38.0691 98.2492 38.2733 97.8711 38.4583L98.2228 39.1769ZM98.447 82.3826V38.8176H97.647V82.3826H98.447ZM94.0135 86.8161C96.4585 86.8161 98.447 84.8276 98.447 82.3826H97.647C97.647 84.3858 96.0167 86.0161 94.0135 86.0161V86.8161ZM94.0126 86.8161H94.0135V86.0161H94.0126V86.8161ZM63.0653 86.8161H94.0126V86.0161H63.0653V86.8161ZM62.6654 86.4223C62.6785 87.2578 62.7757 88.8208 63.2592 90.4521C63.7417 92.08 64.6222 93.82 66.2335 94.9491L66.6926 94.294C65.2877 93.3094 64.4821 91.763 64.0262 90.2248C63.5713 88.69 63.4778 87.207 63.4653 86.4098L62.6654 86.4223ZM66.4631 95.0215H70.5808V94.2215H66.4631V95.0215ZM70.5808 95.0215C70.9685 95.0215 71.2848 95.3378 71.2848 95.7255H72.0848C72.0848 94.896 71.4104 94.2215 70.5808 94.2215V95.0215ZM71.2848 95.7255V99.896H72.0848V95.7255H71.2848ZM71.2848 99.896C71.2848 100.284 70.9685 100.6 70.5808 100.6V101.4C71.4104 101.4 72.0848 100.726 72.0848 99.896H71.2848ZM70.5808 100.6H40.4653V101.4H70.5808V100.6ZM40.4653 100.6C40.0775 100.6 39.7613 100.284 39.7613 99.896H38.9613C38.9613 100.726 39.6357 101.4 40.4653 101.4V100.6ZM39.7613 99.896V95.7255H38.9613V99.896H39.7613ZM39.7613 95.7255C39.7613 95.3378 40.0775 95.0215 40.4653 95.0215V94.2215C39.6357 94.2215 38.9613 94.896 38.9613 95.7255H39.7613ZM40.4653 95.0215H44.5837V94.2215H40.4653V95.0215ZM44.8132 94.9492C46.4285 93.8178 47.3101 92.0777 47.7924 90.4499C48.2757 88.8189 48.3713 87.257 48.3832 86.4218L47.5833 86.4104C47.572 87.2069 47.48 88.6885 47.0254 90.2227C46.5699 91.7601 45.7634 93.3069 44.3543 94.2939L44.8132 94.9492ZM17.0335 86.8161H47.9833V86.0161H17.0335V86.8161ZM12.6 82.3826C12.6 84.8276 14.5884 86.8161 17.0335 86.8161V86.0161C15.0303 86.0161 13.4 84.3858 13.4 82.3826H12.6ZM12.6 26.1199V82.3826H13.4V26.1199H12.6ZM17.0335 21.6864C14.5884 21.6864 12.6 23.6748 12.6 26.1199H13.4C13.4 24.1167 15.0303 22.4864 17.0335 22.4864V21.6864ZM80.4153 21.6864H17.0335V22.4864H80.4153V21.6864ZM80.9902 20.1199C80.6306 20.7004 80.3154 21.3044 80.0477 21.9287L80.7829 22.2441C81.0347 21.657 81.3313 21.0884 81.6703 20.5413L80.9902 20.1199ZM78.9481 18.5131L81.0473 20.6134L81.6132 20.0478L79.514 17.9476L78.9481 18.5131ZM78.9476 17.1348C78.5684 17.5157 78.5684 18.1317 78.9476 18.5126L79.5145 17.9481C79.4461 17.8794 79.4461 17.768 79.5145 17.6992L78.9476 17.1348ZM82.3085 13.774L78.9482 17.1342L79.5139 17.6999L82.8742 14.3397L82.3085 13.774ZM83.0004 13.4869C82.7401 13.4869 82.4913 13.5908 82.3082 13.7743L82.8745 14.3394C82.9082 14.3056 82.9536 14.2869 83.0004 14.2869V13.4869ZM83.6929 13.7747C83.5097 13.5906 83.2603 13.4869 83.0004 13.4869V14.2869C83.0474 14.2869 83.0927 14.3057 83.1259 14.339L83.6929 13.7747ZM85.7917 15.8743L83.6923 13.7741L83.1265 14.3396L85.226 16.4399L85.7917 15.8743ZM89.3062 14.1621C87.889 14.495 86.5376 15.0497 85.2983 15.817L85.7194 16.4972C86.8838 15.7763 88.1546 15.2544 89.4892 14.9409L89.3062 14.1621ZM88.9977 11.5792V14.5515H89.7977V11.5792H88.9977ZM17.0335 23.7952H79.9356V22.9952H17.0335V23.7952ZM14.7088 26.1199C14.7088 24.8382 15.7517 23.7952 17.0335 23.7952V22.9952C15.3099 22.9952 13.9088 24.3964 13.9088 26.1199H14.7088ZM14.7088 73.1143V26.1199H13.9088V73.1143H14.7088ZM14.3088 73.5143H96.7387V72.7143H14.3088V73.5143ZM96.3383 39.3716L96.3387 73.1143L97.1387 73.1143L97.1383 39.3716L96.3383 39.3716ZM95.3963 40.1859C95.8984 40.068 96.3914 39.9217 96.8739 39.7479L96.6027 38.9953C96.1492 39.1586 95.6856 39.2962 95.2134 39.4071L95.3963 40.1859ZM95.7049 42.7688V39.7965H94.9049V42.7688H95.7049ZM95.4187 43.4619C95.603 43.2776 95.7057 43.0274 95.7049 42.7674L94.9049 42.7701C94.905 42.8176 94.8862 42.8631 94.8531 42.8962L95.4187 43.4619ZM94.7242 43.748C94.9842 43.7488 95.2345 43.6461 95.4187 43.4619L94.8531 42.8962C94.8199 42.9293 94.7745 42.9481 94.7269 42.948L94.7242 43.748ZM89.9724 43.748H94.7256V42.948H89.9724V43.748ZM88.9977 42.7672C88.9955 43.3067 89.4313 43.7458 89.9707 43.748L89.974 42.948C89.8762 42.9476 89.7973 42.868 89.7977 42.7704L88.9977 42.7672ZM88.9977 39.8042V42.7688H89.7977V39.8042H88.9977ZM85.2935 38.5353C86.5337 39.3038 87.887 39.8606 89.3064 40.1936L89.4891 39.4147C88.1529 39.1013 86.8804 38.5775 85.7149 37.8553L85.2935 38.5353ZM83.6922 40.5728L85.7871 38.4782L85.2214 37.9125L83.1265 40.0071L83.6922 40.5728ZM83.0004 40.8599C83.2599 40.8599 83.5096 40.7567 83.6932 40.5718L83.1255 40.0081C83.0928 40.0411 83.0478 40.0599 83.0004 40.0599V40.8599ZM82.3078 40.5721C82.4914 40.7565 82.7405 40.8599 83.0004 40.8599V40.0599C82.9532 40.0599 82.9081 40.0412 82.8748 40.0078L82.3078 40.5721ZM78.9482 37.2129L82.3085 40.5728L82.8742 40.0071L79.5139 36.6472L78.9482 37.2129ZM78.9474 35.8344C78.5684 36.2155 78.5684 36.831 78.9474 37.2121L79.5147 36.648C79.446 36.5789 79.446 36.4676 79.5147 36.3985L78.9474 35.8344ZM81.052 33.73L78.9482 35.8336L79.5139 36.3993L81.6177 34.2957L81.052 33.73ZM79.3317 30.2158C79.665 31.6367 80.227 32.984 80.9948 34.2235L81.6749 33.8022C80.9519 32.6352 80.4238 31.3683 80.1106 30.0331L79.3317 30.2158ZM76.7519 30.5244H79.7212V29.7244H76.7519V30.5244ZM75.7773 29.5515C75.7794 30.0879 76.2139 30.5222 76.7503 30.5244L76.7535 29.7244C76.6563 29.724 76.5776 29.6453 76.5773 29.5482L75.7773 29.5515ZM75.7773 24.7971V29.5499H76.5773V24.7971H75.7773ZM76.7503 23.8226C76.2138 23.8248 75.7794 24.2591 75.7773 24.7955L76.5773 24.7988C76.5776 24.7017 76.6563 24.623 76.7535 24.6226L76.7503 23.8226ZM79.7122 23.8226H76.7519V24.6226H79.7122V23.8226ZM79.5531 23.2781C79.467 23.5592 79.3902 23.8437 79.3228 24.1313L80.1016 24.3139C80.165 24.0437 80.2372 23.7765 80.3181 23.5123L79.5531 23.2781ZM96.7387 74.023H14.3088V74.823H96.7387V74.023ZM14.7088 82.3826V74.423H13.9088V82.3826H14.7088ZM17.0335 84.7073C15.7518 84.7073 14.7088 83.6638 14.7088 82.3826H13.9088C13.9088 84.1055 15.3099 85.5073 17.0335 85.5073V84.7073ZM94.0141 84.7073H17.0335V85.5073H94.0141V84.7073ZM96.3388 82.3826C96.3388 83.6637 95.2958 84.7073 94.0141 84.7073V85.5073C95.7377 85.5073 97.1388 84.1055 97.1388 82.3826H96.3388ZM96.3387 74.423L96.3388 82.3826L97.1388 82.3826L97.1387 74.423L96.3387 74.423ZM48.8945 86.4124C48.88 87.9992 48.5789 91.8299 46.2614 94.3508L46.8504 94.8922C49.386 92.1339 49.6797 88.0285 49.6945 86.4197L48.8945 86.4124ZM46.5559 95.0215H64.4918V94.2215H46.5559V95.0215ZM64.7862 94.3508C62.4687 91.8299 62.1676 87.9993 62.153 86.4124L61.3531 86.4197C61.3678 88.0286 61.6616 92.134 64.1973 94.8922L64.7862 94.3508ZM49.2945 86.8161H61.7531V86.0161H49.2945V86.8161ZM90.5516 12.5538H94.1509V11.7538H90.5516V12.5538ZM90.9514 14.9221L90.9516 12.1538L90.1516 12.1538L90.1514 14.9221L90.9514 14.9221ZM90.1579 15.8808C90.6177 15.7927 90.9506 15.3912 90.9514 14.9228L90.1514 14.9213C90.1513 15.0062 90.091 15.079 90.0074 15.095L90.1579 15.8808ZM85.9118 17.638C87.1953 16.7716 88.6382 16.1753 90.1588 15.8806L90.0065 15.0952C88.3807 15.4103 86.8373 16.0481 85.4642 16.9749L85.9118 17.638ZM84.6732 17.5221C85.0056 17.8531 85.5263 17.901 85.9135 17.6368L85.4625 16.976C85.3923 17.0239 85.2979 17.0152 85.2377 16.9553L84.6732 17.5221ZM82.7171 15.5618L84.6723 17.5212L85.2386 16.9561L83.2834 14.9967L82.7171 15.5618ZM80.7408 18.1041L83.2831 15.5621L82.7174 14.9964L80.1752 17.5384L80.7408 18.1041ZM82.6918 19.4937L80.7412 17.5387L80.1749 18.1038L82.1254 20.0588L82.6918 19.4937ZM82.8077 20.7294C83.0688 20.3432 83.021 19.8264 82.6929 19.4949L82.1243 20.0576C82.1836 20.1176 82.1924 20.2112 82.145 20.2813L82.8077 20.7294ZM81.0457 24.9847C81.3407 23.4628 81.9404 22.0137 82.8078 20.7292L82.1449 20.2815C81.217 21.6554 80.5758 23.2051 80.2603 24.8325L81.0457 24.9847ZM80.0878 25.7729C80.5534 25.7725 80.9541 25.4438 81.0453 24.9868L80.2607 24.8303C80.2442 24.9132 80.1716 24.9729 80.087 24.9729L80.0878 25.7729ZM77.3275 25.7729H80.0874V24.9729H77.3275V25.7729ZM77.7275 28.9705V25.3729H76.9275V28.9705H77.7275ZM80.0954 28.5705H77.3275V29.3705H80.0954V28.5705ZM81.055 29.3641C80.9669 28.9038 80.5645 28.5705 80.0954 28.5705V29.3705C80.1802 29.3705 80.2532 29.4308 80.2692 29.5144L81.055 29.3641ZM82.8124 33.6144C81.9464 32.331 81.3498 30.8839 81.0548 29.3631L80.2694 29.5154C80.5848 31.1409 81.2225 32.6885 82.1492 34.0619L82.8124 33.6144ZM82.6958 34.8492C83.0248 34.518 83.0731 34.0007 82.8124 33.6143L82.1493 34.0619C82.1966 34.132 82.1876 34.2256 82.1283 34.2853L82.6958 34.8492ZM82.012 34.567V34.5672H82.812V34.567H82.012ZM80.736 36.8039L82.6945 34.8502L82.1295 34.2838L80.171 36.2375L80.736 36.8039ZM83.2832 38.7845L80.7363 36.2379L80.1706 36.8036L82.7175 39.3502L83.2832 38.7845ZM84.6678 36.831L82.7173 38.7847L83.2834 39.3499L85.234 37.3962L84.6678 36.831ZM85.9085 36.7141C85.5208 36.4503 85.0001 36.4991 84.6683 36.8305L85.2336 37.3966C85.2937 37.3366 85.3881 37.3277 85.4584 37.3755L85.9085 36.7141ZM90.1589 38.4752C88.6371 38.1803 87.1924 37.5808 85.9072 36.7133L85.4596 37.3763C86.8337 38.3039 88.3788 38.9452 90.0067 39.2606L90.1589 38.4752ZM90.9516 39.4348C90.9516 38.9656 90.6183 38.5631 90.1579 38.4751L90.0076 39.2608C90.0913 39.2768 90.1516 39.3498 90.1516 39.4348H90.9516ZM90.9516 42.1941V39.4348H90.1516V42.1941H90.9516ZM94.1509 41.7941H90.5516V42.5941H94.1509V41.7941ZM93.7509 39.4258V42.1941H94.5509V39.4258H93.7509ZM94.5369 38.4667C94.0793 38.5578 93.75 38.9599 93.7509 39.4266L94.5509 39.4251C94.5507 39.3406 94.6104 39.2678 94.6932 39.2513L94.5369 38.4667ZM98.7906 36.7089C97.5071 37.5751 96.0598 38.1715 94.5389 38.4663L94.6911 39.2517C96.3168 38.9366 97.8646 38.2989 99.2381 37.372L98.7906 36.7089ZM100.024 36.8249C99.6931 36.4976 99.1776 36.4486 98.7911 36.7085L99.2376 37.3724C99.3076 37.3253 99.401 37.334 99.4612 37.3936L100.024 36.8249ZM99.3425 37.109V37.1092H100.143V37.109H99.3425ZM101.985 38.7808L100.025 36.8258L99.46 37.3921L101.42 39.3471L101.985 38.7808ZM103.962 36.2382L101.419 38.7812L101.985 39.3468L104.527 36.8038L103.962 36.2382ZM102.011 34.8535L103.962 36.8039L104.527 36.2381L102.577 34.2878L102.011 34.8535ZM101.89 33.6144C101.628 34.0034 101.679 34.5242 102.012 34.8548L102.575 34.2865C102.515 34.2266 102.506 34.1325 102.553 34.062L101.89 33.6144ZM102.221 34.2382H102.222V33.4382H102.221V34.2382ZM103.652 29.3632C103.357 30.8848 102.758 32.3294 101.89 33.6144L102.553 34.062C103.481 32.6882 104.122 31.1432 104.437 29.5155L103.652 29.3632ZM104.61 28.5706C104.142 28.5715 103.74 28.9042 103.652 29.3641L104.438 29.5146C104.454 29.431 104.526 29.3708 104.611 29.3706L104.61 28.5706ZM107.37 28.5706H104.611V29.3706H107.37V28.5706ZM106.97 25.373V28.9706H107.77V25.373H106.97ZM104.606 25.773H107.37V24.973H104.606V25.773ZM103.648 24.9869C103.739 25.4438 104.14 25.7726 104.606 25.773L104.606 24.973C104.522 24.9729 104.449 24.9133 104.433 24.8304L103.648 24.9869ZM101.886 20.7326C102.752 22.0165 103.353 23.4647 103.648 24.9848L104.433 24.8325C104.118 23.2065 103.475 21.6579 102.549 20.285L101.886 20.7326ZM102.006 19.4979C101.677 19.8272 101.626 20.3431 101.884 20.7305L102.55 20.2871C102.503 20.2166 102.512 20.1231 102.572 20.0636L102.006 19.4979ZM103.961 17.5388L102.006 19.4982L102.572 20.0633L104.528 18.1039L103.961 17.5388ZM101.42 15.5672L103.962 18.1044L104.527 17.5382L101.985 15.0009L101.42 15.5672ZM100.029 17.5176L101.985 15.5672L101.42 15.0008L99.4644 16.9512L100.029 17.5176ZM98.7952 17.6334C99.1809 17.8938 99.6968 17.8458 100.028 17.5191L99.466 16.9497C99.4061 17.0088 99.3126 17.0174 99.2429 16.9704L98.7952 17.6334ZM99.0188 17.7019H99.019V16.9019H99.0188V17.7019ZM94.539 15.8727C96.0612 16.1677 97.5105 16.7662 98.795 17.6334L99.2426 16.9704C97.8684 16.0426 96.3186 15.4027 94.6912 15.0873L94.539 15.8727ZM93.7509 14.9124C93.7501 15.379 94.0794 15.7811 94.5369 15.8723L94.6932 15.0877C94.6104 15.0712 94.5508 14.9984 94.5509 14.9139L93.7509 14.9124ZM93.7509 12.1538V14.9132H94.5509V12.1538H93.7509ZM92.349 18.7082C87.6793 18.7082 83.8827 22.5042 83.8827 27.1736H84.6827C84.6827 22.9461 88.121 19.5082 92.349 19.5082V18.7082ZM100.82 27.1736C100.82 22.504 97.0187 18.7082 92.349 18.7082V19.5082C96.5775 19.5082 100.02 22.9465 100.02 27.1736H100.82ZM92.349 35.6402C97.0186 35.6402 100.82 31.8434 100.82 27.1736H100.02C100.02 31.4011 96.5773 34.8402 92.349 34.8402V35.6402ZM83.8827 27.1736C83.8827 31.8429 87.6791 35.6402 92.349 35.6402V34.8402C88.121 34.8402 84.6827 31.4011 84.6827 27.1736H83.8827ZM92.349 20.662C95.9537 20.662 98.8659 23.5699 98.8659 27.1736H99.6659C99.6659 23.1273 96.3947 19.862 92.349 19.862V20.662ZM92.7485 20.2826L92.7485 20.282L91.9495 20.2421L91.9494 20.2427L92.7485 20.2826ZM85.8636 26.6278C86.1405 23.2815 88.9297 20.6626 92.3489 20.6626V19.8626C88.5096 19.8626 85.3772 22.8046 85.0663 26.5619L85.8636 26.6278ZM91.7655 26.1948H85.465V26.9948H91.7655V26.1948ZM90.0864 25.567L91.4917 26.8865L92.0393 26.3032L90.634 24.9838L90.0864 25.567ZM89.8342 24.5111C89.6963 24.8833 89.7975 25.3019 90.0897 25.5701L90.6306 24.9807C90.5777 24.9321 90.5594 24.8562 90.5843 24.7891L89.8342 24.5111ZM90.7179 23.8741C90.3208 23.8872 89.9719 24.1394 89.8342 24.5111L90.5843 24.7891C90.6094 24.7215 90.6726 24.676 90.7443 24.6736L90.7179 23.8741ZM91.4266 24.1489C91.2376 23.9657 90.9827 23.8666 90.7198 23.874L90.7424 24.6737C90.7896 24.6724 90.8355 24.6902 90.8696 24.7232L91.4266 24.1489ZM93.8455 26.4179L91.4218 24.1444L90.8744 24.7278L93.2982 27.0014L93.8455 26.4179ZM93.8381 26.4108C93.8367 26.4096 93.8257 26.4001 93.8119 26.3897L93.3319 27.0297C93.3266 27.0257 93.3225 27.0224 93.3199 27.0203C93.3176 27.0184 93.316 27.0169 93.317 27.0178L93.8381 26.4108ZM94.2018 27.1949C94.2092 26.884 94.0685 26.5879 93.8219 26.3976L93.3332 27.031C93.3776 27.0653 93.4033 27.1189 93.402 27.1758L94.2018 27.1949ZM94.152 27.4818C94.1832 27.3882 94.1996 27.2911 94.2018 27.1943L93.402 27.1764C93.4016 27.1949 93.3984 27.2127 93.393 27.2288L94.152 27.4818ZM94.0709 27.6612C94.1043 27.6037 94.1309 27.5441 94.1514 27.4834L93.3936 27.2272C93.3894 27.2397 93.3845 27.2501 93.3793 27.2591L94.0709 27.6612ZM94.0366 27.7175C94.0504 27.6966 94.0634 27.6751 94.0755 27.6531L93.3747 27.2672C93.373 27.2704 93.371 27.2736 93.3688 27.2769L94.0366 27.7175ZM94.0191 27.7434C94.0209 27.7407 94.0216 27.7396 94.0254 27.7341C94.0284 27.7298 94.0326 27.7235 94.0373 27.7163L93.368 27.2781C93.3679 27.2784 93.3672 27.2793 93.3653 27.2821C93.3642 27.2838 93.3635 27.2848 93.3619 27.2872C93.3605 27.2892 93.3588 27.2916 93.357 27.2944L94.0191 27.7434ZM93.9792 27.7955C93.9861 27.7869 93.9953 27.7754 94.0046 27.7633L93.3714 27.2744C93.3669 27.2803 93.3618 27.2867 93.3544 27.296L93.9792 27.7955ZM93.9703 27.8062L93.9705 27.8061L93.3631 27.2854L93.3629 27.2856L93.9703 27.8062ZM93.9617 27.8159L93.9623 27.8153L93.371 27.2765L93.3705 27.2771L93.9617 27.8159ZM93.9599 27.8179L93.9621 27.8155L93.3701 27.2775L93.3679 27.2799L93.9599 27.8179ZM93.9597 27.8183L93.965 27.8122L93.3628 27.2855L93.3576 27.2916L93.9597 27.8183ZM93.9235 27.8568C93.9365 27.8438 93.948 27.8312 93.9531 27.8256L93.3642 27.2842C93.3611 27.2876 93.3595 27.2893 93.3582 27.2906C93.3571 27.2919 93.3571 27.2919 93.3578 27.2911L93.9235 27.8568ZM93.8855 27.8927C93.8966 27.8827 93.9098 27.8705 93.9235 27.8568L93.3577 27.2912C93.357 27.2919 93.3548 27.2941 93.3504 27.298L93.8855 27.8927ZM93.8573 27.9178C93.8677 27.909 93.8808 27.8975 93.8949 27.8839L93.341 27.3068C93.3422 27.3056 93.3419 27.3059 93.3384 27.309L93.8573 27.9178ZM91.4218 30.2036L93.8716 27.9051L93.3242 27.3217L90.8744 29.6202L91.4218 30.2036ZM90.7295 30.5012C91.0019 30.4986 91.2607 30.3827 91.4441 30.181L90.8522 29.6428C90.8187 29.6797 90.7715 29.7008 90.7219 29.7012L90.7295 30.5012ZM90.0089 30.1935C90.1955 30.3919 90.4566 30.5034 90.7289 30.5012L90.7225 29.7012C90.6729 29.7016 90.6254 29.6813 90.5915 29.6453L90.0089 30.1935ZM89.7462 29.4546C89.7265 29.7271 89.8223 29.9947 90.0086 30.1932L90.5918 29.6456C90.5576 29.6092 90.5406 29.5606 90.5441 29.5122L89.7462 29.4546ZM90.1105 28.7611C89.8975 28.9314 89.7653 29.1831 89.7461 29.4552L90.5442 29.5115C90.5476 29.4622 90.5716 29.4168 90.6099 29.3861L90.1105 28.7611ZM91.4973 27.457L90.0864 28.7821L90.634 29.3652L92.045 28.0401L91.4973 27.457ZM85.465 28.1483L91.7711 28.1485L91.7712 27.3485L85.465 27.3483L85.465 28.1483ZM92.349 33.6851C88.9279 33.6851 86.138 31.0643 85.8637 27.7156L85.0663 27.7809C85.3744 31.541 88.5076 34.4851 92.349 34.4851V33.6851ZM98.8659 27.1736C98.8659 30.7772 95.9537 33.6851 92.349 33.6851V34.4851C96.3948 34.4851 99.6659 31.2198 99.6659 27.1736H98.8659ZM20.9848 81.1741H27.1995V80.3741H20.9848V81.1741ZM19.9304 80.1198C19.9304 80.7018 20.4018 81.1741 20.9848 81.1741V80.3741C20.8441 80.3741 20.7304 80.2604 20.7304 80.1198H19.9304ZM20.9848 79.0655C20.4018 79.0655 19.9304 79.5378 19.9304 80.1198H20.7304C20.7304 79.9792 20.8441 79.8655 20.9848 79.8655V79.0655ZM27.1995 79.0655H20.9848V79.8655H27.1995V79.0655ZM28.2539 80.1198C28.2539 79.5378 27.7826 79.0655 27.1995 79.0655V79.8655C27.3403 79.8655 27.4539 79.9792 27.4539 80.1198H28.2539ZM27.1995 81.1741C27.7823 81.1741 28.2529 80.7015 28.2539 80.1205L27.4539 80.1191C27.4537 80.2606 27.3393 80.3741 27.1995 80.3741V81.1741ZM40.6688 100.091H70.3758V99.2913H40.6688V100.091ZM40.2688 95.9295V99.6913H41.0688V95.9295H40.2688ZM70.3758 95.5295H40.6688V96.3295H70.3758V95.5295ZM70.7758 99.6913V95.9295H69.9758V99.6913H70.7758ZM43.574 66.4809H67.4718V65.6809H43.574V66.4809ZM40.1579 63.7571C40.5234 65.36 41.9293 66.4809 43.574 66.4809V65.6809C42.3024 65.6809 41.2203 64.8179 40.9379 63.5792L40.1579 63.7571ZM36.8935 49.4889L40.158 63.7574L40.9378 63.5789L37.6734 49.3104L36.8935 49.4889ZM36.1978 49.7997H37.2835V48.9997H36.1978V49.7997ZM34.4891 48.091C34.4891 49.034 35.2556 49.7997 36.1978 49.7997V48.9997C35.6972 48.9997 35.2891 48.5919 35.2891 48.091H34.4891ZM34.4891 44.6015V48.091H35.2891V44.6015H34.4891ZM36.1978 42.8928C35.2555 42.8928 34.4891 43.6592 34.4891 44.6015H35.2891C35.2891 44.101 35.6973 43.6928 36.1978 43.6928V42.8928ZM42.9546 42.8928H36.1978V43.6928H42.9546V42.8928ZM48.1283 31.8616L42.5957 43.1163L43.3136 43.4693L48.8462 32.2145L48.1283 31.8616ZM48.0872 32.0374V32.038H48.8872V32.0374H48.0872ZM51.072 30.0279C49.8131 30.0279 48.6838 30.731 48.1283 31.861L48.8462 32.2139C49.2671 31.3577 50.118 30.8279 51.072 30.8279V30.0279ZM53.8563 31.5738C53.2541 30.6071 52.2122 30.0279 51.072 30.0279V30.8279C51.9358 30.8279 52.721 31.2644 53.1773 31.9968L53.8563 31.5738ZM54.0158 34.7548C54.5187 33.732 54.4592 32.5412 53.8563 31.5737L53.1773 31.9968C53.634 32.7296 53.6788 33.627 53.2979 34.4018L54.0158 34.7548ZM49.7324 43.4693L54.0158 34.7547L53.2978 34.4018L49.0144 43.1164L49.7324 43.4693ZM61.6731 42.8928H49.3734V43.6928H61.6731V42.8928ZM57.0306 34.7546L61.3141 43.4693L62.032 43.1164L57.7486 34.4017L57.0306 34.7546ZM57.1901 31.5736C56.5872 32.5411 56.5277 33.7319 57.0306 34.7547L57.7485 34.4016C57.3675 33.6269 57.4124 32.7295 57.8691 31.9967L57.1901 31.5736ZM59.975 30.0278C58.8348 30.0278 57.7929 30.6063 57.1901 31.5736L57.8691 31.9967C58.3258 31.2638 59.111 30.8278 59.975 30.8278V30.0278ZM62.9187 31.8607C62.3703 30.7464 61.2167 30.0278 59.975 30.0278V30.8278C60.9116 30.8278 61.787 31.3729 62.2009 32.2139L62.9187 31.8607ZM62.9598 32.0379V32.0373H62.1598V32.0379H62.9598ZM68.4508 43.1164L62.9188 31.8615L62.2008 32.2144L67.7329 43.4693L68.4508 43.1164ZM74.8498 42.8928H68.0919V43.6928H74.8498V42.8928ZM76.5585 44.6015C76.5585 43.6585 75.792 42.8928 74.8498 42.8928V43.6928C75.3504 43.6928 75.7585 44.1006 75.7585 44.6015H76.5585ZM76.5585 48.091V44.6015H75.7585V48.091H76.5585ZM74.8498 49.7997C75.792 49.7997 76.5585 49.034 76.5585 48.091H75.7585C75.7585 48.5919 75.3504 48.9997 74.8498 48.9997V49.7997ZM73.763 49.7997H74.8498V48.9997H73.763V49.7997ZM70.8879 63.758L74.1529 49.4889L73.373 49.3104L70.108 63.5795L70.8879 63.758ZM67.4718 66.4809C69.1153 66.4809 70.5218 65.3601 70.8879 63.7578L70.108 63.5797C69.8251 64.8179 68.7423 65.6809 67.4718 65.6809V66.4809ZM74.8498 44.2015L67.7064 44.2016L67.7064 45.0016L74.8498 45.0015L74.8498 44.2015ZM75.2498 48.091V44.6015H74.4498V48.091H75.2498ZM73.272 48.491H74.8498V47.691H73.272V48.491ZM73.2426 48.4902L73.2582 48.4908L73.2857 47.6912L73.2701 47.6907L73.2426 48.4902ZM73.2373 48.4903L73.252 48.4904L73.2607 47.6905L73.2461 47.6903L73.2373 48.4903ZM37.8047 48.4903H73.2417V47.6903H37.8047V48.4903ZM37.793 48.4906C37.7968 48.4904 37.8007 48.4903 37.8047 48.4903V47.6903C37.7885 47.6903 37.7722 47.6907 37.756 47.6914L37.793 48.4906ZM36.1978 48.491H37.7745V47.691H36.1978V48.491ZM35.7978 44.6021V48.091H36.5978V44.6021H35.7978ZM43.3502 44.202L36.1978 44.2021L36.1978 45.0021L43.3502 45.002L43.3502 44.202ZM43.3651 44.2021L43.3536 44.202L43.3467 45.002L43.3582 45.0021L43.3651 44.2021ZM48.3229 44.2021H43.3617V45.0021H48.3229V44.2021ZM48.6716 44.4061L48.6716 44.406L47.9743 44.7982L47.9744 44.7983L48.6716 44.4061ZM48.3306 44.2021C48.3282 44.2022 48.3257 44.2022 48.323 44.2022V45.0022C48.3336 45.0022 48.3443 45.0021 48.3551 45.0018L48.3306 44.2021ZM62.7011 44.2017L48.3429 44.2019L48.3429 45.0019L62.7011 45.0017L62.7011 44.2017ZM62.724 44.2021C62.721 44.2021 62.718 44.2021 62.7151 44.202L62.6871 45.0015C62.6994 45.0019 62.7117 45.0021 62.724 45.0021V44.2021ZM67.6846 44.2021H62.724V45.0021H67.6846V44.2021ZM67.3551 44.3754L67.355 44.3755L68.0142 44.8287L68.0143 44.8286L67.3551 44.3754ZM67.6933 44.2019C67.6903 44.2019 67.6875 44.202 67.6847 44.202V45.002C67.6965 45.002 67.7081 45.0018 67.7195 45.0014L67.6933 44.2019ZM61.0268 32.7911L66.2753 43.4693L66.9933 43.1164L61.7447 32.4382L61.0268 32.7911ZM61.7857 32.6152V32.6147H60.9857V32.6152H61.7857ZM59.975 32.1367C60.4173 32.1367 60.8312 32.3945 61.0269 32.7919L61.7446 32.4386C61.4146 31.7682 60.7227 31.3367 59.975 31.3367V32.1367ZM58.9804 32.6891C59.1963 32.3423 59.5663 32.1367 59.975 32.1367V31.3367C59.2898 31.3367 58.6632 31.6851 58.3013 32.2661L58.9804 32.6891ZM58.9234 33.8259C58.7432 33.4589 58.7642 33.0355 58.9802 32.6894L58.3015 32.2658C57.9385 32.8475 57.9037 33.5644 58.2052 34.1785L58.9234 33.8259ZM63.4903 43.1164L58.9233 33.8258L58.2053 34.1787L62.7723 43.4693L63.4903 43.1164ZM66.6343 42.8928H63.1313V43.6928H66.6343V42.8928ZM47.9156 42.8928H44.412V43.6928H47.9156V42.8928ZM52.1236 33.8251L47.5566 43.1164L48.2746 43.4693L52.8416 34.178L52.1236 33.8251ZM52.0667 32.6887C52.2827 33.0348 52.3037 33.4582 52.1235 33.8252L52.8417 34.1778C53.1432 33.5636 53.1084 32.8468 52.7454 32.2651L52.0667 32.6887ZM51.0719 32.136C51.4806 32.136 51.8506 32.3416 52.0665 32.6884L52.7456 32.2655C52.3837 31.6844 51.7571 31.336 51.0719 31.336V32.136ZM50.0201 32.7911C50.2193 32.3861 50.6206 32.136 51.0719 32.136V31.336C50.3153 31.336 49.6358 31.7598 49.3022 32.438L50.0201 32.7911ZM49.2612 32.614V32.6145H50.0612V32.614H49.2612ZM44.771 43.4693L50.0201 32.7904L49.3022 32.4375L44.053 43.1164L44.771 43.4693ZM69.6126 63.4667L72.8102 49.4888L72.0303 49.3104L68.8327 63.2883L69.6126 63.4667ZM67.4714 65.1733C68.5006 65.1733 69.3822 64.47 69.6125 63.467L68.8328 63.288C68.6858 63.9282 68.1271 64.3733 67.4714 64.3733V65.1733ZM43.5749 65.1733H67.4714V64.3733H43.5749V65.1733ZM41.4338 63.4667C41.6635 64.4707 42.5448 65.1733 43.5749 65.1733V64.3733C42.918 64.3733 42.3601 63.9287 42.2137 63.2883L41.4338 63.4667ZM38.2362 49.4888L41.4338 63.4667L42.2137 63.2883L39.0161 49.3104L38.2362 49.4888ZM72.4202 48.9996H38.6262V49.7996H72.4202V48.9996ZM61.3529 61.2866C61.3529 61.8686 61.8242 62.3409 62.4072 62.3409V61.5409C62.2665 61.5409 62.1529 61.4272 62.1529 61.2866H61.3529ZM61.3529 52.8869V61.2866H62.1529V52.8869H61.3529ZM62.4072 51.8326C61.8242 51.8326 61.3529 52.3049 61.3529 52.8869H62.1529C62.1529 52.7463 62.2665 52.6326 62.4072 52.6326V51.8326ZM63.4616 52.8869C63.4616 52.3049 62.9903 51.8326 62.4072 51.8326V52.6326C62.548 52.6326 62.6616 52.7463 62.6616 52.8869H63.4616ZM63.4616 61.2866V52.8869H62.6616V61.2866H63.4616ZM62.4072 62.3409C62.9894 62.3409 63.4616 61.8688 63.4616 61.2866H62.6616C62.6616 61.427 62.5476 61.5409 62.4072 61.5409V62.3409ZM55.523 61.5409C55.3823 61.5409 55.2687 61.4272 55.2687 61.2866H54.4686C54.4686 61.8686 54.94 62.3409 55.523 62.3409V61.5409ZM55.7773 61.2866C55.7773 61.4272 55.6637 61.5409 55.523 61.5409V62.3409C56.106 62.3409 56.5773 61.8686 56.5773 61.2866H55.7773ZM55.7773 52.8869V61.2866H56.5773V52.8869H55.7773ZM55.523 52.6326C55.6637 52.6326 55.7773 52.7463 55.7773 52.8869H56.5773C56.5773 52.3049 56.106 51.8326 55.523 51.8326V52.6326ZM55.2687 52.8869C55.2687 52.7463 55.3823 52.6326 55.523 52.6326V51.8326C54.94 51.8326 54.4686 52.3049 54.4686 52.8869H55.2687ZM55.2687 61.2866V52.8869H54.4686V61.2866H55.2687ZM47.5845 61.2866C47.5845 61.8686 48.0558 62.3409 48.6388 62.3409V61.5409C48.4981 61.5409 48.3845 61.4272 48.3845 61.2866H47.5845ZM47.5845 52.8869V61.2866H48.3845V52.8869H47.5845ZM48.6388 51.8326C48.0558 51.8326 47.5845 52.3049 47.5845 52.8869H48.3845C48.3845 52.7463 48.4981 52.6326 48.6388 52.6326V51.8326ZM49.6931 52.8869C49.6931 52.3049 49.2218 51.8326 48.6388 51.8326V52.6326C48.7795 52.6326 48.8931 52.7463 48.8931 52.8869H49.6931ZM49.6931 61.2866V52.8869H48.8931V61.2866H49.6931ZM48.6388 62.3409C49.2218 62.3409 49.6931 61.8686 49.6931 61.2866H48.8931C48.8931 61.4272 48.7795 61.5409 48.6388 61.5409V62.3409Z" fill="url(#paint1_linear_27_302)" mask="url(#path-4-outside-1_27_302)"/>
<defs>
<linearGradient id="paint0_linear_27_302" x1="15.2727" y1="26.4545" x2="60.7626" y2="101" gradientUnits="userSpaceOnUse">
<stop stop-color="#7BBFFF"/>
<stop offset="1" stop-color="#62D7FF"/>
</linearGradient>
<linearGradient id="paint1_linear_27_302" x1="14.8182" y1="24.1818" x2="60.7626" y2="101" gradientUnits="userSpaceOnUse">
<stop stop-color="#7BBFFF"/>
<stop offset="1" stop-color="#62D7FF"/>
</linearGradient>
</defs>
</svg>
